<?xml version="1.0" standalone="no"?><!DOCTYPE svg PUBLIC "-//W3C//DTD SVG 1.1//EN" "http://www.w3.org/Graphics/SVG/1.1/DTD/svg11.dtd"><svg width="100%" height="100%" viewBox="0 0 417 417" version="1.1" xmlns="http://www.w3.org/2000/svg" xmlns:xlink="http://www.w3.org/1999/xlink" xml:space="preserve" style="fill-rule:evenodd;clip-rule:evenodd;stroke-linejoin:round;stroke-miterlimit:1.41421;"><g id="Icon"><path id="Shape" d="M262.53,108.507l-30.474,20.338l-31.393,-47.046l30.474,-20.339l31.393,47.047Z" style="fill:#000;"/><path id="Shape1" d="M287.305,249.844l52.067,78.023l-62.024,41.391l-52.067,-78.024l-9.084,-13.61l62.026,-41.391l9.082,13.611Z" style="fill:#000;"/><path id="Shape2" d="M209.184,301.976l11.464,17.178l-47.211,31.505l-20.547,-30.79l10.314,-6.882l36.897,-24.623l9.083,13.612Z" style="fill:#000;"/><path d="M295.863,224.461l17.235,-11.502l13.242,-8.837l20.546,30.789l-30.477,20.339l-11.463,-17.178l-9.083,-13.611Z" style="fill:#000;"/><path d="M126.907,178.682l9.389,14.07l-36.898,24.621l-10.312,6.883l-31.396,-47.047l47.21,-31.505l22.007,32.978Z" style="fill:#000;"/><path id="Shape3" d="M205.029,126.549l9.388,14.07l-62.025,41.391l-9.389,-14.069l-51.58,-77.293l62.026,-41.391l51.58,77.292Z" style="fill:#000;"/><path id="Shape4" d="M249.293,117.346l-17.235,11.501l-9.39,-14.069l-22.006,-32.977l30.477,-20.339l31.396,47.046l-13.242,8.838Z" style="fill:#000;"/><path id="Rectangle-path" d="M93.513,132.85l-11.707,-17.543l-17.543,11.707l11.707,17.544l17.543,-11.708Z" style="fill:#000;"/><path id="Rectangle-path1" d="M156.736,343.164l-11.707,-17.544l-17.544,11.707l11.708,17.544l17.543,-11.707Z" style="fill:#000;"/><path id="Shape5" d="M98.877,343.288l-51.362,-77.592l274.484,-183.587l53.858,76.354l-276.98,184.825Z" style="fill:#000;"/></g></svg>