<?xml version="1.0" standalone="no"?><!DOCTYPE svg PUBLIC "-//W3C//DTD SVG 1.1//EN" "http://www.w3.org/Graphics/SVG/1.1/DTD/svg11.dtd"><svg width="100%" height="100%" viewBox="0 0 2500 2500" version="1.1" xmlns="http://www.w3.org/2000/svg" xmlns:xlink="http://www.w3.org/1999/xlink" xml:space="preserve" style="fill-rule:evenodd;clip-rule:evenodd;stroke-linejoin:round;stroke-miterlimit:1.41421;"><path d="M716.678,1286.86c-16.786,39.244 -53.415,79.689 -109.888,121.119c-27.441,17.429 -67.862,46.725 -121.633,88.258c-10.383,8.158 -29.667,14.463 -57.108,18.542l0.371,2.966l3.337,-0.37l14.092,-4.08l0.371,2.967c-19.284,16.317 -48.209,25.958 -85.663,29.296c-37.454,20.025 -91.225,40.421 -162.054,61.187c-12.608,25.959 -31.15,52.659 -55.254,79.729l-5.562,0.371l-0.371,-2.596c7.046,-21.879 13.35,-36.341 19.654,-43.387c7.046,-11.496 10.012,-20.025 9.641,-25.588l-0.37,-5.562c-3.709,0.371 -5.934,-0.371 -5.934,-2.225l-5.933,3.337l-5.562,0.371l-0.371,-5.562l-3.338,0.371c-4.079,3.708 -13.721,7.045 -28.554,10.754c-1.854,-3.338 -3.337,-6.304 -3.337,-8.159c60.445,-100.866 135.354,-255.874 225.095,-465.766c39.308,-90.483 58.592,-139.062 57.85,-146.479c-2.225,-3.337 -3.708,-6.675 -4.079,-10.754c2.967,-0.371 8.529,-6.304 16.317,-18.171l-0.371,-5.562c-42.646,14.462 -85.663,37.454 -129.05,69.716l-5.933,0.371c0,-2.966 -4.08,-5.191 -12.238,-7.416c-16.317,10.012 -30.779,22.25 -44.129,36.712l-7.046,-10.383c3.708,-1.854 6.675,-3.338 8.529,-3.338l-0.741,-8.158c-1.855,0 -8.159,5.192 -19.284,15.204l-3.337,-5.192c12.608,-17.8 25.587,-27.441 38.566,-28.554c3.709,1.484 6.675,1.854 8.9,1.854l-6.675,-7.416l-0.37,-2.967c5.933,-0.371 8.529,-1.483 8.529,-3.337l6.304,2.225l2.967,-0.371l-3.338,-5.192c40.421,-28.554 60.817,-44.5 60.446,-47.096l-0.371,-2.596l-2.967,0.371l-5.933,3.338c0,-3.709 -2.225,-5.192 -5.933,-4.821c-3.709,1.854 -6.304,3.337 -8.529,3.337l-0.371,-5.562c32.262,-17.8 61.187,-35.971 86.404,-54.512c91.966,-35.6 166.875,-55.625 223.612,-60.817c68.975,1.112 116.812,10.754 143.512,28.925c45.242,20.396 68.975,47.096 71.942,80.1l1.113,11.125c-3.338,47.096 -13.35,81.212 -29.667,102.35l-73.796,64.895c-25.958,14.834 -38.937,25.959 -38.196,33.746c36.039,40.043 54.925,63.291 55.955,69.744l14.133,-3.365l1.107,4.706c-0.524,1.188 -1.526,1.981 -2.961,2.34l3.337,-0.741l-0.376,-1.599c0.561,-1.262 0.579,-2.972 0.005,-5.076l1.854,-0.371c0.742,4.079 6.675,5.191 17.059,2.596l17.058,-4.08c4.821,-1.483 -7.787,0.742 -5.933,-1.112l13.721,-0.742l26.329,-5.933l14.833,-5.563l-0.371,-1.854l-6.675,1.484l-0.371,-2.225c0,-2.967 1.113,-4.821 3.338,-5.192l17.429,-4.079c16.687,-4.079 28.925,-12.609 37.454,-26.329c0.371,1.483 1.483,2.225 2.967,1.854c-0.742,-3.709 1.483,-7.046 6.675,-10.384c-1.113,-4.079 8.529,-16.316 28.183,-36.712c1.854,-6.304 26.7,-37.825 74.908,-95.304l5.885,-7.508c60.195,-76.856 101.216,-131.091 122.053,-162.704l1.854,-0.371l0.371,1.854l0,8.9c6.304,8.158 13.35,14.462 20.396,18.912l0.37,2.225c-3.708,34.117 -10.754,73.054 -21.137,117.554l-2.881,12.321c7.039,-7.331 14.133,-11.41 21.423,-11.95c2.966,1.484 5.562,1.854 7.045,1.854l-4.82,-5.933l0,-1.854c4.45,-0.371 6.304,-1.483 6.304,-2.967l4.821,1.854l1.854,0l-2.225,-4.45c30.408,-21.508 45.983,-33.375 45.612,-35.6l0,-1.854l-1.854,0l-4.079,2.225c-0.371,-2.596 -1.854,-4.079 -4.821,-3.708c-2.967,1.854 -5.192,2.967 -6.675,2.967l-0.371,-4.08c24.475,-13.72 46.354,-27.812 65.638,-41.533c70.087,-27.441 126.824,-43.016 169.099,-45.983c52.288,1.483 88.629,8.9 109.025,22.621c34.117,15.575 52.288,35.6 54.513,60.445l0.741,8.159c-2.225,35.971 -9.641,61.929 -22.25,77.875l-56.366,48.95c-19.654,11.125 -29.296,19.654 -28.925,25.587c28.183,31.15 42.275,48.95 42.646,53.4c3.708,43.758 -26.7,89 -91.225,136.467c-21.138,12.979 -51.917,35.229 -92.708,66.75c-7.788,6.304 -22.25,11.125 -43.388,14.091l0.371,2.225l2.225,-0.371l11.125,-3.337l0.371,2.225c-14.834,12.237 -36.342,19.654 -65.267,22.25c-28.554,15.204 -69.346,30.408 -123.116,46.354c-9.642,20.025 -23.363,40.05 -41.905,60.817l-4.45,0.37l-0.37,-2.225c5.191,-16.687 10.383,-27.812 15.204,-33.004c4.821,-8.9 7.416,-15.204 7.046,-19.283l-0.371,-4.45c-2.967,0.371 -4.45,-0.371 -4.45,-1.483l-4.079,2.225l-4.821,0.37l-0.371,-4.079l-1.854,0c-2.967,2.596 -10.013,5.563 -21.509,8.159c-1.854,-2.596 -2.966,-4.821 -2.966,-6.305c45.983,-76.391 102.721,-194.316 170.583,-353.403c29.667,-68.604 44.129,-105.688 43.758,-111.25c-1.483,-2.596 -2.225,-5.192 -2.596,-8.159c2.225,-0.37 6.305,-4.82 12.238,-13.72l-0.371,-4.08c-32.262,10.755 -64.896,28.184 -98.271,52.659l-4.45,0.371c0,-1.855 -3.337,-3.709 -9.27,-5.563c-11.867,7.788 -22.992,17.058 -33.005,28.183l-5.562,-7.787c2.967,-1.854 5.192,-2.967 6.675,-2.967l-0.371,-6.304c-1.292,0 -5.114,3.093 -11.712,9.035l-29.45,125.948c11.495,2.967 17.429,5.192 17.8,6.675c-2.596,3.709 -7.417,6.304 -14.092,7.788l0.371,1.854l3.337,3.337c-15.204,9.642 -23.362,23.363 -25.216,40.792c-58.963,199.508 -103.834,333.008 -135.354,400.5l-2.225,0.37l-3.709,-16.316c12.979,-32.633 25.959,-77.133 38.567,-133.129l7.046,-18.913l-1.113,-4.45c-4.821,1.113 -11.866,19.654 -21.879,55.254c-3.337,4.08 -8.158,19.655 -14.833,47.096c-1.484,0.371 -5.934,14.463 -12.979,41.904c-5.192,1.484 -7.417,7.788 -7.046,19.284c-2.225,7.787 -5.192,12.237 -8.529,12.979l-11.496,0.371l1.483,6.304c-1.854,0 -2.596,-0.371 -2.967,-1.854l-3.708,3.337c-2.967,-0.742 -5.562,-1.112 -7.046,-0.742c8.9,-48.949 21.879,-95.304 38.938,-139.433l26.329,-86.033c-0.742,-2.967 4.821,-22.25 16.687,-58.221c-0.37,-2.225 3.709,-17.058 12.98,-44.129c14.091,-44.871 19.654,-73.054 17.058,-84.55l-2.225,0.371c-74.167,17.058 -110.138,30.408 -107.913,40.05c-68.974,89 -154.637,219.904 -189.866,258.1l-2.225,0.371l-0.371,-2.225c0.371,-5.563 2.596,-8.9 6.675,-10.013l-0.371,-2.225c-2.225,0.371 -6.675,0 -13.721,-1.112c0.742,4.45 -1.854,9.641 -8.158,15.204l-4.45,1.112l-0.371,-2.225c-0.371,-1.483 0,-2.225 1.484,-2.596l-2.967,-3.708l-1.113,-4.079l3.338,-13.721l-10.383,4.45l-1.854,0.371l10.383,-35.229l21.508,-26.7l96.788,-153.525l-1.484,-6.304c-2.647,0.588 -5.061,0.943 -7.426,0.694l1.864,-1.065l-3.491,0.793c0.541,0.126 1.083,0.215 1.627,0.272l-3.328,1.902c-0.308,-0.924 0.151,-1.592 0.955,-2.004l0.746,-0.17l-0.218,-0.051c-0.188,0.063 -0.366,0.136 -0.528,0.221l-20.238,4.599c-7.788,1.855 -1.854,-0.37 -14.463,1.113c-1.483,0.371 -2.225,1.112 -1.854,2.596c-1.112,0.371 -5.562,0.371 -13.35,0.741c-3.554,0.825 -6.973,1.614 -10.262,2.369ZM901.973,1602.66c2.967,-0.742 4.45,0.371 5.192,2.967l0.371,2.225l-8.529,1.854c0.741,-2.967 0.741,-5.192 0.37,-6.675l2.596,-0.371l0,0ZM180.332,1572.25l6.304,2.596c-2.225,16.687 -7.045,25.216 -15.575,25.958c-6.674,-2.967 -12.608,-4.079 -18.17,-3.708l-0.742,-8.159c-0.371,-3.337 1.483,-5.191 5.563,-6.304c3.708,-0.371 5.933,2.225 6.304,7.788c10.012,-12.238 15.575,-18.171 16.316,-18.171l0,0ZM335.711,1528.5c21.509,-4.08 80.471,-35.23 177.258,-92.709l0.371,5.192c0.371,2.225 -8.158,9.271 -24.845,21.508c-49.321,24.104 -78.246,40.792 -86.775,49.321c-53.4,18.542 -79.729,30.038 -79.359,34.488c-47.466,18.912 -78.616,32.633 -93.45,41.162c-3.337,0.371 -8.529,-1.113 -15.204,-4.079c-0.741,-9.642 3.338,-17.429 12.979,-23.733c8.159,-0.742 16.317,0.37 23.734,3.708c8.9,-4.45 24.104,-9.642 45.983,-14.833l-0.371,-5.563l-17.429,1.483c2.225,-2.966 18.913,-10.754 50.804,-23.733l8.9,-0.742l0.371,2.596c-14.833,1.113 -23.362,5.934 -25.217,13.721c0.371,3.338 2.225,5.192 5.934,4.821c10.754,-7.417 16.316,-11.496 16.316,-12.608l0,0ZM239.295,1539.25l8.9,-0.742l0.371,2.967c-2.225,0 -4.821,1.483 -8.53,3.337l-5.562,0.371c-0.371,-2.596 1.112,-4.821 4.821,-5.933ZM665.382,1538.88l3.708,-3.338l4.45,-1.112l0.371,2.225c0.742,2.967 -0.371,4.45 -3.338,5.192c-2.965,0.741 -4.448,-0.37 -5.191,-2.967ZM366.49,1275.96c33.375,-2.966 86.034,-18.541 157.604,-46.725l17.43,-1.483c36.341,-2.967 63.412,3.708 81.212,20.767l1.113,11.125c-13.35,38.566 -28.184,60.816 -44.13,67.862l-74.166,58.963c-55.254,36.341 -84.921,54.512 -89.371,54.883c-87.887,48.579 -142.771,73.425 -163.908,75.279l-3.338,0.371c2.967,-10.384 41.905,-90.484 117.554,-241.042l0,0ZM383.178,1499.2c-7.046,0.741 -20.025,6.304 -39.679,17.429l-2.967,0.371l-0.371,-5.563c14.092,-1.112 26.329,-6.675 36.342,-16.687c4.079,-0.742 6.304,1.112 6.675,4.45ZM2212.36,1299.52c-0.576,0.329 -0.402,1.084 -1.714,2.396l2.966,-2.596l0.205,0.008c0.998,0.088 1.65,0.826 1.65,2.217c1.483,-1.484 2.966,-2.596 4.079,-2.596c3.337,-0.371 3.708,1.112 17.058,-1.483l0,1.854c14.092,-4.079 27.442,-1.113 78.246,-11.496l0.371,4.45c-1.854,0.371 -8.529,0.742 -8.159,5.192l-4.45,0.37l-4.82,2.225l0,-1.854c-28.925,8.159 -34.117,5.192 -48.58,6.304l-2.966,0.371c-2.225,0 -4.45,1.113 -5.934,2.596c-0.741,0 -1.483,-0.742 -1.483,-2.225c-14.092,4.079 0,1.113 -41.904,6.304l0.371,4.079l1.483,0c32.633,-2.595 22.251,0.742 48.208,-4.45l0.371,4.08c-4.079,0.37 -4.45,1.854 -11.866,5.562c-5.192,-1.112 -5.563,-1.854 -6.305,-1.854l-9.27,1.112c0.304,2.131 1.358,3.512 3.365,3.733c-0.873,1.224 2.476,-0.024 1.455,-0.024c-0.531,0.066 -1.015,0.073 -1.455,0.024c0.077,-0.112 0.19,-0.242 0.343,-0.395c0.742,0 2.225,0.371 4.45,1.854c18.171,-3.337 18.171,-1.854 44.5,-8.529l0,-1.854l-4.821,2.225c-2.225,0 -4.45,-0.371 -6.304,-1.484l-5.192,0.371l-5.933,-1.483l-0.371,-4.079l2.596,-0.371l11.125,0.742l0.371,2.225l2.966,-2.596c0.742,0 1.484,0.741 1.484,2.225l4.821,-2.596l8.158,-0.742c0.742,0 1.483,0.742 1.483,2.225c4.079,-3.337 8.159,-2.966 16.688,-3.708l7.416,-0.742c1.855,0 2.967,1.854 3.338,6.304l14.092,-1.483l0.37,2.225c9.271,-5.192 14.834,-5.562 26.329,-6.675l1.855,4.079c0,2.967 -0.742,4.45 -2.596,4.45l-2.967,0.371c-1.854,0.371 1.483,-0.742 -0.371,-1.854c-8.9,5.192 -15.575,5.562 -18.541,5.933l-17.059,-0.741l0,1.854c0.742,2.966 1.855,4.079 3.338,4.079c17.8,-2.967 22.621,-1.113 31.891,-4.821c1.855,1.113 3.709,1.483 5.934,1.483c-3.709,10.384 -3.338,15.575 -9.271,15.946c-112.362,23.734 -120.892,17.429 -144.996,19.654l-0.371,-2.225l-3.337,2.596l-6.304,0.371l-17.059,2.225l0.371,2.225l30.779,-1.483c5.13,-0.642 5.548,0.38 12.997,-1.01l-0.017,-0.103l0.499,0.012l-0.21,0.041l-0.272,0.05l0.353,2.122l1.584,2.904c-4.764,1.666 -8.648,2.464 -41.263,7.85l0,-1.854c-1.112,0 -1.483,0.742 -1.483,1.854c-21.137,3.338 -20.767,4.08 -30.779,4.821l-12.608,1.113l-6.675,2.596c-1.113,0 -1.855,-0.742 -1.855,-1.855l-14.091,2.967l-36.713,3.338c-0.394,0 -0.736,-0.053 -1.026,-0.153l2.51,-0.218l-3.709,-1.484c0,0.817 0.4,1.434 1.199,1.702l-6.02,0.523c-2.595,0.371 -3.708,-1.112 -4.079,-3.708c1.113,-0.371 1.484,-1.112 1.484,-2.225l7.045,1.483c4.45,-0.37 2.967,-0.741 10.013,-2.595l4.45,1.483c5.192,-1.483 9.642,-2.596 13.721,-2.967c-0.371,-2.966 -1.854,-4.45 -4.45,-4.079c-2.225,1.854 -4.821,2.596 -7.788,2.967l-0.371,-4.079l10.013,-0.742l-0.371,-2.225c-14.092,-1.854 -15.575,-2.967 -33.375,-1.483l-0.371,-2.225l-3.708,2.595l-7.046,0.742c-17.429,1.483 -20.396,0.742 -40.421,1.113l-16.316,5.562c-32.634,0 -51.175,0.371 -56.367,0.742c-4.821,2.966 -9.271,4.821 -13.35,5.191c-5.933,-3.708 -11.496,-5.191 -16.687,-4.82l-0.371,-2.225l5.562,-13.35l-2.225,-4.08c-0.371,-3.708 1.484,-8.9 5.563,-15.204l-4.821,-1.854l-8.9,0.742c0.371,5.562 -2.225,10.012 -8.158,13.721l-4.45,0.37c2.966,-11.866 7.416,-22.25 12.979,-31.15l2.225,-0.37c4.45,-0.371 7.046,2.966 7.787,10.012l4.45,-0.371c2.967,0 4.45,-1.854 4.079,-4.45l-4.079,-25.587c6.304,-5.192 18.542,-34.859 37.454,-88.629c6.305,-11.496 9.271,-22.992 8.159,-34.859c-2.967,0.371 -4.45,-1.112 -4.821,-3.708c5.562,-2.596 11.867,-15.946 19.283,-40.05c40.421,-93.821 60.075,-150.558 103.833,-272.562l2.225,-0.371c1.484,2.596 2.225,5.192 2.596,8.529l4.821,-0.371c2.511,-8.035 4.796,-14.257 6.856,-18.699c-0.54,-0.068 -1.095,-0.139 -1.664,-0.213c-2.967,2.225 -5.192,3.337 -7.046,3.337c-1.113,0 -2.225,-0.741 -2.225,-2.595l-16.688,4.079l-35.97,3.337c-3.338,0.742 -4.821,2.596 -4.45,5.192c6.675,1.112 12.237,1.483 17.058,1.112l0,2.225c0.371,2.596 -1.854,5.192 -6.675,8.159l-19.283,1.854c-6.675,0.742 -15.205,2.225 -25.959,5.192c-2.966,-1.484 -7.045,-1.855 -12.237,-1.484c-2.967,2.225 -5.192,3.338 -7.046,3.338l-0.371,-2.596c-2.596,2.225 -5.562,3.337 -9.271,3.708l0.371,4.821l31.15,-2.967l0.371,4.821c-58.221,7.046 -103.462,13.721 -136.096,20.396c-1.483,0.371 -4.079,-0.371 -7.416,-1.854c-83.067,12.979 -38.938,15.575 -77.504,18.912c-9.271,0.742 -20.025,16.688 -33.005,47.838l-5.191,0.371l-0.371,-2.225c2.967,-5.934 4.45,-10.384 4.079,-12.98c-5.562,0.371 -24.846,35.6 -57.479,104.946l3.337,5.192c3.338,-2.225 5.934,-3.338 7.788,-3.338c0.371,3.709 61.929,2.596 185.416,-3.337c0,2.225 8.9,2.967 26.7,2.596c0.371,2.966 -1.483,4.821 -4.82,5.191l-13.35,1.113l0.37,5.192c12.98,0.37 19.655,0.37 21.138,0.37l0.371,4.821l-34.117,2.967l-12.979,3.708l0.371,4.821c12.237,-1.113 18.541,1.483 19.283,8.158c0.371,3.338 4.821,4.821 13.721,4.079l0.371,4.821c-23.363,7.046 -45.242,11.496 -65.267,13.35l-47.096,4.079l-15.945,3.709c-2.967,-1.113 -7.417,-1.484 -13.35,-1.113c-23.734,8.529 -44.5,13.721 -62.3,15.204l-10.755,-1.854l-20.766,7.046c-3.708,-1.483 -6.304,-1.854 -8.158,-1.854c-8.53,5.933 -17.8,21.879 -27.813,47.467c-34.487,76.02 -51.175,118.295 -50.433,126.824l13.35,1.484l29.296,-2.596c13.72,-1.113 25.958,-1.113 37.083,-0.371c8.158,-2.596 20.396,-4.45 36.712,-5.933l5.934,2.225c2.595,-2.225 5.933,-3.338 10.012,-3.709l15.946,1.484c1.854,-0.371 2.596,-1.113 2.596,-2.967l129.791,-3.708l0.371,4.821l-15.946,4.079c-0.371,-3.338 -2.225,-5.192 -5.562,-4.821c0.741,8.9 -26.329,16.317 -80.471,22.25l0.371,2.596l10.383,-0.742l5.192,-2.967c8.9,1.113 13.35,2.225 13.35,3.709l5.562,-2.596l2.225,-0.371c1.855,-0.371 2.967,0.371 2.967,1.854l5.192,-2.596l42.275,-1.483c1.854,0 4.45,-1.112 7.787,-2.967c3.338,1.484 11.496,2.225 24.104,2.967c7.046,-2.225 13.35,-3.708 18.542,-4.079l0.371,4.821c-5.934,0.371 -9.271,5.933 -9.642,15.946c-19.283,1.854 -28.554,3.337 -28.554,4.82c-3.708,-1.112 -6.304,-1.483 -8.158,-1.483c-19.284,2.596 -28.925,5.192 -28.554,7.417c0.741,8.158 -7.046,12.979 -22.992,14.462l-60.446,5.192c-1.854,0.371 -2.967,-0.371 -2.967,-2.225l-4.82,2.967l-5.192,0.37c-1.854,0.371 -2.967,-0.37 -2.967,-2.225l-4.821,2.967c-80.099,8.529 -136.095,14.092 -168.729,17.058c-6.304,6.675 -21.879,41.534 -46.724,104.204l-2.967,0.371l-2.967,-4.821c20.025,-52.287 31.892,-78.987 35.229,-80.47c-3.337,-6.675 -6.304,-10.013 -8.9,-9.642l-2.225,0.371c0.371,5.933 -4.821,16.316 -15.946,31.521l-2.966,0.37c4.079,-17.8 5.562,-29.666 5.191,-35.599c-1.854,0.37 -2.595,1.112 -2.595,2.966c-26.7,-2.966 -40.421,-6.675 -40.792,-11.866l-0.742,-9.642l4.821,-8.158l-0.371,-4.821c-10.754,-1.113 -16.316,-2.967 -16.687,-6.304c2.967,-10.013 14.092,-17.8 32.633,-22.992c2.967,-12.238 31.521,-80.471 86.033,-205.071c63.042,-129.42 94.563,-195.8 94.192,-198.766l-0.742,-9.642l-5.933,-7.046l-5.192,2.596l-2.966,0.371l-0.371,-2.225c0,-3.708 9.271,-9.642 27.812,-17.8c1.854,-10.754 9.271,-18.912 21.509,-24.475l1.854,-12.608l-13.35,-1.113c-3.338,1.854 -5.934,2.967 -7.788,2.967l-2.966,-4.821l38.195,-15.946c10.013,-2.596 16.688,-4.079 21.138,-4.45c4.079,-0.371 7.787,0.371 10.754,1.854l78.988,-12.237l4.82,1.854c20.025,-3.708 31.892,-6.675 35.971,-7.787c2.596,1.483 5.933,2.225 9.642,1.854c5.562,-0.371 9.271,-1.854 11.866,-3.709c8.9,1.113 16.317,1.113 22.25,0.742l2.225,-0.371l12.305,-3.47c1.678,-0.242 2.478,-0.449 2.158,-0.609l-2.158,0.609c-13.888,2.004 -87.926,6.397 -84.617,6.066c3.708,-0.371 6.675,-1.854 9.271,-3.708c9.271,0.741 15.946,1.112 19.654,0.741l16.687,-4.079l4.821,2.225c3.338,0 4.821,-1.112 4.821,-2.966c13.721,0.37 21.879,0.37 23.733,0.37c15.205,-1.483 79.359,-6.675 192.463,-15.945l0.371,2.595l4.45,-2.966c14.091,0.371 22.991,0.371 26.329,0l0.371,4.821l-2.225,0.37c-1.484,0.371 -2.596,-0.37 -2.596,-1.854l-4.45,2.596c-1.484,0.371 -2.596,-0.371 -2.596,-1.854l-4.45,2.596l-4.821,-1.854c-11.125,2.225 -16.317,4.45 -16.317,6.675c1.484,3.337 2.596,5.562 2.596,7.416l24.104,-2.225c0.33,2.309 1.834,4.911 4.772,8.066l1.533,-0.278c-0.371,12.979 -0.742,20.766 -0.371,23.733l4.079,-2.596c3.337,0.371 4.821,1.484 5.192,3.709c-2.225,10.754 -3.338,16.316 -3.338,17.429l-4.45,0.371l-3.708,-14.463l-1.854,0c-8.159,12.238 -11.867,22.621 -11.125,31.15l0,1.854c1.483,0 4.079,0.742 7.045,1.854c1.484,-2.595 2.225,-5.562 1.855,-8.529l4.45,-0.371c-5.192,23.363 -3.709,34.117 -40.792,133.871c-19.283,56.367 -34.117,94.192 -44.5,113.104c-3.338,14.833 -7.788,23.733 -13.721,27.071c0,-1.483 -0.742,-2.225 -2.225,-2.225c0.742,7.787 -2.225,15.204 -9.271,22.25c-1.112,2.596 -1.854,5.562 -1.483,8.9l0,1.854l4.45,-0.371c0.371,2.967 -1.113,4.45 -4.079,4.821l-4.45,-1.854c0.371,4.079 -5.934,19.654 -18.542,46.354l0.371,6.304l6.304,-0.371l0.371,2.225c-2.225,0 -5.192,1.854 -8.529,4.821l2.596,4.079l0.371,4.079l-4.821,0.371l-0.371,-4.079l-10.013,15.946c-1.112,2.596 -1.483,5.192 -1.112,8.529l0.371,4.079l4.45,-0.371l0.371,4.45c0,2.225 -1.855,4.45 -6.305,6.675l-2.225,0.371l2.225,-4.45l-2.225,0.371c-4.82,0.742 -7.787,7.417 -9.641,20.396c0.371,2.596 7.416,4.821 21.137,6.675c1.484,-0.371 1.854,-1.113 1.854,-2.225l12.238,0.742c3.708,-0.371 0,-0.742 32.633,-4.821c18.542,-0.371 15.575,0.371 21.138,0l3.708,-2.225c2.225,1.112 -2.225,2.225 0.742,1.854l0.37,0c4.824,-0.371 10.756,-1.484 17.8,-3.338c1.484,0 2.225,0.742 2.225,1.855l12.238,-2.967l18.542,-1.483c1.483,0 2.225,0.741 2.225,1.854c2.225,-1.484 4.079,-2.225 5.562,-2.225c30.038,-2.596 24.104,-3.338 46.354,-8.159c1.113,0 1.854,0.742 1.854,1.855l42.877,-6.846c0.237,-0.137 0.602,-0.2 1.252,-0.2l-1.252,0.2ZM656.482,1501.8l0.371,2.225c2.966,-0.742 4.079,-2.225 3.337,-5.192l-0.371,-2.225c-2.595,0.742 -3.708,2.225 -3.337,5.192ZM244.486,1461.38l0.371,2.596c0.371,3.708 -1.483,5.933 -5.191,6.304l-0.371,-2.596c-0.371,-3.338 1.483,-5.563 5.191,-6.304ZM261.545,1423.92c-3.709,18.912 -7.788,28.554 -11.867,28.925l-0.371,-2.596c-0.741,-9.642 3.338,-18.171 12.238,-26.329l0,0ZM1099.63,1428l4.45,1.854c-1.483,12.979 -5.562,19.654 -11.496,20.025c-5.191,-2.225 -9.641,-3.338 -13.72,-2.967l-0.371,-6.304c-0.371,-2.225 1.112,-3.708 4.079,-4.45c2.967,-0.371 4.45,1.854 4.821,5.933c7.416,-9.27 11.496,-14.091 12.237,-14.091ZM1217.55,1394.62c16.317,-2.967 61.188,-26.329 134.612,-70.458l0.371,4.079c0,1.854 -5.933,7.416 -18.912,16.316c-37.083,18.542 -59.333,30.78 -66.008,37.084c-40.421,14.091 -60.446,22.991 -60.075,26.329c-35.971,14.091 -59.334,24.475 -70.829,31.15c-2.596,0.371 -6.675,-0.742 -11.496,-3.338c-0.742,-7.416 2.596,-12.979 9.641,-17.429c6.305,-0.371 12.238,0.371 17.8,2.596c6.675,-3.338 18.171,-7.046 34.859,-11.496l-0.371,-4.079l-13.721,1.113c1.483,-2.596 14.462,-8.53 38.567,-18.171l6.675,-0.742l0,1.854c-11.496,1.113 -17.8,4.45 -19.284,10.384c0.371,2.595 1.854,4.079 4.821,3.708c9.271,-4.45 13.35,-7.788 13.35,-8.9l0,0ZM1144.5,1403.15l6.675,-0.742l0.371,2.225c-1.483,0 -3.708,1.113 -6.675,2.596l-4.45,0.371c-0.371,-2.225 1.112,-3.708 4.079,-4.45l0,0ZM1952.91,1392.77l0.371,2.225l68.233,-5.563l-0.371,-4.079l-54.512,4.45l-11.496,-1.483l-2.225,4.45ZM2029.31,1384.61l0.371,4.08l-0.741,0l-0.371,-4.08l0.741,0ZM1253.52,1372.75c-0.372,-2.597 -1.856,-3.708 -4.821,-3.338c-7.417,7.417 -17.058,11.496 -27.812,12.609l0.37,4.079l2.225,-0.371c14.831,-8.157 24.842,-12.607 30.038,-12.979ZM1241.29,1203.28c25.217,-2.225 64.896,-14.092 119.409,-35.6l13.72,-1.112c27.442,-2.225 47.838,2.966 61.559,15.945l0.741,8.159c-10.012,28.925 -21.137,45.983 -33.375,51.175l-55.995,45.241c-41.904,27.442 -64.525,41.163 -68.234,41.534c-66.75,36.712 -108.283,55.625 -124.599,57.108l-2.225,0.371c1.483,-7.788 31.149,-68.604 88.999,-182.821l0,0ZM1582.45,1378.68l5.191,-0.371l16.317,1.113c8.529,-2.967 12.979,-5.934 12.608,-8.529l-34.487,2.966l0.371,4.821ZM2068.99,1378.68l-1.484,0l-0.371,-4.079l1.484,0l0.371,4.079ZM1632.51,1372.38l0.371,2.225l-13.35,1.112l-0.371,-2.225l13.35,-1.112ZM2095.08,1367.54l-0.139,0.019l0.371,2.225l11.125,-1.112c1.483,0 2.225,0.741 2.225,2.225c1.483,-1.484 6.304,-2.596 13.721,-3.338l-0.371,-2.225l-25.959,2.225c-0.87,0.109 -1.07,0.09 -0.973,-0.019l0.627,-0.434c0.522,-0.367 1.01,-0.884 -0.024,-1.401c-1.209,0.805 -0.449,1.173 0.024,1.401c-0.269,0.191 -0.547,0.342 -0.627,0.434ZM1918.43,1363.85l0.371,6.304c-2.225,0.371 -4.079,-1.113 -4.821,-4.079l0,-1.854l4.45,-0.371l0,0ZM2219.9,1360.61l11.143,0.265l0.37,4.45l-5.933,0.371c-0.742,0 -1.483,-0.742 -1.483,-2.225c-2.225,1.854 2.596,1.483 -5.934,3.337l-0.641,-1.175c1.141,-0.399 2.332,-0.848 3.979,-1.42l-1.501,-3.603l-3.933,-0.094c1.05,-0.201 2.233,-0.449 3.58,-0.753l0.353,0.847ZM2241.03,1361.88l-4.803,0.48l-0.371,-4.079c10.755,-1.112 17.43,1.113 68.605,-10.383l0,1.854c0.741,5.933 -5.192,3.708 -55.996,9.271l-5.472,2.189l0.651,0.407l-2.225,0.222l-0.371,0.149l-0.018,-0.11l0.389,-0.039l1.574,-0.629l-2.316,-1.447l0.353,2.115ZM2315.22,1351.24l7.416,1.484l-0.37,-4.079l-7.417,-1.484l0.371,4.079ZM1148.21,1343.82l0,1.854c0.371,2.967 -1.112,4.821 -4.079,4.821l-0.371,-2.225c0,-1.854 1.484,-3.709 4.45,-4.45l0,0ZM2096.81,1335.37l34.845,-3.045c-0.37,-2.596 -1.483,-4.079 -3.708,-3.708c-6.675,0.741 -5.192,1.112 -18.912,3.708c-1.484,0 -2.225,-0.742 -2.225,-1.854l-11.867,2.596l-12.979,1.112l0.371,2.225l14.462,-1.112l0.013,0.078l-3.35,0.292l3.708,1.855l-0.358,-2.147ZM1161.56,1315.27c-2.966,14.091 -5.933,21.508 -8.9,21.508l0,-1.854c-1.112,-6.675 1.855,-13.35 8.9,-19.654ZM2146.12,1327.13l0,1.854c-1.113,0 3.708,0.371 1.483,2.225c-8.158,-0.741 -8.529,-1.483 -14.462,-1.112l0,-1.854l12.979,-1.113ZM1527.2,1293.39c0.37,4.821 -2.967,16.688 -9.642,35.971l-8.158,0.742c-0.371,-3.338 4.079,-15.204 12.608,-35.971l5.192,-0.742l0,0ZM2155.76,1326.02l0,1.854l-7.046,0.742l0,-1.855l7.046,-0.741ZM2174.67,1327.5c-0.001,-2.968 -2.226,-5.191 -5.563,-4.821c-1.854,1.854 -3.708,2.596 -4.82,2.967l0,1.854l10.383,0ZM2199.52,1319.35l2.966,3.708c0,-1.112 0.371,-1.854 1.484,-1.854l2.225,4.079l-9.271,-1.112c-0.742,-2.967 0.371,-4.45 2.596,-4.821ZM2192.84,1321.57l0.371,2.225l-8.53,0.741l-0.37,-2.225l8.529,-0.741ZM2377.89,1311.56c2.231,0.001 8.53,0.743 8.9,3.338l-10.012,0.741l-0.371,-4.079l1.483,0ZM2366.02,1301.92l0.371,4.079l-0.742,0l-7.046,2.596l3.708,-4.45l0,-0.318l0.918,-0.786c0.604,-0.356 1.311,-0.738 1.864,-1.121l0.927,0ZM2362.31,1303.64l0,-1.352c3.338,-0.37 0.371,-0.741 1.484,-2.595c2.966,0.556 2.503,1.39 1.298,2.225l-0.557,0l-1.307,1.121c-0.361,0.211 -0.685,0.413 -0.918,0.601l0,0.185l-0.37,0.318c0,-0.15 0.14,-0.319 0.37,-0.503ZM1987.03,1289.31c0.001,-1.86 1.485,-7.422 5.191,-17.429l4.45,1.483c-2.966,11.496 -6.304,17.43 -9.641,17.8l0,-1.854ZM1532.02,1283l0.371,2.225c0.371,3.338 -1.483,5.192 -5.191,5.563l-0.371,-2.225c-0.371,-2.967 1.483,-4.45 5.191,-5.563ZM744.369,1272.25l10.384,-2.225l1.112,4.079c-4.45,1.113 -1.112,1.113 -6.675,3.708c-10.754,1.113 -8.529,-0.37 -25.587,3.709l-0.371,-2.225l21.137,-7.046ZM772.553,1267.43c2.966,-0.742 4.82,0.371 5.191,3.338l-6.304,1.483c-2.596,0.742 -4.45,-0.371 -5.562,-3.338l6.675,-1.483l0,0ZM722.592,1270.34l25.856,-5.877l-0.37,-2.225c-13.49,3.189 -16.922,3.62 -24.565,4.726c-0.291,1.124 -0.598,2.25 -0.921,3.376ZM446.59,1244.44l0.371,2.595l-11.866,1.113l-0.371,-2.596l11.866,-1.112ZM713.59,1244.07l0.371,2.225l-7.046,1.483l-0.371,-2.225l7.046,-1.483ZM1935.11,1240.36c0.371,2.596 -1.113,4.08 -4.45,4.45l-2.225,-4.079l4.079,-2.225l2.225,-0.371l0.371,2.225ZM704.166,1235.87l0.153,0.035l4.079,-3.337c0.598,-0.15 1.135,-0.254 1.616,-0.312l-0.132,-0.059l2.688,-0.64c-0.919,-2.259 -3.877,-4.518 -9.363,-6.777l0.959,11.09ZM712.881,1232.95c-0.491,-0.642 -1.419,-0.874 -2.867,-0.695l2.918,1.297l-0.051,-0.602ZM952.407,1214.77l-10.384,4.821l-30.779,7.046c1.113,2.595 2.967,3.708 5.563,2.966l4.45,-1.112c5.191,-1.113 11.866,-3.338 19.283,-6.304l4.821,0.741c1.854,-1.854 5.562,-3.337 10.383,-4.45l-3.337,-3.708ZM611.24,1215.88c8.159,3.709 12.238,7.417 12.609,10.384l0.37,2.596c-7.787,0.741 -14.833,-3.338 -21.508,-12.238l8.529,-0.742ZM775.519,1219.22l5.192,-1.113l-1.113,-4.45l-5.191,1.113l1.112,4.45ZM974.286,1209.95l21.879,-5.192l0.371,2.225c-11.867,2.596 -21.138,5.563 -27.813,8.9l-0.371,-2.225c1.855,-0.37 3.709,-1.854 5.934,-3.708ZM833.369,1206.24l11.125,-0.742l-1.112,-4.079l-10.384,2.596l0.371,2.225ZM421.374,1196.6l0.371,5.192l-11.496,1.112l-0.371,-5.191l11.496,-1.113ZM1503.84,1169.9l1.483,17.058c-2.225,4.08 -4.079,6.305 -6.304,6.675l-2.595,-28.925c4.82,1.484 7.416,3.338 7.416,5.192ZM1301.73,1179.17l0.371,2.225l-8.9,0.742l-0.371,-2.225l8.9,-0.742ZM656.853,1165.08l12.237,7.417c0.371,3.708 -1.483,5.933 -5.191,6.304c-5.192,-3.337 -9.271,-4.821 -12.238,-4.821l-0.742,-8.158l5.934,-0.742ZM436.949,1131.33c5.562,-30.408 11.866,-47.837 18.912,-51.916l61.558,-138.321c-0.741,-8.529 12.238,-15.204 39.309,-19.654l8.9,-0.742l0.741,7.788c26.7,-4.079 43.017,-6.304 49.321,-7.046c48.95,-4.079 74.167,5.562 76.392,29.667l5.562,-0.371l-1.112,-14.092l5.933,-0.371c14.463,7.788 22.25,17.429 22.992,28.925c0.741,7.788 -3.338,17.429 -12.609,28.925c-3.708,0.371 -5.933,-2.225 -6.304,-7.787l-5.933,0.371l-1.483,16.687c-24.846,37.083 -42.646,55.996 -53.771,57.108c-10.013,13.721 -16.317,20.767 -18.913,21.138c-7.787,9.271 -28.925,25.216 -63.783,47.466c-11.496,1.113 -54.142,17.43 -127.937,49.692c-3.709,-1.854 -7.417,-2.225 -11.867,-1.854l-0.371,-5.192c-0.741,-10.754 3.709,-24.104 14.463,-40.421l0,0ZM1005.81,1156.92l4.821,-1.113l1.113,4.08c-23.363,7.045 -36.342,10.754 -38.938,11.495c-1.483,0.371 -3.708,1.484 -6.304,3.709c-0.371,-1.484 -3.337,-1.484 -9.271,-0.371c-1.112,-4.079 15.205,-10.013 48.579,-17.8l0,0ZM356.107,1155.07l-1.483,13.721l-2.967,0.37l-1.112,-13.72l5.562,-0.371ZM1427.07,1157.66c6.304,2.966 9.271,5.562 9.641,7.787l0,1.854c-5.933,0.371 -11.495,-2.596 -16.687,-9.271l7.046,-0.37ZM1039.92,1064.21c1.854,7.787 -1.112,22.25 -8.529,43.387c-2.225,26.7 -11.867,41.904 -28.554,45.983l-0.371,-2.225l-14.833,5.563l-6.675,1.483c-3.338,0.742 -6.304,0.742 -9.271,-0.371l-1.483,-5.933c-0.371,-2.225 20.766,-31.892 64.524,-88.629l5.192,0.742ZM1282.82,1142.46l0.371,4.08l-8.9,0.741l-0.371,-4.079l8.9,-0.742ZM368.715,1129.11l0.371,2.596l-5.191,8.9l-5.563,0.371l-0.371,-2.596c5.563,-0.371 8.159,-3.337 7.788,-8.9l2.966,-0.371l0,0ZM1461.56,1118.73l9.271,5.563c0.371,2.595 -1.112,4.45 -4.079,4.45c-4.079,-2.596 -7.046,-3.709 -9.271,-3.338l0,-6.304l4.079,-0.371l0,0ZM1294.32,1093.14c4.45,-23.363 9.27,-36.342 14.462,-39.309l47.096,-105.316c-0.371,-6.304 9.271,-11.496 29.666,-15.204l6.675,-0.742l0.371,6.304c20.025,-3.337 32.263,-5.192 37.454,-5.562c37.084,-3.338 56.367,4.45 57.85,22.25l4.45,-0.371l-0.741,-10.013l4.45,-0.371c10.754,5.934 16.316,12.98 17.058,21.509c0.371,5.933 -2.596,13.35 -8.9,22.25c-2.967,0.371 -4.45,-1.854 -4.821,-5.934l-4.45,0.371l-1.483,12.609c-18.913,28.554 -32.263,43.016 -40.792,43.758c-7.416,10.383 -12.237,15.575 -14.462,15.575c-5.934,7.046 -21.879,19.283 -48.209,35.971c-8.9,0.741 -41.162,13.35 -97.158,37.825c-2.596,-1.113 -5.933,-1.484 -8.9,-1.113l-0.371,-4.079c-0.741,-7.788 2.967,-17.8 10.755,-30.408l0,0ZM1231.64,1121.69l1.483,-10.754l-4.079,0l0.742,10.754l1.854,0ZM380.953,1100.18c-0.742,9.271 -2.967,14.092 -7.788,14.463l-2.966,0.371c3.337,-6.304 5.191,-10.754 4.821,-14.092l5.933,-0.742ZM1242.4,1091.28l0.371,2.225l-3.709,6.675l-4.45,0.371l-0.37,-2.225c4.45,-0.371 6.675,-2.596 6.304,-7.046l1.854,0ZM387.999,1080.16l1.112,11.124l-2.966,0.371l-1.113,-11.125l2.967,-0.37ZM1252.04,1069.4c-0.371,7.046 -2.225,10.755 -5.563,11.125l-2.225,0.371c2.596,-4.821 3.708,-8.529 3.338,-11.125l4.45,-0.371l0,0ZM1257.23,1054.2l0.742,8.159l-2.225,0.37l-0.742,-8.158l2.225,-0.371ZM415.44,1022.31l0.742,8.158c-2.596,0.371 -6.304,4.079 -10.754,11.867l-0.371,-5.563c5.192,-6.304 7.788,-11.125 7.788,-14.462l2.595,0ZM236.328,1026.76l0.371,2.595c-1.854,0 -4.821,1.484 -8.529,3.338l-2.967,0.371l-0.371,-5.192l11.496,-1.112ZM1278.37,1010.44l0.371,6.304c-2.225,0 -4.821,3.338 -8.159,8.9l-0.371,-4.079c3.709,-4.821 5.563,-8.529 5.563,-11.125l2.596,0ZM1135.97,1018.6c2.968,-1.484 5.192,-2.596 6.675,-2.596l-0.371,-2.225l-8.529,0.742l0.371,4.079l1.854,0ZM1723,1005.62l0.371,2.596l5.563,-0.371c0,-1.854 0.371,-4.45 1.854,-7.787l-0.371,-4.821c-2.967,0.371 -5.562,3.708 -7.417,10.383l0,0ZM2050.44,971.134c0.371,2.595 -1.483,8.529 -4.821,17.429l-2.225,0.371l-0.371,-6.305c2.596,-7.416 5.192,-11.125 7.417,-11.495ZM2057.49,947.029c4.45,-18.17 8.9,-28.554 12.979,-31.149l0.371,2.224c-2.225,17.059 -5.934,25.588 -11.125,26.33l0.741,10.754c-4.079,5.562 -5.933,10.012 -5.562,13.35l-2.225,0.371l-1.113,-14.834c2.225,-0.371 4.45,-2.596 5.934,-7.046l0,0ZM1553.16,963.346l0.371,4.45c-2.225,0 -6.304,-6.675 -12.979,-20.025l-0.371,-4.079c4.079,-0.371 8.529,6.304 12.979,19.654ZM777.744,960.75l0.371,5.192c-2.967,0.371 -8.529,-8.529 -16.687,-26.329l-0.371,-5.192c5.191,-0.742 10.754,8.158 16.687,26.329ZM1547.22,919.588l-2.225,4.45l-62.3,-26.329c41.904,1.854 63.412,8.9 64.525,21.879l0,0ZM2076.03,902.53l2.225,-0.371c-3.337,5.933 -5.933,9.271 -8.529,9.641l-0.371,-6.304c1.855,-0.371 4.08,-1.112 6.675,-2.966ZM1847.23,907.35l0,2.225l-18.912,1.855l0,-2.225l18.912,-1.855ZM769.957,902.9c-1.487,-17.059 -29.67,-26.7 -84.55,-28.925l82.325,34.488l2.225,-5.563ZM1871.33,902.159c3.337,-0.371 4.82,1.112 5.191,4.45l-14.091,1.483l-0.371,-4.821l9.271,-1.112l0,0ZM1907.22,897.611l16.767,-4.723c6.675,0.742 10.012,2.225 10.012,4.079c5.934,-2.225 12.98,-3.708 21.138,-4.45l-0.371,-2.596l-17.058,-0.741l-33.375,5.562l-14.463,-1.112c0,1.113 1.462,2.643 4.384,4.591l-52.221,2.454l0.371,2.596l86.775,-4.079l-0.371,-2.596l-21.588,1.015l-9.562,2.694c-1.296,-0.741 -2.431,-1.435 -3.404,-2.084l12.966,-0.61ZM2128.84,840.984c-6.856,3.273 -13.158,7.737 -18.695,12.966c-0.572,0.191 -2.223,0.186 -4.852,-0.017c-1.729,7.016 -6.292,20.05 -13.69,38.955l9.271,5.933c12.559,-12.917 21.993,-32.084 27.966,-57.837ZM1858.35,891.034l0.371,2.596l-9.641,0.741l-0.371,-2.596l9.641,-0.741ZM1906.19,883.988l0,2.225l-16.688,1.483l0,-2.225l16.688,-1.483ZM1719.66,873.234l2.967,-0.371l5.562,2.225c0.371,3.337 -1.483,5.192 -4.821,5.192l-8.158,0.741l-0.371,-2.596c-0.371,-2.595 1.483,-4.079 4.821,-5.191ZM1661.44,878.425l8.158,-0.741l-0.37,-4.821l-8.159,0.742l0.371,4.82ZM1813.43,867.583c3.104,-0.441 6.164,-1.548 8.581,-3.62c2.596,1.483 5.933,2.225 9.642,1.854l4.82,-0.371l-0.371,-4.821c-2.966,0.371 -4.82,-0.37 -4.82,-2.225c-9.271,2.596 -14.463,4.45 -30.779,5.563l0.37,2.225l12.557,1.395c-0.23,0.034 -0.46,0.063 -0.69,0.088l1.483,0l-0.793,-0.088ZM1843.52,857.288l2.596,-0.371l0.371,4.821l-7.417,0.742c0,-2.596 1.113,-4.45 4.45,-5.192ZM1872.07,854.321l-21.137,2.225l-2.225,5.192l2.596,-0.371c8.529,-2.596 15.575,-4.079 21.137,-4.45l-0.371,-2.596Z" style="fill:#000;"/></svg>