<?xml version="1.0" standalone="no"?><!DOCTYPE svg PUBLIC "-//W3C//DTD SVG 1.1//EN" "http://www.w3.org/Graphics/SVG/1.1/DTD/svg11.dtd"><svg width="100%" height="100%" viewBox="0 0 1667 1667" version="1.1" xmlns="http://www.w3.org/2000/svg" xmlns:xlink="http://www.w3.org/1999/xlink" xml:space="preserve" style="fill-rule:evenodd;clip-rule:evenodd;stroke-linejoin:round;stroke-miterlimit:1.41421;"><path d="M1262.83,795.9c20.34,0 36.827,-16.487 36.827,-36.827c0,-3.264 -0.466,-6.414 -1.265,-9.432c-14.868,-1.281 -26.903,-12.419 -29.547,-26.862c-1.962,-0.323 -3.96,-0.533 -6.015,-0.533c-20.339,0 -36.827,16.487 -36.827,36.827c0,20.34 16.488,36.827 36.827,36.827Z" style="fill:#000;fill-rule:nonzero;"/><path d="M178.894,642.193c-26.565,0 -51.28,8.484 -64.56,21.769l-0.738,0l0,-182.649l-61.608,0l0,397.355l61.608,0l0,-16.968l0.738,0c14.018,12.542 37.631,20.288 64.56,20.288c77.476,0 115.84,-50.542 115.84,-119.528c-0.005,-68.992 -37.632,-120.267 -115.84,-120.267ZM171.88,828.864c-43.902,0 -61.609,-25.453 -61.609,-66.404c0,-41.321 17.338,-67.142 61.24,-67.142c43.902,0 61.609,25.821 61.609,67.142c0.005,41.315 -17.338,66.404 -61.24,66.404Z" style="fill:#000;fill-rule:nonzero;"/><path d="M418.29,642.557c-39.476,0 -75.258,9.596 -106.982,32.098l38,38.369c21.027,-14.018 45.009,-19.551 68.249,-19.551c27.666,0 45.373,9.96 46.853,29.516l0.026,5.989c-2.213,-0.369 -12.568,-0.456 -14.412,-0.456c-59.027,0 -155.316,7.009 -155.316,77.471c0,59.764 59.396,76.364 105.142,76.364c23.609,0 47.592,-5.533 64.929,-16.968l0.738,0l0,13.279l61.609,0l0,-144.618c-0.005,-63.822 -46.121,-91.493 -108.836,-91.493ZM465.512,783.486l0,22.133c0,23.24 -44.635,25.453 -63.453,25.453c-23.983,0 -46.116,-7.378 -46.116,-24.346c0,-11.805 9.591,-19.92 32.836,-24.716c11.435,-2.582 24.346,-3.688 36.519,-4.057c12.542,-0.738 22.138,-0.738 32.098,-0.738c1.476,0 5.995,-0.364 8.213,0.005l-0.097,6.266Z" style="fill:#000;fill-rule:nonzero;"/><path d="M676.514,642.193c-26.565,0 -51.28,8.484 -64.56,21.769l-0.738,0l0,-182.649l-61.609,0l0,397.355l61.609,0l0,-16.968l0.738,0c14.017,12.542 37.631,20.288 64.56,20.288c77.476,0 115.839,-50.542 115.839,-119.528c-0.005,-68.992 -37.631,-120.267 -115.839,-120.267ZM669.5,828.864c-43.903,0 -61.609,-25.453 -61.609,-66.404c0,-41.321 17.337,-67.142 61.24,-67.142c43.902,0 61.609,25.821 61.609,67.142c0,41.315 -17.338,66.404 -61.24,66.404Z" style="fill:#000;fill-rule:nonzero;"/><path d="M920.418,775.371l-6.512,13.484l-4.483,8.966l-11.876,-22.45l-60.871,-129.489l-67.88,0l110.307,227.248c-10.698,25.458 -22.133,31.729 -34.681,31.729c-12.547,0 -27.302,-4.058 -51.28,-16.6l0,55.707c21.027,10.334 37.632,13.649 57.183,13.649c36.524,0 64.928,-23.978 80.053,-57.546l112.888,-254.182l-67.879,0l-54.969,129.484Z" style="fill:#000;fill-rule:nonzero;"/><rect x="1052.02" y="481.308" width="61.609" height="396.986" style="fill:#000;"/><path d="M1335.27,670.572c-20.422,-17.804 -49.246,-28.379 -86.631,-28.379c-82.272,0 -123.223,52.387 -123.223,119.898c0,46.628 19.546,86.032 58.857,105.951c17.61,8.925 39.174,13.946 64.734,13.946c41.321,0 72.389,-13.443 93.052,-35.372c0.261,-0.276 0.507,-0.563 0.758,-0.845c19.771,-21.467 29.777,-50.844 29.777,-83.685c0,-37.304 -12.399,-69.796 -37.324,-91.514ZM1249.01,695.318c9.305,0 17.41,1.321 24.511,3.683c5.866,-9.119 16.082,-15.175 27.733,-15.175c10.2,0 19.32,4.636 25.371,11.917c4.749,5.712 7.608,13.054 7.608,21.067c0,11.497 -5.887,21.605 -14.807,27.508c-2.817,1.865 -5.938,3.289 -9.268,4.221c0.533,4.33 0.82,8.843 0.82,13.557c0,39.844 -18.813,67.142 -61.978,67.142c-42.795,0 -61.983,-27.303 -61.983,-67.142c0.016,-40.219 18.46,-66.778 61.993,-66.778Z" style="fill:#000;fill-rule:nonzero;"/><path d="M1514.23,642.193c-25.827,0 -51.28,9.222 -67.142,23.609l-0.738,0l0,-20.289l-61.608,0l0,230.722c0.681,0.676 1.332,1.378 1.998,2.064l41.745,0c5.661,-7.362 11.605,-14.494 17.865,-21.333l0,-114.431c0,-30.623 23.24,-47.223 57.177,-47.223c44.277,0 51.28,16.6 51.28,44.635l0,138.352l61.24,0l0.308,-118.534l0.066,-25.715c-0.005,-57.92 -40.587,-91.857 -102.191,-91.857Z" style="fill:#000;fill-rule:nonzero;"/></svg>