<?xml version="1.0" standalone="no"?><!DOCTYPE svg PUBLIC "-//W3C//DTD SVG 1.1//EN" "http://www.w3.org/Graphics/SVG/1.1/DTD/svg11.dtd"><svg width="100%" height="100%" viewBox="0 0 1250 1250" version="1.1" xmlns="http://www.w3.org/2000/svg" xmlns:xlink="http://www.w3.org/1999/xlink" xml:space="preserve" style="fill-rule:evenodd;clip-rule:evenodd;stroke-linejoin:round;stroke-miterlimit:1.41421;"><path d="M624.932,939.488l-468.164,266.872l0,-1163l468.164,266.872l468.163,-266.87l0,-0.002l0.004,0l-0.004,0.002l0,1163l-468.163,-266.872ZM311.735,936.612l154.325,-87.97l-154.325,-87.97l0,175.94ZM938.128,760.673l-154.323,87.97l154.323,87.969l0,-175.939ZM391.722,624.857l233.211,132.941l233.209,-132.941l-233.209,-132.938l-233.211,132.938ZM311.735,489.047l166.839,-95.105l-166.839,-95.103l0,190.208ZM771.29,393.942l166.838,95.105l0,-190.208l-166.838,95.103Z" style="fill:#000;"/></svg>