<?xml version="1.0" standalone="no"?><!DOCTYPE svg PUBLIC "-//W3C//DTD SVG 1.1//EN" "http://www.w3.org/Graphics/SVG/1.1/DTD/svg11.dtd"><svg width="100%" height="100%" viewBox="0 0 2084 2084" version="1.1" xmlns="http://www.w3.org/2000/svg" xmlns:xlink="http://www.w3.org/1999/xlink" xml:space="preserve" style="fill-rule:evenodd;clip-rule:evenodd;stroke-linejoin:round;stroke-miterlimit:1.41421;"><g><path d="M2002.19,1021.37c-102.735,-98.714 -616.448,-160.338 -778.544,-178.277c7.851,-18.543 14.536,-37.721 20.055,-57.469c149.282,-91.341 237.078,-53.472 335.977,-57.019c-60.37,-111.912 -139.869,-173.085 -246.418,-213.007c-30.151,-11.297 -60.367,-19.64 -90.255,-24.8c-21.419,-86.394 -132.946,-327.089 -425.613,-327.089c-370.549,0 -774.415,305.695 -774.415,823.179c0,434.992 296.985,816.208 464.781,816.208c73.279,0 136.315,-54.874 151.114,-104.065c12.407,33.727 50.474,138.578 62.975,165.27c18.479,39.47 103.936,73.625 141.333,32.664c48.086,26.714 136.315,42.805 184.405,-28.436c92.608,19.588 174.481,-35.636 176.268,-101.53c45.443,-2.427 67.735,-66.232 57.811,-117.046c-7.316,-37.411 -85.457,-171.648 -115.936,-217.985c60.336,49.079 213.169,62.971 231.73,0.03c97.28,76.359 248.882,36.279 260.905,-25.819c118.203,30.712 253.779,-36.741 231.518,-118.437c189.893,-13.132 165.589,-215.173 112.309,-266.372ZM815.248,511.11c56.947,0 103.182,46.234 103.182,103.182c0,56.947 -46.235,103.181 -103.182,103.181c-56.948,0 -103.182,-46.234 -103.182,-103.181c0,-56.948 46.234,-103.182 103.182,-103.182Z" style="fill:#000;"/><path d="M1470.14,560.28c40.9,-81.147 89.747,-163.83 154.662,-218.648c-71.448,28.795 -139.948,110.437 -181.655,202.441c-21.259,-13.512 -42.843,-25.565 -64.608,-36.106c58.182,-124.189 191.332,-223.468 340.322,-231.569c-99.794,90.505 -66.297,275.913 -148.347,375.495c-31.36,-44.026 -69.881,-75.649 -100.374,-91.613Z" style="fill:#000;"/><path d="M1394.24,755.997c-0.185,-1.15 -0.723,-5.214 -1.309,-10.434c-12.659,-0.419 -41.074,7.205 -51.499,10.969c7.025,16.72 16.347,33.771 24.765,45.914c56.576,-11.16 99.047,-32.241 128.521,-53.192c-23.981,-5.797 -67.995,-8.8 -97.181,-3.787c-1.317,4.514 -2.499,8.369 -3.297,10.53Z" style="fill:#000;"/></g></svg>