<?xml version="1.0" standalone="no"?><!DOCTYPE svg PUBLIC "-//W3C//DTD SVG 1.1//EN" "http://www.w3.org/Graphics/SVG/1.1/DTD/svg11.dtd"><svg width="100%" height="100%" viewBox="0 0 1067 859" version="1.1" xmlns="http://www.w3.org/2000/svg" xmlns:xlink="http://www.w3.org/1999/xlink" xml:space="preserve" style="fill-rule:evenodd;clip-rule:evenodd;stroke-linejoin:round;stroke-miterlimit:1.41421;"><path d="M438.388,91.173c0.838,5.027 -1.677,9.219 -10.054,13.407c-10.892,-5.865 -34.357,-9.218 -53.626,-7.542c-20.95,1.677 -38.545,8.381 -36.03,22.623c3.35,14.246 23.461,22.626 59.491,19.273c87.979,-7.542 87.141,-67.034 216.181,-78.764c100.548,-9.216 156.686,21.788 164.228,59.491c5.865,29.327 -18.434,57.818 -91.333,63.683c-64.518,5.866 -102.225,-11.73 -105.575,-29.326c-1.677,-9.219 3.35,-22.626 34.353,-25.976c3.354,14.245 20.95,29.326 62.845,25.138c30.165,-2.516 55.299,-13.408 51.949,-30.165c-3.35,-17.596 -35.192,-27.653 -85.467,-23.461c-102.226,9.215 -127.36,65.356 -214.504,72.898c-62.003,5.866 -112.279,-16.764 -118.983,-50.276c-2.512,-12.569 -2.512,-41.895 62.845,-47.76c33.515,-2.516 60.33,3.35 63.68,16.757l0,0Z" style="fill:#28334c;"/><path d="M560.724,247.863c-108.094,0 -204.45,-10.893 -273.999,-25.977c-74.572,-18.434 -113.956,-38.542 -113.956,-64.518c0,-10.892 5.031,-20.111 20.115,-31.003c-46.926,18.434 -72.064,33.518 -72.064,56.979c2.515,25.973 44.411,51.95 129.875,72.061c80.441,20.107 183.504,30.999 307.514,30.999c126.524,0 227.073,-10.892 307.513,-30.999c85.464,-20.111 126.521,-46.923 126.521,-72.061c0,-18.434 -18.434,-36.03 -51.949,-49.437c7.542,5.027 13.408,13.407 13.408,22.623c0,25.976 -38.546,46.922 -116.471,64.518c-72.061,15.922 -164.228,26.815 -276.507,26.815l0,0Z" style="fill:#28334c;"/><path d="M161.505,396.396c-15.355,-43.504 -27.032,-89.058 -33.981,-135.964c13.411,20.945 51.949,41.057 124.009,59.491c80.441,17.596 183.505,31.003 310.026,31.003c124.013,0 227.073,-12.569 307.513,-31.003c69.545,-15.919 108.091,-36.03 124.848,-59.491c-15.919,91.333 -44.41,176.797 -85.467,251.372c-31,46.922 -62.003,87.979 -93.007,132.39c-12.569,25.973 -20.949,51.946 -25.976,77.926l-2.512,0c-20.949,28.488 -49.437,46.083 -82.952,56.976c-45.246,15.08 -94.687,22.622 -141.609,20.111l-5.023,0c-46.926,2.511 -93.01,-4.192 -137.421,-20.111c-36.026,-10.054 -65.356,-28.488 -85.467,-56.976c-5.866,-25.977 -15.081,-51.953 -28.488,-77.926c-31.004,-44.411 -62.003,-85.468 -93.006,-132.39c-14.185,-26.055 -27.17,-53.31 -38.644,-81.557c-4.986,4.643 -9.695,9.759 -14.144,15.362c-20.111,29.327 -27.653,62.841 -20.111,98.872c5.027,38.545 25.976,70.383 56.976,93.009c28.491,22.623 56.98,33.515 90.494,33.515c-15.919,5.027 -33.514,13.408 -49.434,15.919c-41.06,7.542 -77.09,0 -110.605,-25.973c-31.842,-25.976 -51.949,-59.491 -54.465,-100.548c-2.511,-41.06 10.058,-82.952 38.546,-118.982c15.131,-19.139 31.68,-34.021 49.9,-45.025Z" style="fill:#28334c;"/></svg>