<?xml version="1.0" standalone="no"?><!DOCTYPE svg PUBLIC "-//W3C//DTD SVG 1.1//EN" "http://www.w3.org/Graphics/SVG/1.1/DTD/svg11.dtd"><svg width="100%" height="100%" viewBox="0 0 8684 8684" version="1.1" xmlns="http://www.w3.org/2000/svg" xmlns:xlink="http://www.w3.org/1999/xlink" xml:space="preserve" style="fill-rule:evenodd;clip-rule:evenodd;stroke-linejoin:round;stroke-miterlimit:1.41421;"><path d="M5951.88,5478.83c-97.4,-191.991 -212.817,-386.062 -347.804,-583.466c-96.671,-141.509 -200.3,-279.15 -308.617,-413.892c-44.012,-54.883 -25.558,-123.1 8.067,-157.017c33.242,-34.058 66.721,-68.07 100.296,-102.47c462.833,-472.013 941.462,-960.063 1308.49,-1487.34c390.367,-560.908 606.659,-1092.97 661.205,-1640.35c5.458,-55.029 -19.517,-113.388 -63.917,-147.304c-29.183,-22.225 -64.4,-33.771 -100.054,-33.771c-19.713,0 -39.763,3.625 -58.75,10.921c-355.917,136.096 -717.292,239.483 -1047.22,316.3c-67.25,15.7 -121.604,65.654 -144.117,125.708c-240.404,658.35 -854.112,1285.25 -1497.97,1941.87c-25.85,24.541 -62.084,56.912 -120.975,56.912c-58.846,0 -94.692,-31.308 -120.975,-56.912c-643.859,-656.663 -1257.57,-1281.29 -1497.97,-1939.74c-22.563,-59.908 -76.963,-109.912 -144.117,-125.658c-330.071,-76.867 -691.687,-189 -1047.12,-325.096c-19.133,-7.246 -39.133,-10.917 -58.941,-10.917c-35.609,0 -70.875,11.546 -100.009,33.817c-45.362,34.642 -69.521,90.392 -63.866,147.208c54.541,547.475 270.791,1086.11 661.3,1647.02c366.979,527.279 845.608,1015.38 1308.39,1487.34c852.713,869.333 1658.23,1690.79 1728.95,2643.31c6.33,85.95 77.93,152.571 164.213,152.571l1001.85,0c45.125,0 88.221,-18.55 119.379,-51.258c31.017,-32.709 47.396,-76.526 45.175,-121.701c-8.891,-179.383 -34.933,-358.862 -77.108,-539.166l0.387,-0.384c-1.258,-5.266 -2.175,-10.629 -2.175,-16.187c0,-36.571 28.313,-66.767 65.463,-66.767c3.142,0 6.233,0.579 9.325,1.017l0.05,-0.05c817.879,119.817 1335.11,311.033 1335.88,521.775c0,0.142 0,0.287 0,0.483c0,198.417 -465.008,498.146 -1220.76,717.534l-0.288,0.291c-67.204,19.129 -116.191,79.909 -116.191,151.988c0,87.4 72.129,158.416 161.362,158.416c12.321,0 24.204,-1.4 35.704,-4.008c1015.86,-234.992 1689.29,-629.896 1689.29,-1075.72c0.096,-529.358 -910.3,-1002.19 -2265.85,-1215.3l0,0Z" style="fill:#000;fill-rule:nonzero;"/><path d="M3265.45,4962.5c-20.533,-21.45 -61.696,-50.146 -117.013,-50.146c-74.741,0 -119.137,48.263 -135.854,73.867c-109.379,166.437 -204.846,330.65 -287.266,493.221c-1353.66,213.445 -2262.47,685.796 -2262.47,1214.77c0,446.263 668.642,840.346 1686.34,1075.19c0.145,0.046 1.112,-0.05 1.5,-0.096c11.979,2.85 24.3,4.638 37.15,4.638c89.183,0 161.316,-71.067 161.316,-158.417c0,-71.887 -49.087,-131.892 -115.904,-151.267l-0.529,-1.062c-755.8,-219.388 -1220.76,-519.067 -1220.76,-717.534c0,-0.195 0,-0.341 0,-0.483c0.775,-210.354 516.558,-401.333 1332.45,-521.196c2.95,-0.483 5.75,-0.966 8.746,-0.966c37.491,0 66.141,30.533 66.141,67.445c0,5.65 -0.92,11.063 -2.225,16.33l0.68,0.725c-41.888,179.529 -67.542,358.237 -76.384,536.8c-2.221,44.833 14.3,89.425 45.413,122.179c31.066,32.562 74.787,51.308 119.766,51.308l1001.9,0c86.046,0 158.513,-67.346 164.842,-153.15c21.792,-293.112 113.438,-586.946 279.538,-895.712c57.537,-106.817 12.85,-207.163 -20.342,-250.063c-164.842,-214.312 -366.738,-442.929 -667.046,-756.379l0,0Z" style="fill:#000;fill-rule:nonzero;"/><path d="M4224.83,2487.55c39.613,38.554 84.496,45.754 115.417,45.754l0.337,0c31.017,0 75.85,-7.2 115.517,-45.754c353.258,-343.5 543.079,-744.009 584.675,-855.367c6.088,-16.379 12.221,-34.929 12.221,-60.875c0,-88.896 -74.063,-152.375 -151.554,-152.375c-63.967,0 -246.104,18.888 -559.988,18.888l-2.079,0c-313.837,0 -495.925,-18.888 -559.842,-18.888c-77.495,0 -151.654,63.479 -151.654,152.375c0,25.946 6.138,44.496 12.271,60.875c41.5,111.308 231.371,511.821 584.679,855.367l0,0Z" style="fill:#000;fill-rule:nonzero;"/></svg>