<?xml version="1.0" standalone="no"?><!DOCTYPE svg PUBLIC "-//W3C//DTD SVG 1.1//EN" "http://www.w3.org/Graphics/SVG/1.1/DTD/svg11.dtd"><svg width="100%" height="100%" viewBox="0 0 1750 1750" version="1.1" xmlns="http://www.w3.org/2000/svg" xmlns:xlink="http://www.w3.org/1999/xlink" xml:space="preserve" style="fill-rule:evenodd;clip-rule:evenodd;stroke-linejoin:round;stroke-miterlimit:1.41421;"><path d="M257.367,1560.13l-137.438,-1541.47l1510.14,0l-137.565,1541.22l-618.43,171.449l-616.709,-171.201ZM1298.78,884.217l45.751,-512.976l4.533,-50.724l-942.823,0l4.518,50.724l8.616,95.843l3.792,42.494l719.28,0l-17.277,193.595l-250.167,0l0,0.02l-220.646,0l4.518,50.724l8.621,95.843l3.787,42.489l207.887,0l0,-0.03l229.212,0l-22.045,245.186l-208.991,56.409l-208.423,-56.282l-13.464,-150.775l-189.772,0l26.481,296.834l383.312,106.414l0,1.005l1.811,-0.502l2.138,0.593l0.873,-0.244l0,-1.184l382.748,-106.082l2.844,-31.934l32.172,-359.438l0,0l0.09,-1.006l0.626,-6.996l-0.002,0Z" style="fill:#000;"/></svg>