<?xml version="1.0" standalone="no"?><!DOCTYPE svg PUBLIC "-//W3C//DTD SVG 1.1//EN" "http://www.w3.org/Graphics/SVG/1.1/DTD/svg11.dtd"><svg width="100%" height="100%" viewBox="0 0 417 417" version="1.1" xmlns="http://www.w3.org/2000/svg" xmlns:xlink="http://www.w3.org/1999/xlink" xml:space="preserve" style="fill-rule:evenodd;clip-rule:evenodd;stroke-linejoin:round;stroke-miterlimit:1.41421;"><path d="M32.802,41.944l28.341,0c91.279,0 166.389,75.111 166.389,166.389c0,91.279 -75.11,166.39 -166.389,166.39l-28.341,0l0,-73.138l28.341,0c51.156,0 93.251,-42.096 93.251,-93.252c0,-51.156 -42.095,-93.251 -93.251,-93.251l-28.341,0l0,-73.138ZM165.369,41.944l117.022,0c55.67,0 101.479,45.809 101.479,101.479c0,23.71 -8.309,46.685 -23.475,64.91c15.166,18.225 23.475,41.201 23.475,64.911c0,55.669 -45.809,101.479 -101.479,101.479c-0.001,0 -0.001,0 -0.001,0l-117.021,0c28.792,-18.036 52.417,-43.24 68.554,-73.138l48.463,0c15.548,0 28.341,-12.794 28.341,-28.341c0,-15.548 -12.793,-28.342 -28.341,-28.342l-28.341,0c4.581,-24.163 4.581,-48.974 0,-73.138l28.341,0c15.548,0 28.341,-12.793 28.341,-28.341c0,-15.547 -12.793,-28.341 -28.341,-28.341l-48.463,0c-16.137,-29.898 -39.762,-55.103 -68.554,-73.138l0,0Z" style="fill:#000;"/></svg>