<?xml version="1.0" standalone="no"?><!DOCTYPE svg PUBLIC "-//W3C//DTD SVG 1.1//EN" "http://www.w3.org/Graphics/SVG/1.1/DTD/svg11.dtd"><svg width="100%" height="100%" viewBox="0 0 2084 2084" version="1.1" xmlns="http://www.w3.org/2000/svg" xmlns:xlink="http://www.w3.org/1999/xlink" xml:space="preserve" style="fill-rule:evenodd;clip-rule:evenodd;stroke-linejoin:round;stroke-miterlimit:1.41421;"><g><path d="M318.665,711.129l103.482,0l0,478.982c-53.085,10.078 -92.059,14.11 -134.389,14.11c-126.33,-0.004 -192.181,-57.112 -192.181,-166.644c0,-105.497 69.887,-174.031 178.067,-174.031c16.797,0 29.563,1.339 45.021,5.371l0,-157.788ZM318.665,952.232c-12.094,-4.027 -22.172,-5.37 -34.938,-5.37c-52.413,0 -82.653,32.255 -82.653,88.695c0,55.104 28.896,85.34 81.981,85.34c11.418,0 20.829,-0.672 35.61,-2.684l0,-165.981Z" style="fill:#000;fill-rule:nonzero;"/><path d="M586.767,870.932l0,239.882c0,82.652 -6.048,122.294 -24.189,156.565c-16.802,32.932 -38.979,53.757 -84.668,76.606l-96.09,-45.694c45.693,-21.501 67.866,-40.309 81.976,-69.214c14.786,-29.564 19.494,-63.835 19.494,-153.874l0,-204.271l103.477,0ZM483.29,711.679l103.477,0l0,106.169l-103.477,0l0,-106.169Z" style="fill:#000;fill-rule:nonzero;"/><path d="M649.271,894.449c45.697,-21.496 89.371,-30.903 137.08,-30.903c53.085,0 88.023,14.105 103.481,41.658c8.731,15.453 11.418,35.61 11.418,78.621l0,210.313c-46.369,6.719 -104.825,11.427 -147.826,11.427c-86.68,0 -125.659,-30.249 -125.659,-97.439c0,-72.574 51.741,-106.169 178.743,-116.923l0,-22.845c0,-18.813 -9.406,-25.528 -35.615,-25.528c-38.298,0 -81.304,10.751 -121.627,31.584l0,-79.965l0.005,0ZM811.211,1059.08c-68.542,6.719 -90.715,17.474 -90.715,44.35c0,20.157 12.771,29.564 40.991,29.564c15.458,0 29.563,-1.34 49.724,-4.699l0,-69.215Z" style="fill:#000;fill-rule:nonzero;"/><path d="M951.652,887.058c61.142,-16.126 111.539,-23.512 162.608,-23.512c53.084,0 91.387,12.09 114.24,35.611c21.501,22.168 28.216,46.356 28.216,98.106l0,202.922l-103.481,0l0,-198.891c0,-39.642 -13.438,-54.432 -50.393,-54.432c-14.11,0 -26.876,1.343 -47.713,7.39l0,245.933l-103.477,0l0,-313.127Z" style="fill:#000;fill-rule:nonzero;"/><path d="M1296.94,1256.63c36.291,18.814 72.574,27.544 110.872,27.544c67.862,0 96.758,-27.544 96.758,-93.398c0,-0.672 0,-1.344 0,-2.016c-20.157,10.074 -40.318,14.11 -67.19,14.11c-90.715,0 -148.511,-59.804 -148.511,-154.546c0,-117.6 85.344,-184.114 236.526,-184.114c44.354,0 85.344,4.699 135.069,14.778l-35.433,74.642c-27.552,-5.376 -2.206,-0.72 -23.027,-2.736l0,10.755l1.34,43.669l0.667,56.448c0.672,14.106 0.672,28.22 1.349,42.33c0,12.766 0,18.818 0,28.224c0,88.7 -7.391,130.357 -29.564,164.624c-32.256,50.402 -88.028,75.262 -167.316,75.262c-40.318,0 -75.253,-6.047 -111.544,-20.161l0,-95.415l0.004,0ZM1502.56,947.533c-1.344,0 -2.683,0 -3.355,0l-7.396,0c-20.152,-0.671 -43.669,4.699 -59.803,14.778c-24.856,14.114 -37.631,39.651 -37.631,75.933c0,51.745 25.541,81.309 71.23,81.309c14.11,0 25.537,-2.692 38.971,-6.719l0,-7.395l0,-28.216c0,-12.094 -0.668,-25.541 -0.668,-39.646l-0.668,-47.705l-0.676,-34.271l0,-8.068l-0.004,0Z" style="fill:#000;fill-rule:nonzero;"/><path d="M1821.11,862.198c103.477,0 166.644,65.183 166.644,170.675c0,108.189 -65.846,176.055 -170.676,176.055c-103.485,0 -167.32,-65.182 -167.32,-170.003c0.004,-108.865 65.859,-176.727 171.352,-176.727ZM1819.09,1125.6c39.651,0 63.172,-32.928 63.172,-90.043c0,-56.44 -22.849,-90.039 -62.487,-90.039c-40.994,0 -64.519,32.931 -64.519,90.039c0.004,57.12 23.525,90.043 63.834,90.043Z" style="fill:#000;fill-rule:nonzero;"/></g></svg>