<?xml version="1.0" standalone="no"?><!DOCTYPE svg PUBLIC "-//W3C//DTD SVG 1.1//EN" "http://www.w3.org/Graphics/SVG/1.1/DTD/svg11.dtd"><svg width="100%" height="100%" viewBox="0 0 834 834" version="1.1" xmlns="http://www.w3.org/2000/svg" xmlns:xlink="http://www.w3.org/1999/xlink" xml:space="preserve" style="fill-rule:evenodd;clip-rule:evenodd;stroke-linejoin:round;stroke-miterlimit:1.41421;"><path id="SVGID_1_" d="M202.217,574.214c-20.389,0 -38.923,-16.682 -38.923,-37.07c0,-20.388 16.681,-37.07 38.923,-37.07c22.242,0 38.923,16.682 38.923,37.07c0,20.388 -18.535,37.07 -38.923,37.07ZM680.419,372.183c-3.707,-29.656 -22.242,-53.752 -46.337,-72.287l-9.268,-7.414l-7.414,9.268c-14.828,16.681 -20.388,46.337 -18.535,68.579c1.854,16.682 7.414,33.363 16.682,46.338c-7.414,3.707 -16.682,7.414 -24.095,11.121c-16.682,5.56 -33.363,7.414 -50.045,7.414l-480.056,0l-1.853,11.121c-3.707,35.216 1.853,72.286 16.681,105.649l7.414,12.974l0,1.854c44.484,74.14 124.184,107.503 211.299,107.503c166.815,0 303.973,-72.287 368.846,-227.98c42.63,1.853 85.261,-9.268 105.649,-50.045l5.561,-9.267l-9.268,-5.561c-24.095,-14.828 -57.458,-16.681 -85.261,-9.267ZM441.318,342.527l-72.286,0l0,72.286l72.286,0l0,-72.286ZM441.318,251.705l-72.286,0l0,72.287l72.286,0l0,-72.287ZM441.318,159.03l-72.286,0l0,72.287l72.286,0l0,-72.287ZM530.286,342.527l-72.286,0l0,72.286l72.286,0l0,-72.286ZM261.529,342.527l-72.287,0l0,72.286l72.287,0l0,-72.286ZM352.35,342.527l-72.286,0l0,72.286l72.286,0l0,-72.286ZM172.561,342.527l-72.286,0l0,72.286l72.286,0l0,-72.286ZM352.35,251.705l-72.286,0l0,72.287l72.286,0l0,-72.287ZM261.529,251.705l-72.287,0l0,72.287l72.287,0l0,-72.287Z" style="fill:#000;fill-rule:nonzero;"/></svg>