<?xml version="1.0" standalone="no"?><!DOCTYPE svg PUBLIC "-//W3C//DTD SVG 1.1//EN" "http://www.w3.org/Graphics/SVG/1.1/DTD/svg11.dtd"><svg width="100%" height="100%" viewBox="0 0 4167 4167" version="1.1" xmlns="http://www.w3.org/2000/svg" xmlns:xlink="http://www.w3.org/1999/xlink" xml:space="preserve" style="fill-rule:evenodd;clip-rule:evenodd;stroke-linejoin:round;stroke-miterlimit:1.41421;"><path d="M1636.97,1792.54l915.704,417.191l922.775,-809.637c14.142,-67.175 19.442,-132.584 19.442,-203.292c0,-569.221 -463.154,-1032.38 -1032.37,-1032.38c-341.179,0 -657.613,167.937 -850.296,449.012l-153.796,797.263l178.542,381.837Z" style="fill:#000;fill-rule:nonzero;"/><path d="M689.45,2761.27c-14.142,67.175 -19.446,136.117 -19.446,206.829c0,570.988 464.925,1034.14 1035.91,1034.14c342.946,0 662.912,-169.704 855.595,-452.546l152.03,-793.729l-203.292,-388.909l-919.238,-418.958l-901.562,813.171l0,0Z" style="fill:#000;fill-rule:nonzero;"/><path d="M684.146,1177.35l627.558,148.492l137.888,-712.409c-84.854,-65.408 -190.921,-100.762 -300.521,-100.762c-272.238,0 -494.975,220.971 -494.975,494.975c0,58.333 10.608,116.671 30.05,169.704" style="fill:#000;fill-rule:nonzero;"/><path d="M629.346,1327.61c-279.304,91.925 -475.529,360.625 -475.529,655.841c0,288.146 178.546,544.471 445.479,647.004l880.346,-795.496l-160.867,-344.712l-689.429,-162.638l0,0.001Z" style="fill:#000;fill-rule:nonzero;"/><path d="M2720.61,3549.7c86.62,65.404 190.916,102.529 298.754,102.529c272.233,0 494.971,-220.971 494.971,-494.975c0,-60.104 -10.605,-118.442 -30.05,-171.471l-625.788,-146.725l-137.887,710.642l0,0Z" style="fill:#000;fill-rule:nonzero;"/><path d="M2847.89,2674.65l689.429,160.867c281.075,-91.925 475.529,-360.625 475.529,-657.609c0,-286.379 -178.546,-544.471 -445.479,-645.233l-901.559,790.192l182.08,351.783Z" style="fill:#000;fill-rule:nonzero;"/></svg>