<?xml version="1.0" standalone="no"?><!DOCTYPE svg PUBLIC "-//W3C//DTD SVG 1.1//EN" "http://www.w3.org/Graphics/SVG/1.1/DTD/svg11.dtd"><svg width="100%" height="100%" viewBox="0 0 2500 2500" version="1.1" xmlns="http://www.w3.org/2000/svg" xmlns:xlink="http://www.w3.org/1999/xlink" xml:space="preserve" style="fill-rule:evenodd;clip-rule:evenodd;stroke-linejoin:round;stroke-miterlimit:1.41421;"><path id="Logo" d="M1714.37,1479.9c0,0 -11.232,-39.822 30.633,-116.403c41.864,-76.581 74.538,-34.717 74.538,-34.717c0,0 35.738,38.801 -5.105,97.003c-40.843,58.201 -100.066,54.117 -100.066,54.117ZM1392.73,1535.04c-47.99,125.592 -164.393,74.538 -164.393,74.538c0,0 -13.274,-44.927 24.506,-170.519c37.78,-125.593 126.613,-76.581 126.613,-76.581c0,0 61.265,46.969 13.274,172.562ZM1305.94,1009.19c0,0 72.496,-188.899 89.854,-97.002c17.359,91.897 -152.14,365.545 -152.14,365.545c2.042,-61.264 62.286,-268.543 62.286,-268.543ZM269.54,1479.9c3.063,-121.509 82.707,-174.605 110.276,-148.057c27.569,26.548 17.358,83.729 -34.716,119.466c-52.075,35.738 -75.56,28.591 -75.56,28.591ZM2465.88,1459.73c-4.085,-40.843 -40.843,-25.649 -40.843,-25.649c0,0 -59.223,45.907 -111.298,40.802c-52.075,-5.105 -35.737,-121.549 -35.737,-121.549c0,0 11.231,-106.723 -19.401,-115.668c-30.632,-8.944 -68.412,27.815 -68.412,27.815c0,0 -46.97,52.075 -69.433,118.444l-6.127,2.043c0,0 7.148,-116.403 -1.021,-142.951c-6.126,-13.274 -62.285,-12.253 -71.475,11.232c-9.19,23.485 -54.117,186.857 -57.18,255.269c0,0 -87.813,74.538 -164.394,86.791c-76.581,12.253 -94.96,-35.737 -94.96,-35.737c0,0 208.3,-58.202 201.152,-224.637c-7.147,-166.436 -167.987,-104.885 -186.162,-91.203c-17.608,13.233 -111.625,69.924 -139.03,226.924c-0.94,5.351 -2.573,28.672 -2.573,28.672c0,0 -80.665,54.117 -125.593,68.412c0,0 125.593,-211.363 -27.569,-307.344c-69.433,-41.864 -124.571,45.949 -124.571,45.949c0,0 207.278,-230.764 161.33,-425.789c-21.892,-92.877 -68.294,-102.843 -110.93,-87.813c-64.695,25.527 -89.201,63.307 -89.201,63.307c0,0 -83.728,121.508 -103.129,302.239c-19.4,180.73 -47.99,399.241 -47.99,399.241c0,0 -39.822,38.8 -76.581,40.843c-36.759,2.042 -20.422,-109.256 -20.422,-109.256c0,0 28.59,-169.498 26.548,-198.088c-2.042,-28.591 -4.084,-43.907 -37.78,-54.117c-33.695,-10.211 -70.454,32.674 -70.454,32.674c0,0 -97.002,147.035 -105.171,169.499l-5.105,9.189l-5.105,-6.126c0,0 68.412,-200.131 3.063,-203.194c-65.349,-3.064 -108.234,71.475 -108.234,71.475c0,0 -74.539,124.571 -77.602,138.866l-5.106,-6.126c0,0 30.633,-144.993 24.506,-180.731c-6.126,-35.737 -39.822,-28.59 -39.822,-28.59c0,0 -42.885,-5.105 -54.117,22.464c-11.232,27.569 -52.075,210.342 -57.18,268.543c0,0 -107.213,76.581 -177.667,77.602c-70.455,1.021 -63.307,-44.682 -63.307,-44.682c0,0 258.332,-88.426 187.878,-263.03c-31.653,-44.927 -68.412,-59.059 -120.487,-58.038c-52.075,1.021 -116.689,32.797 -158.553,126.736c-20.013,44.805 -27.283,87.323 -31.367,119.507c0,0 -45.214,9.231 -69.719,-11.191c-24.506,-20.421 -37.127,0 -37.127,0c0,0 -42.068,53.627 -0.204,69.964c41.864,16.338 107.213,23.975 107.213,23.975l-0.041,0c6.004,28.59 23.485,77.153 74.457,115.872c76.581,58.201 223.575,-5.35 223.575,-5.35l60.244,-33.819c0,0 2.042,55.261 45.948,63.348c43.906,8.046 62.286,-0.122 138.866,-185.958c44.928,-94.961 47.991,-89.896 47.991,-89.896l5.105,-1.021c0,0 -34.716,181.752 -21.442,230.763c13.274,49.012 71.475,43.907 71.475,43.907c0,0 31.654,6.126 57.18,-83.729c25.527,-89.854 74.539,-188.899 74.539,-188.899l6.126,0c0,0 -21.442,185.836 11.232,245.058c32.675,59.223 117.424,19.932 117.424,19.932c0,0 59.223,-29.897 68.412,-39.087c0,0 70.291,59.835 169.458,48.971c221.615,-43.621 300.442,-102.516 300.442,-102.516c0,0 38.065,96.471 156.02,105.416c134.782,10.211 208.3,-74.58 208.3,-74.58c0,0 -1.021,55.138 45.948,74.539c46.97,19.4 78.623,-89.61 78.623,-89.61l78.623,-216.713l7.148,0c0,0 4.084,140.908 81.686,163.372c77.602,22.464 178.688,-52.606 178.688,-52.606c0,0 24.506,-13.519 20.422,-54.362Z" style="fill:#000;"/></svg>