<?xml version="1.0" standalone="no"?><!DOCTYPE svg PUBLIC "-//W3C//DTD SVG 1.1//EN" "http://www.w3.org/Graphics/SVG/1.1/DTD/svg11.dtd"><svg width="100%" height="100%" viewBox="0 0 16667 16667" version="1.1" xmlns="http://www.w3.org/2000/svg" xmlns:xlink="http://www.w3.org/1999/xlink" xml:space="preserve" style="fill-rule:evenodd;clip-rule:evenodd;stroke-linejoin:round;stroke-miterlimit:1.41421;"><circle cx="10962.1" cy="5783.26" r="676.764" style="fill:#000;"/><circle cx="5604.04" cy="5984.89" r="676.764" style="fill:#000;"/><path d="M10934.1,3492.6c40.504,0.186 80.99,1.297 121.432,3.525c81.925,4.516 163.61,13.375 244.589,26.59c195.561,31.914 386.865,89.369 567.51,170.817c129.69,58.471 253.824,129.239 370.146,211.136c120.358,84.736 232.336,181.38 333.58,288.235c88.767,93.68 169.276,195.193 240.052,303.119c72.21,110.106 134.271,226.866 184.876,348.429c43.505,104.502 78.532,212.526 104.535,322.694c26.525,112.387 43.647,226.965 51.228,342.184c13.499,205.189 -3.102,412.289 -49.698,612.588c-38.618,166.014 -97.766,327.13 -175.354,478.88c-74.745,146.186 -166.513,283.575 -272.469,408.976c-94.812,112.211 -200.95,214.805 -316.118,305.991c-90.13,71.362 -185.78,135.732 -285.781,192.422c-101.258,57.4 -206.973,106.924 -315.871,148.021c-132.513,50.008 -269.708,87.519 -409.201,112.03c-132.203,23.228 -266.424,34.772 -400.648,34.772c-134.22,0 -268.441,-11.544 -400.644,-34.772c-139.493,-24.511 -276.688,-62.022 -409.201,-112.03c-214.42,-80.924 -416.356,-194.606 -596.47,-336.354c-117.168,-92.205 -225.067,-196.187 -321.3,-310.08c-105.956,-125.401 -197.724,-262.79 -272.468,-408.976c-77.589,-151.75 -136.737,-312.866 -175.355,-478.88c-46.596,-200.302 -63.183,-407.392 -49.698,-612.58c7.57,-115.223 24.703,-229.805 51.228,-342.192c26.003,-110.168 61.03,-218.192 104.535,-322.694c51.446,-123.584 114.735,-242.197 188.482,-353.91c69.897,-105.886 149.183,-205.545 236.443,-297.638c102.765,-108.457 216.586,-206.394 339.005,-292.041c114.757,-80.283 237.048,-149.769 364.724,-207.33c180.646,-81.448 371.949,-138.903 567.51,-170.817c80.979,-13.215 162.664,-22.074 244.589,-26.59c40.442,-2.228 80.928,-3.339 121.432,-3.525c4.792,-0.007 9.588,-0.007 14.38,0l0,0ZM10920.4,3690.44c-37.073,0.171 -74.129,1.187 -111.148,3.226c-74.897,4.129 -149.576,12.224 -223.607,24.307c-178.519,29.135 -353.155,81.565 -518.062,155.916c-116.436,52.495 -227.966,115.86 -332.625,189.079c-111.509,78.014 -215.192,167.215 -308.799,266.004c-79.322,83.718 -151.409,174.306 -214.948,270.557c-66.879,101.312 -124.287,208.87 -170.945,320.95c-39.378,94.595 -71.092,192.379 -94.627,292.103c-23.531,99.696 -38.89,201.307 -45.947,303.501c-12.826,185.827 1.565,373.49 43.191,555.067c34.495,150.48 87.613,296.582 157.467,434.244c68.369,134.726 152.646,261.281 250.146,376.672c87.614,103.694 185.86,198.35 292.533,282.296c162.638,127.997 344.802,230.879 538.196,304.535c122.761,46.753 249.979,81.725 379.356,104.459c120.904,21.244 243.653,31.79 366.403,31.79c122.754,0 245.503,-10.546 366.407,-31.79c129.381,-22.734 256.592,-57.71 379.356,-104.459c195.277,-74.366 379.086,-178.544 542.919,-308.264c112.652,-89.19 215.811,-190.364 306.894,-301.501c89.449,-109.149 167.198,-227.886 231.062,-353.738c69.854,-137.662 122.972,-283.764 157.467,-434.244c41.626,-181.577 56.017,-369.24 43.191,-555.067c-7.057,-102.194 -22.416,-203.805 -45.947,-303.501c-23.535,-99.724 -55.249,-197.508 -94.627,-292.103c-45.894,-110.241 -102.187,-216.116 -167.667,-315.969c-64.341,-98.108 -137.535,-190.378 -218.226,-275.538c-92.223,-97.328 -194.227,-185.35 -303.857,-262.534c-106.087,-74.69 -219.296,-139.227 -337.567,-192.549c-164.907,-74.351 -339.543,-126.781 -518.062,-155.916c-74.031,-12.083 -148.71,-20.178 -223.607,-24.307c-37.019,-2.039 -74.075,-3.055 -111.148,-3.226c-4.392,-0.008 -8.78,-0.008 -13.172,0Z" style="fill:#000;fill-rule:nonzero;"/><path d="M5708.84,3694.19c40.504,0.19 80.99,1.297 121.432,3.525c79.606,4.388 158.986,12.877 237.714,25.48c197.95,31.691 391.624,89.525 574.389,171.927c123.645,55.751 242.247,122.677 353.843,199.77c126.556,87.432 244.076,187.94 349.879,299.601c85.756,90.505 163.811,188.318 232.82,292.165c75.301,113.311 139.824,233.778 192.112,359.386c43.501,104.503 78.524,212.523 104.532,322.691c26.528,112.383 43.65,226.969 51.228,342.191c13.491,205.186 -3.103,412.282 -49.699,612.581c-38.618,166.014 -97.762,327.137 -175.354,478.887c-71.759,140.338 -159.201,272.578 -259.833,393.878c-96.582,116.418 -205.276,222.737 -323.587,316.982c-91.637,72.993 -189.031,138.746 -290.948,196.522c-103.221,58.514 -211.077,108.843 -322.211,150.403c-134.89,50.445 -274.576,87.948 -416.56,112.015c-127.772,21.652 -257.36,32.408 -386.949,32.408c-129.584,0 -259.173,-10.756 -386.941,-32.408c-141.987,-24.067 -281.673,-61.57 -416.564,-112.015c-109.054,-40.781 -214.944,-90.006 -316.402,-147.122c-100.191,-56.403 -196.049,-120.503 -286.404,-191.61c-117.171,-92.205 -225.068,-196.191 -321.304,-310.081c-105.959,-125.401 -197.72,-262.789 -272.468,-408.972c-77.592,-151.75 -136.733,-312.87 -175.354,-478.884c-46.6,-200.298 -63.194,-407.402 -49.699,-612.587c7.432,-112.987 24.041,-225.363 49.699,-335.651c26.156,-112.43 61.7,-222.661 106.064,-329.228c50.605,-121.566 112.667,-238.326 184.877,-348.432c70.779,-107.926 151.284,-209.439 240.052,-303.119c101.247,-106.851 213.222,-203.495 333.579,-288.232c116.326,-81.896 240.456,-152.661 370.143,-211.135c182.761,-82.406 376.439,-140.24 574.388,-171.931c78.729,-12.603 158.109,-21.092 237.715,-25.48c40.442,-2.228 80.927,-3.335 121.431,-3.525c4.792,-0.003 9.588,-0.003 14.38,0l0,0ZM5695.08,3892.03c-37.074,0.171 -74.133,1.183 -111.152,3.222c-72.775,4.013 -145.349,11.77 -217.322,23.295c-180.7,28.927 -357.504,81.703 -524.341,156.928c-112.764,50.846 -220.934,111.873 -322.709,182.186c-115.281,79.646 -222.34,171.185 -318.718,272.901c-80.695,85.159 -153.884,177.434 -218.225,275.538c-65.485,99.849 -121.774,205.728 -167.668,315.966c-40.157,96.469 -72.337,196.249 -96.014,298.024c-22.752,97.798 -37.641,197.414 -44.56,297.583c-12.833,185.827 1.569,373.493 43.191,555.067c34.496,150.48 87.617,296.578 157.467,434.244c66.563,131.179 148.219,254.614 242.47,367.532c88.255,105.729 187.513,202.221 295.486,287.707c163.833,129.713 347.643,233.902 542.916,308.26c118.813,45.242 241.789,79.468 366.865,102.227c124.939,22.734 251.916,34.022 378.897,34.022c118.515,0 237.034,-9.821 353.884,-29.627c133.696,-22.657 265.156,-58.361 391.883,-106.622c197.148,-75.075 382.607,-180.55 547.627,-312.003c107.704,-85.793 206.664,-182.568 294.587,-288.549c92.646,-111.672 172.994,-233.541 238.657,-362.947c69.85,-137.662 122.976,-283.764 157.464,-434.24c41.622,-181.578 56.027,-369.244 43.195,-555.071c-7.061,-102.19 -22.413,-203.801 -45.948,-303.497c-23.539,-99.728 -55.248,-197.512 -94.627,-292.11c-47.419,-113.912 -105.948,-223.156 -174.236,-325.918c-62.735,-94.401 -133.7,-183.311 -211.656,-265.586c-96.375,-101.716 -203.437,-193.259 -318.719,-272.901c-101.775,-70.309 -209.94,-131.344 -322.709,-182.186c-166.837,-75.225 -343.64,-128.001 -524.34,-156.928c-71.974,-11.525 -144.548,-19.282 -217.322,-23.295c-37.019,-2.039 -74.079,-3.051 -111.152,-3.222c-4.392,-0.008 -8.78,-0.008 -13.171,0l0,0Z" style="fill:#000;fill-rule:nonzero;"/><path d="M8471.03,10371c-46.017,68.109 -107.332,125.644 -178.901,166.294c-46.367,26.339 -96.681,45.427 -148.677,57.185c-45.442,10.255 -92.038,14.974 -138.587,14.959c-79.129,0 -158.298,-13.972 -231.582,-44.214c-104.207,-42.969 -195.593,-118.573 -254.173,-215.225c-15.63,-25.778 -28.983,-53.15 -38.283,-81.856c-6.526,-20.119 -11.092,-41.057 -11.758,-62.254c-0.259,-8.237 0.062,-16.492 1.139,-24.671c0.485,-3.685 1.257,-7.283 1.759,-10.968c1.107,-9.77 1.912,-19.573 2.702,-29.39c5.127,-67.655 8.663,-135.433 12.228,-203.179c4.294,-81.372 8.223,-162.759 12.046,-244.145c8.405,-178.308 16.205,-356.648 23.699,-535.021c-16.871,3.339 -33.757,6.573 -50.66,9.697c-52.466,9.712 -105.133,18.51 -158.083,25.141c-33.141,4.144 -66.427,7.465 -99.809,9.104c-32.394,1.576 -65.076,1.744 -97.347,-1.974c-23.079,-2.655 -45.929,-7.418 -68.186,-14.078c-106.105,-31.742 -195.972,-104.888 -261.577,-192.666c-116.726,-156.185 -163.639,-364.28 -117.484,-554.469c15.644,-64.487 41.862,-126.057 76.941,-182.361c60.845,-97.667 132.246,-188.933 212.54,-271.365c51.829,-53.212 107.423,-102.736 166.204,-148.149c107.543,-83.098 225.358,-151.907 349.455,-206.802c25.279,-363.417 451.679,-530.924 960.132,-530.924c625.555,0 826.974,208.565 826.974,479.973c0,16.387 -1.82,33.152 -5.385,50.161c45.955,15.069 91.491,31.408 136.478,49.189c34.138,13.492 67.942,27.813 101.323,43.06c152.788,69.843 298.916,159.831 418.159,279.209c36.856,36.902 70.994,76.532 101.521,118.821c27.66,38.278 51.981,78.837 74.409,120.379c10.12,18.753 19.784,37.765 28.917,57.018c53.544,112.794 89.958,236.771 85.272,362.645c-0.743,19.846 -2.502,39.659 -5.357,59.323c-3.656,25.279 -9.089,50.299 -16.339,74.788c-9.865,33.29 -23.08,65.575 -39.36,96.24c-19.315,36.4 -42.879,70.721 -69.931,101.808c-46.989,54.003 -102.929,99.32 -164.153,136.252c-84.526,50.98 -178.311,86.652 -274.518,108.137c-37.253,8.313 -75,14.475 -112.995,18.069c-32.755,3.113 -65.695,4.264 -98.559,2.731c3.033,67.596 6.143,135.174 9.271,202.756c7.192,152.53 14.442,305.063 22.773,457.531c2.699,49.509 5.492,99.018 8.678,148.498c1.427,22.213 2.913,44.44 4.657,66.639c0.973,12.362 1.898,24.762 3.445,37.052c0.485,3.805 1.289,7.57 1.85,11.361c0.579,5.174 0.579,5.16 0.958,10.363c0.317,7.753 0.287,15.462 -0.364,23.215c-1.745,20.953 -6.966,41.512 -13.976,61.3c-8.055,22.726 -18.554,44.575 -30.618,65.455c-58.172,100.639 -152.03,179.415 -259.151,223.585c-73.266,30.239 -152.439,44.211 -231.578,44.211c-46.553,0.015 -93.149,-4.701 -138.576,-14.959c-51.996,-11.758 -102.307,-30.846 -148.691,-57.185c-71.555,-40.635 -132.866,-98.185 -178.872,-166.294l0,0ZM8358.84,9010.06c-114.072,27.479 -228.381,53.941 -343.301,77.654c-95.042,19.62 -190.569,38.072 -287.053,49.054l-6.886,0.699c-4.992,118.788 -10.152,237.576 -15.403,356.346c-4.687,103.872 -9.497,207.73 -14.457,311.588c-3.718,75.331 -7.465,150.665 -11.743,225.967c-1.898,33.228 -3.915,66.457 -6.162,99.656c-1.609,23.487 -3.215,47.051 -6.372,70.385c0.728,2.976 1.682,5.856 2.654,8.755c6.875,18.633 16.707,36.021 28.01,52.316c18.375,26.43 40.828,50.023 65.987,70.098c38.327,30.556 83.007,52.543 130.332,65.15c35.974,9.591 73.24,13.852 110.46,13.87c40.147,0 80.428,-4.901 118.966,-16.387c51.665,-15.418 99.157,-42.925 137.8,-80.552c29.299,-28.527 53.62,-62.375 71.055,-99.368c5.037,-10.681 9.483,-21.652 13.077,-32.908c2.549,-7.997 4.858,-16.252 5.706,-24.642c0.575,-8.073 0.881,-16.175 1.213,-24.259c2.429,-69.188 3.914,-138.408 5.313,-207.625c1.409,-69.126 2.712,-138.241 3.943,-207.366c3.868,-217.242 7.116,-434.502 10.335,-651.744l0.863,-60.175c-4.781,1.169 -9.559,2.337 -14.34,3.488l0.003,0ZM8588.87,9058.75c-0.79,219.263 -1.58,438.541 -1.566,657.8c0,84.846 0.091,169.692 0.532,254.538c0.197,37.554 0.455,75.105 0.939,112.659c0.321,23.925 0.532,47.882 1.701,71.781c0.167,2.457 0.441,4.824 0.834,7.235c2.749,14.613 7.694,28.753 13.521,42.394c8.04,18.859 17.992,36.899 29.404,53.941c31.499,47.047 74.344,86.226 124.706,112.277c53.041,27.431 112.612,39.419 172.026,40.161c68.885,0.867 138.116,-13.185 198.688,-46.701c45.078,-24.944 84.875,-60.022 114.309,-102.387c7.407,-10.666 14.158,-21.816 19.923,-33.454c4.264,-8.605 7.982,-17.479 10.545,-26.736l0.23,-0.895c-0.987,-6.872 -0.958,-6.857 -1.777,-13.729c-1.351,-13.051 -2.487,-26.113 -3.551,-39.193c-3.55,-46.505 -6.401,-93.039 -9.133,-139.588c-3.262,-56.02 -6.296,-112.065 -9.194,-168.1c-9.118,-176.745 -17.421,-353.538 -25.49,-530.331l-3.037,-67.807c-10.331,-2.018 -20.589,-4.323 -30.844,-6.708c-10.061,-2.396 -20.089,-4.945 -30.103,-7.523c-87.41,-23.564 -172.999,-53.333 -257.815,-84.831c-105.876,-39.328 -210.553,-81.828 -314.669,-125.554c-0.059,13.579 -0.121,27.158 -0.183,40.751l0.004,0ZM9161.2,7807.07c-141.183,163.199 -421.757,305.216 -782.305,305.216c-223.979,0 -668.997,-109.473 -838.096,-294.594c-126.631,57.411 -245.648,131.668 -351.141,222.388c-70.616,60.735 -135.007,128.616 -192.087,202.22c-21.062,27.173 -41.134,55.121 -60.208,83.725c-13.306,19.98 -26.568,40.129 -37.9,61.326c-16.631,31.119 -29.314,64.319 -37.646,98.606c-24.896,102.598 -10.028,212.57 34.762,307.598c18.71,39.692 42.71,77.078 71.889,109.913c6.478,7.298 13.215,14.366 20.225,21.165c41.968,40.755 95.574,74.242 154.973,79.718c20.181,1.865 40.588,1.457 60.812,0.47c25.25,-1.231 50.42,-3.656 75.517,-6.66c67.866,-8.088 135.233,-20.181 202.283,-33.334c91.917,-18.058 183.332,-38.599 274.594,-59.662c101.917,-23.516 203.649,-47.779 305.551,-71.372c31.816,-7.283 63.664,-14.475 95.541,-21.543c69.719,-15.221 139.573,-29.878 210.05,-41.167c23.171,-3.714 46.462,-6.9 69.811,-9.267c25.522,-2.596 51.209,-4.235 76.849,-3.263c37.962,1.442 75.578,8.04 112.371,17.221c43.727,10.924 86.5,25.552 128.573,41.618c47.157,18.01 93.571,37.947 139.712,58.369c52.495,23.247 104.783,46.931 157.387,69.916c15.611,6.769 31.255,13.458 46.942,20.09c61.602,25.643 123.9,50.022 188.158,68.248c45.201,12.818 91.597,22.864 138.604,25.61c27.235,1.591 54.589,0.302 81.704,-2.549c73.739,-7.8 146.688,-27.176 214.893,-56.217c48.278,-20.556 94.601,-46.396 136.037,-78.713c29.678,-23.171 56.836,-49.783 79.369,-80.007c14.989,-20.09 27.872,-41.756 38.068,-64.665c6.751,-15.188 12.319,-30.894 16.66,-46.931c23.731,-87.821 8.936,-180.995 -20.56,-265.524c-4.355,-12.501 -9.056,-24.897 -14.063,-37.157c-6.267,-15.371 -12.989,-30.541 -20.105,-45.533c-12.322,-25.96 -25.796,-51.359 -40.147,-76.259c-11.441,-19.861 -23.396,-39.401 -36.447,-58.264c-20.815,-30.071 -43.938,-58.518 -68.853,-85.301c-46.745,-50.204 -99.637,-94.477 -155.854,-133.714c-70.735,-49.374 -146.794,-90.916 -225.195,-126.741c-35.289,-16.128 -71.114,-31.101 -107.332,-45.077c-47.229,-18.222 -95.071,-34.791 -143.396,-49.903l0,0Z" style="fill:#000;"/><path d="M1993.76,14060c3.281,-82.685 6.256,-165.382 8.798,-248.094c3.681,-119.742 6.565,-239.531 7.214,-359.335c0.091,-17.038 0.134,-34.077 0.116,-51.115c-0.029,-28.421 -0.236,-56.843 -0.695,-85.261c-0.608,-37.66 -1.61,-75.316 -3.886,-112.918c-2.035,-33.596 -4.843,-67.145 -8.117,-100.639c-3.71,-37.962 -8.025,-75.862 -12.712,-113.711c-10.881,-87.909 -23.709,-175.57 -37.223,-263.11c-16.685,-108.104 -34.499,-216.029 -52.499,-323.918c-16.973,-101.717 -34.131,-203.405 -51.14,-305.114c-6.741,-40.42 -13.459,-80.844 -20.152,-121.275c-19.861,-120.529 -39.404,-241.112 -58.136,-361.823c-27.202,-175.285 -52.794,-350.825 -75.972,-526.689c-42.273,-320.735 -76.576,-642.607 -98.599,-965.397c-17.108,-250.725 -26.831,-502 -26.831,-753.326l0,-0.043c-0.003,-258.821 10.284,-517.743 34.041,-775.503c21.277,-230.879 53.376,-460.862 99.055,-688.213c11.139,-55.456 23.09,-110.751 35.893,-165.846c5.896,-25.381 12.006,-50.711 18.237,-76.016c9.3,-37.361 18.695,-74.701 28.065,-112.044c29.408,-116.901 59.006,-233.752 89.437,-350.391c21.936,-84.067 44.28,-168.028 67.225,-251.825c4.745,-17.33 9.515,-34.656 14.326,-51.971c-7.542,-1.42 -15.065,-2.895 -22.588,-4.399c-6.606,-1.336 -13.204,-2.702 -19.795,-4.097c-29.51,-6.314 -58.872,-13.269 -88.047,-20.982c-56.115,-14.835 -111.53,-32.318 -165.992,-52.393c-146.299,-53.93 -285.661,-126.639 -413.32,-216.19c-86.189,-60.459 -167.026,-128.561 -241.06,-203.422c-76.817,-77.672 -146.289,-162.617 -206.875,-253.529c-52.685,-79.056 -98.622,-162.613 -136.926,-249.56c-36.699,-83.302 -66.369,-169.695 -88.462,-258.004c-16.925,-67.648 -29.405,-136.406 -37.343,-205.684c-10.662,-93.09 -13.138,-187.127 -7.472,-280.654c8.535,-140.925 35.832,-280.593 80.967,-414.362c38.137,-113.027 88.907,-221.717 150.717,-323.725c63.416,-104.659 138.397,-202.235 222.791,-290.828c76.627,-80.444 160.993,-153.477 251.399,-218.036c138.259,-98.735 290.573,-177.539 450.805,-233.96c125.841,-44.309 256.486,-74.799 388.893,-91.091c50.288,-6.187 100.828,-10.331 151.451,-12.45c24.689,-1.034 49.393,-1.551 74.104,-1.661c5.732,-0.011 11.467,0 17.199,0.026c54.862,0.411 109.684,3.015 164.32,8.091c99.292,9.228 197.851,26.364 294.394,51.345c169.6,43.883 332.865,112.051 483.013,202.344c54.036,32.493 106.36,67.833 156.663,105.85c25.009,18.903 49.48,38.494 73.477,58.66l2.684,2.265c97.394,-93.574 199.147,-182.604 304.837,-266.729c180.714,-143.841 372.761,-273.247 573.045,-388.226c198.244,-113.81 404.456,-213.51 615.835,-300.428c211.842,-87.107 428.855,-161.414 648.933,-224.79c249.571,-71.864 503.093,-129.702 758.581,-176.167c78.138,-14.209 156.466,-27.354 234.946,-39.498c72.553,-11.231 145.247,-21.565 217.967,-31.634c153.913,-21.317 308.082,-40.806 462.479,-58.285c418.779,-47.412 839.359,-80.192 1260.65,-93.451c59.075,-1.86 118.165,-3.313 177.259,-4.369l2.899,-0.055l9.121,-0.153l8.347,-0.142l4.988,-0.076c18.688,-0.303 37.376,-0.565 56.071,-0.783l4.829,-0.059l5.521,-0.058l10.09,-0.116l4.118,-0.033l-0.014,0c22.708,-0.23 45.416,-0.401 68.128,-0.514c21.55,-0.08 43.1,-0.116 64.65,-0.109c99.128,0.153 198.252,1.388 297.347,3.984c333.921,8.754 667.621,32.176 998.978,74.774c344.985,44.345 687.587,109.596 1023.01,202.027c98.851,27.239 197.053,56.84 294.455,88.885c90.592,29.805 180.481,61.741 269.599,95.697c74.609,28.425 148.658,58.293 222.27,89.198c64.644,27.139 128.923,55.131 193.307,82.868c14.588,6.264 29.183,12.498 43.792,18.699c19.42,8.193 38.869,16.31 58.442,24.125c5.841,2.33 11.689,4.635 17.552,6.908c6.165,2.388 12.355,4.708 18.513,7.115c3.736,1.493 7.461,3.011 11.179,4.559c38.545,16.332 75.589,35.989 111.731,57.073c30.461,17.774 60.302,36.6 89.671,56.125l0.805,0.532l4.173,2.789l1.959,1.308l0.637,0.429c12.88,8.623 25.665,17.385 38.366,26.266l0.882,0.612l2.523,1.773l3.642,2.549l1.041,0.736c39.579,27.846 78.397,56.77 116.614,86.448c51.723,40.165 102.347,81.743 152.053,124.385c55.153,47.313 109.174,95.945 162.179,145.662l3.933,3.692l1.227,1.154l2.691,2.528l3.638,3.434l0.688,0.651l1.005,0.951c6.151,5.797 12.279,11.612 18.397,17.439c9.427,8.987 18.822,18.003 28.185,27.052l1.558,1.5c0.867,0.842 1.835,-1.569 2.757,-2.352c3.998,-3.405 8.015,-6.788 12.038,-10.163c16.161,-13.477 32.519,-26.71 49.131,-39.627c33.345,-25.927 67.618,-50.66 102.725,-74.151c103.687,-69.38 214.613,-127.866 330.335,-174.462c117.029,-47.12 238.927,-82.049 363.1,-104.309c111.658,-20.014 225.122,-29.78 338.554,-29.438c97.645,0.292 195.269,8.07 291.702,23.448c138.08,22.016 273.652,59.632 403.222,112.218c161.517,65.554 313.573,154.365 449.567,263.452c125.382,100.581 237.004,218.331 329.872,349.569c51.76,73.139 97.66,150.429 136.94,230.963c34.179,70.083 63.333,142.621 87.057,216.9c28.341,88.72 48.915,179.909 61.373,272.209c12.235,90.673 16.652,182.375 13.331,273.809c-3.922,107.983 -18.786,215.552 -44.386,320.535c-22.649,92.901 -53.671,183.741 -92.445,271.146c-46.578,105.005 -104.306,205.011 -171.575,298.112c-65.673,90.89 -140.396,175.186 -222.478,251.573c-128.059,119.171 -273.939,218.939 -431.006,295.887c-50.649,24.813 -102.453,47.262 -155.184,67.272c-28.007,10.626 -56.279,20.487 -84.748,29.798l-1.453,0.47c4.501,13.193 8.965,26.397 13.39,39.611l0.291,0.86l0.266,0.797c18.276,54.593 35.934,109.39 52.968,164.387l0.405,1.3l1.016,3.288l2.348,7.603l1.552,5.047l1.722,5.601l1.234,4.045l0.259,0.845l1.282,4.202l3.798,12.465c3.004,9.909 5.99,19.824 8.947,29.747l0.138,0.47c7.662,25.647 15.189,51.337 22.574,77.068l0.204,0.699l0.211,0.735c5.651,19.697 11.226,39.412 16.721,59.16l0.743,2.661l0.31,1.129l1.485,5.324l1.85,6.722l0.689,2.491l0.863,3.135l2.035,7.392l1.093,4.006l0.313,1.136l1.383,5.084l2.6,9.529l2.382,8.827l2.141,7.931l0.175,0.659l0.637,2.353l1.73,6.492l1.66,6.195l0.831,3.128l1.059,3.969l1.176,4.453l1.104,4.159l1.598,6.066l1.351,5.12l0.641,2.451l0.547,2.079l3.095,11.861l0.892,3.423l0.167,0.64l4.017,15.535l0.481,1.875l0.458,1.774l2.808,10.964l0.291,1.129l0.048,0.193c1.249,4.894 2.494,9.792 3.732,14.686l0.222,0.874l0.776,3.07l1.934,7.661l0.713,2.855l0.546,2.17l0.798,3.198l1.165,4.65l1.14,4.581l0.834,3.339l0.579,2.338l0.652,2.618l1.675,6.795l0.998,4.027l0.265,1.085c1.257,5.106 2.509,10.211 3.755,15.32l0.371,1.519l0.838,3.455l1.569,6.46l1.154,4.781l0.787,3.234l0.546,2.276l0.627,2.607l2.822,11.773l0.309,1.286l0.437,1.849l2.593,10.903l0.692,2.931l0.539,2.273l0.695,2.96l1.122,4.748l1.704,7.28l0.699,2.975l0.273,1.176c1.235,5.287 2.462,10.578 3.685,15.869l0.215,0.925l0.547,2.378l1.886,8.172l1.198,5.24l0.502,2.192l0.39,1.711l0.867,3.791l0.935,4.144l1.898,8.35l1.995,8.863l1.023,4.527l0.514,2.312c1.609,7.185 3.204,14.373 4.796,21.565l0.451,2.028l1.202,5.488l2.032,9.249l1.274,5.874l1.162,5.312l0.852,3.944l0.63,2.902l2.942,13.696l1.162,5.4l1.617,7.64l1.984,9.351l0.7,3.328l1.194,5.641l1.238,5.954l0.659,3.135l1.515,7.32l1.995,9.573l2.531,12.377l1.41,6.872l0.222,1.099l1.154,5.648l1.704,8.478l0.579,2.858l0.776,3.889c3.252,16.194 6.453,32.402 9.599,48.621l0.349,1.795l0.288,1.486c24.263,125.237 45.449,251.067 63.583,377.338c1.901,13.248 3.773,26.503 5.597,39.758l1.391,10.025l1.086,7.996l0.036,0.273l0.116,0.86l2.138,15.778l2.32,17.527l0.32,2.414l0.044,0.338l0.615,4.636l1.078,8.361l0.645,4.959l0.604,4.713l0.889,6.896l0.528,4.17l0.32,2.523l1.792,14.275l0.502,3.969l0.31,2.52l1.951,15.859l0.518,4.256l0.284,2.313l0.378,3.19l1.034,8.557l1.362,11.474l0.208,1.737l0.091,0.794c8.099,68.631 15.301,137.367 21.619,206.179c9.738,106.018 17.388,212.224 22.985,318.544l0.029,0.531c0.871,16.558 1.694,33.116 2.462,49.677l0.029,0.572c2.768,59.399 4.894,118.828 6.387,178.271c0.383,15.254 0.721,30.504 1.016,45.755c0.667,33.632 1.129,67.272 1.395,100.912c0.349,44.797 0.313,89.594 -0.011,134.391l-0.015,1.3l-0.007,1.162l-0.2,21.448c-0.404,43.974 -0.892,87.952 -1.297,131.93c-1.132,132.68 -1.977,265.364 -2.447,398.048c-0.335,94.386 -0.502,188.769 -0.517,283.152c-0.069,509.705 4.392,1019.41 11.984,1529.05c10.575,709.738 27.271,1419.38 48.384,2128.88c2.881,96.811 5.845,193.623 8.889,290.431l0.23,7.265l2.035,64.268l0.477,14.912l1.417,44.161l1.005,202.417l-13435,0l-0.966,-202.417ZM15230.8,14060l-0.642,-20.142l-0.437,-13.521l-0.641,-20.148l-1.435,-44.947l-0.968,-30.999l-0.729,-23.04l-0.957,-30.847l-0.969,-30.952l-0.739,-24.212l-1.027,-33.13l-1.165,-38.505l-0.612,-19.991l-0.565,-18.805l-1.263,-41.84l-1.162,-39.189l-0.39,-13.091l-0.466,-15.899l-1.507,-50.966l-1.056,-36.662l-0.273,-9.399l-0.434,-15.123l-1.671,-57.964l-0.9,-32.012l-0.225,-7.829l-0.466,-16.795l-1.759,-62.513l-0.718,-26.251l-0.204,-7.374l-0.582,-21.474c-1.857,-67.691 -3.667,-135.378 -5.437,-203.069l-0.036,-1.325l-0.051,-1.956c-0.929,-35.624 -1.846,-71.249 -2.75,-106.866l-0.105,-4.118l-0.189,-7.676c-0.842,-33.156 -1.668,-66.315 -2.488,-99.47l-0.142,-5.794l-0.335,-13.754l-0.906,-37.077l-1.133,-47.179l-0.364,-14.933l-0.452,-19.318l-0.892,-37.733l-0.761,-32.824l-0.542,-23.069l-0.514,-22.708l-0.925,-40.562l-0.546,-24.263l-0.575,-25.414l-0.445,-20.355l-1.081,-49.134l-0.426,-19.77c-1.533,-70.662 -3.012,-141.328 -4.432,-211.991l-0.08,-3.882l-0.149,-7.435l-0.528,-26.281l-0.262,-13.473l-0.193,-9.697l-0.368,-18.819l-0.284,-14.486l-0.142,-7.403l-0.317,-16.179l-0.59,-30.938l-0.036,-1.959l-0.019,-1.023c-5.032,-264.261 -9.282,-528.532 -12.606,-792.818l-0.048,-3.776l-0.036,-2.979l-0.251,-19.864l-0.255,-21.059l-0.109,-8.768l-0.113,-9.552l-0.211,-17.511l-0.161,-13.794l-0.138,-11.81l-0.204,-17.777l-0.157,-13.514l-0.087,-7.854l-0.153,-13.525l-0.313,-28.629l-0.077,-6.886l-0.029,-2.891c-2.421,-223.888 -4.151,-447.779 -5.087,-671.677l-0.022,-4.727l-0.014,-4.279l-0.077,-18.305l-0.076,-20.807l-0.04,-10.047l-0.026,-8.368l-0.051,-13.448l-0.051,-16.875l-0.051,-14.748l-0.029,-11.04l-0.029,-10.011l-0.018,-7.527c-0.146,-52.495 -0.244,-104.99 -0.291,-157.485l-0.015,-14.497l-0.004,-3.463l-0.007,-9.73l-0.007,-20.017l-0.007,-11.667l0,-7.378l-0.004,-14.38l0.004,-14.952l0,-8.168l0.003,-11.346l0.007,-18.972l0.011,-10.113l0,-4.442l0.019,-15.32l0.021,-23.564l0.008,-5.404l0,-0.59l0.029,-18.05l0.044,-29.394l0.05,-21.667l0.044,-20.643l0.011,-3.904l0.015,-7.224l0.051,-17.203l0.043,-16.546l0.029,-8.871l0.03,-10.819l0.047,-12.923l0.04,-12.265l0.055,-14.318l0.047,-13.932l0.036,-8.729l0.033,-7.898l0.091,-21.124l0.066,-15.687l0.022,-4.603l0.014,-3.463l0.19,-38.155l0.036,-7.218l0.025,-4.424l0.223,-39.954l0.069,-11.26l0.062,-10.72l0.098,-15.017l0.113,-18.255l0.124,-17.96l0.102,-15.123l0.076,-10.607l0.08,-11.558l0.211,-27.056l0.128,-17.133l0.047,-5.553l0.04,-5.51l0.426,-50.281l0.044,-5.011c0.259,-29.281 0.539,-58.562 0.834,-87.839c0.193,-18.961 0.404,-37.922 0.579,-56.883l0.004,-0.361l0.12,-14.209l0.113,-18.098l0.018,-3.455l0.065,-16.147l0.026,-7.792l0.011,-16.551l-0.015,-11.98c-0.102,-58.817 -0.783,-117.63 -2.105,-176.432l-0.196,-8.445l-0.153,-6.383l-0.401,-15.826l-0.014,-0.594c-1.836,-69.409 -4.552,-138.797 -8.168,-208.141c-7.225,-138.711 -18.036,-277.243 -32.5,-415.385l-0.095,-0.888l-2.64,-24.806l-0.087,-0.838l-2.597,-23.64l-0.724,-6.46l-1.774,-15.687l-1.081,-9.428l-1.555,-13.349l-0.75,-6.435l-1.701,-14.249l-0.662,-5.55c-31.226,-258.954 -75.422,-516.332 -132.841,-770.764l-0.109,-0.477l-3.998,-17.618l-3.631,-15.822l-0.99,-4.279l-2.87,-12.377l-0.979,-4.202l-3.5,-14.905l-1.456,-6.165l-2.203,-9.293l-1.73,-7.246l-2.116,-8.827l-1.478,-6.161l-1.351,-5.575l-2.072,-8.554l-2.018,-8.263l-1.747,-7.133l-2.051,-8.343l-2.075,-8.386l-1.318,-5.32l-1.828,-7.323l-1.934,-7.735l-2.232,-8.874l-0.973,-3.853l-2.345,-9.253l-1.118,-4.387l-2.254,-8.831l-1.263,-4.923l-2.152,-8.365l-1.482,-5.728l-1.97,-7.614l-2.764,-10.586l-0.67,-2.563l-0.809,-3.077l-2.793,-10.619l-1.107,-4.18l-2.549,-9.621l-1.15,-4.311l-2.546,-9.534l-1.14,-4.235l-2.603,-9.668l-1.096,-4.053l-2.699,-9.945l-1.023,-3.754l-2.844,-10.396l-0.907,-3.303l-3.077,-11.168l-0.699,-2.531l-1.649,-5.928l-3.722,-13.354l-1.657,-5.921l-4.883,-17.322l-1.289,-4.541l-3.933,-13.801l-1.784,-6.227l-4.672,-16.223l-0.328,-1.139l-1.089,-3.744l-4.111,-14.111l-1.966,-6.725l-3.948,-13.412l-1.31,-4.439l-0.569,-1.911l-4.453,-14.974l-2.13,-7.112l-3.609,-12.006l-1.843,-6.117l-4.966,-16.354l-2.16,-7.057l-3.601,-11.729l-1.978,-6.428l-5.141,-16.576l-1.919,-6.146l-3.999,-12.76l-1.78,-5.662l-5.532,-17.476l-1.205,-3.783l-4.978,-15.575l-1.183,-3.685l-6.154,-19.056l-6.628,-20.319l-0.076,-0.237c-19.941,-60.83 -40.705,-121.38 -62.171,-181.686l-0.018,-0.084c-25.403,-71.238 -51.902,-142.082 -79.489,-212.501c-148.532,-379.137 -328.554,-745.948 -538.047,-1095.13c-138.499,-230.847 -289.849,-454.032 -453.667,-667.672c-136.162,-177.576 -280.931,-348.651 -434.666,-511.275c-37.915,-40.107 -76.38,-79.7 -115.423,-118.715c-1.093,-1.078 -2.2,-2.185 -3.336,-3.325l-9.872,-9.828l-13.029,-12.894l-0.841,-0.827l-9.741,-9.573l-5.539,-5.426l-8.87,-8.659l-4.884,-4.742l-0.968,-0.939c-14.599,-14.154 -29.263,-28.243 -44.011,-42.241l-0.153,-0.142l-6.416,-6.074l-4.778,-4.512l-5.032,-4.741l-4.672,-4.388l-6.66,-6.238l-2.371,-2.214c-50.27,-46.934 -101.498,-92.86 -153.793,-137.537c-57.196,-48.865 -115.66,-96.277 -175.751,-141.533c-21.23,-15.986 -42.66,-31.721 -64.341,-47.102c-8.787,-6.231 -17.617,-12.407 -26.495,-18.524l-0.769,-0.528l-6.74,-4.621l-4.053,-2.764l-2.753,-1.868l-0.018,0c-15.91,-10.779 -31.968,-21.335 -48.191,-31.637c-21.408,-13.601 -43.115,-26.747 -65.24,-39.149c-18.565,-10.404 -37.427,-20.327 -56.774,-29.201c-6.912,-3.172 -13.892,-6.202 -20.961,-9.013c-3.827,-1.526 -7.694,-2.957 -11.543,-4.431c-4.268,-1.635 -8.528,-3.296 -12.789,-4.953c-6.562,-2.585 -13.116,-5.189 -19.66,-7.814c-38.913,-15.739 -77.494,-32.264 -116.035,-48.887c-27.795,-11.991 -55.576,-24.023 -83.378,-36.003c-11.973,-5.142 -23.95,-10.276 -35.927,-15.403c-52.99,-22.577 -106.112,-44.834 -159.543,-66.351c-70.229,-28.283 -140.939,-55.383 -212.144,-81.11c-163.596,-59.104 -329.788,-110.926 -497.852,-155.741c-318.114,-84.828 -642.571,-144.861 -969.141,-185.897c-311.909,-39.196 -625.889,-61.125 -940.089,-69.785c-97.146,-2.68 -194.315,-4.016 -291.495,-4.296c-15.836,-0.026 -31.673,-0.03 -47.506,-0.011c-109.094,0.258 -218.174,1.846 -327.225,4.857c-230.97,6.384 -461.762,18.834 -692.149,36.415c-242.317,18.488 -484.194,42.656 -725.476,71.656c-119.032,14.304 -237.922,29.788 -356.659,46.367c-59.574,8.317 -119.13,16.809 -178.588,25.913c-69.413,10.625 -138.703,22.045 -207.843,34.309c-247.241,43.854 -492.667,98.465 -734.431,166.411c-385.943,108.472 -763.161,251.261 -1117.88,438.781c-52.885,27.955 -105.249,56.894 -157.037,86.838c-192.663,111.388 -377.273,236.771 -550.792,376.162c-77.786,62.487 -153.335,127.757 -226.419,195.685c-38.599,35.879 -76.452,72.537 -113.704,109.815l-0.244,0.189c-43.195,43.337 -85.429,87.628 -126.661,132.844c-133.488,146.376 -256.413,302.267 -368.643,465.491c-112.739,163.968 -214.674,335.247 -306.931,511.523c-29.965,57.261 -58.918,115.051 -86.917,173.296c-24.263,50.471 -47.805,101.287 -70.674,152.403c-165.712,370.416 -295.657,755.776 -408.509,1145.23c-6.238,21.536 -12.425,43.083 -18.561,64.644c-1.238,4.861 -2.738,9.806 -4.318,15.388c-1.264,4.454 -2.524,8.907 -3.784,13.361c-3.776,13.36 -7.527,26.725 -11.274,40.096c-3.729,13.36 -7.45,26.725 -11.161,40.092c-27.049,97.948 -53.38,196.093 -79.063,294.408c-39.437,150.971 -77.49,302.296 -115.409,453.653l-5.604,22.631l-0.805,3.289c-6.813,27.966 -13.455,55.969 -19.838,84.037c-13.044,57.368 -25.141,114.954 -36.342,172.711c-19.445,100.264 -36.2,201.03 -50.522,302.142l-0.043,0.302l-2.928,20.953l-0.124,0.889l-2.778,20.367l-0.204,1.489l-2.626,19.777l-0.276,2.086l-2.488,19.198l-0.342,2.669l-2.349,18.637l-0.407,3.234l-2.222,18.105l-0.459,3.765l-2.104,17.61l-0.503,4.254l-1.995,17.176l-0.539,4.683l-1.898,16.802l-0.564,5.043l-1.81,16.507l-0.579,5.327l-1.737,16.303l-0.582,5.51l-1.672,16.208l-0.571,5.586l-1.628,16.23l-0.55,5.539l-1.588,16.39l-0.517,5.353l-1.566,16.696l-0.466,5.014l-1.562,17.177l-0.404,4.497l-1.297,14.762l-0.746,8.602l-1.238,14.602l-0.666,7.982l-1.366,16.718l-0.561,7.01l-1.354,17.242l-0.496,6.434l-1.34,17.782l-0.426,5.815l-1.325,18.371l-0.361,5.105l-1.314,19.067l-0.284,4.22l-1.315,19.937l-0.193,3.034l-1.329,21.117l-0.077,1.274c-3.809,62.142 -6.875,124.33 -9.245,186.545l-0.088,2.17l-0.721,19.777l-0.163,4.533l-0.616,18.277l-0.2,6.052l-0.532,17.213l-0.215,7.134l-0.458,16.401l-0.219,7.964l-0.401,15.749l-0.207,8.634l-0.346,15.195l-0.197,9.213l-0.295,14.708l-0.182,9.727l-0.247,14.259l-0.164,10.207l-0.204,13.838l-0.138,10.669l-0.164,13.416l-0.117,11.142l-0.124,12.979l-0.087,11.656l-0.087,12.497l-0.062,12.257l-0.055,11.923l-0.029,13.04l-0.022,11.164l0.004,14.249l0.007,9.978l0.047,16.762l0.022,7.483l0.131,24.365c1.704,254.829 13.364,509.545 32.471,763.642c25.847,343.753 65.375,686.367 113.18,1027.72c27.832,198.739 58.453,397.086 90.672,595.159c29.86,183.544 60.944,366.88 91.594,550.293c4.002,24.026 7.997,48.06 11.984,72.09c23.262,140.939 46.217,281.961 65.819,423.465c8.299,59.927 15.983,119.949 22.446,180.106c5.837,54.294 10.717,108.716 13.601,163.254c2.054,38.81 2.902,77.683 3.438,116.541c0.36,26.171 0.528,52.346 0.549,78.521c0.022,26.163 -0.102,52.327 -0.32,78.491c-1.093,129.989 -4.534,259.96 -8.82,389.88c-2.07,62.793 -4.363,125.579 -6.835,188.359l13039.1,0ZM2686.31,5021.16c71.221,-123.722 147.446,-244.562 229.004,-361.74c115.809,-166.385 242.375,-325.309 379.465,-474.671c16.645,-18.134 33.447,-36.127 50.402,-53.981l-7.997,-6.587c-51.716,-42.299 -106.134,-81.288 -162.773,-116.72c-140.382,-87.824 -294.324,-153.607 -454.61,-195.08c-137.218,-35.504 -278.907,-53.161 -420.621,-53.161c-103.964,0 -207.927,9.475 -310.125,28.585c-101.829,19.041 -201.867,47.641 -298.315,85.473c-108.501,42.561 -212.417,96.804 -309.218,161.727c-76.976,51.633 -149.441,110.002 -216.124,174.386c-71.347,68.885 -136.055,144.664 -192.596,226.153c-45.846,66.074 -86.31,135.891 -120.645,208.622c-35.111,74.377 -63.795,151.783 -85.472,231.127c-17.494,64.042 -30.418,129.326 -38.64,195.208c-8.856,70.953 -12.261,142.584 -10.272,214.059c3.291,118.42 21.59,236.338 54.479,350.148c27.151,93.949 64.17,184.996 109.99,271.383c44.452,83.797 97.151,163.177 156.823,236.902c55.726,68.849 117.51,132.764 184.258,190.983c106.793,93.149 226.233,171.636 353.804,233.294c100.686,48.66 206.401,86.841 314.891,113.948c37.19,9.293 74.704,17.286 112.444,23.979c92.042,-316.231 195.273,-629.316 319.312,-934.507c7.925,-19.5 15.934,-38.967 24.031,-58.396c-6.815,0.329 -13.669,0.494 -20.557,0.494c-239.728,0 -434.32,-198.321 -434.32,-442.605c0,-244.217 194.589,-442.527 434.32,-442.527c149.147,0 280.819,76.73 359.062,193.504ZM14434,5348.9c142.77,263.083 269.762,534.727 380.209,812.929c21.437,54.002 42.251,108.247 62.437,162.733c7.365,-2.342 14.709,-4.742 22.034,-7.196c47.914,-16.062 95.086,-34.346 141.3,-54.789c145.119,-64.191 280.759,-149.773 400.614,-253.809c75.076,-65.171 143.921,-137.538 204.981,-216.004c63.682,-81.838 118.861,-170.307 163.902,-263.725c39.678,-82.297 71.46,-168.388 94.565,-256.788c22.887,-87.577 37.19,-177.343 42.776,-267.684c5.685,-91.903 2.367,-184.388 -9.948,-275.64c-9.89,-73.288 -25.625,-145.782 -46.971,-216.586c-21.965,-72.84 -49.863,-143.874 -83.211,-212.25c-32.598,-66.835 -70.386,-131.121 -112.772,-192.214c-81.991,-118.18 -181.159,-224.255 -292.799,-314.895c-111.752,-90.726 -235.93,-165.97 -367.812,-223.603c-112.401,-49.12 -230.333,-85.425 -350.833,-108.326c-102.08,-19.405 -205.953,-29.183 -309.855,-29.492c-111.483,-0.335 -222.995,10.229 -332.37,31.862c-139.937,27.686 -276.259,73.518 -404.3,136.435c-96.123,47.237 -187.549,104.044 -272.3,169.539c-16.529,12.77 -32.803,25.872 -48.803,39.291c15.13,15.658 30.169,31.404 45.128,47.226c158.407,167.565 307.594,343.826 447.896,526.802c69.481,90.614 136.781,182.896 201.87,276.714c78.483,-115.014 209.108,-190.368 356.86,-190.368c239.732,0 434.382,198.325 434.382,442.543c0,220.924 -159.205,404.256 -366.98,437.295Z" style="fill:#000;"/></svg>