<?xml version="1.0" standalone="no"?><!DOCTYPE svg PUBLIC "-//W3C//DTD SVG 1.1//EN" "http://www.w3.org/Graphics/SVG/1.1/DTD/svg11.dtd"><svg width="100%" height="100%" viewBox="0 0 2500 2500" version="1.1" xmlns="http://www.w3.org/2000/svg" xmlns:xlink="http://www.w3.org/1999/xlink" xml:space="preserve" style="fill-rule:evenodd;clip-rule:evenodd;stroke-linejoin:round;stroke-miterlimit:1.41421;"><path d="M1538.15,2357.29c0,39.241 -129.417,71.05 -289.054,71.05c-159.646,0 -289.058,-31.809 -289.058,-71.05l-24.755,-366.034l-69.975,-116.266c0,0 139.955,57.058 377.871,57.058c237.913,0 380.021,-58.133 380.021,-58.133l-62.437,106.583l-22.613,376.792ZM1466.83,597.725c184.967,11.654 313.817,37.763 313.817,68.096c0,41.196 -237.575,74.592 -530.638,74.592c-293.066,0 -530.646,-33.396 -530.646,-74.592c0,-41.192 237.58,-74.592 530.646,-74.592c41.499,-0.009 82.995,0.681 124.471,2.071l55.108,-224.138l278.267,-294.612l69.275,59.004l-262.838,276.567l-47.462,187.604ZM1439.22,702.788c0,0 -10.28,2.304 -40.517,2.433c-30.246,0.125 -51.721,-0.196 -60.275,-7.988c-2.3,-2.091 -3.558,-6.245 -3.546,-9.058c0.025,-5.354 3.825,-8.508 8.667,-10.483l4.579,7.183c-1.992,0.688 -3.129,1.5 -3.133,2.367c-0.017,4.066 30.925,6.85 54.591,6.55c23.671,-0.292 52.271,-2.242 52.296,-6.25c0,-1.213 -2.162,-2.354 -5.925,-3.254l4.559,-7.134c6.133,1.904 11.487,5.584 11.475,11.95c-0.059,10.825 -13.834,12.471 -22.771,13.684Z" style="fill:#000;"/><path d="M1776.61,134.1c6.609,-7.633 -3.421,-27.158 -22.4,-43.604c-18.987,-16.438 -39.737,-23.579 -46.358,-15.946c-6.612,7.633 3.421,27.158 22.408,43.596c18.98,16.442 39.738,23.592 46.35,15.954M1525.51,1436.94c-6.229,-59.934 131.092,-146.734 95.85,-149.513c-75.866,4.337 -113.625,88.908 -151.795,177.483c-13.988,32.463 -61.85,170.888 -93.242,153.846c-31.383,-17.033 40.688,-130.862 60.888,-198.462c-23.309,17.091 -108.788,83.504 -130.817,21.308c-35.417,30.079 -111.096,46.375 -102.558,-32.638c-18.842,33.375 -61.13,79.971 -111.888,60.609c-66.658,-25.421 38.625,-237.759 64.804,-227.046c26.184,10.708 -5.283,59.079 -13.525,77.862c-18.125,41.338 -39.062,93.305 -25.075,103.942c23.963,18.225 89.171,-68.946 90.621,-70.862c12.196,-16.113 46.942,-121.525 74.946,-109.421c28.004,12.104 -69.85,151.283 -33.263,178.904c7.379,5.575 37.571,-3.438 55.938,-23.308c11.883,-12.854 7.796,-41.325 47.408,-135.792c39.613,-94.463 74.917,-212.104 102.083,-203.142c27.167,8.959 4.775,69.338 -4.97,91.846c-45.734,105.642 -124.817,280.171 -87.521,266.958c37.296,-13.208 56.716,-13.983 93.237,-56.72c36.521,-42.738 34.838,-113.134 59.179,-111.638c24.35,1.5 20.263,24.071 14.359,41.258c23.958,-27.416 113.566,-85.158 135.2,-27.97c25.625,67.704 -128.204,165.5 -89.85,160.512c37.396,-4.862 97.979,-43.233 123.846,-78.121l71.2,-640.108c0,0 -71.646,59.292 -527.455,59.292c-455.812,0 -520.045,-58.059 -520.045,-58.059l60.616,584.267c32.175,-91.446 108.579,-276.413 229.013,-270.204c54.783,2.825 127.916,108.312 65.271,111.887c-26.517,1.509 -29.209,-52.654 -60.609,-60.608c-22.658,-5.742 -54.204,12.679 -74.591,32.637c-40.659,39.792 -128.105,196.788 -116.55,275.059c14.72,99.787 137.7,-34.675 158.508,-74.596c14.654,-28.121 24.554,-111.438 56.604,-102.696c32.054,8.742 -2.796,94.725 -26.029,170.746c-26.1,85.362 -39.821,175.408 -72.533,165.05c-32.717,-10.35 20.575,-120.55 18.645,-139.858c-30.75,28.37 -87.4,100.195 -159.875,64.645l37.646,362.825c0,0 100.054,79.055 401.459,79.055c301.404,0 405.162,-77.821 405.162,-77.821l46.746,-420.238c-38.246,37.242 -159.288,103.375 -167.038,28.829" style="fill:#000;fill-rule:nonzero;"/></svg>