<?xml version="1.0" standalone="no"?><!DOCTYPE svg PUBLIC "-//W3C//DTD SVG 1.1//EN" "http://www.w3.org/Graphics/SVG/1.1/DTD/svg11.dtd"><svg width="100%" height="100%" viewBox="0 0 2084 2084" version="1.1" xmlns="http://www.w3.org/2000/svg" xmlns:xlink="http://www.w3.org/1999/xlink" xml:space="preserve" style="fill-rule:evenodd;clip-rule:evenodd;stroke-linejoin:round;stroke-miterlimit:1.41421;"><path d="M1041.74,86.58c135.021,0.334 245.077,32.102 244.881,71.123c0.14,0.363 0.06,0.628 -0.048,0.881l-0.095,0.215c-0.107,0.253 -0.188,0.518 -0.048,0.881l0.319,0.829c-0.697,3.114 -2.231,6.55 -3.762,9.994c0,0 -37.687,72.434 -37.756,101.907l0.305,1522.58c-1.667,111.778 -91.619,201.453 -203.588,201.763c-111.97,0.31 -202.474,-89.323 -203.621,-200.971l-0.314,-1522.58c0.328,-36.227 -37.481,-102.427 -37.481,-102.427c-2.101,-2.989 -3.373,-6.298 -3.819,-9.933l0.003,0.008c0.51,-1.148 0.192,-1.977 -0.127,-2.806c-0.123,-39.695 109.273,-71.545 243.57,-71.471l1.581,0.003ZM1187.54,1797.35c-0.894,79.187 -65.835,144.997 -146.672,144.739c-80.848,-0.264 -148.952,-66.218 -149.7,-144.773l-0.132,-701.929c0,0 10.825,-58.308 55.716,-114.505c44.877,-56.211 94.911,-66.903 147.815,-119.538c53.725,-52.951 93.398,-162.249 93.398,-162.249l-0.425,1098.26ZM1109.33,1560.87c8.169,-3.14 17.359,0.964 20.511,9.16c3.151,8.196 -0.922,17.4 -9.091,20.541c-8.168,3.141 -17.359,-0.963 -20.51,-9.159c-3.152,-8.196 0.921,-17.401 9.09,-20.542ZM955.05,1422.22c12.25,-4.71 26.035,1.449 30.763,13.745c4.728,12.297 -1.379,26.104 -13.63,30.815c-12.251,4.71 -26.035,-1.448 -30.764,-13.745c-4.728,-12.297 1.38,-26.104 13.631,-30.815ZM985.015,1298.92c23.143,-8.898 49.183,2.737 58.115,25.966c8.932,23.229 -2.606,49.313 -25.748,58.211c-23.142,8.899 -49.183,-2.736 -58.114,-25.965c-8.932,-23.23 2.605,-49.313 25.747,-58.212ZM1090.94,1135.06c12.251,-4.711 26.036,1.448 30.764,13.745c4.728,12.296 -1.38,26.104 -13.63,30.814c-12.251,4.711 -26.036,-1.448 -30.764,-13.744c-4.728,-12.297 1.379,-26.105 13.63,-30.815ZM956.669,1073.02c8.169,-3.141 17.36,0.963 20.511,9.159c3.152,8.197 -0.922,17.401 -9.09,20.542c-8.169,3.141 -17.36,-0.963 -20.511,-9.16c-3.152,-8.196 0.922,-17.4 9.09,-20.541ZM1187.25,164.151c-0.024,-21.967 -67.513,-39.864 -150.731,-39.979c-83.227,-0.111 -150.673,17.6 -150.644,39.555c0.023,21.968 67.509,39.856 150.731,39.979c83.226,0.111 150.672,-17.6 150.644,-39.555Z" style="fill:#000;"/></svg>