<?xml version="1.0" standalone="no"?><!DOCTYPE svg PUBLIC "-//W3C//DTD SVG 1.1//EN" "http://www.w3.org/Graphics/SVG/1.1/DTD/svg11.dtd"><svg width="100%" height="100%" viewBox="0 0 4167 4167" version="1.1" xmlns="http://www.w3.org/2000/svg" xmlns:xlink="http://www.w3.org/1999/xlink" xml:space="preserve" style="fill-rule:evenodd;clip-rule:evenodd;stroke-linejoin:round;stroke-miterlimit:1.41421;"><g><path d="M153.284,153.284l3860.1,0l0,3860.1l-3860.1,0l0,-3860.1ZM2204.85,1839.32l-411.143,0l-1.68,742.073l-1.26,742.493l-9.239,34.857c-12.179,45.776 -26.457,73.073 -51.655,98.271c-35.277,35.277 -80.633,49.976 -156.226,50.395c-107.93,0.42 -172.604,-45.355 -247.778,-173.864c-12.179,-20.158 -23.098,-36.537 -24.357,-36.117c-1.68,0.84 -77.693,46.616 -168.825,101.631l-165.885,100.791l12.599,25.198c75.173,149.926 205.361,263.316 362.007,315.391c165.465,55.015 377.966,49.976 533.772,-12.598c186.883,-75.594 296.493,-231.82 325.47,-464.059c2.52,-23.517 4.2,-285.994 4.2,-779.869l0,-744.593ZM3099.37,1818.32c-158.746,12.599 -291.874,69.714 -390.985,167.985c-102.05,101.211 -150.766,224.68 -150.766,381.325c0,234.339 96.171,398.125 310.772,527.893c54.595,32.757 128.928,68.454 257.437,123.889c175.124,75.173 240.218,110.87 281.794,155.386c51.236,55.015 65.514,142.787 33.177,209.981c-6.299,13.018 -22.678,34.856 -37.376,49.555c-49.556,49.976 -127.669,76.433 -224.68,76.433c-163.785,0 -285.994,-67.194 -384.265,-212.501c-13.439,-19.318 -25.618,-35.276 -27.298,-35.276c-3.78,0 -323.371,184.363 -330.09,190.662c-4.2,3.78 -0.84,12.599 15.539,39.477c127.668,215.02 327.15,341.009 596.766,377.126c70.553,9.659 202.841,9.239 270.455,0c169.665,-23.938 296.913,-80.213 395.604,-175.964c104.991,-101.211 156.646,-232.239 156.646,-396.445c0,-104.99 -17.218,-186.883 -56.275,-267.935c-26.877,-55.435 -53.755,-92.812 -99.951,-139.848c-88.612,-89.872 -203.261,-157.905 -432.141,-256.177c-173.024,-74.333 -230.979,-106.25 -269.195,-146.986c-36.537,-39.057 -52.076,-84.833 -48.716,-141.947c2.94,-45.356 15.539,-76.014 43.256,-105.831c39.897,-43.256 86.092,-61.314 157.486,-60.894c81.053,0 133.548,20.998 186.883,74.753c18.898,18.478 43.256,48.295 54.595,66.354c13.019,20.578 22.678,31.917 26.038,30.657c10.919,-4.62 316.231,-202.002 316.231,-204.941c0,-1.68 -15.538,-26.038 -34.437,-54.595c-40.316,-60.475 -112.969,-136.068 -162.945,-169.245c-92.392,-61.315 -191.083,-92.812 -321.271,-102.471c-63.834,-5.039 -72.233,-5.039 -132.288,-0.42Z" style="fill:#000;"/></g></svg>