<?xml version="1.0" standalone="no"?><!DOCTYPE svg PUBLIC "-//W3C//DTD SVG 1.1//EN" "http://www.w3.org/Graphics/SVG/1.1/DTD/svg11.dtd"><svg width="100%" height="100%" viewBox="0 0 834 834" version="1.1" xmlns="http://www.w3.org/2000/svg" xmlns:xlink="http://www.w3.org/1999/xlink" xml:space="preserve" style="fill-rule:evenodd;clip-rule:evenodd;stroke-linejoin:round;stroke-miterlimit:1.41421;"><path d="M791.177,399.682c-5.384,-5.384 -74.474,-92.42 -86.139,-106.777c-12.562,-14.356 -17.945,-11.664 -26.021,-10.767c-8.075,0.897 -95.111,16.151 -104.982,17.048c-9.87,1.795 -16.151,5.384 -9.87,14.357c5.384,8.075 62.81,88.83 75.372,107.673l-228.806,54.734l-181.251,-304.177c-7.178,-10.768 -8.972,-14.357 -25.123,-13.459c-16.151,0.897 -142.668,11.664 -151.641,11.664c-8.972,0.897 -18.842,4.487 -9.87,26.021c8.973,21.535 152.538,330.199 156.127,339.172c3.589,8.972 14.356,23.329 38.583,17.945c25.124,-6.281 111.262,-28.713 158.818,-41.275c25.124,44.864 75.372,136.387 85.242,149.846c12.562,17.946 21.534,14.356 40.377,8.973c15.254,-4.487 235.087,-83.447 244.957,-87.934c9.87,-4.486 16.151,-7.178 8.973,-17.048c-5.383,-7.178 -62.809,-85.241 -93.317,-125.619c20.638,-5.384 95.112,-25.124 103.187,-27.816c8.973,-2.691 10.768,-7.178 5.384,-12.561ZM375.737,484.923c-2.692,0.897 -131.003,31.405 -137.284,33.199c-7.178,1.795 -7.178,0.898 -7.178,-1.794c-1.795,-2.692 -152.537,-314.945 -155.229,-318.534c-1.795,-3.589 -1.795,-7.178 0,-7.178c1.794,0 121.132,-10.768 124.721,-10.768c4.487,0 3.59,0.897 5.384,3.589c0,0 167.791,289.821 170.483,294.308c3.589,4.486 1.795,6.281 -0.897,7.178ZM736.443,552.219c1.795,3.589 4.486,5.384 -2.692,7.178c-6.281,2.692 -216.244,73.577 -220.73,75.372c-4.487,1.794 -7.179,2.691 -12.562,-5.384c-5.384,-8.076 -73.577,-125.619 -73.577,-125.619l223.422,-58.323c5.384,-1.795 7.178,-2.692 10.768,2.692c3.589,6.281 73.576,101.392 75.371,104.084ZM750.799,394.298c-5.383,0.897 -87.036,21.535 -87.036,21.535l-67.296,-91.523c-1.794,-2.692 -3.589,-5.384 0.898,-6.281c4.486,-0.897 80.755,-14.356 84.344,-15.254c3.589,-0.897 6.281,-1.794 10.767,4.487c4.487,5.383 61.913,78.96 64.604,81.652c2.692,2.692 -0.897,4.487 -6.281,5.384Z" style="fill:#000;fill-rule:nonzero;"/></svg>