<?xml version="1.0" standalone="no"?><!DOCTYPE svg PUBLIC "-//W3C//DTD SVG 1.1//EN" "http://www.w3.org/Graphics/SVG/1.1/DTD/svg11.dtd"><svg width="100%" height="100%" viewBox="0 0 5209 5209" version="1.1" xmlns="http://www.w3.org/2000/svg" xmlns:xlink="http://www.w3.org/1999/xlink" xml:space="preserve" style="fill-rule:evenodd;clip-rule:evenodd;stroke-linejoin:round;stroke-miterlimit:1.41421;"><g><path d="M234.613,2519.03c32.825,0 60.863,-5.813 84.114,-17.439c23.251,-11.625 42.74,-26.67 58.469,-45.134c15.729,-18.464 27.354,-39.664 34.877,-63.599c7.522,-23.934 11.283,-48.211 11.283,-72.83l0,-369.281c0,-56.076 6.155,-105.998 18.464,-149.764c12.31,-43.767 33.509,-80.353 63.599,-109.759c30.089,-29.406 70.095,-51.973 120.016,-67.701c49.922,-15.729 111.81,-23.593 185.667,-23.593l8.206,0l0,149.764c-77.96,0 -133.694,14.019 -167.203,42.057c-33.508,28.038 -50.263,81.72 -50.263,161.047l0,315.941c0,90.269 -11.967,160.022 -35.902,209.259c-23.935,49.238 -57.786,87.534 -101.552,114.888c43.766,27.354 77.617,65.65 101.552,114.887c23.935,49.238 35.902,118.991 35.902,209.26l0,315.94c0,79.327 16.755,133.01 50.263,161.048c33.509,28.038 89.243,42.057 167.203,42.057l0,149.764l-8.206,0c-73.857,0 -135.745,-7.522 -185.667,-22.567c-49.921,-15.045 -89.927,-37.612 -120.016,-67.702c-30.09,-30.089 -51.289,-67.017 -63.599,-110.784c-12.309,-43.767 -18.464,-93.688 -18.464,-149.764l0,-369.281c0,-24.619 -3.761,-48.896 -11.283,-72.831c-7.523,-23.935 -19.148,-45.134 -34.877,-63.598c-15.729,-18.464 -35.218,-33.509 -58.469,-45.135c-23.251,-11.625 -51.289,-17.438 -84.114,-17.438l0,-147.712Z" style="fill:#000;fill-rule:nonzero;"/><path d="M1319.89,3226.82c-117.623,-2.736 -201.053,-28.038 -250.291,-75.908c-49.237,-47.87 -73.856,-122.41 -73.856,-223.621l0,-1280.17l190.795,-32.825l0,1282.23c0,31.457 2.736,57.444 8.207,77.959c5.471,20.516 14.361,36.929 26.67,49.238c12.309,12.309 28.722,21.541 49.238,27.696c20.515,6.155 45.818,11.284 75.907,15.387l-26.67,160.022Z" style="fill:#000;fill-rule:nonzero;"/><path d="M1500.43,2674.95c0,-94.372 13.677,-176.776 41.031,-247.213c27.354,-70.437 63.598,-128.906 108.733,-175.409c45.134,-46.502 97.107,-81.378 155.918,-104.629c58.812,-23.251 118.991,-34.877 180.538,-34.877c143.609,0 253.71,44.793 330.301,134.378c76.592,89.584 114.888,226.013 114.888,409.286c0,8.206 0,18.806 0,31.799c0,12.994 -0.684,24.961 -2.052,35.903l-730.356,0c8.206,110.784 40.348,194.898 96.424,252.342c56.076,57.444 143.609,86.166 262.6,86.166c67.017,0 123.435,-5.813 169.253,-17.439c45.819,-11.625 80.353,-22.909 103.604,-33.85l26.671,160.021c-23.251,12.31 -63.941,25.303 -122.068,38.98c-58.128,13.677 -124.12,20.516 -197.976,20.516c-93.004,0 -173.357,-14.019 -241.059,-42.057c-67.701,-28.038 -123.435,-66.676 -167.202,-115.914c-43.767,-49.237 -76.25,-107.707 -97.449,-175.408c-21.2,-67.702 -31.799,-141.9 -31.799,-222.595ZM2232.83,2570.32c1.368,-86.166 -20.173,-156.945 -64.624,-212.337c-44.45,-55.392 -105.655,-83.088 -183.615,-83.088c-43.766,0 -82.404,8.548 -115.913,25.644c-33.509,17.097 -61.889,39.322 -85.14,66.676c-23.251,27.354 -41.373,58.811 -54.366,94.372c-12.993,35.56 -21.542,71.805 -25.645,108.733l529.303,0Z" style="fill:#000;fill-rule:nonzero;"/><path d="M2954.98,3068.85c77.96,0 135.745,-10.258 173.357,-30.773c37.612,-20.516 56.418,-53.341 56.418,-98.475c0,-46.502 -18.464,-83.43 -55.392,-110.785c-36.928,-27.354 -97.791,-58.127 -182.589,-92.32c-41.031,-16.412 -80.353,-33.167 -117.965,-50.263c-37.612,-17.096 -70.095,-37.27 -97.449,-60.521c-27.354,-23.251 -49.237,-51.289 -65.65,-84.114c-16.412,-32.825 -24.619,-73.173 -24.619,-121.042c0,-94.372 34.877,-169.254 104.63,-224.647c69.753,-55.392 164.809,-83.088 285.167,-83.088c30.09,0 60.179,1.71 90.269,5.129c30.09,3.419 58.128,7.522 84.114,12.309c25.986,4.787 48.896,9.916 68.727,15.387c19.832,5.471 35.219,10.258 46.161,14.361l-34.877,164.125c-20.516,-10.942 -52.657,-22.225 -96.423,-33.851c-43.767,-11.625 -96.424,-17.438 -157.971,-17.438c-53.34,0 -99.843,10.6 -139.506,31.799c-39.664,21.2 -59.495,54.367 -59.495,99.501c0,23.251 4.445,43.767 13.335,61.547c8.89,17.78 22.567,33.851 41.031,48.212c18.464,14.361 41.373,27.696 68.727,40.005c27.355,12.309 60.18,25.303 98.475,38.98c50.606,19.148 95.74,37.954 135.404,56.418c39.663,18.464 73.514,40.005 101.552,64.624c28.038,24.619 49.579,54.366 64.624,89.243c15.045,34.877 22.567,77.617 22.567,128.223c0,98.475 -36.586,173.015 -109.758,223.62c-73.173,50.605 -177.461,75.908 -312.864,75.908c-94.371,0 -168.228,-7.865 -221.568,-23.593c-53.341,-15.729 -89.585,-27.696 -108.733,-35.903l34.876,-164.125c21.884,8.207 56.76,20.516 104.63,36.929c47.87,16.412 111.468,24.618 190.795,24.618Z" style="fill:#000;fill-rule:nonzero;"/><path d="M3869.98,3068.85c77.96,0 135.745,-10.258 173.357,-30.773c37.612,-20.516 56.418,-53.341 56.418,-98.475c0,-46.502 -18.464,-83.43 -55.392,-110.785c-36.928,-27.354 -97.791,-58.127 -182.589,-92.32c-41.031,-16.412 -80.353,-33.167 -117.965,-50.263c-37.612,-17.096 -70.095,-37.27 -97.449,-60.521c-27.354,-23.251 -49.238,-51.289 -65.65,-84.114c-16.413,-32.825 -24.619,-73.173 -24.619,-121.042c0,-94.372 34.877,-169.254 104.63,-224.647c69.753,-55.392 164.809,-83.088 285.167,-83.088c30.09,0 60.179,1.71 90.269,5.129c30.089,3.419 58.127,7.522 84.114,12.309c25.986,4.787 48.895,9.916 68.727,15.387c19.832,5.471 35.219,10.258 46.16,14.361l-34.876,164.125c-20.516,-10.942 -52.657,-22.225 -96.424,-33.851c-43.766,-11.625 -96.423,-17.438 -157.97,-17.438c-53.341,0 -99.843,10.6 -139.506,31.799c-39.664,21.2 -59.495,54.367 -59.495,99.501c0,23.251 4.445,43.767 13.335,61.547c8.89,17.78 22.567,33.851 41.031,48.212c18.464,14.361 41.373,27.696 68.727,40.005c27.354,12.309 60.179,25.303 98.475,38.98c50.605,19.148 95.74,37.954 135.403,56.418c39.664,18.464 73.515,40.005 101.553,64.624c28.038,24.619 49.579,54.366 64.624,89.243c15.045,34.877 22.567,77.617 22.567,128.223c0,98.475 -36.586,173.015 -109.758,223.62c-73.173,50.605 -177.461,75.908 -312.864,75.908c-94.372,0 -168.228,-7.865 -221.568,-23.593c-53.341,-15.729 -89.585,-27.696 -108.733,-35.903l34.876,-164.125c21.884,8.207 56.76,20.516 104.63,36.929c47.87,16.412 111.468,24.618 190.795,24.618Z" style="fill:#000;fill-rule:nonzero;"/><path d="M4973.72,2666.74c-32.825,0 -60.863,5.813 -84.114,17.438c-23.251,11.626 -42.741,26.671 -58.47,45.135c-15.728,18.464 -27.354,39.663 -34.876,63.598c-7.523,23.935 -11.284,48.212 -11.284,72.831l0,369.281c0,56.076 -6.155,105.997 -18.464,149.764c-12.309,43.767 -33.509,80.695 -63.598,110.784c-30.09,30.09 -70.095,52.657 -120.017,67.702c-49.921,15.045 -111.81,22.567 -185.666,22.567l-8.206,0l0,-149.764c77.959,0 133.693,-14.019 167.202,-42.057c33.509,-28.038 50.263,-81.721 50.263,-161.048l0,-315.94c0,-90.269 11.968,-160.022 35.903,-209.26c23.934,-49.237 57.785,-87.533 101.552,-114.887c-43.767,-27.354 -77.618,-65.65 -101.552,-114.888c-23.935,-49.237 -35.903,-118.99 -35.903,-209.259l0,-315.941c0,-79.327 -16.754,-133.009 -50.263,-161.047c-33.509,-28.038 -89.243,-42.057 -167.202,-42.057l0,-149.764l8.206,0c73.856,0 135.745,7.864 185.666,23.593c49.922,15.728 89.927,38.295 120.017,67.701c30.089,29.406 51.289,65.992 63.598,109.759c12.309,43.766 18.464,93.688 18.464,149.764l0,369.281c0,24.619 3.761,48.896 11.284,72.83c7.522,23.935 19.148,45.135 34.876,63.599c15.729,18.464 35.219,33.509 58.47,45.134c23.251,11.626 51.289,17.439 84.114,17.439l0,147.712Z" style="fill:#000;fill-rule:nonzero;"/></g></svg>