<?xml version="1.0" standalone="no"?><!DOCTYPE svg PUBLIC "-//W3C//DTD SVG 1.1//EN" "http://www.w3.org/Graphics/SVG/1.1/DTD/svg11.dtd"><svg width="100%" height="100%" viewBox="0 0 834 834" version="1.1" xmlns="http://www.w3.org/2000/svg" xmlns:xlink="http://www.w3.org/1999/xlink" xml:space="preserve" style="fill-rule:evenodd;clip-rule:evenodd;stroke-linejoin:round;stroke-miterlimit:1.41421;"><g><path d="M58.001,512.161l0,-193.637l41.059,0l0,159.73l78.541,0l0,33.907l-119.6,0Z" style="fill:#000;fill-rule:nonzero;"/><path d="M240.248,437.858c0,14.658 2.406,25.739 7.218,33.244c4.812,7.506 12.649,11.258 23.509,11.258c10.773,0 18.521,-3.73 23.245,-11.192c4.724,-7.461 7.086,-18.564 7.086,-33.31c0,-14.657 -2.384,-25.65 -7.152,-32.979c-4.769,-7.329 -12.583,-10.993 -23.443,-10.993c-10.773,0 -18.543,3.642 -23.311,10.927c-4.768,7.284 -7.152,18.299 -7.152,33.045ZM342.629,437.858c0,24.105 -6.357,42.957 -19.072,56.555c-12.715,13.598 -30.419,20.397 -53.111,20.397c-14.216,0 -26.755,-3.113 -37.615,-9.338c-10.861,-6.225 -19.205,-15.165 -25.033,-26.82c-5.827,-11.656 -8.741,-25.253 -8.741,-40.794c0,-24.193 6.313,-43.001 18.94,-56.422c12.626,-13.421 30.374,-20.132 53.243,-20.132c14.216,0 26.755,3.09 37.615,9.271c10.861,6.181 19.205,15.055 25.033,26.622c5.827,11.567 8.741,25.121 8.741,40.661Z" style="fill:#000;fill-rule:nonzero;"/><path d="M438.388,482.625c7.064,0 15.54,-1.545 25.43,-4.636l0,30.066c-10.066,4.503 -22.428,6.755 -37.085,6.755c-16.159,0 -27.925,-4.084 -35.297,-12.252c-7.373,-8.167 -11.06,-20.419 -11.06,-36.754l0,-71.388l-19.337,0l0,-17.086l22.251,-13.51l11.655,-31.257l25.828,0l0,31.522l41.455,0l0,30.331l-41.455,0l0,71.388c0,5.74 1.611,9.978 4.834,12.715c3.223,2.737 7.483,4.106 12.781,4.106Z" style="fill:#000;fill-rule:nonzero;"/><path d="M598.648,512.161l-5.43,-18.94l-2.119,0c-4.327,6.887 -10.463,12.207 -18.41,15.96c-7.947,3.752 -16.998,5.629 -27.152,5.629c-17.394,0 -30.507,-4.658 -39.336,-13.974c-8.83,-9.315 -13.245,-22.714 -13.245,-40.197l0,-96.554l40.396,0l0,86.488c0,10.684 1.899,18.697 5.695,24.039c3.797,5.342 9.846,8.013 18.146,8.013c11.302,0 19.469,-3.775 24.502,-11.324c5.033,-7.55 7.55,-20.066 7.55,-37.549l0,-69.667l40.396,0l0,148.076l-30.993,0Z" style="fill:#000;fill-rule:nonzero;"/><path d="M775.332,468.188c0,15.188 -5.276,26.755 -15.827,34.701c-10.552,7.947 -26.335,11.921 -47.35,11.921c-10.772,0 -19.955,-0.729 -27.549,-2.186c-7.593,-1.457 -14.701,-3.598 -21.324,-6.423l0,-33.377c7.506,3.532 15.96,6.49 25.364,8.874c9.403,2.384 17.681,3.576 24.833,3.576c14.658,0 21.987,-4.238 21.987,-12.715c0,-3.179 -0.972,-5.761 -2.914,-7.748c-1.943,-1.987 -5.298,-4.238 -10.066,-6.755c-4.768,-2.516 -11.126,-5.452 -19.072,-8.807c-11.391,-4.769 -19.757,-9.183 -25.099,-13.245c-5.342,-4.062 -9.227,-8.72 -11.655,-13.973c-2.429,-5.254 -3.643,-11.722 -3.643,-19.404c0,-13.156 5.1,-23.332 15.298,-30.529c10.198,-7.196 24.657,-10.794 43.376,-10.794c17.836,0 35.187,3.885 52.052,11.655l-12.185,29.139c-7.417,-3.179 -14.349,-5.784 -20.795,-7.815c-6.445,-2.031 -13.023,-3.046 -19.734,-3.046c-11.92,0 -17.88,3.223 -17.88,9.669c0,3.62 1.92,6.754 5.761,9.403c3.841,2.649 12.251,6.578 25.231,11.788c11.567,4.68 20.044,9.05 25.43,13.112c5.386,4.062 9.359,8.742 11.92,14.04c2.561,5.297 3.841,11.611 3.841,18.939Z" style="fill:#000;fill-rule:nonzero;"/></g></svg>