<?xml version="1.0" standalone="no"?><!DOCTYPE svg PUBLIC "-//W3C//DTD SVG 1.1//EN" "http://www.w3.org/Graphics/SVG/1.1/DTD/svg11.dtd"><svg width="100%" height="100%" viewBox="0 0 2084 2084" version="1.1" xmlns="http://www.w3.org/2000/svg" xmlns:xlink="http://www.w3.org/1999/xlink" xml:space="preserve" style="fill-rule:evenodd;clip-rule:evenodd;stroke-linejoin:round;stroke-miterlimit:1.41421;"><g><path d="M139.541,651.963l0,800.016l195.32,33.256l0,-506.333l191.104,360.195l4.216,0l201.409,-361.6l0,544.273l230.45,34.193l0,-1015.01l-246.844,34.661l-188.762,365.815l-179.395,-322.254l-207.498,32.787ZM1561.58,1333.94l-4.215,0l-201.409,-361.6l0,557.389l-229.982,20.609l0,-1007.98l246.375,34.661l188.763,358.79l179.395,-308.672l207.498,26.23l0,806.106l-195.32,25.293l0,-511.017l-191.105,360.194ZM1048.69,375.143l-913.368,151.291l0,-104.92l913.368,-180.332l894.631,180.332l0,98.831l-894.631,-145.202Z" style="fill:#000;"/><path d="M135.325,1662.29l0,-105.388l913.368,151.759l894.631,-145.202l0,98.831l-894.631,179.863l-913.368,-179.863Z" style="fill:#000;"/></g></svg>