<?xml version="1.0" standalone="no"?><!DOCTYPE svg PUBLIC "-//W3C//DTD SVG 1.1//EN" "http://www.w3.org/Graphics/SVG/1.1/DTD/svg11.dtd"><svg width="100%" height="100%" viewBox="0 0 834 834" version="1.1" xmlns="http://www.w3.org/2000/svg" xmlns:xlink="http://www.w3.org/1999/xlink" xml:space="preserve" style="fill-rule:evenodd;clip-rule:evenodd;stroke-linejoin:round;stroke-miterlimit:1.41421;"><g><path d="M412.621,18.046c0.342,0.774 0.671,1.849 0.988,3.205l-0.019,-1.268l0.131,0.329c1.296,3.248 12.011,29.703 23.175,45.239c10.875,23.306 109.79,83.897 151.732,268.768c32.613,190.596 -63.677,306.997 -113.952,353.346l0.027,0.362c0,0 -0.354,0.177 -0.993,0.525c-12.635,11.559 -22.22,18.588 -25.877,21.155c-4.998,6.123 -9.198,13.442 -10.937,21.823c-6.218,26.931 -2.077,83.897 -2.077,83.897l-21.229,-7.256c0,0 1.392,-58.143 -13.16,-92.256c-20.5,-14.917 -171.537,-131.684 -161.879,-327.212c9.837,-209.737 133.09,-312.793 156.912,-331.435c15.054,-16.054 16.009,-22.391 16.998,-37.838l0.096,-1.524l0.064,0.14Z" style="fill:#000;"/></g></svg>