<?xml version="1.0" standalone="no"?><!DOCTYPE svg PUBLIC "-//W3C//DTD SVG 1.1//EN" "http://www.w3.org/Graphics/SVG/1.1/DTD/svg11.dtd"><svg width="100%" height="100%" viewBox="0 0 375 375" version="1.1" xmlns="http://www.w3.org/2000/svg" xmlns:xlink="http://www.w3.org/1999/xlink" xml:space="preserve" style="fill-rule:evenodd;clip-rule:evenodd;stroke-linecap:round;stroke-linejoin:round;stroke-miterlimit:1.41421;"><g><path d="M130.462,264.481c-0.263,0.196 -0.522,0.392 -0.786,0.587c-0.108,0.077 -0.108,0.077 -0.218,0.153c-0.29,0.193 -0.587,0.373 -0.897,0.532c-0.665,0.342 -1.377,0.592 -2.111,0.733c-0.588,0.113 -1.189,0.157 -1.787,0.128c-0.274,-0.013 -0.548,-0.039 -0.819,-0.085c-0.537,-0.092 -1.064,-0.24 -1.569,-0.447c-0.982,-0.402 -1.869,-1.018 -2.584,-1.801c-0.524,-0.573 -0.954,-1.229 -1.278,-1.934c-0.197,-0.428 -0.351,-0.877 -0.467,-1.334c-0.043,-0.172 -0.081,-0.345 -0.114,-0.518c-0.007,-0.041 -0.038,-0.214 -0.044,-0.257c-0.006,-0.053 -0.01,-0.105 -0.015,-0.157l0.001,0l0.007,-0.157c0.068,-0.571 0.136,-1.142 0.207,-1.712l0,0c0.068,-0.555 0.269,-2.222 0.206,-1.666c0.067,-0.541 0.136,-1.082 0.206,-1.623l0,0.001c0.167,-1.297 0.332,-2.585 0.495,-3.88l0,0.001c0.092,-0.741 0.185,-1.478 0.28,-2.216l0,0.001c0.122,-0.948 0.24,-1.888 0.356,-2.837l0,0.002c0.028,-0.231 0.056,-0.461 0.084,-0.692c0,0 0,0.003 0,0.002c0.027,-0.228 0.054,-0.456 0.081,-0.684c0,0 0,0.003 0,0.002c0.129,-1.104 0.261,-2.207 0.386,-3.311c0,-0.001 -0.001,0.002 -0.001,0.002c0.071,-0.639 0.139,-1.277 0.206,-1.916l0,0.002c0.144,-1.431 0.283,-2.862 0.406,-4.296l0,0.002c0.049,-0.594 0.095,-1.188 0.138,-1.784l0,0.001c0.041,-0.588 0.079,-1.17 0.114,-1.759l-0.001,0.001c0.028,-0.485 0.053,-0.965 0.076,-1.451l0,0.001c0.025,-0.574 0.047,-1.152 0.066,-1.73c0.016,-0.521 0.027,-1.051 0.037,-1.58c0.021,-1.099 0.028,-2.201 0.019,-3.3l0,0c-0.01,-0.87 -0.029,-1.74 -0.058,-2.611l0,0c-0.029,-0.786 -0.064,-1.573 -0.108,-2.359l-0.017,-0.298c0.287,2.127 0.518,4.261 0.68,6.401c0.058,0.767 0.111,1.534 0.149,2.302c0.124,2.539 0.16,5.081 0.129,7.622c-0.014,1.117 -0.037,2.234 -0.077,3.35c-0.035,0.961 -0.082,1.922 -0.133,2.882c-0.056,1.057 -0.118,2.113 -0.188,3.168c-0.048,0.737 -0.106,1.474 -0.163,2.211c-0.055,0.713 -0.112,1.426 -0.17,2.138c-0.06,0.735 -0.121,1.47 -0.189,2.204c-0.071,0.76 -0.143,1.52 -0.216,2.28c-0.107,1.112 -0.216,2.223 -0.326,3.334c-0.104,0.975 -0.208,1.95 -0.312,2.926l0.003,0l-0.112,0.966c0.126,0.679 0.364,1.341 0.717,1.936c0.536,0.902 1.346,1.635 2.301,2.07c0.888,0.404 1.891,0.549 2.859,0.43c0.673,-0.083 1.328,-0.292 1.933,-0.598c0.273,-0.138 0.534,-0.298 0.787,-0.47c0.482,-0.336 0.964,-0.67 1.448,-1.002c0.755,-0.514 1.519,-1.015 2.291,-1.503c1.136,-0.718 2.292,-1.406 3.48,-2.035c0.909,-0.481 1.837,-0.925 2.791,-1.31c0.9,-0.364 1.824,-0.677 2.772,-0.893c0.387,-0.088 0.777,-0.159 1.17,-0.209c0.115,-0.014 0.23,-0.027 0.345,-0.037c0.099,-0.009 0.198,-0.016 0.298,-0.028c0.079,-0.01 0.157,-0.022 0.235,-0.037c0.704,-0.136 1.368,-0.435 1.977,-0.808c0.884,-0.541 1.668,-1.24 2.36,-2.009c0.434,-0.481 0.832,-0.993 1.195,-1.529c0.26,-0.382 0.501,-0.777 0.723,-1.183c0.199,-0.364 0.383,-0.737 0.55,-1.117c0.126,-0.286 0.241,-0.577 0.347,-0.871c0.622,-1.736 0.893,-3.638 0.544,-5.463c-0.078,-0.406 -0.188,-0.805 -0.324,-1.196l-0.027,-0.073l-0.027,-0.074c0.043,0.095 0.085,0.191 0.125,0.288c0.147,0.361 0.27,0.731 0.366,1.109c0.49,1.93 0.292,3.98 -0.301,5.864c-0.097,0.309 -0.205,0.615 -0.323,0.917c-0.138,0.352 -0.289,0.698 -0.453,1.039c-0.21,0.434 -0.439,0.859 -0.689,1.272c-0.352,0.582 -0.742,1.142 -1.171,1.67c-0.676,0.833 -1.449,1.598 -2.329,2.216c-0.523,0.368 -1.088,0.686 -1.689,0.907c-0.256,0.094 -0.517,0.171 -0.784,0.226c-0.186,0.039 -0.375,0.062 -0.563,0.091c-0.101,0.017 -0.202,0.035 -0.303,0.054c-1.362,0.271 -2.657,0.798 -3.899,1.409c-0.001,0.001 0.005,-0.002 0.003,-0.001c-1.431,0.714 -2.801,1.543 -4.135,2.424c-0.002,0.001 0.004,-0.003 0.003,-0.002c-0.359,0.24 -0.717,0.483 -1.072,0.729l0.003,-0.002c-0.071,0.049 -0.142,0.098 -0.212,0.148c-0.001,0 0.003,-0.003 0.003,-0.002c-0.208,0.145 -0.414,0.292 -0.62,0.439c-0.001,0 0.003,-0.002 0.002,-0.002c-0.068,0.049 -0.136,0.098 -0.204,0.147l0.002,-0.002c-0.198,0.144 -0.396,0.288 -0.594,0.432c-0.377,0.278 -0.753,0.557 -1.129,0.836c-0.001,0 0.003,-0.003 0.002,-0.002c-0.119,0.088 -0.476,0.352 -0.356,0.265Z" style="fill:#000;fill-rule:nonzero;"/><path d="M154.23,246.893c1.299,1.577 2.772,3.019 4.386,4.277c0.595,0.464 1.207,0.905 1.838,1.318c0.283,0.184 0.569,0.363 0.856,0.539c0.001,0 -0.003,-0.002 -0.002,-0.002c0.237,0.143 0.475,0.284 0.717,0.42c0.413,0.233 0.834,0.452 1.258,0.666c0.403,0.204 0.808,0.402 1.217,0.593c1.038,0.485 2.096,0.928 3.17,1.328c0.839,0.313 1.678,0.596 2.533,0.864l-0.001,-0.001c1.175,0.364 2.361,0.695 3.548,1.021c0.534,0.147 1.07,0.292 1.603,0.442c0.326,0.093 0.651,0.187 0.976,0.282c0.838,0.25 1.675,0.508 2.501,0.797c0.876,0.306 1.742,0.641 2.594,1.008c1.071,0.461 2.123,0.971 3.144,1.534c0.709,0.39 1.404,0.804 2.089,1.233l0.033,0.117l0,0l-0.119,0.026c-0.217,-0.124 -0.217,-0.125 -0.435,-0.247c-0.072,-0.04 -0.287,-0.161 -0.216,-0.12c-0.212,-0.117 -0.426,-0.232 -0.64,-0.346c-0.478,-0.252 -0.961,-0.495 -1.448,-0.73l0,0c-0.201,-0.095 -0.402,-0.19 -0.604,-0.283c-0.199,-0.09 -0.396,-0.178 -0.595,-0.265c-0.259,-0.112 -0.52,-0.222 -0.781,-0.329l0.001,0c-0.192,-0.077 -0.384,-0.154 -0.576,-0.229c-0.191,-0.074 -0.379,-0.145 -0.57,-0.216c-0.249,-0.091 -0.498,-0.18 -0.748,-0.267l0.002,0c-0.247,-0.084 -0.493,-0.167 -0.739,-0.247l0.001,0c-0.165,-0.053 -0.33,-0.105 -0.496,-0.157c-0.038,-0.012 -0.29,-0.091 -0.232,-0.072c-0.301,-0.092 -0.598,-0.18 -0.9,-0.267l0.001,0c-0.119,-0.034 -0.238,-0.068 -0.357,-0.101c-0.118,-0.033 -0.473,-0.131 -0.355,-0.098c-0.819,-0.221 -1.641,-0.428 -2.464,-0.633l0,0.001c-1.298,-0.321 -2.599,-0.634 -3.887,-0.995c-0.781,-0.218 -1.558,-0.452 -2.327,-0.709c-0.952,-0.317 -1.892,-0.675 -2.812,-1.075c-0.941,-0.41 -1.866,-0.86 -2.767,-1.352c-0.512,-0.28 -1.016,-0.574 -1.51,-0.885c-0.237,-0.149 -0.472,-0.3 -0.702,-0.459c-0.552,-0.38 -1.091,-0.777 -1.616,-1.194c-0.202,-0.16 -0.402,-0.323 -0.598,-0.491c-0.512,-0.44 -1.007,-0.896 -1.488,-1.369c-0.167,-0.163 -0.331,-0.329 -0.492,-0.499c-0.793,-0.838 -1.537,-1.721 -2.221,-2.65c-0.652,-0.886 -1.249,-1.812 -1.779,-2.776c-0.173,-0.316 -0.338,-0.636 -0.496,-0.96c-0.111,-0.229 -0.219,-0.462 -0.313,-0.699c0.049,0.105 0.102,0.208 0.155,0.311c0.696,1.326 1.557,2.562 2.489,3.731l-0.001,-0.001c0.058,0.072 0.117,0.144 0.175,0.216Z" style="fill:#000;fill-rule:nonzero;"/><path d="M274.973,188.589c0.004,0.189 0.007,0.603 0.009,0.795c0.004,0.527 0.006,1.053 0.002,1.579c-0.008,1.056 -0.035,2.113 -0.126,3.166c-0.061,0.715 -0.151,1.429 -0.304,2.131c-0.124,0.569 -0.289,1.135 -0.537,1.663c-0.19,0.404 -0.43,0.788 -0.742,1.11c-0.31,0.321 -0.688,0.572 -1.111,0.717c-0.616,0.211 -1.282,0.186 -1.907,0.03c-0.285,-0.07 -0.564,-0.163 -0.826,-0.297c-0.675,-0.347 -1.222,-0.906 -1.684,-1.498c-0.294,-0.378 -0.559,-0.779 -0.804,-1.191c-0.275,-0.459 -0.525,-0.932 -0.76,-1.413c-0.609,-1.246 -1.117,-2.542 -1.58,-3.849c-0.584,-1.646 -1.091,-3.318 -1.559,-5c-0.674,-2.425 -1.262,-4.873 -1.799,-7.331c-0.385,-1.765 -0.747,-3.535 -1.081,-5.31c-0.211,-1.116 -0.416,-2.233 -0.608,-3.353c-0.06,-0.345 -0.119,-0.691 -0.177,-1.036c-0.029,-0.178 -0.058,-0.355 -0.088,-0.533c-0.021,-0.131 -0.038,-0.263 -0.063,-0.393c-0.017,-0.108 -0.034,-0.215 -0.051,-0.323c-0.107,-0.771 -0.184,-1.546 -0.238,-2.323c-0.044,-0.618 -0.068,-1.238 -0.073,-1.858c-0.003,-0.462 0.004,-0.925 0.027,-1.387c0.017,-0.338 0.041,-0.676 0.077,-1.012c0.03,-0.289 0.068,-0.577 0.117,-0.863c0.041,-0.238 0.088,-0.475 0.146,-0.709c0.037,-0.152 0.078,-0.302 0.124,-0.451c0.044,-0.145 0.093,-0.289 0.148,-0.43c0.251,-0.649 0.633,-1.288 1.226,-1.678c0.107,-0.07 0.219,-0.132 0.337,-0.184c0.154,-0.068 0.315,-0.119 0.481,-0.152c0.258,-0.052 0.52,-0.056 0.782,-0.032c0.202,0.036 0.405,0.071 0.607,0.109c0.434,0.082 0.867,0.172 1.297,0.275c0.626,0.149 1.245,0.323 1.856,0.522c0.219,0.071 0.436,0.149 0.651,0.229c0.499,0.186 0.99,0.391 1.471,0.62c1.161,0.551 2.269,1.237 3.239,2.083c0.678,0.592 1.292,1.257 1.823,1.984c0.408,0.559 0.767,1.153 1.075,1.773c0.188,0.379 0.358,0.767 0.508,1.163c0.214,0.565 0.386,1.146 0.527,1.734c0.253,1.058 0.394,2.139 0.456,3.224c0.024,0.414 0.039,0.829 0.041,1.243c0.003,0.726 -0.024,1.452 -0.071,2.176c-0.033,0.515 -0.075,1.03 -0.126,1.544c-0.062,0.632 -0.133,1.264 -0.209,1.895c-0.064,0.528 -0.129,1.055 -0.196,1.583c-0.001,0.001 0,-0.003 0,-0.003c-0.031,0.249 -0.061,0.497 -0.091,0.746c-0.034,0.293 -0.067,0.586 -0.097,0.88c-0.027,0.275 -0.052,0.55 -0.072,0.826c-0.024,0.343 -0.04,0.687 -0.054,1.031c0,0.002 0,-0.006 0,-0.004c-0.008,0.241 -0.015,0.482 -0.021,0.724c0,0.001 0,-0.005 0,-0.004c-0.007,0.376 -0.01,0.751 -0.012,1.126c0,0.001 0,-0.006 0,-0.005c0,0.387 0.002,0.774 0.005,1.161c0.003,0.263 0.006,0.526 0.009,0.789c0,0 0,-0.003 0,-0.002c0.009,0.664 0.018,1.328 0.026,1.993ZM259.856,168.468l0,-0.001c0.1,0.525 0.202,1.049 0.306,1.572l0,-0.001c0.11,0.552 0.223,1.101 0.337,1.654l0,-0.001c0.143,0.683 0.289,1.364 0.437,2.043l0,-0.001c0.128,0.582 0.257,1.159 0.388,1.738l0,-0.001c0.144,0.628 0.288,1.249 0.436,1.876l0,-0.001c0.078,0.326 0.157,0.655 0.236,0.978c0.027,0.111 0.054,0.223 0.082,0.334c0.027,0.11 0.108,0.44 0.081,0.33c0.141,0.566 0.284,1.132 0.429,1.694l0,-0.001c0.149,0.575 0.302,1.151 0.457,1.726l-0.001,-0.001c0.063,0.232 0.126,0.464 0.19,0.695c0.032,0.116 0.128,0.462 0.096,0.347c0.098,0.349 0.196,0.694 0.295,1.041c0.134,0.461 0.269,0.922 0.407,1.382l0,-0.002c0.138,0.455 0.279,0.909 0.422,1.363l-0.001,-0.002c0.072,0.224 0.144,0.448 0.217,0.672c0,0.001 -0.001,-0.003 -0.001,-0.002c0.037,0.111 0.073,0.222 0.11,0.333c0.073,0.219 0.147,0.438 0.221,0.657c0.289,0.841 0.588,1.677 0.911,2.504c0.171,0.438 0.349,0.873 0.532,1.305c0.001,0.001 -0.001,-0.003 -0.001,-0.002c0.212,0.491 0.432,0.979 0.665,1.461c0,0.001 -0.002,-0.004 -0.002,-0.003c0.195,0.397 0.396,0.79 0.613,1.176c0.245,0.437 0.507,0.866 0.799,1.274c0.251,0.352 0.524,0.693 0.835,0.994c0.235,0.226 0.498,0.438 0.798,0.572c0.095,0.043 0.194,0.074 0.295,0.102c0.119,0.032 0.24,0.059 0.363,0.078c0.199,0.031 0.403,0.04 0.603,0.008c0.092,-0.015 0.182,-0.039 0.268,-0.074c0.409,-0.164 0.672,-0.55 0.854,-0.934c0.035,-0.074 0.067,-0.149 0.097,-0.225c0.04,-0.1 0.076,-0.201 0.109,-0.303c0.043,-0.13 0.08,-0.261 0.114,-0.393c0.042,-0.165 0.079,-0.331 0.111,-0.498c0.145,-0.744 0.212,-1.504 0.253,-2.26c0.018,-0.347 0.029,-0.695 0.037,-1.043c0,-0.001 0,0.005 0,0.004c0.018,-0.941 0.005,-1.882 -0.016,-2.823l0,0.003c-0.021,-0.794 -0.046,-1.582 -0.072,-2.379c-0.013,-0.398 -0.026,-0.796 -0.037,-1.194c-0.033,-1.345 -0.058,-2.691 -0.006,-4.036c0.025,-0.658 0.074,-1.314 0.14,-1.969c0.076,-0.769 0.166,-1.537 0.255,-2.305c0.016,-0.134 0.032,-0.269 0.047,-0.404c0.016,-0.135 0.061,-0.54 0.046,-0.405c0.037,-0.344 0.074,-0.688 0.109,-1.032c0.013,-0.14 0.026,-0.28 0.04,-0.42c0,-0.001 -0.001,0.005 -0.001,0.003c0.013,-0.141 0.025,-0.282 0.037,-0.424c0,-0.001 0,0.006 0,0.005c0.04,-0.495 0.075,-0.99 0.097,-1.486c0.025,-0.54 0.036,-1.08 0.032,-1.621c-0.002,-0.453 -0.014,-0.906 -0.043,-1.359c-0.107,-1.685 -0.42,-3.371 -1.091,-4.927c-0.121,-0.283 -0.255,-0.56 -0.401,-0.831c-0.214,-0.398 -0.454,-0.782 -0.719,-1.149c-0.501,-0.692 -1.09,-1.312 -1.738,-1.867c-0.889,-0.762 -1.894,-1.383 -2.95,-1.887c-0.459,-0.22 -0.928,-0.417 -1.404,-0.597c-0.509,-0.193 -1.024,-0.368 -1.545,-0.524c-0.634,-0.189 -1.276,-0.349 -1.922,-0.492c-0.047,-0.006 -0.094,-0.009 -0.141,-0.011c-0.103,-0.001 -0.204,0.008 -0.303,0.035c-0.361,0.096 -0.634,0.396 -0.825,0.702c-0.043,0.068 -0.084,0.138 -0.122,0.21c-0.055,0.102 -0.106,0.208 -0.152,0.314c-0.253,0.579 -0.404,1.201 -0.518,1.821c-0.152,0.828 -0.232,1.669 -0.276,2.509c-0.025,0.461 -0.036,0.922 -0.042,1.383c-0.009,0.62 0,1.236 0.022,1.851l0,-0.002c0.008,0.192 0.017,0.384 0.027,0.576l0.008,0.144l0.008,0.112c0.019,0.104 0.039,0.208 0.058,0.312Z" style="fill:#000;fill-rule:nonzero;"/><path d="M156.495,189.127c1.902,0.094 3.799,0.283 5.684,0.557c0.462,0.068 0.923,0.143 1.383,0.221c1.011,0.171 2.019,0.363 3.023,0.573c2.119,0.443 4.225,0.962 6.301,1.579l0.16,0.049l0.132,0.041c-0.176,-0.03 -0.352,-0.058 -0.529,-0.086c-1.455,-0.223 -2.918,-0.401 -4.384,-0.541c-1.261,-0.12 -2.524,-0.213 -3.789,-0.275c-0.807,-0.04 -1.613,-0.064 -2.42,-0.08c-1.316,-0.025 -2.631,-0.022 -3.946,0.033c-1.432,0.06 -2.862,0.176 -4.282,0.372c-0.365,0.051 -0.73,0.108 -1.094,0.167c-0.145,0.024 -0.287,0.047 -0.432,0.073c-0.083,0.015 -0.166,0.028 -0.248,0.046c-0.098,0.022 -0.195,0.051 -0.291,0.081c-0.324,0.103 -0.638,0.235 -0.947,0.377c-0.417,0.193 -0.825,0.405 -1.227,0.627c-0.614,0.339 -1.221,0.689 -1.818,1.055c-0.265,0.162 -0.528,0.327 -0.789,0.493c-0.135,0.086 -0.27,0.177 -0.406,0.26c-0.281,0.174 -0.561,0.349 -0.84,0.526c-0.31,0.197 -0.617,0.399 -0.927,0.596c-0.347,0.22 -0.694,0.439 -1.039,0.661c-0.001,0.001 0.004,-0.003 0.003,-0.002c-0.325,0.21 -0.649,0.423 -0.973,0.634c-0.497,0.324 -0.997,0.644 -1.492,0.971c-0.592,0.39 -1.184,0.78 -1.774,1.173c-0.431,0.287 -0.86,0.578 -1.292,0.864c-0.001,0.001 0.005,-0.003 0.004,-0.002c-0.545,0.364 -1.089,0.729 -1.632,1.096l0.003,-0.001c-0.129,0.088 -0.259,0.175 -0.388,0.263c-0.001,0.001 0.003,-0.002 0.002,-0.001c-0.247,0.169 -0.495,0.338 -0.742,0.507c-0.001,0.001 0.003,-0.002 0.002,-0.001c-0.232,0.16 -0.465,0.32 -0.697,0.48l0.002,-0.001c-0.412,0.285 -0.825,0.568 -1.237,0.853c-0.643,0.444 -1.283,0.892 -1.921,1.343l-0.189,0.135l-1.093,0.265l-0.954,-0.553l0,0l-0.268,-1.07c0.185,-0.326 0.35,-0.664 0.556,-0.977c0.044,-0.066 0.124,-0.098 0.186,-0.147c0.176,-0.14 0.352,-0.279 0.529,-0.418c0.446,-0.351 0.893,-0.701 1.342,-1.048c0.99,-0.767 1.99,-1.521 2.996,-2.267c0.671,-0.499 1.343,-0.997 2.023,-1.484c0.432,-0.308 0.865,-0.615 1.299,-0.921c0.231,-0.162 0.461,-0.325 0.693,-0.485c0.366,-0.253 0.734,-0.501 1.102,-0.749c0.353,-0.238 0.705,-0.477 1.062,-0.709c0.408,-0.266 0.82,-0.527 1.232,-0.787c0.281,-0.177 0.561,-0.354 0.844,-0.527c0.325,-0.199 0.656,-0.388 0.985,-0.579c0.225,-0.131 0.45,-0.26 0.677,-0.389c0.078,-0.044 0.155,-0.09 0.234,-0.132c0.505,-0.27 1.014,-0.535 1.527,-0.791c0.347,-0.174 0.697,-0.343 1.048,-0.508c0.207,-0.096 0.413,-0.193 0.622,-0.283c0.375,-0.16 0.752,-0.315 1.133,-0.458c0.59,-0.22 1.191,-0.418 1.808,-0.548c0.21,-0.044 0.422,-0.08 0.635,-0.102c0.183,-0.02 0.367,-0.03 0.551,-0.041c0.315,-0.02 0.63,-0.034 0.946,-0.043c0.953,-0.028 1.905,-0.018 2.857,0.015c0.158,0.006 0.316,0.013 0.474,0.02Z" style="fill:#000;fill-rule:nonzero;"/><path d="M86.405,42.491c9.588,-3.748 21.811,-5.39 24.174,-6.678c3.261,-1.778 7.352,-9.271 7.352,-9.271c0,0 16.976,-17.378 33.229,-17.056c16.253,0.322 22.503,7.152 31.089,8.658c8.585,1.507 45.765,8.5 53.037,14.332c7.272,5.833 45.949,25.578 63.417,48.224c17.468,22.645 18.513,54.412 17.009,73.888c-1.503,19.475 -3.165,40.155 -3.356,52.397c-0.191,12.243 3.642,35.995 8.393,42.673c4.752,6.679 22.161,14.094 23.142,25.497c0.981,11.402 1.061,20.597 7.765,26.253c3.655,3.082 18.155,19.511 8.242,61.591c-11.064,-26.982 -23.827,-29.436 -31.924,-30.359c-17.803,-2.031 -18.225,9.686 -35.309,11.004c-17.083,1.317 -14.937,-14.794 -24.149,-14.189c-9.213,0.606 -14.188,0.961 -22.947,-10.236c-5.819,-7.437 -0.301,-34.738 3.597,-46.753c3.898,-12.014 2.043,-59.089 2.043,-59.089c0,0 0.072,15.094 -2.837,20.661c-1.101,2.107 -2.158,4.44 -4.631,7.486c-4.06,5.001 -4.652,22.506 -4.89,20.783c-0.384,-2.772 -5.603,-16.5 -5.603,-16.5c0,0 -4.823,-12.389 -1.259,-19.553c2.056,-4.133 4.613,-22.481 4.613,-22.481c0,0 -4.309,-9.094 -5.807,-8.941c-1.497,0.152 -33.618,0.534 -64.798,-7.695c-31.18,-8.228 -44.328,-40.163 -44.328,-40.163c0,0 1.973,32.617 19.232,45.896c-14.842,-3.79 -26.023,-35.678 -27.36,-38.726c0.373,4.848 1.946,31.917 20.991,45.349c-17.424,-4.789 -30.108,-31.197 -29.897,-37.664c-0.377,11.703 10.043,38.526 17.901,42.554c-12.097,-4.763 -26.902,-25.636 -27.959,-35.396c-0.807,9.209 2.638,31.762 11.165,39.118c-13.573,-6.928 -22.255,-26.379 -21.599,-34.477c-2.491,9.26 6.22,30.82 11.171,34.951c-6.541,-5.03 -17.708,-21.026 -18.316,-30.175c-1.673,4.268 1.081,27.076 6.669,34.311c0.256,0.299 0.515,0.594 0.776,0.884c-0.264,-0.26 -0.523,-0.556 -0.776,-0.884c-14.04,-16.389 -19.611,-44.358 -11.898,-52.258c-3.946,3.307 -11.499,16.417 -11.354,21.773c-1.229,-12.588 -4.048,-23.273 2.921,-32.785c-5.011,-1.864 -9.97,0.187 -11.752,2.349c2.653,-6.826 8.022,-14.472 11.296,-16.455c0.181,-0.11 0.364,-0.397 0.548,-0.843l6.017,0.13l-0.389,5.343l8.461,-1.957l2.915,-8.319l6.556,-0.486l4.607,-6.143l7.515,-0.076l12.9,-4.766l8.951,5.233l5.381,7.088l6.945,3.829l7.231,-3.479l3.564,0.865l0.178,-8.905l-10.095,-10.489l-3.81,-9.952l-1.849,-6.339l-4.801,-5.363l7.957,-2.183l5.245,4.914l5.244,0.416l6.487,-1.411l0,-10.15l-8.124,-3.546l7.877,-5.503l10.327,-3.228l-0.83,-5.86l-11.056,2.845l-1.679,-10.364l-10.56,-2.819l13.164,-0.782l-3.202,-7.295l-10.885,-1.983l-4.571,4.571l-7.567,-0.407l-6.869,-4.927l-2.264,-2.282l-12.762,1.777l-8.869,-1.013l-4.363,1.011Z" style="fill:#000;"/><path d="M90.768,41.48l-5.871,1.36l-4.349,-5.881l-2.711,8.525l-6.072,-1.405l-7.966,-9.961l-4.558,9.901l-3.488,2.573l9.82,13.529l-4.763,8.568l-8.446,-4.61l-5.705,-0.347l-4.754,-2.954l-7.052,3.323l0.471,5.876l7.202,4.886l6.681,11.967l-12.855,1.871l2.654,8.003l-7.463,-1.247l-4.809,0.508l-0.214,6.665l-14.827,3.719l22.308,8.214l-6.275,3.144l-5.41,7.494l7.264,6.619l-0.898,5.656l3.75,4.703l7.689,-4.429l6.106,0.9l5.629,-4.403l17.589,0.379l-0.389,5.343l8.461,-1.957l2.915,-8.319l6.556,-0.486l4.607,-6.143l7.515,-0.076l12.9,-4.766l8.951,5.233l5.381,7.088l6.945,3.829l7.231,-3.479l3.564,0.865l0.178,-8.905l-10.095,-10.489l-3.81,-9.952l-1.849,-6.339l-4.801,-5.363l7.957,-2.183l5.245,4.914l5.244,0.416l6.487,-1.411l0,-10.15l-8.124,-3.546l7.877,-5.503l10.327,-3.228l-0.83,-5.86l-11.056,2.845l-1.679,-10.364l-10.56,-2.819l13.164,-0.782l-3.202,-7.295l-10.885,-1.983l-4.571,4.571l-7.567,-0.407l-6.869,-4.927l-2.264,-2.282l-12.762,1.777l-8.869,-1.013Z" style="fill:none;stroke-width:2.5px;stroke:#000;"/><path d="M115.287,215.875l-1.641,4.537l-3.284,-1.424l-3.228,1.646l-2.474,-2.107l-2.35,0.414l-5.838,-3.203c0,0 5.939,2.498 18.815,0.137Z" style="fill:#000;"/><path d="M140.223,268.033c3.064,0.39 5.297,-0.105 7.743,-1.35c3.811,0.026 15.757,0.043 20.461,-1.706c5.765,-2.144 13.098,-3.75 17.451,-1.781c-6.795,-0.665 -9.819,2.136 -18.543,4.494c-7.452,2.014 -16.174,3.225 -21.155,3.98c-10.813,1.638 -12.113,0.66 -14.81,-0.315c4.356,0.016 3.167,-0.628 8.853,-3.322Z" style="fill:#000;"/><path d="M172.904,273.128c0.075,-0.033 0.149,-0.066 0.224,-0.099c0.001,0 -0.003,0.001 -0.002,0.001c0.367,-0.163 0.733,-0.329 1.098,-0.497c0.001,0 -0.002,0.002 -0.002,0.001c0.288,-0.133 0.577,-0.264 0.864,-0.398c0.001,0 -0.002,0.001 -0.002,0.001c0.56,-0.263 1.114,-0.535 1.668,-0.809c0.001,-0.001 -0.002,0.001 -0.001,0c0.201,-0.1 0.403,-0.202 0.604,-0.304c0,-0.001 -0.002,0.001 -0.002,0.001c0.197,-0.102 0.394,-0.204 0.59,-0.307l-0.002,0.001c0.065,-0.034 0.13,-0.068 0.194,-0.102c0.001,-0.001 -0.002,0.001 -0.001,0.001c0.064,-0.035 0.128,-0.069 0.192,-0.103c0.001,-0.001 -0.002,0.001 -0.002,0.001c0.126,-0.068 0.252,-0.137 0.378,-0.205c0.001,0 -0.002,0.002 -0.001,0.001c0.062,-0.034 0.125,-0.068 0.187,-0.102c0.001,0 -0.002,0.002 -0.002,0.001c0.123,-0.067 0.245,-0.135 0.368,-0.202c0,-0.001 -0.003,0.001 -0.002,0.001c0.294,-0.165 0.587,-0.333 0.879,-0.504l-0.002,0.001c0.057,-0.034 0.114,-0.068 0.171,-0.101c0,-0.001 -0.003,0.001 -0.002,0.001c0.219,-0.132 0.437,-0.265 0.654,-0.4c0.001,0 -0.002,0.002 -0.002,0.001c0.672,-0.423 1.33,-0.865 1.961,-1.346l0.119,-0.093l0.117,-0.092l0.368,0.023l0,0l-0.031,0.368c-0.812,0.759 -1.69,1.443 -2.598,2.082c-0.6,0.421 -1.209,0.829 -1.829,1.221c-0.401,0.253 -0.808,0.498 -1.216,0.739c-1.367,0.807 -2.769,1.553 -4.2,2.237c-0.522,0.249 -1.046,0.493 -1.575,0.726c-0.486,0.214 -0.976,0.417 -1.476,0.593c-0.44,0.154 -0.883,0.298 -1.329,0.436c-0.187,0.059 -0.374,0.116 -0.563,0.169c-1.794,0.505 -3.62,0.886 -5.457,1.194c-1.11,0.186 -2.224,0.343 -3.34,0.481c-0.623,0.077 -1.247,0.151 -1.872,0.215c-0.953,0.099 -1.908,0.18 -2.864,0.249c-0.006,0.001 -0.315,0.021 -0.351,0.023l-0.122,0.008l-0.01,-0.008l0.008,-0.01c0.339,-0.057 0.679,-0.118 1.018,-0.18l-0.001,0c0.245,-0.045 0.489,-0.091 0.733,-0.137c1.23,-0.24 2.45,-0.492 3.675,-0.765c0.637,-0.142 1.279,-0.295 1.916,-0.451c0.345,-0.084 0.691,-0.168 1.035,-0.255c0.577,-0.146 1.153,-0.299 1.728,-0.454c0.001,0 -0.003,0.001 -0.003,0c0.348,-0.095 0.696,-0.192 1.043,-0.292c0.231,-0.067 0.462,-0.136 0.693,-0.204c0.001,0 -0.003,0.001 -0.002,0.001c0.399,-0.118 0.796,-0.24 1.196,-0.368c0.001,0 -0.003,0.001 -0.002,0.001c0.443,-0.144 0.886,-0.29 1.326,-0.441l-0.002,0.001c0.213,-0.075 0.427,-0.151 0.64,-0.229c0.309,-0.115 0.617,-0.232 0.924,-0.352c0.698,-0.276 1.387,-0.577 2.076,-0.874l-0.002,0.001c0.075,-0.033 0.149,-0.065 0.223,-0.097Z" style="fill:#000;fill-rule:nonzero;"/><path d="M148.328,278.91c-0.806,0.097 -1.613,0.18 -2.422,0.238c-0.348,0.025 -0.696,0.042 -1.045,0.056c-0.466,0.019 -0.934,0.032 -1.401,0.03c-0.353,-0.001 -0.705,-0.01 -1.058,-0.024c-0.229,-0.009 -0.458,-0.028 -0.687,-0.045l-0.102,-0.008c-0.109,-0.014 -0.218,-0.028 -0.326,-0.043c-0.054,-0.008 -0.108,-0.02 -0.162,-0.03c-0.21,-0.039 -0.417,-0.089 -0.624,-0.142c-0.103,-0.026 -0.207,-0.054 -0.31,-0.082c-0.079,-0.022 -0.208,-0.065 -0.274,-0.086c-0.225,-0.073 -0.445,-0.152 -0.663,-0.242l-0.047,-0.02l-0.036,-0.016l-0.136,-0.256l0.256,-0.136c0.109,0.018 0.219,0.031 0.329,0.043c0.086,0.009 0.173,0.02 0.259,0.029c0.144,0.014 0.289,0.023 0.433,0.037c0.14,0.014 0.281,0.026 0.422,0.037c0.123,0.009 0.247,0.015 0.37,0.027c0.096,0.009 0.193,0.018 0.289,0.026c0.105,0.012 0.21,0.022 0.315,0.036c0.084,0.012 0.168,0.026 0.253,0.038c0.164,0.023 0.328,0.045 0.493,0.066c0.179,0.022 0.358,0.048 0.537,0.07c0.625,0.073 1.251,0.138 1.879,0.186c1.352,0.101 2.708,0.139 4.064,0.133c-0.202,0.026 -0.404,0.053 -0.606,0.078Z" style="fill:#000;fill-rule:nonzero;"/><path d="M161.509,317.577c0.005,0.166 0.004,0.331 0.005,0.496c0,0.185 -0.001,0.369 -0.003,0.554c-0.012,0.698 -0.035,1.396 -0.083,2.092c-0.04,0.6 -0.098,1.198 -0.187,1.792c-0.056,0.375 -0.123,0.748 -0.211,1.117c-0.089,0.37 -0.198,0.737 -0.357,1.084l-0.022,0.047c0.02,-0.068 0.038,-0.136 0.055,-0.205c0.017,-0.072 0.032,-0.146 0.047,-0.219c0.076,-0.422 0.108,-0.851 0.12,-1.279c0.013,-0.473 0.001,-0.946 -0.022,-1.418c-0.056,-1.169 -0.181,-2.333 -0.349,-3.491l-0.015,-0.103c-0.159,-0.049 -0.318,-0.101 -0.476,-0.153c-0.234,-0.079 -0.468,-0.158 -0.701,-0.24c-0.668,-0.239 -1.333,-0.489 -1.988,-0.764c-0.75,-0.314 -1.49,-0.656 -2.217,-1.022c-0.691,-0.347 -1.372,-0.715 -2.033,-1.117c-0.567,-0.344 -1.119,-0.715 -1.653,-1.108c-0.635,-0.468 -1.245,-0.973 -1.809,-1.525c-0.212,-0.206 -0.417,-0.418 -0.612,-0.64c-0.055,-0.062 -0.177,-0.203 -0.221,-0.262c-0.05,-0.066 -0.096,-0.135 -0.144,-0.202c-0.111,-0.151 -0.224,-0.301 -0.338,-0.451c-0.352,-0.457 -0.715,-0.904 -1.091,-1.342c-0.284,-0.33 -0.577,-0.653 -0.871,-0.975c-0.195,-0.212 -0.387,-0.425 -0.584,-0.634c-0.242,-0.257 -0.49,-0.509 -0.736,-0.762c-0.174,-0.18 -0.349,-0.36 -0.526,-0.538c-0.231,-0.233 -0.466,-0.462 -0.701,-0.691l-0.023,-0.024l-0.216,-0.214l-0.22,-0.216c-0.341,-0.332 -0.687,-0.659 -1.033,-0.986c-0.002,-0.002 0.006,0.005 0.004,0.004c-0.1,-0.095 -0.201,-0.189 -0.302,-0.283c-0.001,-0.001 0.006,0.005 0.004,0.004c-0.101,-0.094 -0.202,-0.187 -0.303,-0.28c-0.002,-0.001 0.005,0.005 0.004,0.004c-0.152,-0.139 -0.304,-0.276 -0.455,-0.415c-0.001,-0.001 0.005,0.005 0.004,0.003c-0.349,-0.32 -0.701,-0.636 -1.056,-0.949c-0.002,-0.001 0.005,0.004 0.003,0.003c-0.202,-0.177 -0.403,-0.355 -0.605,-0.533c-0.001,-0.001 0.005,0.004 0.004,0.003c-0.291,-0.253 -0.584,-0.504 -0.878,-0.753c-0.305,-0.26 -0.607,-0.521 -0.914,-0.777c-0.578,-0.483 -1.165,-0.954 -1.756,-1.42c-0.002,-0.001 0.008,0.006 0.006,0.004c-0.375,-0.293 -0.746,-0.592 -1.123,-0.882c-0.356,-0.275 -0.715,-0.547 -1.076,-0.814c-0.215,-0.159 -0.432,-0.316 -0.647,-0.473c-0.359,-0.263 -0.717,-0.527 -1.081,-0.784c-0.445,-0.316 -0.896,-0.625 -1.353,-0.925c-0.422,-0.276 -0.85,-0.546 -1.287,-0.798c-0.167,-0.096 -0.337,-0.19 -0.509,-0.278c-0.148,-0.076 -0.299,-0.15 -0.456,-0.205c-0.15,-0.052 -0.304,-0.092 -0.459,-0.126c-0.471,-0.102 -0.952,-0.136 -1.433,-0.129c-0.416,0.006 -0.832,0.042 -1.244,0.099c-0.433,0.059 -0.864,0.14 -1.289,0.244c-0.576,0.919 -1.155,1.837 -1.763,2.736c-0.203,0.301 -0.41,0.599 -0.621,0.894c-0.174,0.243 -0.354,0.482 -0.527,0.726c-0.066,0.095 -0.131,0.191 -0.196,0.287c-0.275,0.42 -0.529,0.854 -0.75,1.305c-0.553,1.126 -0.919,2.348 -1.012,3.602c-0.034,0.452 -0.033,0.906 0.011,1.357c0.023,0.238 0.055,0.48 0.116,0.712l0.023,0.122c0.702,0.379 1.427,0.911 2.111,1.282c0.306,0.166 0.611,0.333 0.915,0.503c0.112,0.062 0.225,0.123 0.336,0.188c1.074,0.623 2.138,1.264 3.188,1.926c0.454,0.287 0.908,0.575 1.354,0.873c0.325,0.217 0.646,0.441 0.966,0.665c0.486,0.341 0.97,0.684 1.446,1.038c0.392,0.291 0.777,0.594 1.16,0.896c0.409,0.324 0.816,0.651 1.215,0.986c0.239,0.201 0.473,0.408 0.707,0.615c0.525,0.463 1.038,0.94 1.534,1.434c0.226,0.225 0.448,0.456 0.667,0.688c0.126,0.133 0.254,0.267 0.375,0.402c0.305,0.34 0.604,0.683 0.898,1.032c0.086,0.104 0.085,0.105 0.169,0.21c0.22,0.282 0.437,0.565 0.649,0.852c0.058,0.08 0.117,0.16 0.174,0.241c0.332,0.478 0.652,0.968 0.945,1.471c0.157,0.269 0.303,0.546 0.444,0.823c0.15,0.296 0.293,0.596 0.426,0.899c0.049,0.112 0.096,0.225 0.143,0.338c0.034,0.083 0.035,0.082 0.063,0.167l0.017,0.043c0.151,0.31 0.32,0.608 0.5,0.901c0.143,0.232 0.29,0.46 0.446,0.683c0.528,0.753 1.132,1.448 1.766,2.112c0.168,0.175 0.335,0.35 0.507,0.521c0.455,0.454 0.927,0.892 1.411,1.315c0.255,0.222 0.514,0.438 0.773,0.653c0.423,0.351 0.85,0.694 1.288,1.025c0.258,0.194 0.518,0.385 0.785,0.566l0.063,0.058c0.047,0.058 0.062,0.071 0.096,0.138c0.034,0.068 0.034,0.088 0.052,0.161c0.011,0.106 0.017,0.212 0.025,0.318c0.046,0.742 0.065,1.485 0.046,2.227c-0.015,0.568 -0.05,1.136 -0.132,1.699c-0.053,0.365 -0.125,0.728 -0.228,1.083c-0.092,0.312 -0.215,0.618 -0.396,0.889l-0.026,0.036c0.018,-0.041 0.036,-0.082 0.052,-0.124c0.016,-0.044 0.031,-0.088 0.046,-0.132c0.102,-0.34 0.142,-0.693 0.156,-1.047c0.014,-0.367 -0.001,-0.736 -0.031,-1.102c-0.092,-1.128 -0.296,-2.246 -0.566,-3.345c-0.142,-0.068 -0.284,-0.137 -0.425,-0.207c-0.582,-0.292 -1.156,-0.597 -1.721,-0.92c-0.186,-0.106 -0.37,-0.218 -0.554,-0.329c-0.436,-0.265 -0.866,-0.54 -1.289,-0.825c-0.328,-0.221 -0.652,-0.449 -0.971,-0.683c-0.146,-0.108 -0.293,-0.216 -0.436,-0.328c-0.55,-0.431 -1.083,-0.884 -1.589,-1.365c-0.624,-0.592 -1.214,-1.226 -1.72,-1.924c-0.127,-0.175 -0.249,-0.353 -0.366,-0.535c-0.046,-0.072 -0.124,-0.194 -0.162,-0.263c-0.026,-0.047 -0.048,-0.096 -0.072,-0.144c-0.062,-0.116 -0.126,-0.231 -0.191,-0.345c-0.173,-0.297 -0.355,-0.588 -0.548,-0.872c-0.107,-0.159 -0.219,-0.315 -0.33,-0.472c-0.121,-0.171 -0.243,-0.341 -0.368,-0.509c-0.178,-0.238 -0.362,-0.47 -0.547,-0.701c-0.153,-0.191 -0.304,-0.383 -0.46,-0.571c-0.139,-0.167 -0.281,-0.33 -0.421,-0.495c-0.123,-0.143 -0.242,-0.288 -0.365,-0.431c-0.167,-0.193 -0.338,-0.384 -0.508,-0.575c-0.165,-0.184 -0.33,-0.369 -0.497,-0.551c-0.142,-0.155 -0.287,-0.307 -0.431,-0.461c-0.321,-0.344 -0.645,-0.686 -0.973,-1.023c-0.128,-0.131 -0.254,-0.263 -0.382,-0.394c-0.207,-0.211 -0.417,-0.418 -0.626,-0.627c-0.289,-0.289 -0.577,-0.579 -0.87,-0.864c-0.251,-0.245 -0.505,-0.487 -0.76,-0.728c-0.151,-0.142 -0.303,-0.281 -0.453,-0.422c-0.292,-0.275 -0.583,-0.551 -0.878,-0.823l0.004,0.003c-0.127,-0.117 -0.254,-0.233 -0.381,-0.349c-0.001,-0.001 0.004,0.004 0.003,0.003c-0.249,-0.227 -0.501,-0.452 -0.753,-0.677c-0.001,-0.001 0.004,0.003 0.003,0.002c-0.185,-0.164 -0.368,-0.332 -0.552,-0.498c-0.001,-0.001 0.003,0.002 0.002,0.002c-0.061,-0.055 -0.122,-0.11 -0.184,-0.165c0,-0.001 0.004,0.002 0.003,0.002c-0.061,-0.055 -0.122,-0.109 -0.183,-0.163c-0.001,-0.001 0.003,0.002 0.003,0.002c-0.18,-0.16 -0.18,-0.16 -0.36,-0.319l0.002,0.002c-0.915,-0.804 -1.845,-1.589 -2.787,-2.361c-0.188,-0.154 -0.378,-0.315 -0.566,-0.469c-0.252,-0.209 -0.507,-0.415 -0.761,-0.621c-0.001,0 0.002,0.002 0.002,0.002c-0.077,-0.062 -0.154,-0.124 -0.231,-0.185c0,-0.001 0.003,0.001 0.002,0.001c-0.072,-0.058 -0.145,-0.116 -0.217,-0.173l0.002,0.001c-0.363,-0.288 -1.207,-0.62 -1.722,-0.917c-0.084,-0.02 -0.164,-0.052 -0.238,-0.096c-0.077,-0.045 -0.098,-0.068 -0.152,-0.112c-0.04,-0.034 -0.082,-0.066 -0.124,-0.097c-0.051,-0.037 -0.102,-0.073 -0.154,-0.108c-0.797,-0.528 -1.726,-0.853 -2.683,-0.907c-0.498,-0.028 -0.999,0.017 -1.485,0.128c-0.797,0.181 -1.544,0.534 -2.225,0.979c-0.718,0.469 -1.368,1.035 -1.961,1.653c-0.463,0.482 -0.896,0.991 -1.266,1.548c-0.603,0.905 -1.038,1.915 -1.291,2.972c-0.415,1.736 -0.343,3.545 -0.061,5.296c0.091,0.562 0.203,1.121 0.325,1.677c0.113,0.517 0.234,1.03 0.346,1.548c0.033,0.158 0.065,0.317 0.095,0.476c0.05,0.275 0.094,0.552 0.104,0.831c0.007,0.171 0,0.344 -0.037,0.511c-0.022,0.097 -0.055,0.193 -0.101,0.281c-0.038,0.072 -0.084,0.138 -0.139,0.197c-0.134,0.142 -0.313,0.23 -0.504,0.261c-0.128,0.021 -0.26,0.016 -0.389,0.01c-0.186,-0.008 -0.371,-0.031 -0.555,-0.061c-0.106,-0.018 -0.212,-0.039 -0.318,-0.062c-0.138,-0.029 -0.276,-0.062 -0.413,-0.095c-0.166,-0.039 -0.332,-0.08 -0.499,-0.118c-0.097,-0.021 -0.194,-0.041 -0.292,-0.06c-0.159,-0.028 -0.318,-0.053 -0.479,-0.066c-0.253,-0.02 -0.509,-0.013 -0.76,0.033c-0.099,0.018 -0.196,0.042 -0.292,0.071c-0.701,0.216 -1.276,0.714 -1.76,1.248c-0.096,0.106 -0.189,0.214 -0.28,0.325c-0.114,0.14 -0.224,0.283 -0.331,0.429c-0.195,0.265 -0.378,0.539 -0.553,0.818c-0.122,0.193 -0.243,0.387 -0.349,0.588c-0.119,0.225 -0.22,0.458 -0.307,0.697c-0.375,1.03 -0.476,2.146 -0.454,3.235c0.015,0.734 0.089,1.467 0.2,2.194c0.133,0.865 0.319,1.721 0.541,2.567c0.295,1.13 0.654,2.242 1.055,3.339c0.501,1.369 1.067,2.718 1.707,4.029c0.021,0.043 0.043,0.086 0.064,0.129c-0.291,-0.531 -0.561,-1.075 -0.823,-1.621c-0.346,-0.723 -0.673,-1.455 -0.981,-2.195c-0.445,-1.071 -0.849,-2.16 -1.194,-3.268c-0.281,-0.901 -0.525,-1.816 -0.708,-2.743c-0.158,-0.796 -0.273,-1.603 -0.319,-2.414c-0.064,-1.152 0.007,-2.335 0.365,-3.439c0.087,-0.268 0.19,-0.529 0.312,-0.782c0.106,-0.22 0.227,-0.432 0.35,-0.642c0.213,-0.367 0.439,-0.726 0.684,-1.072c0.087,-0.122 0.176,-0.242 0.268,-0.361c0.554,-0.713 1.232,-1.38 2.08,-1.728c0.125,-0.051 0.252,-0.094 0.381,-0.13c0.301,-0.083 0.609,-0.12 0.92,-0.125c0.059,0 0.059,0 0.118,0.001c0.229,0.007 0.456,0.029 0.683,0.064c0.381,0.058 0.758,0.147 1.137,0.221c0.095,0.018 0.191,0.035 0.287,0.05c0.24,0.035 0.483,0.061 0.726,0.047l0.004,-0.001l0.006,-0.001l0.005,-0.017l0.001,-0.008c0.001,-0.003 0.015,-0.057 0.005,-0.023c-0.001,0.003 0.001,-0.007 0.001,-0.01c0.002,-0.013 0.004,-0.027 0.005,-0.04l0.002,-0.026l0,0c0.001,-0.047 0.002,-0.093 0,-0.139c-0.007,-0.17 -0.034,-0.338 -0.065,-0.505c-0.043,-0.229 -0.097,-0.456 -0.152,-0.683c-0.128,-0.512 -0.263,-1.019 -0.392,-1.53c-0.251,-1.008 -0.474,-2.021 -0.603,-3.052c-0.2,-1.586 -0.183,-3.21 0.191,-4.769c0.247,-1.027 0.647,-2.015 1.188,-2.922c0.351,-0.588 0.761,-1.135 1.206,-1.654c0.371,-0.431 0.764,-0.845 1.183,-1.231c0.735,-0.68 1.551,-1.276 2.452,-1.715c0.584,-0.285 1.202,-0.502 1.839,-0.63c0.718,-0.145 1.457,-0.176 2.184,-0.087c0.566,0.069 1.119,0.211 1.652,0.411l0.073,0.028l0.061,0.024c-0.004,-0.115 -0.003,-0.115 -0.005,-0.23c-0.001,-0.494 0.028,-0.986 0.093,-1.476c0.179,-1.339 0.604,-2.64 1.219,-3.842c0.233,-0.456 0.492,-0.898 0.773,-1.325c0.125,-0.191 0.258,-0.376 0.389,-0.563c0.071,-0.1 0.14,-0.202 0.21,-0.304c0.144,-0.212 0.144,-0.212 0.287,-0.426c0.488,-0.74 0.955,-1.492 1.415,-2.25c0.469,-0.777 0.934,-1.556 1.403,-2.333c0.141,-0.231 0.283,-0.462 0.425,-0.692c0.69,-1.106 1.403,-2.201 2.22,-3.218c0.696,-0.865 1.478,-1.681 2.4,-2.308c0.41,-0.279 0.849,-0.518 1.312,-0.697c0.242,-0.094 0.491,-0.169 0.742,-0.238c0.314,-0.086 0.632,-0.162 0.95,-0.231c0.661,-0.143 1.327,-0.261 1.994,-0.368c1.243,-0.199 2.492,-0.357 3.743,-0.495c1.032,-0.115 2.066,-0.216 3.1,-0.302l-0.968,-0.877c-0.323,-0.293 -1.295,-1.17 -0.969,-0.88c-1.748,-1.587 -3.498,-3.172 -5.239,-4.766c-0.273,-0.236 -0.533,-0.488 -0.799,-0.732c-0.486,-0.445 -1.144,-1.049 -1.628,-1.495c-1.973,-1.815 -3.942,-3.635 -5.898,-5.469c-0.839,-0.787 -1.677,-1.574 -2.514,-2.363c-0.586,-0.553 -1.17,-1.111 -1.753,-1.668c-1.399,-1.336 -2.793,-2.679 -4.178,-4.03c-1.968,-1.92 -3.922,-3.856 -5.841,-5.825c-1.16,-1.189 -2.305,-2.392 -3.433,-3.611c-1.087,-1.175 -2.158,-2.366 -3.193,-3.587c-0.743,-0.876 -1.468,-1.767 -2.153,-2.689c-0.561,-0.757 -1.103,-1.536 -1.555,-2.364c-0.159,-0.292 -0.3,-0.592 -0.436,-0.895c-0.544,-1.213 -0.989,-2.469 -1.36,-3.746c-0.418,-1.438 -0.743,-2.903 -1.004,-4.377c-0.42,-2.372 -0.671,-4.768 -0.855,-7.168c-0.052,-0.677 -0.093,-1.355 -0.132,-2.032c-0.082,-1.401 -0.145,-2.802 -0.212,-4.203l0,0.001c-0.018,-0.353 -0.035,-0.706 -0.053,-1.059c0,-0.001 0,0.001 0,0.001c-0.006,-0.115 -0.012,-0.23 -0.019,-0.344c0,-0.001 0.001,0.002 0.001,0.001c-0.007,-0.112 -0.027,-0.45 -0.019,-0.337c-0.025,-0.432 -0.052,-0.864 -0.082,-1.296l-0.006,-0.086c-0.013,-0.014 -0.026,-0.027 -0.038,-0.041c-0.001,-0.001 0.002,-0.001 0.002,-0.002c-0.064,-0.072 -0.129,-0.142 -0.193,-0.214c-0.192,-0.215 -0.384,-0.431 -0.574,-0.648c-1.647,-1.884 -3.212,-3.837 -4.685,-5.861c-4.209,-5.783 -7.68,-12.096 -10.358,-18.728c-1.055,-2.612 -1.988,-5.275 -2.776,-7.98c-0.105,-0.362 -0.208,-0.725 -0.308,-1.088c-0.011,0.623 -0.004,1.247 0.015,1.871c0.047,1.602 0.167,3.203 0.329,4.798c0.21,2.048 0.492,4.088 0.839,6.116c0.359,2.096 0.787,4.181 1.304,6.243c0.496,1.98 1.071,3.944 1.789,5.856c0.373,0.993 0.785,1.972 1.262,2.92c0.388,0.77 0.819,1.522 1.325,2.221c0.044,0.06 0.087,0.119 0.132,0.178c0.022,0.029 0.043,0.059 0.067,0.087c0.247,0.289 0.499,0.573 0.753,0.856l0.035,0.048c0.009,0.018 0.02,0.035 0.027,0.053c0.016,0.037 0.024,0.076 0.026,0.116c0.002,0.04 -0.003,0.08 -0.015,0.118c-0.048,0.156 -0.205,0.26 -0.367,0.244c-0.06,-0.006 -0.118,-0.027 -0.166,-0.062c-0.017,-0.011 -0.031,-0.026 -0.046,-0.038c-0.034,0 -0.049,-0.049 -0.073,-0.073c-0.066,-0.067 -0.084,-0.086 -0.149,-0.155c-0.211,-0.229 -0.413,-0.466 -0.603,-0.714c-0.182,-0.213 -0.361,-0.427 -0.54,-0.643c-0.665,-0.809 -1.309,-1.635 -1.929,-2.48c-1.731,-2.363 -3.282,-4.857 -4.669,-7.436c-1.266,-2.354 -2.397,-4.781 -3.395,-7.26c-1.071,-2.657 -1.991,-5.376 -2.745,-8.14c-0.686,-2.518 -1.237,-5.076 -1.611,-7.66c-0.247,-1.705 -0.418,-3.422 -0.486,-5.143c-0.057,-1.432 -0.043,-2.868 0.07,-4.297c0.079,-0.989 0.205,-1.975 0.396,-2.949c0.174,-0.886 0.401,-1.764 0.703,-2.616c0.105,-0.299 0.222,-0.593 0.345,-0.885l0.005,-0.012c-0.584,0.753 -1.136,1.531 -1.667,2.322c-0.704,1.046 -1.371,2.116 -2.008,3.204c-0.66,1.129 -1.287,2.277 -1.876,3.444c-0.536,1.061 -1.042,2.138 -1.503,3.234c-0.292,0.695 -0.566,1.397 -0.814,2.109c-0.202,0.582 -0.387,1.171 -0.542,1.768c-0.11,0.42 -0.205,0.844 -0.277,1.272c-0.082,0.492 -0.133,0.989 -0.123,1.488l-0.003,0.049c-0.004,0.016 -0.007,0.033 -0.012,0.048c-0.015,0.047 -0.043,0.09 -0.08,0.124c-0.128,0.117 -0.336,0.094 -0.435,-0.048c-0.031,-0.044 -0.042,-0.088 -0.051,-0.139c-0.039,-0.391 -0.079,-0.781 -0.119,-1.172c-0.243,-2.275 -0.525,-4.546 -0.791,-6.818c-0.042,-0.367 -0.084,-0.735 -0.126,-1.102c-0.254,-2.305 -0.477,-4.616 -0.546,-6.935c-0.053,-1.78 -0.014,-3.564 0.179,-5.335c0.245,-2.237 0.745,-4.446 1.577,-6.539c0.415,-1.043 0.908,-2.055 1.475,-3.024c0.342,-0.585 0.712,-1.153 1.102,-1.708l0.033,-0.047c-2.623,-0.899 -5.579,-0.771 -8.129,0.309c-0.606,0.256 -1.19,0.568 -1.731,0.942c-0.467,0.324 -0.901,0.696 -1.266,1.132l-0.03,0.03c-0.037,0.027 -0.07,0.048 -0.115,0.057c-0.131,0.028 -0.265,-0.051 -0.303,-0.18c-0.018,-0.058 -0.01,-0.111 0.007,-0.168c0.084,-0.216 0.171,-0.432 0.258,-0.646c0.854,-2.064 1.865,-4.059 2.991,-5.987c0.945,-1.618 1.971,-3.192 3.088,-4.698c0.705,-0.951 1.446,-1.876 2.244,-2.75c0.359,-0.393 0.73,-0.775 1.117,-1.14c0.362,-0.341 0.738,-0.667 1.138,-0.963c0.135,-0.1 0.272,-0.196 0.413,-0.287c0.121,-0.078 0.246,-0.152 0.369,-0.228l0.129,0.209l0.129,0.209c-0.12,0.074 -0.241,0.148 -0.36,0.224c-0.432,0.283 -0.834,0.608 -1.217,0.954c-0.34,0.307 -0.665,0.629 -0.981,0.96c-0.892,0.936 -1.708,1.943 -2.48,2.979c-1.107,1.484 -2.122,3.036 -3.058,4.632c-1.056,1.799 -2.011,3.658 -2.831,5.577c0.084,-0.069 0.171,-0.134 0.258,-0.199c0.732,-0.536 1.54,-0.961 2.386,-1.288c0.938,-0.361 1.922,-0.603 2.919,-0.722c0.406,-0.048 0.812,-0.074 1.221,-0.083c0.151,-0.002 0.303,-0.002 0.455,0c0.348,0.009 0.696,0.029 1.042,0.067c0.724,0.078 1.44,0.223 2.137,0.432c0.08,0.024 0.161,0.049 0.24,0.075c0.04,0.013 0.08,0.026 0.12,0.04c0.04,0.013 0.08,0.027 0.12,0.041c0.04,0.014 0.08,0.028 0.12,0.042c0.018,0.006 0.122,0.041 0.16,0.062c0.052,0.03 0.094,0.078 0.116,0.134c0.011,0.028 0.018,0.058 0.019,0.088c0.001,0.03 -0.003,0.06 -0.011,0.089c-0.012,0.038 -0.02,0.046 -0.04,0.08c-0.107,0.147 -0.212,0.294 -0.316,0.443c-0.327,0.472 -0.639,0.953 -0.931,1.447c-0.516,0.874 -0.971,1.783 -1.361,2.72c-0.517,1.244 -0.916,2.536 -1.205,3.852c-0.281,1.275 -0.459,2.571 -0.558,3.872c-0.134,1.766 -0.124,3.541 -0.036,5.309c0.07,1.412 0.189,2.822 0.334,4.228c0.094,0.91 0.196,1.819 0.303,2.727c0.177,1.502 0.363,3.003 0.541,4.505l0.067,0.575l0.049,0.432c0.031,-0.133 0.064,-0.265 0.098,-0.397c0.302,-1.144 0.693,-2.262 1.133,-3.36c0.413,-1.032 0.868,-2.046 1.352,-3.046c0.607,-1.255 1.26,-2.489 1.95,-3.701c0.709,-1.246 1.457,-2.47 2.251,-3.664c0.495,-0.744 1.007,-1.476 1.544,-2.19c0.467,-0.621 0.952,-1.229 1.469,-1.809c0.3,-0.338 0.611,-0.666 0.941,-0.975c0.097,-0.091 0.195,-0.181 0.296,-0.268c0.022,-0.019 0.097,-0.087 0.137,-0.111c0.03,-0.018 0.063,-0.03 0.097,-0.037c0.178,-0.036 0.354,0.096 0.368,0.278c0.006,0.069 -0.013,0.14 -0.052,0.198c-0.01,0.014 -0.022,0.027 -0.033,0.04c-0.089,0.093 -0.089,0.093 -0.176,0.187c-0.203,0.226 -0.395,0.46 -0.574,0.706c-0.409,0.563 -0.751,1.173 -1.039,1.806c-0.365,0.802 -0.645,1.641 -0.865,2.494c-0.355,1.381 -0.553,2.8 -0.655,4.221c-0.121,1.696 -0.103,3.402 0.008,5.099c0.15,2.283 0.469,4.553 0.908,6.798c0.511,2.609 1.186,5.185 1.998,7.716c0.906,2.824 1.982,5.595 3.222,8.29c1.254,2.728 2.677,5.381 4.281,7.92c0.561,0.888 1.145,1.76 1.75,2.619l0.151,0.213l0.146,0.203c-0.085,-0.194 -0.167,-0.389 -0.247,-0.585c-0.613,-1.499 -1.129,-3.035 -1.582,-4.59c-0.459,-1.573 -0.854,-3.165 -1.204,-4.767c-0.407,-1.863 -0.752,-3.74 -1.041,-5.625c-0.273,-1.786 -0.498,-3.581 -0.662,-5.381c-0.135,-1.47 -0.231,-2.946 -0.259,-4.422c-0.021,-1.086 -0.011,-2.177 0.092,-3.259c0.024,-0.25 0.053,-0.499 0.091,-0.747c0.013,-0.203 0.047,-0.37 0.083,-0.472l0.018,-0.086c0.036,-0.166 0.078,-0.331 0.129,-0.493c0.026,-0.082 0.051,-0.166 0.085,-0.245c0.026,-0.059 0.059,-0.111 0.109,-0.153c0.15,-0.126 0.38,-0.112 0.514,0.032c0.043,0.047 0.074,0.104 0.089,0.165c0.005,0.021 0.006,0.042 0.01,0.063c0.01,0.141 0.022,0.282 0.035,0.423c0.178,1.7 0.639,3.361 1.21,4.969c0.683,1.923 1.536,3.785 2.474,5.597c0.723,1.397 1.501,2.765 2.32,4.108c0.83,1.359 1.703,2.692 2.614,3.998c1.796,2.575 3.738,5.054 5.87,7.36c-0.096,-0.158 -0.19,-0.317 -0.284,-0.476c-0.915,-1.569 -1.739,-3.189 -2.496,-4.84c-0.611,-1.333 -1.18,-2.686 -1.711,-4.053c-0.68,-1.751 -1.299,-3.527 -1.848,-5.324c-0.508,-1.664 -0.958,-3.346 -1.329,-5.046c-0.245,-1.129 -0.456,-2.265 -0.618,-3.409c-0.15,-1.061 -0.258,-2.129 -0.303,-3.2c-0.068,-1.624 0.003,-3.271 0.399,-4.853l0.029,-0.111c0.008,-0.023 0.015,-0.047 0.025,-0.07c0.021,-0.044 0.049,-0.085 0.084,-0.12c0.034,-0.035 0.075,-0.064 0.119,-0.085c0.183,-0.087 0.409,-0.029 0.527,0.136c0.043,0.06 0.069,0.131 0.076,0.205c0.003,0.024 0.001,0.049 0.001,0.074c-0.009,0.124 -0.017,0.249 -0.023,0.374c-0.032,0.859 0.026,1.719 0.137,2.572c0.105,0.802 0.255,1.598 0.436,2.387c0.248,1.081 0.554,2.148 0.902,3.202c0.366,1.111 0.779,2.207 1.229,3.287c0.848,2.034 1.83,4.008 2.919,5.923c0.419,0.737 0.859,1.464 1.314,2.18c0.825,1.3 1.706,2.564 2.644,3.785c1.13,1.47 2.343,2.876 3.646,4.195c0.515,0.52 1.044,1.027 1.587,1.518c0.041,-0.012 1.606,1.347 1.582,1.348c0.171,0.137 0.342,0.272 0.515,0.405c0.569,0.438 1.153,0.855 1.75,1.254l0.069,0.046c-0.083,-0.107 -0.166,-0.214 -0.247,-0.322c-0.091,-0.122 -0.181,-0.244 -0.269,-0.366c-0.243,-0.34 -0.477,-0.687 -0.703,-1.038c-0.02,0 -1.033,-1.74 -1.033,-1.74c-0.384,-0.7 -0.742,-1.415 -1.079,-2.139c-0.773,-1.664 -1.434,-3.379 -2.017,-5.117c-0.787,-2.348 -1.432,-4.742 -1.971,-7.158c-0.556,-2.49 -0.998,-5.007 -1.331,-7.537c-0.204,-1.553 -0.367,-3.112 -0.479,-4.675c-0.092,-1.287 -0.151,-2.576 -0.159,-3.866c-0.005,-0.773 0.008,-1.545 0.05,-2.316c0.012,-0.232 0.027,-0.464 0.045,-0.696c0.003,-0.039 0.012,-0.226 0.032,-0.302c0.05,-0.192 0.219,-0.337 0.417,-0.357c0.055,-0.006 0.111,-0.002 0.165,0.012c0.054,0.013 0.106,0.036 0.152,0.067c0.093,0.063 0.162,0.157 0.193,0.264c0.008,0.027 0.011,0.054 0.017,0.082c0.012,0.112 0.026,0.224 0.041,0.336c0.146,1.019 0.401,2.018 0.715,2.998c0.295,0.919 0.641,1.822 1.019,2.71c0.54,1.267 1.145,2.507 1.793,3.723c0.712,1.335 1.477,2.642 2.282,3.924c1.289,2.052 2.681,4.04 4.159,5.961c1.422,1.848 2.925,3.634 4.513,5.341c1.311,1.408 2.68,2.763 4.119,4.039c1.594,1.414 3.275,2.73 5.071,3.879l0.009,0.007c-0.123,-0.143 -0.244,-0.286 -0.364,-0.431c-0.101,-0.122 -0.201,-0.245 -0.3,-0.369c-1.333,-1.684 -2.49,-3.501 -3.551,-5.366c-1.162,-2.041 -2.208,-4.146 -3.175,-6.285c-1.272,-2.812 -2.407,-5.687 -3.414,-8.604c-0.931,-2.7 -1.756,-5.438 -2.431,-8.214c-0.353,-1.454 -0.664,-2.918 -0.914,-4.394c-0.223,-1.311 -0.398,-2.632 -0.49,-3.959c-0.042,-0.613 -0.066,-1.227 -0.065,-1.842c0.001,-0.145 0.003,-0.289 0.006,-0.434c0.001,-0.041 0.002,-0.083 0.004,-0.124c0,-0.005 -0.004,-0.013 0,-0.013l0,-0.002c0.004,-0.032 0.005,-0.065 0.011,-0.096c0.02,-0.095 0.064,-0.183 0.128,-0.256c0.043,-0.048 0.094,-0.088 0.151,-0.119c0.202,-0.11 0.457,-0.08 0.63,0.072c0.096,0.085 0.161,0.204 0.18,0.332c0.01,0.063 0.006,0.107 0.005,0.168c-0.001,0.061 -0.001,0.082 -0.001,0.143c0.002,0.076 0.005,0.153 0.008,0.229c0.042,0.701 0.173,1.395 0.336,2.077c0.209,0.881 0.475,1.749 0.77,2.605c0.376,1.095 0.801,2.172 1.259,3.235c0.55,1.279 1.148,2.538 1.783,3.777c0.963,1.881 2.014,3.714 3.138,5.503c0.597,0.944 1.212,1.875 1.852,2.791c1.79,2.561 3.754,5.008 5.92,7.262c1.461,1.52 3.015,2.953 4.677,4.251c1.375,1.073 2.824,2.054 4.351,2.898c0.62,0.343 1.252,0.659 1.894,0.955l0.039,0.017c-0.15,-0.128 -0.298,-0.258 -0.446,-0.389c-0.134,-0.119 -0.267,-0.238 -0.4,-0.358c-0.394,-0.361 -0.783,-0.726 -1.163,-1.101c-0.813,-0.799 -1.593,-1.633 -2.338,-2.496c-0.565,-0.654 -1.11,-1.325 -1.635,-2.01c-3.908,-5.101 -6.7,-10.988 -8.649,-17.092c-0.336,-1.05 -0.647,-2.108 -0.934,-3.172c-0.377,-1.395 -0.714,-2.801 -1.014,-4.214c-0.398,-1.878 -0.73,-3.77 -1,-5.671c-0.197,-1.383 -0.362,-2.772 -0.493,-4.164c-0.087,-0.932 -0.16,-1.866 -0.231,-2.8l0.001,-0.104c0.006,-0.035 0.009,-0.069 0.018,-0.103c0.017,-0.068 0.046,-0.132 0.085,-0.19c0.137,-0.207 0.39,-0.316 0.635,-0.274c0.069,0.012 0.136,0.035 0.197,0.069c0.092,0.05 0.17,0.124 0.227,0.212c0.019,0.029 0.033,0.061 0.049,0.092c0.055,0.126 0.107,0.253 0.16,0.381c0.397,0.985 0.78,1.972 1.174,2.957c0.141,0.352 0.283,0.703 0.425,1.054c0.242,0.593 0.486,1.185 0.733,1.776l-0.001,-0.001c0.278,0.661 0.557,1.318 0.843,1.979c0,0 -0.001,-0.002 0,-0.001c0.421,0.967 0.85,1.932 1.288,2.892c1.112,2.421 2.282,4.816 3.541,7.164c0.89,1.662 1.823,3.302 2.81,4.908c0.863,1.402 1.766,2.78 2.724,4.119c1.346,1.882 2.798,3.697 4.412,5.359c1.18,1.215 2.45,2.352 3.837,3.327c0.413,0.29 0.837,0.562 1.269,0.821l0.001,0.001c-0.174,-0.177 -0.174,-0.177 -0.348,-0.355c-0.181,-0.189 -0.18,-0.189 -0.36,-0.379c-0.715,-0.768 -1.399,-1.562 -2.05,-2.385c-2.402,-3.04 -4.359,-6.418 -5.99,-9.927c-1.273,-2.739 -2.35,-5.568 -3.275,-8.443c-0.988,-3.07 -1.804,-6.196 -2.475,-9.351c-0.523,-2.454 -0.959,-4.927 -1.308,-7.412c-0.146,-1.043 -0.277,-2.089 -0.388,-3.137c-0.076,-0.707 -0.143,-1.414 -0.194,-2.123l-0.006,-0.095c0.001,-0.04 -0.002,-0.081 0.002,-0.12c0.012,-0.12 0.054,-0.236 0.121,-0.336c0.137,-0.201 0.371,-0.323 0.614,-0.319c0.08,0.001 0.16,0.016 0.235,0.043c0.076,0.027 0.146,0.067 0.209,0.117c0.062,0.05 0.116,0.111 0.159,0.179c0.021,0.033 0.037,0.07 0.055,0.106c0.05,0.117 0.1,0.233 0.151,0.349c0.392,0.88 0.811,1.746 1.249,2.603c0.462,0.906 0.944,1.801 1.443,2.687c1.334,2.367 2.786,4.667 4.342,6.893c0.869,1.243 1.771,2.462 2.705,3.656c3.755,4.795 8.045,9.188 12.859,12.926c1.198,0.929 2.427,1.817 3.688,2.66c0.644,0.431 1.297,0.847 1.956,1.255c0.38,0.236 0.765,0.464 1.152,0.69c0.881,0.515 1.775,1.007 2.681,1.476c2.773,1.433 5.661,2.642 8.631,3.602c0.757,0.244 1.52,0.473 2.287,0.685c0.239,0.066 0.479,0.13 0.719,0.193c0,0.001 -0.003,0 -0.002,0c0.364,0.095 0.729,0.189 1.093,0.283c0.001,0 -0.002,-0.001 -0.001,0c0.122,0.031 0.244,0.062 0.366,0.093c0,0 -0.002,-0.001 -0.002,-0.001c0.488,0.123 0.974,0.244 1.459,0.364c0,0 -0.002,-0.001 -0.002,-0.001c0.607,0.148 1.214,0.294 1.822,0.437c0.367,0.086 0.726,0.17 1.093,0.254c0.121,0.027 0.484,0.11 0.363,0.082c0.485,0.11 0.97,0.218 1.456,0.325c0.731,0.16 1.445,0.312 2.178,0.465l-0.002,0c0.483,0.1 0.966,0.199 1.449,0.296c0.482,0.097 0.963,0.192 1.444,0.285c0,0.001 -0.002,0 -0.002,0c2.487,0.481 4.982,0.921 7.483,1.322c3.187,0.51 6.384,0.953 9.587,1.348l1.32,0.158l1.306,0.149l1.292,0.142c0.001,0 -0.002,0 -0.002,0c1.866,0.198 3.734,0.38 5.603,0.546c0.001,0 -0.002,0 -0.002,0c0.201,0.017 0.401,0.034 0.602,0.052c0,0 -0.003,0 -0.002,0c0.199,0.016 0.398,0.033 0.597,0.05l-0.002,0c0.779,0.064 1.549,0.125 2.328,0.184c0.564,0.042 1.125,0.083 1.691,0.122c0.727,0.05 1.452,0.097 2.176,0.143l-0.002,0c0.696,0.042 1.389,0.082 2.081,0.12c0.822,0.044 1.635,0.085 2.456,0.122c0.763,0.034 1.525,0.065 2.288,0.093l-0.002,0c0.705,0.025 1.405,0.048 2.107,0.068l-0.001,0c0.64,0.017 1.271,0.033 1.915,0.046l-0.002,0c0.462,0.008 0.924,0.016 1.386,0.023c1.104,0.013 2.209,0.021 3.314,0.013c0.482,-0.003 0.964,-0.009 1.447,-0.021c0.295,-0.008 0.59,-0.016 0.885,-0.039l0.062,-0.002c0.098,0.002 0.194,0.009 0.289,0.029c0.264,0.054 0.507,0.18 0.724,0.337c0.312,0.224 0.579,0.508 0.827,0.801c0.105,0.125 0.208,0.253 0.307,0.382c0.128,0.167 0.253,0.337 0.373,0.509c0.729,1.044 1.372,2.146 1.989,3.259c0.736,1.328 1.43,2.68 2.094,4.046l0.05,0.103c0.045,0.117 0.064,0.146 0.083,0.271c0.019,0.125 0.01,0.158 0.002,0.283c-0.057,0.411 -0.115,0.821 -0.174,1.231c-0.024,0.166 -0.046,0.333 -0.072,0.498c-0.345,2.351 -0.709,4.698 -1.105,7.04c-0.301,1.778 -0.618,3.553 -0.965,5.322c-0.31,1.573 -0.64,3.143 -1.029,4.699c-0.156,0.626 -0.323,1.249 -0.509,1.867c-0.14,0.468 -0.292,0.934 -0.468,1.39c-0.068,0.176 -0.139,0.349 -0.216,0.521c-0.082,0.182 -0.173,0.361 -0.256,0.543c-0.046,0.103 -0.09,0.207 -0.133,0.311c-0.446,1.118 -0.695,2.302 -0.816,3.497c-0.116,1.156 -0.117,2.323 -0.045,3.482c0.143,2.29 0.567,4.557 1.134,6.777c0.001,0.001 -0.001,-0.005 -0.001,-0.004c0.014,0.053 0.028,0.106 0.041,0.159c0.234,0.887 0.49,1.767 0.774,2.639c0.168,0.517 0.342,1.032 0.538,1.538c0.28,0.732 0.557,1.466 0.833,2.2c1.112,2.967 2.204,5.941 3.231,8.938l0.076,0.225c0.047,-0.391 0.095,-0.782 0.145,-1.173c0.038,-0.294 0.077,-0.588 0.116,-0.883c0.238,-1.719 0.509,-3.434 0.858,-5.135c0.237,-1.156 0.508,-2.306 0.837,-3.44c0.265,-0.91 0.566,-1.811 0.935,-2.685c0.378,-0.896 0.829,-1.766 1.418,-2.543c0.179,-0.23 0.363,-0.456 0.542,-0.686c0.675,-0.877 1.307,-1.784 1.884,-2.728c0.435,-0.714 0.837,-1.447 1.224,-2.187c0.001,-0.001 -0.002,0.006 -0.002,0.004c0.073,-0.139 0.145,-0.279 0.217,-0.419c0.001,-0.001 -0.002,0.003 -0.001,0.002c0.035,-0.069 0.071,-0.138 0.107,-0.208l-0.001,0.002c0.139,-0.273 0.278,-0.546 0.418,-0.819c0.098,-0.192 0.199,-0.382 0.294,-0.576c0.044,-0.09 0.043,-0.09 0.086,-0.181c0.401,-0.893 0.687,-1.833 0.922,-2.783c0.256,-1.029 0.452,-2.072 0.616,-3.12c0.033,-0.207 0.064,-0.415 0.094,-0.623l0.074,-0.526l0.069,-0.525c0.053,-0.426 0.103,-0.852 0.149,-1.278c0.154,-1.453 0.268,-2.909 0.357,-4.367c0,-0.001 0,0.006 0,0.005c0.035,-0.627 0.067,-1.253 0.095,-1.88l0.027,-0.697c0,-0.001 0,0.005 0,0.004c0.004,-0.112 0.008,-0.223 0.012,-0.335c0,-0.001 -0.001,0.005 -0.001,0.003l0.02,-0.63l0.021,-0.857c0,-0.001 0,0.003 0,0.002c0.002,-0.085 0.006,-0.343 0.005,-0.257c0.007,-0.412 0.013,-0.824 0.016,-1.236c0.001,-0.216 0.002,-0.432 0.001,-0.649l0.019,-0.215c0.018,-0.069 0.03,-0.141 0.055,-0.209c0.073,-0.204 0.199,-0.387 0.364,-0.528c0.109,-0.094 0.235,-0.169 0.37,-0.22c0.409,-0.156 0.882,-0.083 1.226,0.19c0.113,0.089 0.21,0.198 0.286,0.321c0.076,0.123 0.13,0.258 0.16,0.4c0.016,0.07 0.018,0.142 0.027,0.214c0.027,0.683 0.052,1.367 0.077,2.05c0.084,2.436 0.156,4.871 0.217,7.307c0.033,1.34 0.059,2.679 0.083,4.019c0.048,2.674 0.08,5.349 0.098,8.023c0.014,2.276 0.014,4.553 0,6.829c-0.02,2.949 -0.064,5.897 -0.149,8.845c-0.058,2.032 -0.139,4.063 -0.246,6.094c-0.1,1.882 -0.223,3.764 -0.385,5.642c-0.144,1.661 -0.316,3.321 -0.546,4.972c-0.192,1.373 -0.419,2.744 -0.739,4.093c-0.108,0.455 -0.226,0.907 -0.362,1.354c-0.06,0.198 -0.124,0.394 -0.188,0.59c-0.061,0.193 -0.122,0.385 -0.183,0.578c-0.125,0.405 -0.248,0.812 -0.373,1.217c0,0.002 0.002,-0.005 0.002,-0.004c-0.065,0.214 -0.129,0.428 -0.193,0.641l0.001,-0.003c-0.098,0.33 -0.194,0.661 -0.29,0.992c-0.065,0.228 -0.13,0.457 -0.195,0.686c0,0.001 0.001,-0.005 0.001,-0.004c-0.166,0.594 -0.328,1.189 -0.488,1.784l0.001,-0.003c-0.065,0.247 -0.131,0.495 -0.195,0.742c-0.001,0.001 0.001,-0.004 0,-0.003c-0.164,0.636 -0.326,1.273 -0.484,1.91l0.001,-0.003c-0.064,0.263 -0.128,0.525 -0.192,0.788c0,0.001 0.001,-0.004 0.001,-0.003c-0.064,0.266 -0.127,0.532 -0.19,0.799l0,-0.004c-0.063,0.27 -0.125,0.54 -0.188,0.81c0,0.001 0.001,-0.005 0.001,-0.003c-0.062,0.272 -0.124,0.545 -0.186,0.818l0.001,-0.003c-0.093,0.414 -0.184,0.828 -0.274,1.243c0,0.001 0.001,-0.005 0.001,-0.003c-0.06,0.279 -0.12,0.559 -0.179,0.839c0,0.001 0.001,-0.005 0,-0.004c-0.029,0.142 -0.059,0.283 -0.088,0.424c0,0.001 0.001,-0.004 0.001,-0.003c-0.088,0.424 -0.174,0.849 -0.259,1.273c-0.001,0.001 0,-0.004 0,-0.003c-0.028,0.143 -0.056,0.286 -0.085,0.429l0.001,-0.003c-0.111,0.572 -0.22,1.145 -0.326,1.718l0,-0.003c-0.105,0.576 -0.208,1.153 -0.308,1.73l0.001,-0.004c-0.025,0.146 -0.049,0.291 -0.074,0.437c0,0.001 0.001,-0.005 0,-0.004c-0.144,0.866 -0.281,1.733 -0.412,2.602l-0.124,0.863c-0.04,0.286 -0.079,0.573 -0.118,0.859c-0.131,0.994 -0.252,1.988 -0.357,2.985c-0.213,2.028 -0.362,4.062 -0.419,6.1c0,0.001 0,-0.004 0,-0.003l-0.004,0.195c-0.015,0.69 -0.019,1.38 -0.01,2.071l0,-0.004c0.022,1.262 0.082,2.524 0.227,3.778c0.102,0.889 0.245,1.774 0.455,2.644c0.14,0.582 0.311,1.157 0.528,1.716c0.185,0.476 0.404,0.941 0.673,1.375c0.103,0.166 0.214,0.325 0.331,0.481c0.132,0.171 0.265,0.342 0.397,0.512c0.441,0.56 0.888,1.115 1.347,1.66c1.197,1.419 2.47,2.785 3.877,3.999c1.334,1.15 2.799,2.16 4.419,2.863c0.697,0.302 1.419,0.546 2.155,0.73c1.06,0.266 2.146,0.407 3.235,0.472c0.827,0.049 1.655,0.053 2.483,0.04c0.001,0 -0.004,0 -0.003,0c0.707,-0.014 1.414,-0.043 2.121,-0.076l-0.002,0c0.135,-0.007 0.27,-0.014 0.406,-0.021c0,0 -0.003,0 -0.002,0c0.599,-0.032 1.192,-0.068 1.795,-0.099c0.117,-0.004 0.117,-0.004 0.234,-0.007c0.188,-0.002 0.377,0 0.566,0.011c0.427,0.024 0.853,0.084 1.27,0.186c0.36,0.088 0.713,0.206 1.053,0.354c0.24,0.105 0.473,0.224 0.699,0.355c1.219,0.71 2.182,1.771 3.024,2.886c0.122,0.161 0.242,0.325 0.361,0.489c0.2,0.278 0.395,0.56 0.588,0.842c0.436,0.642 0.861,1.284 1.298,1.923c0.657,0.954 1.339,1.892 2.107,2.76c0.848,0.958 1.802,1.826 2.875,2.527c1.099,0.719 2.309,1.253 3.573,1.606c1.355,0.378 2.76,0.552 4.164,0.588c0.55,0.014 1.1,0.007 1.65,-0.018c0.774,-0.035 1.545,-0.107 2.309,-0.231c1.306,-0.214 2.586,-0.568 3.821,-1.039c1.541,-0.587 3.009,-1.35 4.408,-2.22c0.662,-0.411 1.307,-0.848 1.941,-1.299c0.001,-0.001 -0.001,0.001 -0.001,0.001c0.374,-0.269 0.745,-0.543 1.112,-0.822l-0.001,0.001c0.263,-0.202 0.525,-0.406 0.785,-0.611l0,0c1.264,-1.006 2.49,-2.065 3.695,-3.139l-0.001,0.001c0.203,-0.182 0.406,-0.363 0.608,-0.546c0.101,-0.091 0.403,-0.367 0.303,-0.274c1.011,-0.918 2.017,-1.841 3.028,-2.759c0.705,-0.638 1.412,-1.273 2.129,-1.896c0.558,-0.486 1.122,-0.965 1.693,-1.435c0.411,-0.338 0.827,-0.671 1.247,-0.998c2.626,-2.038 5.486,-3.855 8.668,-4.885c0.478,-0.155 0.963,-0.291 1.453,-0.408c0.743,-0.178 1.497,-0.309 2.257,-0.391c0.917,-0.099 1.841,-0.126 2.763,-0.083c0.481,0.023 0.96,0.066 1.438,0.123c-0.208,-0.02 -0.207,-0.02 -0.416,-0.039c-0.475,-0.036 -0.95,-0.06 -1.427,-0.062c-0.913,-0.005 -1.826,0.06 -2.729,0.195c-0.748,0.112 -1.49,0.272 -2.218,0.477c-0.481,0.135 -0.956,0.289 -1.424,0.46c-2.256,0.827 -4.344,2.054 -6.287,3.458c-0.58,0.419 -1.152,0.857 -1.708,1.304c-0.309,0.248 -0.615,0.499 -0.918,0.753c-0.511,0.428 -1.014,0.865 -1.512,1.308c-0.605,0.537 -1.201,1.084 -1.794,1.634l0,0c-0.398,0.371 -0.793,0.742 -1.189,1.116l0,0c-0.991,0.938 -1.98,1.881 -2.975,2.816c-0.102,0.091 -0.2,0.187 -0.3,0.281c-0.199,0.186 -0.4,0.372 -0.6,0.558c-0.501,0.46 -1.004,0.919 -1.513,1.371c-1.406,1.247 -2.856,2.449 -4.386,3.542c-1.389,0.992 -2.846,1.894 -4.384,2.637c-1.594,0.77 -3.275,1.366 -5.011,1.721c-0.528,0.108 -1.06,0.194 -1.594,0.257c-0.404,0.048 -0.81,0.082 -1.216,0.109c-0.694,0.044 -1.39,0.062 -2.086,0.046c-1.518,-0.035 -3.038,-0.23 -4.498,-0.654c-1.353,-0.392 -2.644,-0.984 -3.817,-1.765c-0.786,-0.523 -1.517,-1.128 -2.192,-1.79c-0.557,-0.546 -1.077,-1.13 -1.568,-1.737c-1.001,-1.237 -1.88,-2.566 -2.798,-3.859l0.001,0.003c-0.116,-0.162 -0.232,-0.324 -0.35,-0.484c-0.115,-0.156 -0.232,-0.311 -0.349,-0.465c-0.116,-0.148 -0.231,-0.297 -0.35,-0.442c-0.828,-1.015 -1.797,-1.979 -3.035,-2.47c-0.267,-0.106 -0.544,-0.189 -0.825,-0.247c-0.517,-0.108 -1.043,-0.131 -1.569,-0.102c-0.594,0.04 -1.187,0.087 -1.781,0.129c-2.67,0.182 -5.383,0.33 -8.029,-0.164c-0.412,-0.077 -0.821,-0.169 -1.225,-0.277c-1.211,-0.324 -2.377,-0.797 -3.478,-1.396c-1.41,-0.766 -2.706,-1.726 -3.91,-2.783c-1.446,-1.269 -2.767,-2.676 -4.016,-4.137c-0.346,-0.405 -0.687,-0.815 -1.022,-1.229c-0.276,-0.34 -0.555,-0.678 -0.798,-1.042c-0.274,-0.41 -0.511,-0.844 -0.718,-1.291c-0.349,-0.749 -0.616,-1.534 -0.83,-2.331c-0.238,-0.886 -0.411,-1.789 -0.542,-2.696c-0.208,-1.435 -0.312,-2.884 -0.352,-4.333c-0.029,-1.052 -0.027,-2.106 0.002,-3.159c0.103,-3.738 0.482,-7.465 1.009,-11.166c0.555,-3.904 1.276,-7.786 2.132,-11.635c0.634,-2.854 1.34,-5.694 2.156,-8.502c0.15,-0.518 0.309,-1.034 0.471,-1.548c0.09,-0.284 0.183,-0.567 0.271,-0.851c0.042,-0.141 0.082,-0.282 0.122,-0.423c0.281,-1.037 0.489,-2.092 0.664,-3.151c0.156,-0.942 0.284,-1.888 0.399,-2.836l0.055,-0.473l0,0.004c0.009,-0.081 0.018,-0.162 0.027,-0.243c0,-0.001 -0.001,0.005 0,0.004c0.017,-0.162 0.035,-0.324 0.052,-0.487c0.009,-0.081 0.018,-0.163 0.026,-0.244c0.009,-0.082 0.033,-0.329 0.025,-0.247c0.026,-0.251 0.05,-0.502 0.074,-0.754c0.132,-1.432 0.241,-2.866 0.336,-4.301c0,-0.001 -0.001,0.005 -0.001,0.004c0.036,-0.572 0.07,-1.144 0.103,-1.716l-0.001,0.003c0.021,-0.39 0.042,-0.78 0.062,-1.17c0.019,-0.394 0.038,-0.788 0.055,-1.182c0.009,-0.199 0.034,-0.798 0.026,-0.598c0.017,-0.404 0.033,-0.808 0.049,-1.212c0,-0.001 0,0.004 0,0.003c0.022,-0.613 0.044,-1.226 0.065,-1.839c0,-0.001 0,0.003 0,0.002c0.027,-0.828 0.051,-1.657 0.073,-2.486c0,-0.001 0,0.003 0,0.002c0.005,-0.209 0.01,-0.418 0.016,-0.628c0,0 0,0.003 0,0.003c0.009,-0.419 0.019,-0.839 0.028,-1.258c0,0 0,0.003 0,0.002c0.012,-0.63 0.012,-0.63 0.024,-1.26l0,0.002c0.003,-0.211 0.007,-0.422 0.01,-0.633c0,0 0,0.003 0,0.002c0.004,-0.211 0.007,-0.421 0.01,-0.632c0,-0.001 0,0.002 0,0.002c0.012,-0.844 0.022,-1.678 0.03,-2.521c0,-0.001 0,0.002 0,0.002c0.006,-0.63 0.01,-1.252 0.014,-1.882l0,0.002c0.001,-0.209 0.002,-0.417 0.003,-0.625c0,-0.001 0,0.002 0,0.001c0.001,-0.207 0.001,-0.415 0.002,-0.623c0,0 0,0.002 0,0.002c0.003,-1.023 0.003,-2.05 0.001,-3.073c0,0 0,0.002 0,0.002c0,-0.203 -0.001,-0.405 -0.001,-0.607c0,0 0,0.003 0,0.002c-0.003,-0.785 -0.007,-1.571 -0.012,-2.356c-0.045,0.139 -0.092,0.278 -0.139,0.417c-0.198,0.56 -0.418,1.111 -0.684,1.643c-0.092,0.182 -0.188,0.362 -0.282,0.543c-0.25,0.483 -0.498,0.967 -0.751,1.45c-0.284,0.535 -0.574,1.067 -0.879,1.591c-0.425,0.731 -0.878,1.445 -1.36,2.14c-0.36,0.518 -0.734,1.026 -1.122,1.522c-0.114,0.145 -0.228,0.289 -0.343,0.432c-0.079,0.098 -0.159,0.195 -0.236,0.295c-0.052,0.07 -0.103,0.141 -0.153,0.212c-0.374,0.549 -0.672,1.145 -0.933,1.755c-0.31,0.723 -0.567,1.469 -0.795,2.222c-0.256,0.844 -0.475,1.698 -0.672,2.558c-0.258,1.128 -0.475,2.265 -0.67,3.406l-0.039,0.23l0.001,-0.003l-0.111,0.682l-0.035,0.224c-0.046,0.299 -0.091,0.599 -0.135,0.898c-0.103,0.714 -0.199,1.43 -0.29,2.146c-0.001,0.001 0,-0.005 0,-0.004l-0.051,0.41c-0.047,0.388 -0.093,0.776 -0.137,1.164c-0.001,0.001 0,-0.004 0,-0.003c-0.014,0.123 -0.028,0.246 -0.042,0.369l0,-0.002c-0.013,0.119 -0.026,0.238 -0.039,0.357c0,0 0,-0.003 0,-0.002c-0.036,0.329 -0.071,0.658 -0.107,0.988c0,0 0.001,-0.003 0.001,-0.002c-0.063,0.587 -0.123,1.175 -0.19,1.761c-0.02,0.165 -0.041,0.329 -0.063,0.493c-0.027,0.174 -0.052,0.354 -0.116,0.52c-0.043,0.111 -0.074,0.173 -0.142,0.274c-0.016,0.025 -0.036,0.046 -0.055,0.068c-0.088,0.1 -0.09,0.098 -0.191,0.184l-0.003,0.003c-0.039,0.026 -0.077,0.055 -0.118,0.079c-0.109,0.063 -0.142,0.068 -0.26,0.11l-0.003,0.001c-0.06,0.012 -0.12,0.028 -0.18,0.035c-0.123,0.014 -0.248,0.008 -0.369,-0.018l0,0l-0.151,-0.044l-0.144,-0.065l-0.133,-0.084l-0.004,-0.002c-0.117,-0.098 -0.12,-0.095 -0.219,-0.211c-0.022,-0.025 -0.043,-0.049 -0.061,-0.077c-0.065,-0.102 -0.116,-0.213 -0.15,-0.329c-0.009,-0.032 -0.016,-0.064 -0.024,-0.096c-0.025,-0.129 -0.043,-0.26 -0.067,-0.39c-0.061,-0.303 -0.136,-0.603 -0.216,-0.902c-0.112,-0.418 -0.234,-0.833 -0.36,-1.247c-0.218,-0.718 -0.45,-1.432 -0.684,-2.144c-0.001,-0.001 0.001,0.004 0.001,0.003c-0.075,-0.225 -0.15,-0.45 -0.225,-0.674l0.001,0.002c-0.078,-0.23 -0.156,-0.46 -0.234,-0.691c0,0 0.001,0.003 0.001,0.002c-0.122,-0.355 -0.242,-0.705 -0.364,-1.057l0.001,0.003c-0.186,-0.535 -0.372,-1.069 -0.561,-1.602c-0.307,-0.868 -0.617,-1.735 -0.929,-2.601l0,0.002c-0.356,-0.984 -0.715,-1.965 -1.078,-2.95l-0.334,-0.903c-0.001,-0.001 0,0.002 0,0.002c-0.179,-0.482 -0.356,-0.953 -0.535,-1.431c-0.472,-1.294 -0.874,-2.614 -1.223,-3.945c-0.447,-1.7 -0.805,-3.425 -1.041,-5.167c-0.225,-1.672 -0.339,-3.365 -0.265,-5.052c0.059,-1.334 0.236,-2.669 0.6,-3.956c0.141,-0.5 0.311,-0.993 0.513,-1.472c0.067,-0.159 0.138,-0.316 0.212,-0.472c0.057,-0.12 0.117,-0.238 0.173,-0.357c0.043,-0.097 0.043,-0.097 0.085,-0.195c0.263,-0.635 0.47,-1.292 0.66,-1.952c0.18,-0.622 0.341,-1.249 0.496,-1.877c0,-0.001 -0.001,0.004 -0.001,0.003c0.034,-0.138 0.067,-0.275 0.1,-0.414c0.017,-0.069 0.033,-0.139 0.05,-0.209c0,-0.001 -0.001,0.004 -0.001,0.003c0.486,-2.073 0.899,-4.162 1.288,-6.255l0,0.003c0.059,-0.321 0.118,-0.642 0.176,-0.964c0,0 -0.001,0.003 0,0.002c0.085,-0.477 0.085,-0.476 0.17,-0.954l-0.001,0.002c0.136,-0.771 0.267,-1.532 0.397,-2.305l0.145,-0.873c0.046,-0.28 0.181,-1.118 0.137,-0.839c0.12,-0.748 0.239,-1.496 0.356,-2.244l0,0.002c0.032,-0.213 0.065,-0.426 0.098,-0.638c0,-0.001 0,0.002 0,0.001c0.029,-0.19 0.058,-0.381 0.087,-0.572c0,-0.001 -0.001,0.002 -0.001,0.002c0.025,-0.167 0.099,-0.666 0.075,-0.499c0.046,-0.309 0.092,-0.618 0.137,-0.927l-0.155,-0.321l-0.118,-0.242c-0.001,-0.001 0.001,0.004 0.001,0.003c-0.045,-0.092 -0.09,-0.183 -0.135,-0.274c-0.357,-0.718 -0.72,-1.431 -1.095,-2.14c-0.478,-0.899 -0.969,-1.791 -1.497,-2.662c-0.323,-0.532 -0.658,-1.059 -1.027,-1.561c-0.128,-0.174 -0.261,-0.346 -0.401,-0.51c-0.121,-0.141 -0.247,-0.277 -0.389,-0.396l-0.027,-0.022l-0.026,-0.02c-0.155,0.009 -0.155,0.008 -0.31,0.014c-0.984,0.029 -1.968,0.03 -2.952,0.025c-1.383,-0.008 -2.765,-0.033 -4.146,-0.07c-3.518,-0.094 -7.034,-0.265 -10.545,-0.498c-4.797,-0.317 -9.588,-0.753 -14.363,-1.311c-4.823,-0.564 -9.631,-1.252 -14.414,-2.084c-4.257,-0.739 -8.495,-1.589 -12.702,-2.574c-1.349,-0.316 -2.694,-0.646 -4.035,-0.99c-0.798,-0.205 -1.596,-0.412 -2.389,-0.637c-0.847,-0.24 -1.688,-0.499 -2.523,-0.778c-3.589,-1.198 -7.055,-2.752 -10.347,-4.615c-1.294,-0.733 -2.561,-1.512 -3.8,-2.334c-6.647,-4.411 -12.435,-10.046 -17.313,-16.342c-3.047,-3.932 -5.754,-8.13 -8.068,-12.533l-0.013,-0.024c0.381,2.98 0.885,5.944 1.517,8.882c0.451,2.092 0.969,4.168 1.554,6.227c0.478,1.661 0.998,3.31 1.576,4.94c1.141,3.222 2.495,6.375 4.138,9.374c1.953,3.565 4.328,6.935 7.265,9.76c0.54,0.519 1.099,1.019 1.676,1.497c0.257,0.213 0.518,0.42 0.781,0.624l0.085,0.079c0.024,0.031 0.05,0.059 0.071,0.092c0.042,0.065 0.072,0.137 0.089,0.213c0.062,0.269 -0.05,0.556 -0.277,0.712c-0.064,0.044 -0.135,0.077 -0.21,0.097c-0.075,0.02 -0.153,0.026 -0.23,0.02c-0.039,-0.003 -0.076,-0.013 -0.115,-0.019c-0.121,-0.032 -0.242,-0.065 -0.363,-0.099c-0.428,-0.124 -0.849,-0.267 -1.264,-0.429c-2.267,-0.888 -4.295,-2.309 -6.102,-3.922c-0.324,-0.289 -0.641,-0.585 -0.952,-0.887c-0.423,-0.411 -0.836,-0.833 -1.239,-1.265c-1.097,-1.176 -2.122,-2.419 -3.091,-3.702c-1.149,-1.522 -2.222,-3.101 -3.236,-4.715c-1.105,-1.757 -2.141,-3.557 -3.125,-5.384c-1.082,-2.007 -2.101,-4.048 -3.07,-6.112c-0.852,-1.811 -1.664,-3.641 -2.445,-5.484c-0.389,-0.918 -0.768,-1.84 -1.143,-2.764l-0.149,-0.368c0.236,2.115 0.543,4.223 0.933,6.316c0.312,1.675 0.675,3.34 1.094,4.991c0.298,1.176 0.625,2.344 0.981,3.503c0.284,0.925 0.588,1.845 0.911,2.758c1.902,5.363 4.511,10.512 8.024,15.006c0.518,0.663 1.056,1.312 1.614,1.944c0.792,0.897 1.623,1.761 2.491,2.585c0.887,0.841 1.813,1.641 2.775,2.395c0.491,0.384 0.993,0.755 1.501,1.117l0.074,0.062c0.021,0.025 0.045,0.048 0.064,0.074c0.038,0.053 0.067,0.112 0.086,0.174c0.019,0.062 0.027,0.127 0.025,0.192c-0.008,0.232 -0.155,0.442 -0.37,0.529c-0.09,0.037 -0.189,0.051 -0.286,0.04c-0.032,-0.004 -0.064,-0.012 -0.096,-0.019c-0.208,-0.058 -0.208,-0.058 -0.415,-0.118c-0.767,-0.231 -1.522,-0.494 -2.264,-0.796c-1.853,-0.755 -3.614,-1.726 -5.276,-2.839c-2.036,-1.364 -3.925,-2.942 -5.683,-4.647c-1.624,-1.574 -3.138,-3.26 -4.557,-5.02c-1.495,-1.855 -2.885,-3.794 -4.177,-5.795c-0.989,-1.532 -1.921,-3.101 -2.792,-4.703c-0.916,-1.685 -1.767,-3.405 -2.534,-5.163c-0.238,-0.546 -0.465,-1.095 -0.687,-1.648l-0.076,-0.193c0.41,2.147 0.932,4.272 1.53,6.375c0.631,2.219 1.346,4.413 2.133,6.582c0.842,2.321 1.766,4.613 2.78,6.865c0.898,1.993 1.865,3.957 2.931,5.865c0.658,1.178 1.354,2.335 2.105,3.456c0.626,0.934 1.29,1.844 2.016,2.702c0.496,0.588 1.023,1.153 1.594,1.668c0.543,0.489 1.127,0.931 1.775,1.271l0.074,0.047c0.021,0.019 0.044,0.037 0.064,0.058c0.04,0.043 0.072,0.092 0.096,0.145c0.096,0.219 0.025,0.483 -0.167,0.624c-0.047,0.035 -0.1,0.061 -0.156,0.078c-0.083,0.025 -0.173,0.029 -0.258,0.011c-0.029,-0.006 -0.056,-0.017 -0.084,-0.025c-0.146,-0.059 -0.291,-0.118 -0.436,-0.179c-0.396,-0.169 -0.788,-0.349 -1.174,-0.541c-1.24,-0.615 -2.424,-1.339 -3.561,-2.126c-1.453,-1.006 -2.832,-2.118 -4.153,-3.292c-2.081,-1.852 -4.021,-3.863 -5.844,-5.97c-1.905,-2.201 -3.685,-4.511 -5.335,-6.91c-1.479,-2.153 -2.856,-4.379 -4.081,-6.686c-1.08,-2.032 -2.048,-4.131 -2.778,-6.314l-0.034,-0.104c0.039,2.058 0.185,4.112 0.409,6.157c0.203,1.863 0.47,3.719 0.796,5.565c0.34,1.928 0.745,3.846 1.223,5.745c0.56,2.231 1.223,4.436 2.017,6.595c0.378,1.027 0.791,2.041 1.242,3.037c0.411,0.911 0.857,1.807 1.345,2.678c0.062,-0.008 0.123,-0.016 0.185,-0.023c0.122,-0.015 0.246,-0.024 0.368,-0.034c0.196,-0.016 0.393,-0.029 0.589,-0.039c0.249,-0.012 0.5,-0.024 0.749,-0.024c0.214,0 0.429,0.009 0.643,0.019c0.217,0.009 0.434,0.022 0.651,0.038c0.086,0.006 0.172,0.016 0.259,0.025c0.222,0.023 0.445,0.05 0.667,0.079c1.611,0.213 3.193,0.625 4.726,1.162c0.942,0.33 1.867,0.704 2.77,1.13c0.438,0.207 0.87,0.425 1.295,0.659l0.041,0.023l0.374,1.207l-1.207,0.374c-0.106,-0.051 -0.213,-0.099 -0.32,-0.148c-0.131,-0.058 -0.263,-0.115 -0.395,-0.172c-0.438,-0.183 -0.88,-0.356 -1.327,-0.518c-0.001,-0.001 0.005,0.002 0.004,0.002c-0.267,-0.096 -0.534,-0.191 -0.803,-0.282l0.005,0.001c-0.197,-0.065 -0.395,-0.129 -0.593,-0.192c-0.156,-0.048 -0.312,-0.095 -0.469,-0.142c-0.826,-0.24 -1.66,-0.449 -2.502,-0.624c-0.301,-0.063 -0.603,-0.123 -0.906,-0.176c-0.169,-0.029 -0.339,-0.055 -0.509,-0.082c-0.227,-0.036 -0.453,-0.071 -0.68,-0.102c-0.213,-0.028 -0.426,-0.05 -0.639,-0.075c-0.195,-0.023 -0.389,-0.045 -0.585,-0.064c-0.193,-0.018 -0.386,-0.03 -0.579,-0.045c-0.209,-0.017 -0.417,-0.036 -0.627,-0.049c0.629,0.928 1.326,1.81 2.114,2.606c0.245,0.247 0.499,0.484 0.761,0.712l0.053,0.055c0.015,0.022 0.031,0.042 0.044,0.064c0.025,0.045 0.043,0.094 0.051,0.145c0.009,0.051 0.009,0.103 0,0.154c-0.031,0.181 -0.173,0.328 -0.353,0.366c-0.075,0.016 -0.155,0.012 -0.229,-0.011c-0.024,-0.008 -0.047,-0.02 -0.071,-0.029c-0.161,-0.083 -0.322,-0.168 -0.482,-0.253c-0.75,-0.406 -1.484,-0.843 -2.197,-1.312c-1.11,-0.732 -2.172,-1.534 -3.186,-2.394c-0.138,0.018 -0.277,0.038 -0.415,0.061c-1.127,0.185 -2.231,0.506 -3.275,0.972c-0.665,0.297 -1.299,0.655 -1.902,1.062c0.024,0.031 0.048,0.063 0.072,0.094c0.398,0.514 0.824,1.009 1.31,1.442l0.054,0.048l0.057,0.047l0.048,0.049c0.013,0.019 0.028,0.036 0.039,0.056c0.035,0.059 0.053,0.128 0.054,0.196c0.001,0.188 -0.135,0.356 -0.319,0.393c-0.045,0.009 -0.091,0.011 -0.136,0.004c-0.046,-0.007 -0.09,-0.021 -0.13,-0.043c-0.02,-0.01 -0.038,-0.024 -0.058,-0.037c-0.158,-0.123 -0.157,-0.123 -0.314,-0.247c-0.534,-0.435 -1.05,-0.891 -1.55,-1.363c-0.08,0.063 -0.158,0.126 -0.236,0.19c0.062,-0.079 0.124,-0.157 0.188,-0.235c-0.381,-0.361 -0.753,-0.73 -1.118,-1.107c-0.823,-0.847 -1.612,-1.728 -2.375,-2.629c-0.973,-1.147 -1.905,-2.329 -2.802,-3.535c-0.949,-1.276 -1.86,-2.581 -2.731,-3.911c-0.939,-1.434 -1.834,-2.899 -2.672,-4.395c-0.711,-1.268 -1.382,-2.559 -1.998,-3.876c-0.388,-0.83 -0.755,-1.671 -1.091,-2.524l0.109,0.313c0.864,2.455 1.843,4.87 2.924,7.237c0.643,1.406 1.322,2.795 2.037,4.166c0.276,0.529 0.558,1.056 0.845,1.581c0.073,0.133 0.146,0.266 0.22,0.399c0.036,0.067 0.147,0.267 0.111,0.2c0.075,0.134 0.15,0.268 0.226,0.403c0.467,0.824 0.938,1.632 1.43,2.446c0,0 -0.001,-0.001 -0.001,-0.001c0.294,0.484 0.592,0.965 0.898,1.449l-0.001,-0.001c0.223,0.351 0.445,0.695 0.671,1.043l-0.001,-0.002c0.139,0.212 0.276,0.42 0.415,0.629c0.001,0.001 -0.001,-0.002 0,-0.001c0.046,0.07 0.185,0.28 0.14,0.209c0.19,0.283 0.38,0.563 0.571,0.841c0,0.001 -0.001,-0.001 -0.001,-0.001c0.049,0.07 0.097,0.141 0.146,0.212l-0.001,-0.002c0.148,0.213 0.292,0.42 0.442,0.632c0.05,0.07 0.198,0.281 0.149,0.21c0.253,0.355 0.505,0.703 0.763,1.057l-0.001,-0.002c0.156,0.212 0.312,0.422 0.471,0.635c0,0.001 -0.001,-0.002 -0.001,-0.001c0.053,0.071 0.106,0.142 0.16,0.212c0,0.001 -0.002,-0.002 -0.001,-0.001c0.053,0.071 0.107,0.142 0.161,0.213l-0.002,-0.002c0.162,0.213 0.162,0.212 0.324,0.424c0.001,0.001 -0.001,-0.002 -0.001,-0.001c0.109,0.141 0.219,0.282 0.328,0.423c0.166,0.212 0.332,0.423 0.499,0.634c0.001,0.001 -0.001,-0.002 -0.001,-0.001c0.056,0.07 0.224,0.282 0.169,0.211c0.17,0.212 0.341,0.424 0.513,0.634c0,0.001 -0.002,-0.002 -0.001,-0.001c0.582,0.711 1.176,1.412 1.78,2.105c0,0 -0.002,-0.002 -0.002,-0.002c0.124,0.14 0.247,0.281 0.371,0.421l-0.001,-0.002c0.187,0.21 0.187,0.21 0.375,0.42c0.001,0 -0.002,-0.002 -0.001,-0.002c0.126,0.14 0.253,0.28 0.38,0.419l-0.002,-0.001c0.064,0.07 0.128,0.14 0.192,0.21c0.001,0 -0.002,-0.003 -0.001,-0.002c0.193,0.209 0.387,0.418 0.581,0.626l-0.001,-0.002c0.112,0.119 0.248,0.237 0.317,0.392c0.039,0.089 0.038,0.115 0.054,0.211c0.029,0.319 0.057,0.638 0.084,0.957c0.037,0.45 0.071,0.9 0.104,1.351c0.079,1.099 0.151,2.199 0.227,3.297c0,0 -0.001,-0.002 -0.001,-0.002c0.019,0.258 0.037,0.516 0.055,0.773c0.168,2.301 0.367,4.6 0.674,6.887l-0.001,-0.002c0.029,0.208 0.029,0.208 0.058,0.416c0,0.001 -0.001,-0.003 0,-0.003c0.019,0.138 0.039,0.276 0.059,0.414c0.032,0.207 0.063,0.415 0.096,0.622c0,0.001 -0.001,-0.004 -0.001,-0.003c0.012,0.069 0.023,0.138 0.034,0.207c0.376,2.297 0.877,4.58 1.636,6.783c0.235,0.682 0.495,1.356 0.785,2.016c0.165,0.378 0.336,0.755 0.53,1.119c0.256,0.478 0.554,0.933 0.864,1.377c0.436,0.626 0.905,1.229 1.383,1.824c0.147,0.181 0.295,0.361 0.444,0.54c0.156,0.187 0.313,0.373 0.47,0.559c0.701,0.818 1.418,1.622 2.146,2.417c1.164,1.262 2.35,2.501 3.551,3.727c0,0 -0.002,-0.002 -0.002,-0.002c0.118,0.12 0.236,0.24 0.354,0.36l-0.002,-0.002c0.119,0.121 0.239,0.241 0.358,0.362c0,0 -0.002,-0.002 -0.002,-0.002c0.364,0.367 0.73,0.732 1.094,1.098c0.504,0.503 1.002,0.998 1.508,1.498l-0.001,-0.001c0.52,0.512 1.04,1.022 1.562,1.531c0.674,0.655 1.34,1.299 2.015,1.948l-0.001,-0.001c0.55,0.528 1.102,1.055 1.657,1.583c0.277,0.263 0.554,0.526 0.831,0.789c0.141,0.134 0.564,0.532 0.423,0.4c0.598,0.564 0.43,1.479 1.03,2.041c1.675,1.57 4.122,2.781 5.806,4.34l-0.001,-0.001c2.487,2.296 4.978,4.583 7.478,6.864l-0.001,0l0.05,0.046c-1.359,-1.568 -2.165,-2.582 -2.165,-2.582c0,0 6.356,6.09 13.135,10.372c0.169,-0.005 0.338,-0.009 0.506,-0.013c0.578,-0.013 1.156,-0.019 1.734,-0.002c0.487,0.014 0.98,0.037 1.459,0.138c0.672,0.141 1.312,0.411 1.915,0.736c0.948,0.511 1.818,1.162 2.641,1.853c0.521,0.437 1.022,0.896 1.511,1.367c0.629,0.054 1.227,0.037 1.787,-0.06c9.152,-1.592 22.266,-11.802 28.422,-22.18c0,0 -8.469,25.258 -25.476,27.409c0.431,0.514 0.856,1.031 1.278,1.551c1.211,1.49 2.397,2.999 3.572,4.517c0.728,0.942 1.454,1.886 2.181,2.829c0.144,0.186 0.288,0.373 0.431,0.559c0.001,0 -0.001,-0.002 0,-0.001c0.141,0.182 0.567,0.727 0.423,0.547c0.279,0.359 0.558,0.718 0.838,1.077c0,0.001 -0.003,-0.003 -0.002,-0.002c0.138,0.176 0.276,0.352 0.414,0.528l-0.002,-0.003c0.203,0.258 0.406,0.516 0.61,0.774c0,0 -0.002,-0.002 -0.001,-0.002c0.067,0.085 0.134,0.17 0.202,0.254c0,0.001 -0.002,-0.002 -0.002,-0.002c0.133,0.167 0.266,0.333 0.399,0.499l-0.002,-0.002c0.196,0.244 0.196,0.243 0.393,0.487c0.001,0.001 -0.002,-0.003 -0.002,-0.002c0.193,0.236 0.385,0.471 0.579,0.706l-0.002,-0.002c0.125,0.152 0.252,0.304 0.378,0.456c0.001,0.001 -0.003,-0.004 -0.002,-0.003c0.062,0.074 0.125,0.149 0.188,0.224c0.001,0.001 -0.004,-0.004 -0.003,-0.003c0.772,0.912 1.558,1.814 2.4,2.662c0.22,0.222 0.445,0.441 0.675,0.652c0.167,0.154 0.337,0.302 0.504,0.455c0.096,0.089 0.192,0.179 0.286,0.269c0.343,0.332 0.673,0.676 0.978,1.043c0.404,0.485 0.764,1.006 1.07,1.558c0.05,0.09 0.098,0.181 0.145,0.272c0.234,0.018 0.468,0.034 0.702,0.05l-0.003,0c0.466,0.03 0.932,0.058 1.399,0.084l-0.004,0c0.316,0.016 0.632,0.031 0.947,0.046c0.001,0 -0.003,0 -0.002,0c0.476,0.02 0.953,0.037 1.43,0.051l0.598,0.014l0.601,0.011l-0.003,0l0.483,0.005l-0.002,0l0.483,0.002c0,0 -0.003,0 -0.003,0c0.161,-0.001 0.322,-0.001 0.483,-0.002c0.001,0 -0.003,0 -0.002,0c0.08,0 0.161,-0.001 0.242,-0.002c0.001,0 -0.003,0.001 -0.002,0.001c0.559,-0.007 1.118,-0.019 1.677,-0.037c0.001,0 -0.004,0 -0.003,0c0.475,-0.018 0.95,-0.04 1.424,-0.068c0.001,0 -0.004,0.001 -0.003,0c1.301,-0.081 2.599,-0.203 3.888,-0.396c1.129,-0.168 2.251,-0.39 3.351,-0.692c0.387,-0.107 0.771,-0.223 1.151,-0.352c0.245,-0.083 0.489,-0.17 0.729,-0.268c0.434,-0.176 0.857,-0.379 1.272,-0.598c0.516,-0.271 1.02,-0.566 1.514,-0.875c0.941,-0.588 1.847,-1.228 2.738,-1.887c0.001,0 -0.003,0.003 -0.002,0.002c0.253,-0.189 0.505,-0.38 0.756,-0.571l-0.002,0.001c0.521,-0.402 1.037,-0.809 1.547,-1.223c0.624,-0.506 1.239,-1.021 1.851,-1.542c0,0 -0.002,0.002 -0.001,0.001c0.268,-0.23 0.268,-0.23 0.536,-0.461l-0.001,0.001c1.002,-0.87 1.988,-1.75 2.967,-2.645l0,0c1.259,-1.156 2.504,-2.332 3.736,-3.518l-0.001,0.001c1.024,-0.99 2.04,-1.988 3.051,-2.991l0,0c0.939,-0.935 1.873,-1.872 2.803,-2.817c0.287,-0.292 0.574,-0.584 0.861,-0.877c0.138,-0.141 0.547,-0.569 0.414,-0.423c1.321,-1.355 2.634,-2.717 3.957,-4.07c0.148,-0.15 0.295,-0.3 0.443,-0.449l0.267,-0.007l0.002,0.267c-0.313,0.33 -0.622,0.66 -0.932,0.993l0,0c-1.257,1.351 -2.511,2.705 -3.772,4.053c-0.144,0.143 -0.278,0.295 -0.416,0.443c-0.288,0.306 -0.576,0.612 -0.864,0.917c-0.98,1.036 -1.964,2.069 -2.958,3.092c-1.803,1.856 -3.627,3.691 -5.494,5.482c-1.647,1.58 -3.321,3.135 -5.048,4.628c-1.542,1.333 -3.125,2.626 -4.791,3.803c-0.675,0.476 -1.365,0.933 -2.076,1.354c-0.617,0.364 -1.251,0.702 -1.909,0.985l-0.018,0.008c0.366,0.527 0.854,1.306 1.176,1.778c0.321,0.469 0.637,0.94 0.951,1.413c0.247,0.372 0.487,0.749 0.728,1.126c0.443,0.692 0.88,1.388 1.31,2.089c0.337,0.549 0.666,1.102 0.992,1.658c0.591,1.011 1.165,2.032 1.717,3.065c0.171,0.319 0.336,0.64 0.502,0.961c0.187,0.364 0.374,0.728 0.556,1.093c0.161,0.322 0.313,0.647 0.467,0.972c0.096,0.202 0.192,0.405 0.286,0.608c0.058,0.124 0.118,0.248 0.174,0.374c0.303,0.686 0.595,1.378 0.879,2.072c0.052,0.127 0.1,0.255 0.149,0.383c0.101,0.262 0.148,0.384 0.247,0.645c0.123,0.326 0.244,0.652 0.363,0.979c0.042,0.115 0.086,0.23 0.125,0.345c0.299,0.872 0.585,1.748 0.853,2.63c0.228,0.75 0.444,1.505 0.645,2.263c0.064,0.243 0.122,0.489 0.181,0.733c0.079,0.331 0.156,0.663 0.229,0.996c0.165,0.752 0.314,1.508 0.443,2.267c0.084,0.495 0.153,0.993 0.216,1.491l0.02,0.159l-0.273,0.422l-0.413,-0.286c-0.056,-0.205 -0.114,-0.409 -0.173,-0.612c-0.075,-0.257 -0.153,-0.513 -0.233,-0.768c-0.049,-0.155 -0.098,-0.309 -0.147,-0.464c0,0 0.001,0.003 0.001,0.002c-0.134,-0.415 -0.272,-0.828 -0.417,-1.239c-0.184,-0.522 -0.376,-1.04 -0.576,-1.555c-0.089,-0.229 -0.181,-0.457 -0.272,-0.685c-0.281,-0.711 -0.57,-1.419 -0.874,-2.121c-0.358,-0.825 -0.733,-1.642 -1.118,-2.454c-0.1,-0.21 -0.196,-0.423 -0.294,-0.633c-0.144,-0.307 -0.291,-0.612 -0.438,-0.917c-0.001,-0.002 0.002,0.005 0.002,0.004c-0.149,-0.305 -0.299,-0.608 -0.444,-0.913c0,-0.002 0.002,0.005 0.002,0.003c-0.049,-0.102 -0.098,-0.204 -0.147,-0.306c-0.001,-0.001 0.002,0.005 0.002,0.004c-0.232,-0.478 -0.466,-0.955 -0.704,-1.429c-0.058,-0.123 -0.116,-0.245 -0.175,-0.367c-0.001,-0.001 0.002,0.005 0.002,0.004c-0.096,-0.198 -0.192,-0.396 -0.288,-0.594c-0.238,-0.484 -0.478,-0.967 -0.715,-1.452c-0.001,-0.001 0.002,0.004 0.001,0.003c-0.14,-0.286 -0.282,-0.572 -0.424,-0.857l0.002,0.003c-0.094,-0.187 -0.189,-0.374 -0.283,-0.562c-0.001,0 0.002,0.004 0.001,0.003c-0.094,-0.184 -0.185,-0.37 -0.278,-0.555c0,-0.001 0.002,0.003 0.001,0.002c-0.136,-0.272 -0.274,-0.544 -0.412,-0.815c-0.001,-0.001 0.001,0.003 0.001,0.002c-0.267,-0.522 -0.537,-1.043 -0.806,-1.564c0,-0.001 0.001,0.002 0.001,0.002c-0.234,-0.451 -0.472,-0.899 -0.709,-1.347c-0.184,-0.348 -0.367,-0.697 -0.552,-1.043c-0.301,-0.563 -0.607,-1.123 -0.916,-1.681l0.002,0.003c-0.327,-0.589 -0.658,-1.176 -0.989,-1.762l0.001,0.002c-0.253,-0.444 -0.508,-0.888 -0.766,-1.329l0.002,0.002c-0.078,-0.133 -0.157,-0.266 -0.235,-0.399c-0.001,-0.001 0.002,0.004 0.002,0.003c-0.108,-0.181 -0.217,-0.363 -0.326,-0.543l-0.083,-0.139l-0.364,-0.589c-0.68,0.214 -1.37,0.396 -2.065,0.553c-2.136,0.485 -4.32,0.742 -6.504,0.883c-1.382,0.09 -2.768,0.131 -4.153,0.136c-0.89,0.004 -1.781,-0.005 -2.671,-0.03c-0.777,-0.023 -1.553,-0.053 -2.329,-0.09c0.257,0.755 0.446,1.534 0.592,2.316c0.28,1.494 0.416,3.013 0.5,4.529c0.065,1.181 0.094,2.363 0.105,3.545c0.013,1.435 -0.002,2.871 -0.035,4.306c-0.062,2.708 -0.178,5.414 -0.314,8.119c-0.091,1.822 -0.194,3.643 -0.301,5.464c-0.065,1.108 -1.909,20.646 -1.979,21.753c-0.237,3.769 0.592,-19.344 0.678,-21.816l0,0.001c0.037,-1.12 0.073,-2.235 0.108,-3.355l0,0.001c0.02,-0.701 0.039,-1.402 0.058,-2.103c0.024,-0.983 0.046,-1.96 0.065,-2.938l0,0.001c0.008,-0.46 0.016,-0.915 0.023,-1.376c0,0 0,0.002 0,0.001c0.002,-0.148 0.01,-0.593 0.006,-0.444c0.006,-0.574 0.012,-1.145 0.016,-1.715c0,-0.001 0,0.002 0,0.001c0.003,-0.67 0.004,-1.331 0.002,-1.999l0,0.001c-0.002,-0.496 -0.006,-0.992 -0.011,-1.488c-0.005,-0.465 -0.013,-0.929 -0.022,-1.394c-0.032,-1.396 -0.083,-2.793 -0.182,-4.187c-0.073,-1.013 -0.17,-2.025 -0.316,-3.03c-0.129,-0.886 -0.295,-1.77 -0.537,-2.632c-0.162,-0.575 -0.359,-1.142 -0.608,-1.684c-0.395,-0.858 -1.003,-1.644 -1.003,-1.644c-0.218,-0.276 -0.452,-0.538 -0.7,-0.788c-0.212,-0.214 -0.434,-0.42 -0.659,-0.619c-0.171,-0.151 -0.344,-0.298 -0.514,-0.448c-0.083,-0.075 -0.165,-0.149 -0.247,-0.224c-1.307,-1.217 -2.496,-2.554 -3.653,-3.912c-1.355,-1.589 -2.662,-3.219 -3.966,-4.85c-0.739,-0.924 -1.475,-1.851 -2.212,-2.776c0,0 0.001,0.001 0.001,0.001c-0.299,-0.375 -0.598,-0.749 -0.897,-1.124c-0.086,-0.107 -0.597,-0.751 -0.448,-0.561c-0.299,-0.374 -0.599,-0.748 -0.899,-1.121c-0.374,-0.462 -0.748,-0.924 -1.124,-1.385l-0.225,-0.274l0.001,0.001c-0.075,-0.091 -0.15,-0.182 -0.226,-0.274c0,0 0.002,0.003 0.002,0.002c-0.298,-0.359 -0.596,-0.718 -0.896,-1.076l0.002,0.003l-0.445,-0.527l-0.445,-0.521l0.002,0.003c-0.074,-0.086 -0.148,-0.172 -0.223,-0.259c-0.001,-0.001 0.004,0.004 0.003,0.003c-0.219,-0.252 -0.438,-0.504 -0.658,-0.756c-0.215,-0.244 -0.432,-0.488 -0.649,-0.731c-0.937,-1.038 -1.895,-2.058 -2.911,-3.019c-0.636,-0.602 -1.293,-1.185 -1.989,-1.717c-0.52,-0.398 -1.063,-0.772 -1.646,-1.072c-0.367,-0.188 -0.756,-0.353 -1.163,-0.431c-0.134,-0.026 -0.27,-0.039 -0.406,-0.05c-0.191,-0.015 -0.383,-0.023 -0.574,-0.029c-0.449,-0.015 -0.899,-0.017 -1.348,-0.013c-0.234,0.003 -0.468,0.006 -0.702,0.011c-0.454,0.024 -3.003,0.12 -3.003,0.12l-0.306,0.017l0.004,0c-0.47,0.028 -0.94,0.057 -1.409,0.089l0.003,0c-0.24,0.017 -0.48,0.034 -0.72,0.051c-0.001,0 0.005,-0.001 0.004,-0.001c-0.241,0.018 -0.482,0.036 -0.723,0.054c-0.36,0.029 -0.721,0.059 -1.081,0.089l-0.717,0.065l-0.708,0.068l0.004,0c-1.099,0.112 -2.196,0.236 -3.289,0.395c-0.704,0.103 -1.407,0.217 -2.103,0.366c-0.202,0.044 -0.404,0.09 -0.605,0.142c-0.156,0.041 -0.313,0.084 -0.466,0.137c-0.136,0.047 -0.268,0.102 -0.398,0.165c-0.421,0.203 -0.807,0.477 -1.163,0.779c-0.461,0.391 -0.876,0.834 -1.268,1.294c-0.535,0.63 -1.024,1.299 -1.491,1.981c-0.408,0.594 -0.8,1.2 -1.187,1.809c0.671,-0.211 1.36,-0.372 2.059,-0.451c0.212,-0.024 0.425,-0.039 0.638,-0.048c0.13,-0.003 0.26,-0.003 0.391,-0.001c0.355,0.012 0.709,0.049 1.056,0.131c0.352,0.083 0.694,0.213 1.029,0.347c0.482,0.192 0.956,0.405 1.424,0.628c0.602,0.285 1.197,0.586 1.786,0.897c0.41,0.216 0.82,0.436 1.224,0.664c0.44,0.249 0.875,0.509 1.308,0.77c0.597,0.361 1.19,0.729 1.776,1.106c0.241,0.156 0.479,0.318 0.717,0.479c0.326,0.22 0.65,0.443 0.972,0.668c0.33,0.23 0.658,0.463 0.984,0.699c0.121,0.087 0.242,0.173 0.361,0.263c0.322,0.242 0.643,0.485 0.961,0.732c0.168,0.13 0.336,0.26 0.502,0.393c0.217,0.176 0.434,0.352 0.649,0.53c0.257,0.211 0.513,0.424 0.765,0.641c0.18,0.154 0.357,0.312 0.534,0.47c0.43,0.383 0.854,0.772 1.269,1.171c0.157,0.151 0.314,0.302 0.469,0.455c0.112,0.11 0.225,0.219 0.334,0.331c0.431,0.445 0.854,0.897 1.266,1.359c0.205,0.229 0.402,0.464 0.599,0.699c0.246,0.294 0.492,0.589 0.727,0.891c0.465,0.598 0.909,1.212 1.334,1.838c0.196,0.289 0.387,0.581 0.574,0.876c0.137,0.218 0.273,0.436 0.401,0.658l0.035,0.055c0.28,0.39 0.576,0.766 0.896,1.123c0.713,0.795 1.515,1.502 2.352,2.162c0.259,0.204 0.519,0.405 0.784,0.601c0.718,0.529 1.461,1.024 2.22,1.492c0.235,0.145 0.473,0.286 0.711,0.427c0.589,0.349 1.185,0.686 1.79,1.006c0.278,0.147 0.558,0.29 0.84,0.429c0.162,0.08 0.324,0.16 0.489,0.234l0.079,0.037c0.023,0.016 0.049,0.031 0.071,0.049c0.068,0.055 0.121,0.127 0.156,0.207c0.03,0.07 0.029,0.091 0.042,0.167l0,0ZM106.6,322.557l-0.005,0c0.005,0 0.019,-0.001 0.014,-0.001l-0.009,0.001ZM106.615,322.538l-0.001,0.002c-0.001,0.005 0.005,-0.018 0.004,-0.013l-0.003,0.011ZM182.338,313.743l-0.002,0c-0.001,0 0.003,0 0.002,0l0,0ZM244.151,306.547l0,-0.002c0,-0.001 -0.001,0.005 0,0.003l0,-0.001ZM143.763,305.594l0.003,0.004c0.002,0.001 -0.006,-0.007 -0.005,-0.005l0.002,0.001ZM143.327,305.164l0.004,0.004c0.002,0.002 -0.006,-0.006 -0.005,-0.004l0.001,0ZM245.173,295.548l0.001,-0.004l-0.001,0.004l0,0ZM160.053,295.498l0,0.001c0.001,0.001 -0.001,-0.002 -0.001,-0.002l0.001,0.001ZM121.827,293.561l0,0.001l0.001,-0.003l-0.001,0.002ZM158.266,293.353l0,0c0.001,0.001 -0.003,-0.003 -0.002,-0.002l0.002,0.002ZM137.609,285.256l0.003,0c0.001,-0.001 -0.005,0 -0.004,0l0.001,0ZM250.322,273.148l0,0c0.001,-0.002 -0.002,0.006 -0.001,0.005l0.001,-0.005ZM249.188,265.389l0,0.003c-0.001,0.001 0,-0.005 0,-0.004l0,0.001ZM240.66,257.152l0.001,-0.003l-0.001,0.003l0,0ZM241.171,253.478l0,0c0,-0.001 -0.001,0.004 0,0.003l0,-0.003ZM241.32,252.569l0,-0.001c0,-0.001 -0.001,0.004 0,0.003l0,-0.002ZM233.046,248.377l0,0.001l0,-0.002l0,0.001ZM106.767,247.999l0,0c-0.001,-0.001 0.003,0.003 0.002,0.002l-0.002,-0.002ZM103.707,244.483l0,0l0.002,0.002l-0.002,-0.002ZM249.11,226.6l0,0.003c0,0.002 0.001,-0.006 0.001,-0.004l-0.001,0.001ZM249.253,225.549l0,0c0,0.002 0.001,-0.005 0,-0.004l0,0.004ZM249.402,224.271l0,0c0,0.001 0.001,-0.005 0.001,-0.003l-0.001,0.003ZM249.854,218.029l0,0l0,-0.004l0,0.004ZM249.912,216.374l0,0l0,-0.003l0,0.003ZM234.565,210.512l0,0.001l0,-0.001l0,0ZM98.399,203.42c-0.892,-0.828 -1.744,-1.699 -2.558,-2.602c-1.687,-1.868 -3.215,-3.876 -4.597,-5.979c-1.433,-2.179 -2.711,-4.462 -3.821,-6.822c-0.76,-1.615 -1.441,-3.269 -2.022,-4.957c-0.505,-1.465 -0.937,-2.959 -1.25,-4.478c0.008,0.195 0.02,0.389 0.033,0.584c0.119,1.715 0.377,3.417 0.719,5.101c0.316,1.558 0.704,3.101 1.144,4.629c0.547,1.901 1.175,3.778 1.872,5.629c0.667,1.773 1.398,3.522 2.202,5.237c0.472,1.006 0.969,2.001 1.5,2.978c0.427,0.786 0.875,1.56 1.356,2.314c0.293,0.459 0.598,0.911 0.921,1.349c0.258,-0.262 0.525,-0.516 0.805,-0.757c0.534,-0.461 1.107,-0.878 1.71,-1.246c0.293,-0.179 0.597,-0.343 0.905,-0.497c0.299,-0.15 0.603,-0.292 0.913,-0.417c0.056,-0.022 0.112,-0.044 0.168,-0.066ZM235.444,203.604l0,0c0,0.001 -0.002,-0.003 -0.001,-0.003l0.001,0.003ZM234.097,200.951l0.002,0.002c0,0.001 -0.002,-0.003 -0.002,-0.002l0,0ZM217.426,193.707l-0.001,0l0.002,0l-0.001,0ZM214.97,193.585l-0.001,0l0.002,0l-0.001,0ZM209.024,193.2l0,0l0.002,0l-0.002,0ZM198.61,192.226l-0.001,0c0,0 0.003,0.001 0.003,0.001l-0.002,-0.001ZM197.304,192.077l0,0c-0.001,0 0.002,0 0.002,0l-0.002,0ZM195.984,191.919l-0.001,0c-0.001,0 0.003,0 0.002,0l-0.001,0ZM177.472,188.964l-0.001,0c-0.001,0 0.002,0 0.001,0l0,0ZM170.935,187.542l0,0l0.001,0.001l-0.001,-0.001ZM76.954,180.733l0.02,0.073l-0.014,-0.062l-0.005,-0.026l-0.001,0.015ZM112.48,179.484l-0.001,0c0,-0.001 0.002,0.002 0.001,0.001l0,-0.001ZM125.881,166.138l0,-0.002c-0.001,0 0,0.003 0,0.002l0,0ZM118.744,164.93l0,-0.001c-0.001,0 0.001,0.003 0,0.002l0,-0.001Z" style="fill:#000;"/><path d="M139.086,214.572l3.408,7.059l2.81,-2.772l2.932,1.381l3.928,-2.061l3.423,1.491l2.093,-2.189l3.811,-0.782l3.324,-1.65l4.118,-2.474l7.51,-7.119c0,0 -15.219,12.384 -37.357,9.116Z" style="fill:#000;"/></g></svg>