<?xml version="1.0" standalone="no"?><!DOCTYPE svg PUBLIC "-//W3C//DTD SVG 1.1//EN" "http://www.w3.org/Graphics/SVG/1.1/DTD/svg11.dtd"><svg width="100%" height="100%" viewBox="0 0 834 834" version="1.1" xmlns="http://www.w3.org/2000/svg" xmlns:xlink="http://www.w3.org/1999/xlink" xml:space="preserve" style="fill-rule:evenodd;clip-rule:evenodd;stroke-linejoin:round;stroke-miterlimit:1.41421;"><path d="M585.825,363.87l41.894,-50.069l-210.903,-61.205c0,0 -139.215,34.57 -216.919,54.373l216.768,259.072l138.703,-165.77l24.855,75.983l-163.583,191.895l-381.713,-447.839l112.192,0l0,-55.126l164.378,35.526l105.165,22.707l105.165,-22.707l164.373,-35.526l0,55.126l112.206,0l-122.379,143.56l0.465,0c-32.048,37.59 -64.095,75.18 -96.143,112.771l-36.889,-112.771l42.365,0ZM582.137,467.587l84.576,-99.203l-117.027,0c10.817,33.067 21.634,66.135 32.451,99.203ZM684.051,246.476l-534.77,0l42.537,50.838l119.833,-25.706l105.165,-22.706l105.11,22.706l119.347,25.995l42.778,-51.127Z" style="fill:#000;"/></svg>