<?xml version="1.0" standalone="no"?><!DOCTYPE svg PUBLIC "-//W3C//DTD SVG 1.1//EN" "http://www.w3.org/Graphics/SVG/1.1/DTD/svg11.dtd"><svg width="100%" height="100%" viewBox="0 0 254 275" version="1.1" xmlns="http://www.w3.org/2000/svg" xmlns:xlink="http://www.w3.org/1999/xlink" xml:space="preserve" style="fill-rule:evenodd;clip-rule:evenodd;stroke-linejoin:round;stroke-miterlimit:1.41421;"><path d="M59.372,16.902c0,0 -11.165,-1.301 -11.988,8.697c-7.248,3.012 -29.036,3.764 -29.036,3.764c0,0 0.148,2.881 -2.344,4.36c-2.492,1.48 -6.195,15.679 0.401,15.199c6.596,-0.479 17.087,0.804 19.204,3.692c2.118,2.887 -4.955,18.61 -9.182,24.545c-4.226,5.935 -6.66,30.81 8.074,47.139c15.766,17.472 24.72,24.041 44.465,24.041c6.47,13.944 5.251,66.414 4.655,72.333c-0.597,5.92 -10.341,31.849 -11.679,32.482c-1.338,0.633 -12.262,2.989 -12.262,11.763c0.404,0.578 23.917,0 23.917,0l-0.91,-9.574l14.468,-41.469c0,0 14.26,-25.856 16.738,-62.37c6.102,2.033 7.935,3.128 7.935,3.128c0,0 -6.196,28.383 -6.56,40.368c-0.122,4 40.098,43.511 40.098,43.511c0,0 0.039,8.358 0.562,10.468c0.524,2.109 5.781,4.644 5.781,4.644l7.47,-20.745l-7.216,-2.159l-31.174,-33.599c0,0 28.82,-28.847 28.082,-44.619c5.575,0.922 25.996,-4.677 29.448,-6.605c3.453,-1.927 -0.647,13.307 10.188,29.363c6.638,9.835 8.645,14.566 9.441,21.276c0.796,6.709 0.02,46.316 -2.899,49.446c-2.919,3.129 -11.125,9.024 -10.697,12.639c0.428,3.615 2.112,2.908 14.103,2.908c11.99,0 11.123,-3.921 8.054,-11.097c-1.859,-4.346 2.9,-114.942 3.453,-117.908c0.552,-2.965 7.199,-6.178 6.734,-9.284c-0.465,-3.106 16.612,19.092 -0.887,36.949c-1.627,4.435 -0.137,6.884 -0.137,6.884c0,0 43.378,-33.085 -4.767,-81.34c-6.411,-18.794 -16.732,-29.53 -19.97,-33.093c-3.237,-3.562 7.062,-28.405 -31.336,-40.451c-23.481,-6.79 -42.38,23.089 -45.91,29.436c-3.531,6.346 -21.829,18.227 -28.926,26.373c-7.097,8.145 -11.756,19.086 -11.756,22.246c0,3.16 -9.405,2.303 -5.354,-14.425c2.59,-10.693 3.463,-13.957 4.95,-19.632c1.486,-5.675 4.008,-36.818 -23.231,-39.284Z" style="fill:#000;"/><path d="M161.49,162.153l19.564,-5.147c0,0 -3.699,13.384 -4.516,21.616c-0.817,8.233 1.081,15.98 1.081,15.98l-19.237,23.883l-6.962,-4.95l10.677,-20.166l-0.607,-31.216Z" style="fill:#000;"/><path d="M138.903,232.129c0,0 -11.008,4.763 -12.348,9.867c-0.757,2.88 5.209,6.523 18.834,6.523c4.986,0.237 3.706,-7.253 3.706,-7.253l-10.192,-9.137Z" style="fill:#000;"/></svg>