<?xml version="1.0" standalone="no"?><!DOCTYPE svg PUBLIC "-//W3C//DTD SVG 1.1//EN" "http://www.w3.org/Graphics/SVG/1.1/DTD/svg11.dtd"><svg width="100%" height="100%" viewBox="0 0 834 834" version="1.1" xmlns="http://www.w3.org/2000/svg" xmlns:xlink="http://www.w3.org/1999/xlink" xml:space="preserve" style="fill-rule:evenodd;clip-rule:evenodd;stroke-linejoin:round;stroke-miterlimit:1.41421;"><path d="M423.706,51.766c142.869,0 268.116,118.076 268.116,345.111c0,227.034 88.952,151.127 78.061,290.348c-2.962,37.865 -74.752,10.089 -118.523,15.338c-36.122,4.332 -32.943,72.108 -90.141,78.612c-50.426,5.734 -73.377,-53.221 -134.476,-54.363c-61.099,-1.142 -56.972,50.856 -121.885,41.517c-52.972,-7.621 -50.044,-70.809 -94.246,-81.388c-44.201,-10.579 -113.694,58.189 -145.089,5.153c-19.056,-32.19 59,-112.076 59,-296.249c0,-184.172 122.059,-344.079 299.183,-344.079ZM387.052,337.769c11.316,31.049 37.346,52.795 67.618,52.795c40.646,0 73.646,-39.205 73.646,-87.495c0,-48.29 -33,-87.495 -73.646,-87.495c-30.272,0 -56.302,21.746 -67.618,52.795c-11.316,-31.049 -37.346,-52.795 -67.618,-52.795c-40.646,0 -73.646,39.205 -73.646,87.495c0,48.29 33,87.495 73.646,87.495c30.272,0 56.302,-21.746 67.618,-52.795Z" style="fill:#000;"/></svg>