<?xml version="1.0" standalone="no"?><!DOCTYPE svg PUBLIC "-//W3C//DTD SVG 1.1//EN" "http://www.w3.org/Graphics/SVG/1.1/DTD/svg11.dtd"><svg width="100%" height="100%" viewBox="0 0 834 834" version="1.1" xmlns="http://www.w3.org/2000/svg" xmlns:xlink="http://www.w3.org/1999/xlink" xml:space="preserve" style="fill-rule:evenodd;clip-rule:evenodd;stroke-linejoin:round;stroke-miterlimit:1.41421;"><g><path d="M36.867,36.867l759.599,0l0,759.599l-759.599,0l0,-759.599ZM416.359,654.041l-319.614,0l0,53.269l319.614,0l0,-53.269ZM261.536,258.058c23.017,20.642 52.984,31.88 83.899,31.462c41.949,0 71.081,-22.14 71.081,-60.594c0,-33.793 -22.14,-47.776 -61.759,-58.263c-33.793,-8.157 -41.95,-12.818 -41.95,-25.636c0,-10.488 8.157,-17.479 24.471,-17.479c16.313,0 32.627,6.991 50.106,18.644l22.14,-32.627c-20.683,-15.968 -46.117,-24.583 -72.246,-24.471c-39.619,0 -67.586,23.305 -67.586,58.263l0,1.166c0,38.453 24.471,48.941 64.09,59.428c32.627,8.157 39.619,13.983 39.619,24.471c0,11.652 -10.487,18.644 -27.966,18.644c-22.14,0 -40.785,-9.322 -58.264,-23.305l-25.635,30.297ZM176.471,92.59l-79.238,0l0,192.269l43.115,0l0,-58.264l32.627,0c43.115,0 78.073,-23.305 78.073,-67.585c0,-39.619 -27.966,-66.42 -74.577,-66.42ZM172.975,132.209c22.141,0 34.958,10.487 34.958,29.132c0,16.313 -13.458,30.296 -33.792,30.296l-33.793,0l0,-59.428l32.627,0Z" style="fill:#000;"/></g></svg>