<?xml version="1.0" standalone="no"?><!DOCTYPE svg PUBLIC "-//W3C//DTD SVG 1.1//EN" "http://www.w3.org/Graphics/SVG/1.1/DTD/svg11.dtd"><svg width="100%" height="100%" viewBox="0 0 834 834" version="1.1" xmlns="http://www.w3.org/2000/svg" xmlns:xlink="http://www.w3.org/1999/xlink" xml:space="preserve" style="fill-rule:evenodd;clip-rule:evenodd;stroke-linejoin:round;stroke-miterlimit:1.41421;"><path id="path1948" d="M412.169,34.852c-31.144,0.145 -60.886,2.801 -87.056,7.432c-77.093,13.62 -91.09,42.127 -91.09,94.7l0,69.432l182.181,0l0,23.145l-182.181,0l-68.371,0c-52.947,0 -99.309,31.824 -113.81,92.364c-16.728,69.394 -17.47,112.696 0,185.154c12.95,53.935 43.876,92.364 96.823,92.364l62.638,0l0,-83.234c0,-60.132 52.028,-113.173 113.81,-113.173l181.969,0c50.654,0 91.09,-41.706 91.09,-92.577l0,-173.475c0,-49.372 -41.651,-86.46 -91.09,-94.7c-31.296,-5.21 -63.768,-7.577 -94.913,-7.432ZM313.647,90.695c18.818,0 34.186,15.619 34.186,34.823c0,19.136 -15.368,34.61 -34.186,34.61c-18.885,0 -34.185,-15.474 -34.185,-34.61c0,-19.204 15.3,-34.823 34.185,-34.823Z" style="fill:#000;fill-rule:nonzero;"/><path id="path1950" d="M620.892,229.561l0,80.898c0,62.72 -53.174,115.509 -113.81,115.509l-181.969,0c-49.844,0 -91.09,42.66 -91.09,92.577l0,173.475c0,49.372 42.932,78.412 91.09,92.577c57.668,16.957 112.969,20.021 181.969,0c45.865,-13.279 91.09,-40.004 91.09,-92.577l0,-69.432l-181.968,0l0,-23.145l273.059,0c52.947,0 72.677,-36.931 91.09,-92.364c19.021,-57.067 18.212,-111.947 0,-185.154c-13.085,-52.709 -38.076,-92.364 -91.09,-92.364l-68.371,0ZM518.548,668.876c18.885,0 34.185,15.474 34.185,34.61c0,19.204 -15.3,34.823 -34.185,34.823c-18.818,0 -34.186,-15.619 -34.186,-34.823c0,-19.136 15.368,-34.61 34.186,-34.61Z" style="fill:#000;fill-rule:nonzero;"/></svg>