<?xml version="1.0" encoding="utf-8"?>
<!-- Generator: Adobe Illustrator 16.0.0, SVG Export Plug-In . SVG Version: 6.00 Build 0)  -->
<!DOCTYPE svg PUBLIC "-//W3C//DTD SVG 1.1//EN" "http://www.w3.org/Graphics/SVG/1.1/DTD/svg11.dtd">
<svg version="1.1" id="Layer_1" xmlns="http://www.w3.org/2000/svg" xmlns:xlink="http://www.w3.org/1999/xlink" x="0px" y="0px"
	 width="300px" height="300px" viewBox="0 0 300 300" enable-background="new 0 0 300 300" xml:space="preserve">
<g id="layer6" transform="translate(-273.27313,-435.95455)">
	<path id="path3966" d="M309.838,728.078h141.328c0,0-31.347-71.194-23.38-136.544c7.973-65.35,59.507-95.105,88.729-98.291
		c29.22-3.189,45.159,14.876,45.159,14.876l6.378-9.565c0,0-41.973-42.506-95.104-37.721c-53.132,4.78-89.79,39.846-112.635,82.349
		c-22.848,42.507-36.13,72.259-45.162,116.888C306.121,704.7,309.838,728.078,309.838,728.078z"/>
	<path id="path3968" d="M281.68,656.883l27.63,2.127l-4.784,27.623l-26.032-3.188L281.68,656.883z"/>
	<path id="path3970" d="M325.248,598.439l7.439-20.718l-24.441-9.565l-7.968,22.315L325.248,598.439z"/>
	<path id="path3972" d="M359.781,527.245l14.346-17l-18.597-12.22l-14.875,16.468L359.781,527.245z"/>
	<path id="path3974" d="M397.503,461.366l12.751,15.406l17.532-10.094l-12.751-14.345L397.503,461.366z"/>
	<path id="path3976" d="M459.669,443.832l3.187,15.412l21.783-0.532l-2.128-13.813L459.669,443.832z"/>
	<path id="path3978" d="M533.517,460.302l-0.529,9.562l14.874,7.967l3.187-4.78L533.517,460.302z"/>
	<path id="path3980" d="M530.329,501.213v7.969l14.345,1.593v-6.376L530.329,501.213z"/>
	<path id="path3982" d="M484.638,508.12l6.908,12.748l10.095-7.967l-2.127-8.501L484.638,508.12z"/>
	<path id="path3984" d="M462.849,524.591l10.63,15.94l-6.379,11.154l-15.409-16.997L462.849,524.591z"/>
	<path id="path3986" d="M441.602,568.688l-6.907,13.813l18.063,15.412l4.251-17.537L441.602,568.688z"/>
	<path id="path3988" d="M434.165,617.035l-1.062,18.596l22.312,9.563l-1.062-17.535L434.165,617.035z"/>
	<path id="path3990" d="M440.539,682.917l5.313,19.131l28.157,1.593l-10.095-20.724H440.539z"/>
</g>
<g>
</g>
<g>
</g>
<g>
</g>
<g>
</g>
<g>
</g>
<g>
</g>
</svg>
