<?xml version="1.0" standalone="no"?><!DOCTYPE svg PUBLIC "-//W3C//DTD SVG 1.1//EN" "http://www.w3.org/Graphics/SVG/1.1/DTD/svg11.dtd"><svg width="100%" height="100%" viewBox="0 0 1067 959" version="1.1" xmlns="http://www.w3.org/2000/svg" xmlns:xlink="http://www.w3.org/1999/xlink" xml:space="preserve" style="fill-rule:evenodd;clip-rule:evenodd;stroke-linejoin:round;stroke-miterlimit:1.41421;"><path d="M837.604,331.975c-10.021,-3.437 -20.127,-6.622 -30.308,-9.55c1.688,-6.861 3.25,-13.752 4.683,-20.671c22.942,-111.366 7.942,-201.083 -43.283,-230.616c-49.113,-28.325 -129.438,1.208 -210.563,71.804c-7.993,6.972 -15.81,14.145 -23.441,21.512c-5.111,-4.899 -10.312,-9.702 -15.6,-14.408c-85.021,-75.492 -170.242,-107.3 -221.413,-77.679c-49.067,28.404 -63.6,112.75 -42.946,218.291c2.055,10.452 4.375,20.85 6.959,31.184c-12.059,3.425 -23.704,7.075 -34.846,10.958c-99.675,34.75 -163.334,89.217 -163.334,145.708c0,58.35 68.334,116.875 172.159,152.359c8.419,2.864 16.907,5.517 25.458,7.958c-2.778,11.133 -5.244,22.342 -7.396,33.613c-19.691,103.708 -4.312,186.054 44.625,214.283c50.546,29.146 135.38,-0.813 217.988,-73.021c6.529,-5.708 13.083,-11.763 19.646,-18.108c8.266,7.975 16.752,15.718 25.45,23.221c80.016,68.854 159.041,96.658 207.937,68.354c50.5,-29.234 66.908,-117.696 45.6,-225.325c-1.625,-8.221 -3.521,-16.617 -5.646,-25.167c5.959,-1.758 11.804,-3.575 17.509,-5.467c107.933,-35.758 178.154,-93.571 178.154,-152.7c0,-56.696 -65.709,-111.529 -167.392,-146.533l0,0ZM775.525,669.654c9.421,47.592 10.767,90.621 4.525,124.259c-5.608,30.225 -16.883,50.375 -30.825,58.445c-29.671,17.175 -93.125,-5.15 -161.55,-64.033c-7.846,-6.75 -15.75,-13.958 -23.675,-21.583c26.529,-29.017 53.042,-62.75 78.917,-100.209c45.516,-4.037 88.516,-10.641 127.512,-19.654c1.917,7.75 3.625,15.346 5.096,22.775l0,0ZM384.483,849.392c-28.987,10.237 -52.075,10.529 -66.029,2.483c-29.7,-17.125 -42.041,-83.25 -25.204,-171.937c2.002,-10.481 4.295,-20.905 6.875,-31.259c38.563,8.529 81.25,14.667 126.875,18.367c26.046,36.654 53.325,70.346 80.817,99.85c-5.843,5.652 -11.824,11.159 -17.938,16.516c-36.529,31.934 -73.133,54.584 -105.391,65.98l-0.005,0ZM535.817,737.954c-19.063,-20.571 -38.075,-43.321 -56.646,-67.792c18.025,0.709 36.404,1.067 55.083,1.067c19.192,0 38.163,-0.429 56.833,-1.262c-18.333,24.916 -36.845,47.7 -55.27,67.987ZM665.638,555.113c-14.262,24.774 -29.326,49.079 -45.167,72.874c-27.933,1.996 -56.8,3.025 -86.217,3.025c-29.296,0 -57.796,-0.912 -85.241,-2.691c-16.253,-23.74 -31.601,-48.087 -46.013,-72.988c-14.344,-24.768 -27.743,-50.073 -40.167,-75.858c12.393,-25.793 25.751,-51.111 40.046,-75.9l0,0.008c14.291,-24.794 29.519,-49.036 45.65,-72.675c28,-2.116 56.709,-3.225 85.729,-3.225c29.15,0 57.896,1.117 85.888,3.25c15.968,23.602 31.098,47.76 45.362,72.429c14.345,24.734 27.881,49.928 40.588,75.542c-12.576,25.875 -26.069,51.294 -40.454,76.208l-0.004,0.001ZM397.75,623.833c-30.833,-3.441 -59.913,-8.104 -86.767,-13.95c8.313,-26.841 18.555,-54.741 30.517,-83.116c8.514,16.446 17.414,32.689 26.692,48.716c9.467,16.35 19.322,32.471 29.558,48.35l0,0ZM724.492,531.622c-7.72,14.682 -15.726,29.212 -24.013,43.582c-9.316,16.16 -18.953,32.132 -28.904,47.909c31.054,-3.725 60.525,-8.742 87.825,-14.971c-8.425,-26.388 -19.033,-54.138 -31.617,-82.821l-1.641,3.153l-1.65,3.148ZM248.679,592.808c-45.908,-15.691 -83.821,-36.083 -109.808,-58.333c-23.35,-20 -35.142,-39.854 -35.142,-55.967c0,-34.279 51.113,-78.008 136.359,-107.729c10.699,-3.714 21.505,-7.114 32.404,-10.196c11.783,38.321 27.237,78.388 45.887,118.904c-18.891,41.121 -34.566,81.825 -46.458,120.596c-7.806,-2.234 -15.555,-4.66 -23.242,-7.275l0,0ZM814.196,593.033c93.189,-30.88 150.583,-78.129 150.583,-114.525c0,-34.166 -53.141,-78.512 -140.266,-108.5c-9.009,-3.104 -18.359,-6.041 -27.988,-8.833c-11.583,37.479 -27.042,77.075 -45.821,117.533c19.675,41.438 35.759,81.55 47.675,119.271c5.382,-1.595 10.664,-3.241 15.813,-4.946l0.004,0ZM700.317,383.213c-9.204,-15.899 -18.749,-31.597 -28.63,-47.084c30.042,3.792 58.821,8.834 85.846,15.004c-8.112,26.005 -18.225,53.196 -30.133,81.071c-8.701,-16.509 -17.73,-32.843 -27.083,-48.992l0,0ZM368.029,383.488c-9.236,16.02 -18.096,32.253 -26.575,48.687c-11.712,-27.779 -21.733,-55.092 -29.916,-81.467c26.862,-6.012 55.508,-10.925 85.354,-14.654c-9.991,15.583 -19.615,31.399 -28.863,47.434l0,0ZM748.608,105.979c31.525,18.184 43.788,91.504 23.98,187.659c-1.299,6.263 -2.71,12.503 -4.234,18.716c-39.058,-9.012 -81.475,-15.721 -125.883,-19.887c-25.871,-36.838 -52.675,-70.334 -79.583,-99.325c7.051,-6.798 14.269,-13.42 21.649,-19.859c69.509,-60.491 134.471,-84.375 164.071,-67.304l0,0ZM294.204,282.933c-17.696,-90.429 -5.946,-158.641 23.625,-175.758c31.5,-18.233 101.146,7.767 174.554,72.946c4.692,4.167 9.405,8.529 14.125,13.042c-27.35,29.37 -54.379,62.808 -80.2,99.25c-44.279,4.104 -86.666,10.695 -125.633,19.525c-2.4,-9.614 -4.558,-19.287 -6.471,-29.009l0,0.004ZM531.173,225.74c-17.65,19.3 -35.191,40.409 -52.34,63.023c37.072,-1.736 74.205,-1.727 111.275,0.024c-18.275,-24.345 -36.854,-46.787 -55.404,-66.883l-1.766,1.912l-1.765,1.924Z" style="fill:#000;"/><path d="M534.254,394.438c46.434,0 84.071,37.641 84.071,84.07c0,46.434 -37.637,84.075 -84.071,84.075c-46.429,0 -84.071,-37.641 -84.071,-84.075c0,-46.429 37.642,-84.07 84.071,-84.07" style="fill:#000;fill-rule:nonzero;"/></svg>