<?xml version="1.0" standalone="no"?><!DOCTYPE svg PUBLIC "-//W3C//DTD SVG 1.1//EN" "http://www.w3.org/Graphics/SVG/1.1/DTD/svg11.dtd"><svg width="100%" height="100%" viewBox="0 0 1250 1250" version="1.1" xmlns="http://www.w3.org/2000/svg" xmlns:xlink="http://www.w3.org/1999/xlink" xml:space="preserve" style="fill-rule:evenodd;clip-rule:evenodd;stroke-linejoin:round;stroke-miterlimit:1.41421;"><path d="M1171.99,765.142l0.197,0.073c61.853,22.672 64.228,41.34 0.771,74.414c-63.457,33.064 -392.192,168.237 -462.18,204.72c-69.983,36.497 -108.863,36.139 -164.149,9.708c-55.291,-26.412 -405.119,-167.749 -468.135,-197.854c-63.016,-30.124 -64.335,-50.855 -2.434,-75.093l1.229,-0.482l1.191,0.575c63.02,30.124 412.858,171.451 468.149,197.868c55.291,26.431 94.17,26.784 164.158,-9.694c69.632,-36.316 395.392,-170.291 461.203,-204.235Z" style="fill:#000;"/><path d="M1163.72,567.577c3.209,1.208 6.043,2.262 8.469,3.151c61.853,22.668 64.228,41.341 0.771,74.415c-63.457,33.073 -392.192,168.237 -462.18,204.733c-69.983,36.483 -108.863,36.126 -164.149,9.695c-55.291,-26.412 -405.119,-167.745 -468.135,-197.854c-63.016,-30.115 -64.335,-50.85 -2.434,-75.098l9.595,-3.759c78.668,35.991 407.512,168.972 460.974,194.515c55.291,26.431 94.17,26.789 164.158,-9.694c67.076,-34.982 371.821,-160.595 452.931,-200.104Z" style="fill:#000;"/><path d="M1172.96,443.447c-63.457,33.073 -392.192,168.246 -462.18,204.729c-69.983,36.483 -108.863,36.125 -164.149,9.708c-55.286,-26.43 -405.119,-167.753 -468.13,-197.868c-63.021,-30.109 -64.335,-50.85 -2.439,-75.093c61.901,-24.238 409.815,-160.725 483.348,-187.11c73.523,-26.379 99.029,-27.327 161.599,-4.403c62.574,22.923 389.349,152.982 451.18,175.636c61.854,22.65 64.228,41.327 0.771,74.401ZM639.084,593.694l82.604,-121.108l-273.412,41.969l190.808,79.139ZM891.142,341.57l0,0l-179.023,70.815l161.608,63.88l179.232,-70.75l-161.817,-63.945ZM374.544,357.127c80.709,0 146.136,25.362 146.136,56.642c0,31.29 -65.427,56.648 -146.136,56.648c-80.709,0 -146.135,-25.363 -146.135,-56.648c0,-31.28 65.426,-56.642 146.135,-56.642ZM770.313,326.516l-102.239,10.614l-22.887,55.072l-36.965,-61.455l-118.056,-10.609l88.09,-31.768l-26.431,-48.765l82.474,32.256l77.75,-25.455l-21.014,50.423l79.278,29.687Z" style="fill:#000;"/><path d="M751.577,414.481l139.595,-55.219l0.109,99.676l-13.688,5.354l-126.016,-49.811" style="fill:#000;fill-rule:nonzero;"/></svg>