<?xml version="1.0" standalone="no"?><!DOCTYPE svg PUBLIC "-//W3C//DTD SVG 1.1//EN" "http://www.w3.org/Graphics/SVG/1.1/DTD/svg11.dtd"><svg width="100%" height="100%" viewBox="0 0 834 834" version="1.1" xmlns="http://www.w3.org/2000/svg" xmlns:xlink="http://www.w3.org/1999/xlink" xml:space="preserve" style="fill-rule:evenodd;clip-rule:evenodd;stroke-linejoin:round;stroke-miterlimit:1.41421;"><path id="path3400" d="M219.354,218.033c102.334,-101.464 234.258,-161.411 284.885,-110.331c50.597,51.08 -3.06,175.215 -105.393,276.644c-102.333,101.43 -232.623,164.679 -283.216,113.6c-50.628,-51.045 1.391,-178.484 103.724,-279.913l0,0Z" style="fill:#000;"/><path d="M650.652,74.693l0.359,-0.198c58.973,9.632 93.571,40.44 104.837,88.181l-0.148,-0.021c4.187,16.06 5.583,33.202 4.961,50.528l0.472,-2.452l-38.92,509.546l0.522,3.604l0.598,0.046l-1.406,0.095l-0.02,0.257l-509.299,34.559l0.507,-0.257c-42.475,-1.219 -137.214,-5.087 -140.915,-138.239l46.372,-84.826l0.048,-0.573c0.077,-0.051 0.17,-0.058 0.278,-0.023l0.14,-0.255l0.196,0.458c6.933,5.711 52.929,119.091 83.059,193.979l12.302,28.729l0.311,-0.158l79.308,-262.695l-0.066,-0.127l0.095,0.031l0.01,-0.031l263.249,84.571l1.203,-1.501l-67.296,-266.561l251.936,-16.858l-197.178,-161.252l-1.418,-0.199l0.702,-0.387l-0.08,-0.065l104.941,-57.965l0.34,0.059ZM721.942,723.818l0.742,0.059l-0.699,-0.621l-0.043,0.562ZM554.56,583.098c-1.804,1.68 -3.612,3.355 -5.424,5.024l2.361,-1.198l3.063,-3.826Z" style="fill:#000;"/></svg>