<?xml version="1.0" encoding="utf-8"?>
<!-- Generator: Adobe Illustrator 16.0.0, SVG Export Plug-In . SVG Version: 6.00 Build 0)  -->
<!DOCTYPE svg PUBLIC "-//W3C//DTD SVG 1.1//EN" "http://www.w3.org/Graphics/SVG/1.1/DTD/svg11.dtd">
<svg version="1.1" id="Layer_1" xmlns="http://www.w3.org/2000/svg" xmlns:xlink="http://www.w3.org/1999/xlink" x="0px" y="0px"
	 width="300px" height="300px" viewBox="0 0 300 300" enable-background="new 0 0 300 300" xml:space="preserve">
<g>
	<path d="M222.025,40.011c-1.407-1.496-2.782-2.15-4.812-2.147c-40.94-1.017-63.528-1.1-66.974-1.107v0c0,0-0.085,0-0.24,0
		s-0.24,0-0.24,0v0c-3.445,0.007-26.034,0.09-66.974,1.107c-2.03-0.002-3.404,0.651-4.812,2.147
		C55.817,63.557,9.085,113.604,9.085,113.604l140.904,149.617v0.023l0.011-0.012l0.011,0.012v-0.023l140.904-149.617
		C290.915,113.604,244.183,63.557,222.025,40.011z M82.918,47.32L62,110.5H27.75L82.918,47.32z M27.75,117.667h31.583l90.667,136
		L27.75,117.667z"/>
</g>
<g>
</g>
<g>
</g>
<g>
</g>
<g>
</g>
<g>
</g>
<g>
</g>
</svg>
