<?xml version="1.0" standalone="no"?><!DOCTYPE svg PUBLIC "-//W3C//DTD SVG 1.1//EN" "http://www.w3.org/Graphics/SVG/1.1/DTD/svg11.dtd"><svg width="100%" height="100%" viewBox="0 0 1250 1250" version="1.1" xmlns="http://www.w3.org/2000/svg" xmlns:xlink="http://www.w3.org/1999/xlink" xml:space="preserve" style="fill-rule:evenodd;clip-rule:evenodd;stroke-linejoin:round;stroke-miterlimit:1.41421;"><g><path d="M613.206,201.507c21.851,5.986 44.331,10.308 65.423,18.289c46.794,17.725 83.07,46.117 90.335,100.071l-0.003,0.024l0.007,-0.02c2.432,14.303 2.572,28.601 0.048,42.908l0,-0.001c-18.089,96.546 -79.364,157.187 -165.105,196.55c-37.137,17.045 -76.98,25.431 -117.618,29.645l-0.033,-0.003l0.029,0.007c-21.686,2.056 -43.376,1.973 -65.07,0.236l0.024,-0.007l-0.019,0.002c-29.619,-2.829 -56.613,-12.168 -79.163,-32.264c-7.047,-6.287 -13.906,-12.818 -17.625,-21.847c-2.436,-5.92 -7.741,-13.128 -1.891,-17.957c7.034,-5.811 10.902,2.965 15.521,7.003c28.047,24.493 62.118,31.858 97.495,29.204c78.879,-5.916 149.982,-32.993 209.28,-86.515c34.037,-30.719 60.97,-66.279 64.69,-114.57c2.423,-31.57 -12.186,-52.727 -40.062,-65.637c-49.994,-23.17 -102.821,-20.647 -153.929,-9.675c-122.359,26.269 -230.79,81.201 -320.2,170.165c-25.505,25.379 -44.091,55.247 -49.522,92.352c-8.06,55.055 22.816,90.942 59.699,123.311c35.447,31.112 75.853,56.338 109.226,89.96c6.929,6.981 11.959,5.034 18.752,1.222c30.395,-17.04 60.904,-33.871 91.435,-50.662c7.824,-4.3 13.478,-10.753 19.332,-17.267c19.56,-21.773 40.638,-41.865 69.095,-51.574c34.216,-11.666 55.312,3.318 56.617,39.476c0.441,12.233 -5.614,26.034 18.835,23.567c17.56,-1.772 18.852,16.233 15.097,31.116c-7.789,30.898 -15.857,61.712 -23.41,92.658c-2.89,11.844 -4.527,23.96 0.712,37.066c42.771,-83.229 83.037,-167.484 114.799,-255.624l-0.002,-0.008c12.866,-14.962 38.355,-18.328 61.463,-8.112l-0.012,0l0.017,0.004c8.002,8.584 3.466,17.324 0.637,26.292c-11.631,36.769 -10.264,72.404 10.954,108.602c25.117,-35.002 42.424,-72.85 62.677,-108.934l0.002,-0.002c4.286,-15.213 7.548,-30.819 13.096,-45.556c9.627,-25.537 17.081,-19.722 61.293,-16.495l0,0.001c9.754,0.896 12.093,6.034 8.906,14.869c-2.412,6.693 -4.288,13.579 -6.398,20.377l-0.05,0.161c-9.308,34.988 -5.693,68.16 11.054,100.699c7.257,14.098 13.696,15.975 28.03,10.064c45.527,-18.76 92.972,-20.826 140.302,-8.553c52.164,13.526 86.716,46.61 101.53,99.111c2.062,7.308 2.613,15.254 0,30.596c-5.988,19.478 -27.558,52.181 -63.271,54.207c19.327,-17.677 41.025,-32.226 37.32,-65.004c-2.619,-23.163 -33.701,-59.403 -68.2,-71.405c-43.611,-15.162 -88.052,-17.127 -132.859,-4.549c-9.832,2.768 -11.299,8.684 -10.286,18.093c6.88,63.96 -37.307,118.041 -101.089,124.402c-24.117,2.41 -41.065,-17.673 -36.625,-44.506c4.51,-27.279 17.747,-50.483 36.027,-70.881c8.243,-9.194 17.263,-17.647 26.453,-25.837c2.104,-2.392 3.55,-4.585 4.452,-6.614c-2.458,-6.848 -7.05,-12.939 -9.381,-19.831c-1.324,-1.012 -13.338,-30.081 -21.524,-45.353c-18.446,31.575 -37.195,66.175 -56.178,95.641c-7.365,11.43 7.503,14.171 6.548,51.067c-0.651,25.193 -14.613,53.239 -21.616,61.612c-28.383,33.95 -56.352,41.777 -99.998,41.209c-29.212,-0.379 -38.721,-18.969 -23.824,-44.156c15.992,-27.025 40.991,-46.825 59.52,-72.047c10.932,-14.87 13.862,-26.863 4.13,-43.327c-9.186,-15.551 -14.294,-33.272 -19.07,-56.713c-9.723,21.515 -16.839,38.634 -24.021,55.53c-19.075,44.938 -42.599,87.545 -65.947,130.27c-7.728,14.141 -17.167,27.051 -29.881,37.154c-21.729,17.276 -43.606,11.356 -53.644,-14.757c-4.924,-12.823 -7.409,-26.27 -5.178,-43.131c-9.482,23.921 -18.852,44.244 -31.888,62.572c-20.149,28.322 -60.49,26.96 -78.25,-2.99c-10.003,-16.874 -16.815,-35.762 -19.088,-55.05c-7.114,-60.374 2.624,-92.142 1.676,-103.079c-9.373,0.393 -15.503,7.435 -23.191,10.452c-15.595,6.13 -18.342,15.713 -14.552,32.639c13.661,61.036 5.479,118.648 -34.303,169.219c-30.408,38.651 -68.693,63.829 -118.958,67.824l-48.025,0c-54.307,-10.072 -77.73,-59.123 -57.189,-118.364c12.308,-35.504 39.049,-59.119 66.541,-81.73c27.549,-22.655 57.931,-41.48 89.492,-58.119c13.543,-7.138 13.417,-12.91 1.341,-21.253c-19.734,-13.63 -38.804,-28.213 -58.809,-41.463c-35.325,-23.393 -67.226,-50.754 -95.985,-81.865c-20.576,-22.262 -35.595,-47.375 -41.441,-77.456c0,-14.551 0,-29.107 0,-43.659c8.64,-49.867 36.255,-88.584 70.357,-124.446c87.663,-92.195 198.116,-144.817 315.948,-185.245c27.671,-9.492 56.883,-8.474 85.213,-13.386l82.953,0ZM216.401,986.449c-15.896,5.68 -33.691,11.042 -47.23,-2.314c-14.25,-14.058 -7.863,-32.84 -2.563,-48.959c7.374,-22.423 22.196,-40.839 39.944,-55.932c24.231,-20.624 50.094,-39.293 77.32,-55.87c21.144,-12.871 22.467,-11.963 24.17,13.473c0.336,5.056 0.585,10.12 0.751,13.006c0.602,61.062 -37.669,117.037 -92.392,136.596ZM692.373,882.689c17.302,-19.826 34.604,-39.651 51.906,-59.477c-1.825,32.465 -23.589,48.733 -51.906,59.477ZM530.843,714.706c-13.032,47.611 -31.099,93.474 -51.335,138.474c-2.663,5.92 -6.042,11.574 -9.539,17.066c-2.689,4.226 -5.623,9.784 -11.26,9.09c-6.662,-0.821 -8.662,-7.789 -9.906,-13.006c-2.681,-11.22 -3.881,-22.808 -5.126,-30.701c2.978,-53.679 19.752,-98.368 51.09,-137.526c0.454,-0.568 0.869,-1.183 1.402,-1.668c10.194,-9.16 22.026,-23.362 34.896,-16.621c14.124,7.391 2.908,23.467 -0.222,34.892ZM853.042,846.587c2.157,-32.644 19.9,-55.111 41.56,-77.041c13.211,34.338 -3.572,65.349 -41.56,77.041Z" style="fill:#000;"/></g></svg>