<?xml version="1.0" standalone="no"?><!DOCTYPE svg PUBLIC "-//W3C//DTD SVG 1.1//EN" "http://www.w3.org/Graphics/SVG/1.1/DTD/svg11.dtd"><svg width="100%" height="100%" viewBox="0 0 2917 2917" version="1.1" xmlns="http://www.w3.org/2000/svg" xmlns:xlink="http://www.w3.org/1999/xlink" xml:space="preserve" style="fill-rule:evenodd;clip-rule:evenodd;stroke-linejoin:round;stroke-miterlimit:1.41421;"><path d="M529.214,2485.39l-206.117,-2316.08l2270.47,0l-206.118,2316.08l-931.593,261.977l-926.645,-261.977ZM1458.86,720.374l0,-1.886c304.049,-73.184 591.836,-168.995 598.2,-278.594l-28.638,503.096c0,0 -1.812,31.989 -76.598,85.461c69.533,40.306 67.76,71.337 67.76,71.16l-0.106,1.86c0.043,-0.503 0.078,-1.005 0.106,-1.507l-25.102,443.347c0,0 -1.636,28.363 -72.257,81.585c65.726,29.798 64.125,57.359 64.125,57.359c0,0 -22.273,393.496 -22.273,393.496c0.024,-0.423 0.042,-0.845 0.052,-1.266l-0.052,0.913c0,0 -5.619,97.634 -500.255,308.302l0,2.528l-4.934,-0.429l-0.028,0.012l0,-0.014c-134.44,-11.729 -296.541,-31.789 -491.417,-64.268l-20.859,-372.638c0,0 229.879,25.687 484.463,34.652c-256.963,-96.186 -491.888,-165.818 -491.888,-165.818l-23.334,-417.184c0,0 243.434,7.811 513.601,-5.919c-260.38,-80.621 -498.536,-136.149 -520.139,-141.142l-1.593,-0.014l-26.516,-470.216l0.02,-0.002l-0.02,-0.352l1.509,0.259c22.304,-1.398 288.667,-18.666 576.173,-62.781Z" style="fill:#000;"/></svg>