<?xml version="1.0" standalone="no"?><!DOCTYPE svg PUBLIC "-//W3C//DTD SVG 1.1//EN" "http://www.w3.org/Graphics/SVG/1.1/DTD/svg11.dtd"><svg width="100%" height="100%" viewBox="0 0 1067 725" version="1.1" xmlns="http://www.w3.org/2000/svg" xmlns:xlink="http://www.w3.org/1999/xlink" xml:space="preserve" style="fill-rule:evenodd;clip-rule:evenodd;stroke-linejoin:round;stroke-miterlimit:1.41421;"><path d="M214.787,296.907c0.472,-1.69 1.116,-3.149 1.946,-4.342c13.333,-19.167 33.333,-59.167 44.583,-98.333c11.25,-38.75 27.084,-121.25 58.334,-150.417c31.25,-29.167 77.916,-29.167 139.583,-22.5c61.25,6.667 240.833,39.167 284.583,54.583c43.334,15.417 100,44.584 96.667,112.5c-0.655,13.345 -0.94,25.371 -1.034,36.367c79.645,15.844 144.157,48.075 180.617,103.633c44.167,67.5 17.5,150 -67.916,214.167c-51.25,38.333 -163.75,76.667 -238.75,98.333c-75,21.25 -222.084,50 -342.5,43.334c-120.417,-6.667 -270,-24.167 -335,-133.75c0,0 -82.006,-159.234 178.887,-253.575ZM687.983,383.398l-252.5,0c-159.167,0 -205.417,-42.916 -217.083,-73.75c-0.834,-2.916 -2.084,-6.666 -3.334,-6.666c-1.25,0 -2.083,6.666 -2.083,6.666l-12.083,115.417c0,52.917 137.083,95.833 313.333,95.833c176.25,0 327.5,-25 327.5,-95.833c0,0 0.833,-70.417 0.417,-101.667c0,-3.333 -0.417,-6.666 -3.334,-6.666c-1.25,0 -1.666,3.75 -3.333,5.833c-13.75,22.5 -54.583,60.833 -147.5,60.833Z" style="fill:#000;"/></svg>