<?xml version="1.0" standalone="no"?><!DOCTYPE svg PUBLIC "-//W3C//DTD SVG 1.1//EN" "http://www.w3.org/Graphics/SVG/1.1/DTD/svg11.dtd"><svg width="100%" height="100%" viewBox="0 0 417 417" version="1.1" xmlns="http://www.w3.org/2000/svg" xmlns:xlink="http://www.w3.org/1999/xlink" xml:space="preserve" style="fill-rule:evenodd;clip-rule:evenodd;stroke-linejoin:round;stroke-miterlimit:1.41421;"><g id="Page-1"><g id="logo"><path d="M159.837,23.083c49.552,-12.709 104.316,-5.303 148.017,21.667c55.037,32.913 90.967,95.173 91.881,159.262c2.012,64.729 -31.724,128.909 -85.939,164.107c-60.34,40.593 -143.811,42.147 -205.431,3.566c-62.809,-37.484 -99.47,-113.092 -90.054,-185.684c7.589,-76.705 66.832,-144.359 141.526,-162.918ZM197.138,217.726c19.382,0 38.673,0 57.963,0.274c-42.238,34.101 -83.105,69.849 -126.074,103.036c22.49,-34.559 45.621,-68.752 68.111,-103.31ZM161.665,198.618c41.964,-34.284 83.014,-69.757 125.892,-103.036c-22.49,34.559 -45.621,68.66 -68.111,103.219c-19.291,0.091 -38.581,0.091 -57.781,-0.183Z" style="fill:#010101;"/></g></g></svg>