<?xml version="1.0" standalone="no"?><!DOCTYPE svg PUBLIC "-//W3C//DTD SVG 1.1//EN" "http://www.w3.org/Graphics/SVG/1.1/DTD/svg11.dtd"><svg width="100%" height="100%" viewBox="0 0 1563 1563" version="1.1" xmlns="http://www.w3.org/2000/svg" xmlns:xlink="http://www.w3.org/1999/xlink" xml:space="preserve" style="fill-rule:evenodd;clip-rule:evenodd;stroke-linejoin:round;stroke-miterlimit:1.41421;"><path d="M1427.07,495.777c38.69,87.302 60.188,183.897 60.188,285.473c0,389.654 -316.35,706.004 -706.004,706.004c-389.654,0 -706.004,-316.35 -706.004,-706.004c0,-389.654 316.35,-706.004 706.004,-706.004c200.953,0 382.41,84.139 511.032,219.086c6.181,-10.064 11.757,-20.494 16.602,-31.295c6.7,-14.934 11.915,-30.513 15.459,-46.494c1.101,-4.962 2.036,-9.959 2.866,-14.973c0.787,-4.76 1.433,-9.544 2.289,-14.292c0.163,-0.855 0.336,-1.706 0.522,-2.555c0.259,-1.087 0.493,-2.168 1.03,-3.168c0.85,-1.585 2.259,-2.833 3.934,-3.485c1.496,-0.583 1.941,-0.452 3.513,-0.48c0.581,0.128 1.161,0.257 1.742,0.385c0.535,0.261 1.104,0.46 1.605,0.782c1.008,0.648 1.848,1.525 2.453,2.56c0.3,0.513 0.475,1.091 0.712,1.636c0.741,2.458 1.509,4.906 2.279,7.356c3.749,11.72 7.577,23.416 11.349,35.13c2.575,8.06 5.127,16.128 7.656,24.204c5.61,18.076 11.052,36.203 16.241,54.405c9.938,34.867 19.018,69.983 27.071,105.335c6.527,28.648 12.387,57.452 17.461,86.394ZM351.482,1191.09c32.127,0 58.21,26.082 58.21,58.209c0,32.127 -26.083,58.209 -58.21,58.209c-32.126,0 -58.209,-26.082 -58.209,-58.209c0,-32.127 26.083,-58.209 58.209,-58.209ZM1339.55,218.078c-2.724,12.495 -6.299,24.773 -10.836,36.734c-17.003,44.821 -46.164,84.061 -80.05,117.568c-4.929,4.874 -9.968,9.637 -15.102,14.294c-6.709,6.085 -13.581,11.989 -20.59,17.726c-8.971,7.342 -18.167,14.41 -27.542,21.228c-31.517,22.921 -65.016,43.052 -99.488,61.187c-9.712,5.109 -19.506,10.059 -29.372,14.863c-14.752,7.184 -29.676,13.98 -44.905,20.097c-32.764,13.161 -66.641,23.434 -101.107,31.07c-35.906,7.954 -72.376,13.03 -108.975,16.459c-37.902,3.552 -75.935,5.349 -113.925,7.654c-5.726,0.357 -11.451,0.727 -17.175,1.112c-7.517,0.527 -15.032,1.075 -22.541,1.705c-48.638,4.078 -97.687,11.059 -143.339,29.089c-8.908,3.518 -17.656,7.442 -26.19,11.788c-16.06,8.18 -31.336,17.866 -45.59,28.894c-31.652,24.489 -57.868,55.293 -79.71,88.688c-10.884,16.639 -20.847,33.908 -29.355,51.887c-11.965,25.283 -21.071,51.989 -26.002,79.553c-5.059,28.278 -5.6,57.304 -1.218,85.708c1.464,9.49 3.463,18.896 5.966,28.166c11.841,43.846 34.897,84.122 64.176,118.633c6.776,7.987 13.9,15.681 21.346,23.048c7.781,7.698 15.914,15.037 24.469,21.868l0.701,0.549c5.536,-1.469 11.078,-2.914 16.621,-4.354c9.066,-2.332 18.138,-4.635 27.217,-6.915c34.672,-8.647 69.422,-16.98 104.122,-25.514c9.395,-2.327 18.784,-4.672 28.169,-7.04c42.843,-10.894 85.531,-22.428 127.673,-35.808c50.428,-16.012 100.079,-34.635 147.947,-57.227c51.248,-24.186 100.344,-52.945 145.919,-86.659c47.427,-35.084 90.866,-75.41 129.685,-119.82c29.692,-33.969 56.692,-70.251 81.161,-108.147c13.347,-20.672 25.887,-41.837 37.844,-63.341l1.06,-1.464c1.212,-1.032 1.462,-1.432 2.991,-1.985c0.567,-0.205 1.162,-0.343 1.761,-0.409c3.718,-0.405 7.268,2.062 8.184,5.688c0.399,1.577 0.207,2.008 0.032,3.59c-0.715,3.054 -1.46,6.1 -2.232,9.139c-8.187,31.587 -19.788,62.219 -33.74,91.697c-16.65,35.176 -36.662,68.734 -59.166,100.471c-63.458,89.494 -146.364,164.055 -237.736,224.205c-14.655,9.646 -29.543,18.937 -44.636,27.882c-17.312,10.261 -34.893,20.068 -52.701,29.442c-38.569,20.302 -78.197,38.57 -118.552,55.028c-33.226,13.551 -66.949,25.875 -101.031,37.096c-15.836,5.213 -31.754,10.164 -47.729,14.935c5.588,-0.208 11.177,-0.376 16.767,-0.532c38.822,-1.008 77.653,-0.865 116.482,-0.389c34.964,0.474 69.925,1.174 104.889,1.649c39.565,0.487 79.143,0.674 118.698,-0.5c30.4,-0.902 60.792,-2.591 91.053,-5.673c28.78,-2.932 57.46,-7.123 85.735,-13.28c24.603,-5.358 48.909,-12.216 72.477,-21.108c28.816,-10.874 56.512,-24.845 81.808,-42.466c14.455,-10.069 28.097,-21.301 40.712,-33.599c20.861,-20.338 38.804,-43.539 53.702,-68.559c11.818,-19.845 21.704,-40.804 30.223,-62.259c25.007,-62.979 37.514,-130.392 42.142,-197.816c1.572,-22.903 2.231,-45.866 2.121,-68.822c-0.142,-29.593 -1.562,-59.175 -4.02,-88.664c-2.939,-35.257 -7.363,-70.386 -12.973,-105.315c-6.908,-43.007 -15.617,-85.718 -25.754,-128.077c-8.066,-33.704 -17.047,-67.186 -26.795,-100.441c-6.104,-20.822 -12.544,-41.54 -19.149,-62.209l-2.287,-7.103l-2.042,-6.309c-0.099,0.471 -0.198,0.943 -0.298,1.414Z" style="fill:#000;"/></svg>