<?xml version="1.0" standalone="no"?><!DOCTYPE svg PUBLIC "-//W3C//DTD SVG 1.1//EN" "http://www.w3.org/Graphics/SVG/1.1/DTD/svg11.dtd"><svg width="100%" height="100%" viewBox="0 0 1667 1667" version="1.1" xmlns="http://www.w3.org/2000/svg" xmlns:xlink="http://www.w3.org/1999/xlink" xml:space="preserve" style="fill-rule:evenodd;clip-rule:evenodd;stroke-linejoin:round;stroke-miterlimit:1.41421;"><g id="layer1-2"><path d="M988.279,843.735c3.947,26.866 6.599,55.063 8.3,88.072c1.327,25.731 0.701,101.437 -1.025,124.136c-6.161,81.033 -15.673,149.377 -27.873,200.629c-20.149,84.645 -57.592,183.753 -109.345,289.472c-15.21,31.07 -28.32,55.893 -30.168,57.113c-1.045,0.69 -23.78,0.752 -40.858,0.098c-84.208,-3.226 -237.109,-24.932 -316.222,-44.91c-47.473,-11.988 -110.783,-33.249 -148.3,-49.742c-73.549,-32.333 -136.79,-79.829 -168.558,-126.577c-24.868,-36.596 -31.151,-76.248 -18.256,-115.398c7.167,-21.761 23.837,-50.056 45.154,-76.591c4.243,-5.282 9.69,-11.441 15.745,-17.881c11.687,-6.842 26.092,-14.944 44.479,-25.071c-35.962,37.496 -61.648,81.916 -66.912,115.833c-0.613,3.948 -0.463,4.314 1.22,3.807c1.026,-0.308 13.593,-3.776 27.971,-7.712c48.505,-13.28 202.789,-58.427 204.485,-59.847c0.195,-0.163 -3.49,-8.145 -8.201,-17.72c-16.943,-34.439 -22.476,-59.609 -20.599,-93.725c0.203,-3.699 0.575,-8.188 1.021,-12.524c13.04,-6.295 26.263,-12.561 39.684,-18.805c-2.252,18.892 -2.121,42.621 0.641,57.494c3.428,18.459 10.054,38.307 17.964,54.038c3.617,7.195 4.098,7.757 5.272,6.053c0.712,-1.034 5.966,-9.376 11.666,-18.501c33.04,-52.883 57.925,-96.213 80.496,-140.245c2.207,-4.305 4.421,-8.692 6.555,-12.979c13.878,-5.828 27.968,-11.653 42.282,-17.477c-23.63,58.603 -62.946,137.388 -89.256,178.463c-6.142,9.59 -6.786,10.883 -4.686,10.105c0.691,-0.257 18.477,-5.997 39.492,-12.79c55.143,-17.826 103.173,-34.577 147.274,-51.304c38.052,-14.434 37.554,-14.211 36.074,-15.523c-0.742,-0.658 -5.921,-5.101 -11.471,-9.861c-17.288,-14.825 -37.948,-37.143 -53.794,-58.09c-11.094,-14.663 -23.472,-35.64 -32.008,-53.729c7.998,-3.185 16.064,-6.37 24.203,-9.558c1.024,2.221 2.019,4.296 2.923,6.076c10.446,20.573 24.784,41.459 42.908,62.483c10.608,12.305 42.519,43.397 43.446,42.323c0.38,-0.441 2.77,-7.83 5.32,-16.402c10.672,-35.872 17.346,-67.422 21.43,-101.535c0.823,-6.871 1.483,-22.606 1.788,-37.192c9.508,-3.378 19.185,-6.769 29.018,-10.168c-1.218,45.497 -9.942,100.585 -24.704,155.192c-1.906,7.051 -3.169,12.79 -2.782,12.79c0.386,0 9.97,-4.103 21.283,-9.129c64.911,-28.836 117.781,-57.231 160.308,-86.109c19.951,-13.548 18.962,-12.083 10.3,-15.865c-25.216,-11.01 -80.785,-41.644 -126.77,-69.684c7.436,-2.49 14.946,-4.983 22.524,-7.476c15.379,10.244 33.413,22.016 45.668,29.712c26.714,16.776 64.399,38.905 66.242,38.905c0.572,0 0.656,-6.173 0.244,-15.816c-1.123,-26.273 -4.096,-61.311 -6.947,-86.158c11.7,-3.581 23.491,-7.149 35.355,-10.7ZM873.224,1442.07c0.22,-0.047 0.322,-0.048 0.342,0c0.967,2.419 -36.884,107.256 -50.719,140.489c-3.098,7.444 -4.245,9.248 -5.857,9.178c-3.916,-0.171 -58.799,-7.845 -92.016,-12.887c-58.149,-8.828 -155.549,-25.837 -180.127,-31.437l-5.712,-1.269l34.854,-7.86c74.706,-16.831 110.584,-25.859 146.982,-37.001c45.904,-14.053 91.358,-31.574 137.267,-52.916c7.258,-3.374 13.445,-5.962 14.986,-6.297l0,0ZM624.073,1372.8c0.165,-0.206 10.582,3.487 23.187,8.201c30.386,11.361 54.233,18.772 86.5,26.848c39.633,9.92 96.907,19.84 130.824,22.699c5.207,0.439 7.865,1.033 7.029,1.562c-1.574,0.997 -35.916,12.468 -61.164,20.405c-40.079,12.598 -162.561,48.782 -262.429,77.518c-18.526,5.33 -34.366,9.834 -35.196,10.007c-2.237,0.465 -10.056,-1.587 -10.056,-2.636c0,-0.499 5.6,-7.586 12.399,-15.719c33.568,-40.152 66.915,-84.997 94.75,-127.406c7.613,-11.6 13.992,-21.273 14.156,-21.479l0,0ZM582.825,1373.97c-0.184,-0.118 -5.938,1.508 -12.839,3.661c-37.094,11.573 -93.65,27.584 -195.893,55.453c-38.435,10.477 -70.349,19.211 -70.88,19.38c-1.844,0.585 21.678,15.458 40.224,25.481c14.841,8.021 34.968,17.279 54.282,24.945c15.583,6.185 74.574,27.024 82.936,29.289l3.466,0.927l6.834,-11.911c3.75,-6.546 10.748,-18.054 15.523,-25.628c4.776,-7.573 18.71,-29.606 30.998,-48.961c29.047,-45.754 45.587,-72.236 45.349,-72.636ZM437.894,1239.73l7.517,8.396c33.609,37.439 67.789,65.378 109.492,89.478c7.363,4.254 12.974,7.954 12.496,8.249c-1.735,1.073 -144.209,51.73 -210.099,74.687c-37.159,12.947 -67.684,23.504 -67.852,23.48c-0.169,-0.025 -2.274,-1.401 -4.638,-3.075l-4.295,-3.076l6.736,-9.714c21.862,-31.667 49.33,-66.493 109.443,-138.829l41.2,-49.596l0,0ZM408.019,1228.31c0.569,0.54 -29.141,43.07 -70.635,101.144c-14.422,20.185 -31.364,43.976 -37.637,52.867c-6.272,8.89 -15.76,22.962 -21.136,31.29l-9.812,15.133l-10.447,-8.787c-12.257,-10.291 -33.712,-32.143 -43.445,-44.275c-20.028,-24.966 -33.598,-51.239 -38.954,-75.37c-2.472,-11.14 -2.545,-16.817 -0.195,-17.525c3.396,-1.022 65.703,-15.691 124.136,-29.24c32.458,-7.526 69.983,-16.335 83.424,-19.574c13.443,-3.239 24.57,-5.787 24.701,-5.663l0,0ZM940.003,1210.1c0.109,0.024 0.146,0.1 0.146,0.195c0,5.187 -11.769,53.181 -21.576,87.916c-8.226,29.137 -15.131,51.928 -27.922,92.309c-5.649,17.834 -10.499,32.391 -10.788,32.315c-0.289,-0.075 -1.644,-0.335 -3.026,-0.586c-69.313,-12.543 -131.394,-30.035 -189.548,-53.403c-16.27,-6.538 -39.765,-16.945 -41.005,-18.159c-0.42,-0.412 13.629,-7.03 31.193,-14.693c106.213,-46.342 216.261,-99.116 253.886,-121.745c4.525,-2.721 7.875,-4.306 8.64,-4.149l0,0ZM709.548,1129.65c0.16,0.16 -1.662,5.059 -4.052,10.837c-20.331,49.163 -46.968,102.796 -80.934,163.042c-8.644,15.332 -15.931,27.849 -16.207,27.824c-0.277,-0.025 -7.307,-4.185 -15.621,-9.275c-49.474,-30.288 -93.247,-67.57 -121.988,-103.829l-4.101,-5.125l21.332,-5.858c76.091,-20.845 140.618,-43.136 204.779,-70.782c9.085,-3.914 16.632,-6.994 16.792,-6.834l0,0ZM746.647,1117.5c0.147,-0.175 5.863,2.885 12.692,6.834c49.834,28.821 119.374,55.852 178.663,69.415l5.369,1.221l-7.371,4.1c-30.971,17.186 -132.966,59.624 -237.142,98.704c-15.208,5.705 -30.047,11.298 -32.95,12.447c-2.904,1.15 -5.272,1.938 -5.272,1.709c0,-0.229 4.297,-8.499 9.567,-18.354c29.245,-54.683 58.438,-121.133 73.418,-167.24c1.527,-4.701 2.88,-8.66 3.026,-8.836l0,0ZM961.286,983.355l-3.368,2.929c-4.742,4.164 -26.097,19.604 -40.37,29.143c-38.04,25.424 -81.796,51.057 -127.602,74.833c-11.565,6.003 -21.228,11.124 -21.478,11.374c-0.92,0.919 31.89,21.056 54.575,33.487c34.255,18.771 72.224,35.013 107.246,45.886c7.926,2.46 14.502,4.387 14.595,4.295c0.094,-0.092 1.319,-7.619 2.734,-16.743c8.063,-51.992 13.618,-123.248 13.668,-175.294l0,-9.91Z" style="fill:#000;"/><path d="M364.978,226.611c2.773,-6.448 18.615,-22.29 31.257,-31.164c34.543,-24.247 90.536,-52.32 162.651,-81.618c53.222,-21.623 136.06,-51.468 141.222,-50.865c2.401,0.28 2.851,1.29 7.175,16.89c7.281,26.265 20.406,62.533 34.073,94.017c16.593,38.223 44.464,93.618 70.606,140.457c-12.427,-1.939 -24.364,-3.808 -35.876,-5.618c-9.857,-18.124 -23.921,-45.417 -29.556,-57.76c-2.905,-6.364 -3.944,-8.366 -4.93,-8.445c-0.33,-0.025 -0.694,0.171 -1.074,0.488c-0.925,0.772 -5.974,4.992 -11.227,9.421c-17.229,14.525 -36.126,28.19 -55.278,39.972c-13.222,-2.16 -26.045,-4.275 -38.655,-6.377c24.62,-14.971 57.296,-32.944 87.245,-47.946c8.216,-4.116 14.793,-7.63 14.596,-7.811c-0.198,-0.18 -6.707,-0.87 -14.449,-1.513c-68.627,-5.699 -192.784,-29.416 -242.317,-46.277l-9.031,-3.075l12.057,11.325c12.422,11.642 44.537,42.441 85.67,82.253l2.254,2.188c-5.746,-0.991 -11.514,-1.991 -17.322,-3.003c-8.065,-1.399 -17.25,-2.974 -26.919,-4.652c-7.888,-9.712 -20.01,-24.734 -32.114,-39.833l-32.803,-40.956l0,0l-2.978,2.051c-27.538,19.425 -45.82,38.493 -51.644,53.401c-6.172,-1.788 -12.264,-3.681 -17.934,-5.633c-7.607,-2.995 -16.525,-5.947 -24.699,-9.917ZM696.202,74.972c0.206,-0.037 0.31,-0.038 0.342,0c0.164,0.196 1.104,6.707 2.05,14.449c3.985,32.606 11.281,64.229 22.699,98.265c8.605,25.647 8.728,24.141 -1.513,21.283c-23.804,-6.643 -130.458,-24.951 -207.61,-35.635c-12.431,-1.721 -22.778,-3.252 -22.943,-3.417c-0.979,-0.98 55.641,-30.644 80.74,-42.322c32.192,-14.978 119.853,-51.475 126.235,-52.623l0,0Z" style="fill:#000;"/><path id="path2851" d="M366.248,223.782c0,0 -5.126,8.128 -0.293,20.21c2.991,7.476 11.971,16.456 21.869,25.969c0,0 103.673,101.129 116.375,115.789c57.441,66.295 82.389,131.562 84.693,221.668c1.479,57.822 -9.673,108.653 -36.757,167.728c-48.545,105.884 -150.83,222.65 -308.803,352.492l23.187,-7.664c14.904,-11.166 35.144,-23.091 82.888,-49.206c109.952,-60.142 233.425,-115.462 385.1,-172.462c218.221,-82.009 577.181,-178.229 781.428,-209.514l21.283,-3.27l-3.27,-5.126c-18.676,-29.028 -31.424,-46.928 -46.765,-65.9c-44.799,-55.4 -99.033,-100.603 -165.482,-137.804c-91.313,-51.121 -209.75,-90.853 -359.473,-120.622c-28.305,-5.627 -90.292,-16.253 -140.733,-24.114c-106.849,-16.651 -175.764,-27.896 -251.885,-41.151c-27.291,-4.735 -68.04,-11.578 -95.091,-17.427c-14.095,-3.047 -40.883,-9.382 -61.702,-16.548c-17.188,-6.768 -41.392,-13.309 -46.569,-33.048l0,0ZM426.339,282.116c0.145,-0.131 4.039,1.073 8.787,2.685c8.749,2.97 20.294,6.447 33.731,10.202c9.413,2.631 19.763,5.391 30.753,8.201c14.027,3.586 25.626,6.667 25.774,6.834c1.553,1.746 25.112,76.933 33.146,105.782c3.066,11.011 5.394,20.185 5.174,20.404c-0.22,0.22 -2.833,-3.834 -5.76,-8.982c-27.255,-47.93 -70.417,-96.671 -120.329,-135.9c-6.221,-4.89 -11.276,-9.041 -11.276,-9.226l0,0ZM541.2,313.845c1.201,-0.082 6.376,0.784 12.546,2.148c39.745,8.79 110.714,22.491 156.354,30.168c7.603,1.279 13.863,2.656 13.863,3.075c0,0.419 -2.841,2.216 -6.297,3.954c-7.658,3.852 -38.643,22.399 -49.01,29.338c-25.881,17.322 -49.149,35.863 -66.095,52.72c-6.81,6.774 -12.509,12.301 -12.692,12.301c-0.183,0 -1.374,-3.947 -2.636,-8.786c-8.472,-32.475 -25.989,-80.429 -41.688,-114.178c-2.527,-5.431 -4.589,-10.221 -4.589,-10.642c0,-0.053 0.072,-0.086 0.244,-0.097l0,-0.001ZM743.245,352.263c1.33,0.443 3.844,8.288 8.298,25.92c8.53,33.763 12.501,71.68 11.179,106.759c-0.368,9.761 -0.985,18.827 -1.367,20.16l-0.732,2.441l-12.057,-3.905c-24.856,-7.945 -65.466,-19.902 -100.266,-29.533c-19.77,-5.472 -35.976,-10.356 -35.976,-10.837c0,-1.445 28.847,-30.286 41.248,-41.249c23.687,-20.94 87.414,-70.509 89.673,-69.756l0,0ZM759.305,354.557c0.719,-0.669 96.55,15.925 140.099,24.261c32.46,6.214 79.422,16.049 82.253,17.232c1.366,0.571 -3.494,3.219 -19.087,10.251c-61.677,27.813 -107.37,52.637 -152.791,83.034c-11.964,8.007 -21.906,14.547 -22.113,14.547c-0.206,0 -0.384,-6.683 -0.39,-14.84c-0.031,-44.294 -8.874,-89.001 -25.091,-126.772c-1.745,-4.065 -3.055,-7.55 -2.88,-7.713ZM1007.09,403.567c0.742,0.742 -2.401,19.64 -5.125,30.802c-8.48,34.743 -30.949,86.309 -58.676,134.778c-4.886,8.541 -9.256,15.662 -9.763,15.816c-0.507,0.155 -6.821,-3.166 -14.01,-7.371c-27.113,-15.858 -57.813,-30.861 -91.528,-44.763c-9.401,-3.877 -17.408,-7.329 -17.817,-7.713c-1.538,-1.442 73.383,-51.046 113.104,-74.882c31.77,-19.065 82.924,-47.558 83.815,-46.667l0,0ZM1024.81,406.35c2.157,0 44.657,11.587 66.632,18.159c54.738,16.371 117.881,39.437 158.844,58.041l17.036,7.712l-12.008,2.783c-100.228,23.025 -186.133,49.595 -268.872,83.18c-6.876,2.791 -12.858,5.077 -13.278,5.077c-0.42,0 1.774,-5.315 4.832,-11.813c24.871,-52.844 40.935,-108.294 45.105,-155.378c0.38,-4.286 1.154,-7.761 1.709,-7.761l0,0ZM602.365,503.442c0.679,-0.67 33.026,6.909 50.67,11.862c26.519,7.446 82.95,26.328 82.985,27.776c0,0.282 -6.219,5.703 -13.814,12.057c-30.509,25.525 -59.938,52.213 -95.189,86.256c-10.451,10.093 -19.331,18.306 -19.77,18.306c-0.439,0 -0.634,-1.474 -0.391,-3.271c5.309,-39.189 4.169,-89.51 -3.222,-140.733c-0.936,-6.493 -1.504,-12.02 -1.269,-12.253l0,0ZM1283.53,504.077c0.485,0.485 -15.008,24.7 -24.652,38.515c-14.071,20.157 -34.467,46.619 -80.935,105.049c-24.408,30.693 -51.94,65.425 -61.214,77.177c-9.274,11.751 -17.057,21.381 -17.28,21.381c-0.224,0 -3.215,-4.209 -6.639,-9.324c-26.195,-39.132 -57.278,-73.507 -94.359,-104.366c-6.92,-5.759 -14.727,-12.074 -17.329,-14.01c-2.603,-1.936 -4.724,-3.726 -4.735,-4.003c-0.025,-0.638 39.577,-17.623 69.805,-29.923c52.623,-21.414 124.546,-47.056 178.369,-63.557c28.383,-8.702 58.538,-17.37 58.969,-16.939ZM1301.39,508.763c0.85,-0.173 6.499,2.561 13.277,6.444c56.687,32.472 112.234,74.171 155.915,117.058c12.425,12.199 42.823,43.819 42.371,44.08c-0.115,0.067 -10.614,0.898 -23.333,1.854c-98.231,7.388 -223.819,28.285 -344.731,57.358c-8.212,1.974 -15.31,3.612 -15.767,3.612c-0.456,0 8.532,-9.022 19.965,-20.014c71.007,-68.264 103.401,-111.368 141.515,-188.376c5.676,-11.47 10.489,-21.364 10.69,-21.967c0.012,-0.038 0.041,-0.038 0.098,-0.049l0,0ZM782.199,561.971c3.244,0.728 33.526,14.819 56.381,26.263c20.901,10.465 52.557,27.319 54.136,28.801c0.198,0.186 -10.953,6.009 -24.798,12.935c-43.831,21.929 -81.374,42.638 -120.573,66.584c-11.178,6.828 -20.547,12.448 -20.844,12.448c-0.977,0 -0.592,-0.846 5.663,-12.302c20.874,-38.23 37.712,-83.876 47.399,-128.48c0.865,-3.982 1.905,-6.413 2.636,-6.249l0,0ZM751.69,567.439c0.632,0.632 -7.226,29.495 -12.204,44.909c-9.547,29.564 -25.689,66.728 -41.2,94.701c-3.642,6.57 -9.231,16.186 -12.399,21.381l-5.76,9.421l-13.082,-12.643c-15.202,-14.737 -27.585,-23.889 -43.396,-32.022c-6.215,-3.197 -11.269,-6.155 -11.277,-6.59c-0.029,-1.923 39.772,-38.118 70.489,-64.094c21.988,-18.594 68.267,-55.625 68.829,-55.063l0,0ZM937.089,643.687l11.374,7.371c26.092,16.941 56.987,39.731 80.544,59.359c13.201,11 38.857,33.974 44.129,39.54l2.831,2.978l-18.891,5.272c-106.848,29.645 -189.396,56.036 -285.714,91.43c-10.689,3.928 -19.919,7.176 -20.551,7.176c-1.329,0 -2.649,1.221 21.381,-20.893c61.607,-56.694 116.029,-119.159 156.696,-179.931l8.201,-12.302l0,0ZM888.371,655.891c0.559,0.558 -31.574,45.562 -50.669,70.977c-22.845,30.406 -63.533,81.234 -91.528,114.324c-11.697,13.825 -21.717,25.297 -22.26,25.482c-0.595,0.202 -0.965,-3.185 -0.976,-8.543c-0.055,-28.234 -7.198,-58.41 -19.819,-83.962c-5.331,-10.792 -6.224,-13.404 -5.126,-14.4c4.393,-3.982 72.358,-42.735 115.204,-65.705c29.43,-15.777 74.615,-38.733 75.174,-38.173l0,0ZM593.725,728.088c0.584,0 6.036,2.739 12.106,6.102c14.875,8.24 28.239,17.307 40.028,27.141c0.455,0.38 -5.65,5.367 -13.57,11.081c-22.109,15.951 -55.774,41.359 -75.273,56.87c-20.572,16.364 -21.254,16.865 -18.94,13.326c15.406,-23.562 23.152,-36.903 31.242,-53.94c7.191,-15.146 14.357,-33.126 19.477,-48.767c2.127,-6.497 4.346,-11.813 4.93,-11.813l0,0ZM672.219,789.693c1.062,-0.132 2.574,1.846 8.885,11.276c13.3,19.873 23.485,46.376 26.116,67.95l0.536,4.638l-31.876,12.35c-57.219,22.204 -109.889,44.091 -145.468,60.384c-9.954,4.558 -27.528,12.954 -39.003,18.696c-11.475,5.741 -20.844,10.254 -20.844,10.007c0,-0.247 7.206,-5.665 16.011,-12.057c69.829,-50.694 130.034,-106.193 175.392,-161.675c4.851,-5.934 9.257,-11.08 9.812,-11.423c0.147,-0.091 0.288,-0.128 0.439,-0.147l0,0.001ZM635.999,798.675c0.923,0.923 -25.765,31.105 -43.738,49.449c-44.987,45.914 -89.585,81.911 -144.834,116.96c-6.913,4.386 -13.229,8.351 -14.059,8.836c-1.516,0.887 0.491,-1.394 24.749,-27.825c15.287,-16.655 26.988,-30.482 40.273,-47.741c8.748,-11.365 10.419,-12.959 23.236,-22.21c34.523,-24.919 113.454,-78.388 114.373,-77.469l0,0Z" style="fill:#000;fill-rule:nonzero;"/></g></svg>