<?xml version="1.0" standalone="no"?><!DOCTYPE svg PUBLIC "-//W3C//DTD SVG 1.1//EN" "http://www.w3.org/Graphics/SVG/1.1/DTD/svg11.dtd"><svg width="100%" height="100%" viewBox="0 0 417 417" version="1.1" xmlns="http://www.w3.org/2000/svg" xmlns:xlink="http://www.w3.org/1999/xlink" xml:space="preserve" style="fill-rule:evenodd;clip-rule:evenodd;stroke-linejoin:round;stroke-miterlimit:1.41421;"><path d="M208.333,19.027c104.481,0 189.307,84.825 189.307,189.306c0,104.481 -84.826,189.307 -189.307,189.307c-104.481,0 -189.306,-84.826 -189.306,-189.307c0,-104.481 84.825,-189.306 189.306,-189.306ZM291.096,89.074c-19.231,0.671 -36.018,11.269 -48.512,25.933c-13.836,16.075 -23.04,35.143 -29.672,54.608c-11.864,-9.724 -21.016,-22.311 -40.048,-27.8c-14.711,-4.223 -30.162,-2.479 -44.371,8.108c-6.731,5.028 -11.369,12.628 -13.573,19.773c-5.711,18.566 6.002,35.091 11.321,41.023l11.631,12.465c2.397,2.444 8.172,8.819 5.349,17.959c-3.051,9.94 -15.032,16.373 -27.322,12.582c-5.488,-1.674 -13.374,-5.763 -11.607,-11.52c0.729,-2.357 2.415,-4.118 3.319,-6.154c0.828,-1.75 1.225,-3.062 1.476,-3.832c2.245,-7.332 -0.823,-16.869 -8.674,-19.289c-7.326,-2.246 -14.821,-0.467 -17.726,8.965c-3.296,10.715 1.831,30.162 29.299,38.631c32.18,9.887 59.402,-7.635 63.263,-30.488c2.432,-14.314 -4.03,-24.948 -15.871,-38.626l-9.648,-10.668c-5.844,-5.839 -7.851,-15.79 -1.802,-23.437c5.104,-6.451 12.371,-9.204 24.276,-5.967c17.377,4.719 25.123,16.776 38.048,26.499c-5.337,17.504 -8.825,35.073 -11.98,50.828l-1.925,11.747c-9.24,48.46 -16.292,75.07 -34.618,90.346c-3.693,2.625 -8.971,6.556 -16.928,6.83c-4.17,0.129 -5.517,-2.741 -5.576,-3.989c-0.099,-2.929 2.368,-4.27 4.007,-5.588c2.45,-1.336 6.154,-3.553 5.903,-10.651c-0.268,-8.388 -7.215,-15.662 -17.259,-15.329c-7.525,0.257 -18.992,7.338 -18.561,20.298c0.45,13.387 12.926,23.419 31.737,22.784c10.056,-0.344 32.513,-4.439 54.643,-30.745c25.758,-30.157 32.962,-64.728 38.38,-90.031l6.049,-33.405c3.36,0.402 6.953,0.671 10.861,0.764c32.081,0.677 48.127,-15.941 48.366,-28.027c0.158,-7.315 -4.8,-14.512 -11.741,-14.349c-4.97,0.14 -11.211,3.447 -12.71,10.318c-1.464,6.743 10.207,12.827 1.085,18.736c-6.481,4.193 -18.1,7.151 -34.461,4.748l2.975,-16.443c6.072,-31.183 13.561,-69.54 41.973,-70.473c2.071,-0.105 9.648,0.093 9.823,5.103c0.052,1.674 -0.362,2.1 -2.322,5.932c-1.995,2.987 -2.747,5.53 -2.654,8.452c0.274,7.962 6.329,13.194 15.084,12.879c11.724,-0.379 15.096,-11.794 14.903,-17.656c-0.472,-13.771 -14.99,-22.474 -34.21,-21.844Z" style="fill:#1a171b;"/></svg>