<?xml version="1.0" standalone="no"?><!DOCTYPE svg PUBLIC "-//W3C//DTD SVG 1.1//EN" "http://www.w3.org/Graphics/SVG/1.1/DTD/svg11.dtd"><svg width="100%" height="100%" viewBox="0 0 2500 2500" version="1.1" xmlns="http://www.w3.org/2000/svg" xmlns:xlink="http://www.w3.org/1999/xlink" xml:space="preserve" style="fill-rule:evenodd;clip-rule:evenodd;stroke-linejoin:round;stroke-miterlimit:1.41421;"><g id="g12"><path id="path14" d="M1382.8,983.755l-265.919,-88.748l0,-384.576l266.244,78.887l-0.325,394.437" style="fill:#000;fill-rule:nonzero;"/><path id="path16" d="M1452.15,589.318l266.245,-78.887l-0.927,384.31l-265.318,89.014l0,-394.437" style="fill:#000;fill-rule:nonzero;"/><path id="path18" d="M1664.16,468.788l-248.14,-76.688l-244.906,76.688l245.26,65.743l247.786,-65.743" style="fill:#000;fill-rule:nonzero;"/><path id="path20" d="M2053.34,983.755l-265.92,-88.748l0,-384.576l266.245,78.887l-0.325,394.437" style="fill:#000;fill-rule:nonzero;"/><path id="path22" d="M2122.69,589.318l266.245,-78.887l-0.927,384.31l-265.318,89.014l0,-394.437" style="fill:#000;fill-rule:nonzero;"/><path id="path24" d="M2334.7,468.788l-248.141,-76.688l-244.906,76.688l245.261,65.743l247.786,-65.743" style="fill:#000;fill-rule:nonzero;"/><path id="path26" d="M377.308,1151.39l-266.245,-78.888l0,384.576l265.922,88.749l0.323,-394.437" style="fill:#000;fill-rule:nonzero;"/><path id="path28" d="M446.335,1151.39l266.245,-78.888l-0.924,384.318l-265.321,89.007l0,-394.437" style="fill:#000;fill-rule:nonzero;"/><path id="path30" d="M658.345,1030.86l-248.142,-76.689l-244.905,76.689l245.264,65.742l247.783,-65.742" style="fill:#000;fill-rule:nonzero;"/><path id="path32" d="M1047.53,1545.83l-265.922,-88.749l0,-384.576l266.245,78.888l-0.323,394.437" style="fill:#000;fill-rule:nonzero;"/><path id="path34" d="M1116.88,1151.39l266.244,-78.888l-0.926,384.318l-265.318,89.007l0,-394.437" style="fill:#000;fill-rule:nonzero;"/><path id="path36" d="M1328.89,1030.86l-248.141,-76.689l-244.905,76.689l245.264,65.742l247.782,-65.742" style="fill:#000;fill-rule:nonzero;"/><path id="path38" d="M712.256,2107.9l-265.921,-88.748l0,-384.576l266.245,78.887l-0.324,394.437" style="fill:#000;fill-rule:nonzero;"/><path id="path40" d="M781.606,1713.46l266.245,-78.887l-0.924,384.318l-265.321,89.006l0,-394.437" style="fill:#000;fill-rule:nonzero;"/><path id="path42" d="M993.616,1592.93l-248.141,-76.688l-244.905,76.688l245.264,65.744l247.782,-65.744" style="fill:#000;fill-rule:nonzero;"/></g></svg>