<?xml version="1.0" encoding="utf-8"?>
<!-- Generator: Adobe Illustrator 16.0.0, SVG Export Plug-In . SVG Version: 6.00 Build 0)  -->
<!DOCTYPE svg PUBLIC "-//W3C//DTD SVG 1.1//EN" "http://www.w3.org/Graphics/SVG/1.1/DTD/svg11.dtd">
<svg version="1.1" id="Layer_1" xmlns="http://www.w3.org/2000/svg" xmlns:xlink="http://www.w3.org/1999/xlink" x="0px" y="0px"
	 width="550px" height="550px" viewBox="0 0 550 550" enable-background="new 0 0 550 550" xml:space="preserve">
<g>
	<path fill-rule="evenodd" clip-rule="evenodd" d="M155.04,544.241c1.086-2.87,1.863-5.84,2.759-8.772
		c4.296-14.054,8.654-28.089,13.125-42.088c4.725-14.798,9.511-29.571,14.503-44.281c2.946-8.68,5.952-17.342,8.978-25.995
		c0.351-1.004,0.18-1.283-0.863-1.456c-5.107-0.847-10.119-0.185-15.107,0.849c-5.694,1.179-11.166,3.083-16.571,5.197
		c-0.409,0.16-0.792,0.434-1.632,0.371c8.712-6.301,17.037-12.649,27.772-14.62c-7.41-2.683-13.61-7.164-19.512-12.518
		c0.709-0.103,1.108,0.133,1.511,0.273c5.159,1.805,10.375,3.373,15.842,3.937c1.926,0.196,3.859,0.241,5.781-0.015
		c1.423-0.188,1.489-0.296,1.313-1.743c-0.468-3.844-1.242-7.622-2.356-11.331c-3.003-9.991-7.808-19.127-13.306-27.928
		c-1.686-2.697-3.482-5.328-5.225-7.99c-0.203-0.31-0.388-0.634-0.467-1.066c8.265,4.939,16.026,10.464,21.997,18.404
		c0.255-2.699,0.501-5.211,0.729-7.725c0.672-7.434,1.721-14.816,3.034-22.158c3.761-21.036,9.238-41.626,16.262-61.802
		c5.484-15.756,11.788-31.182,18.791-46.321c10.81-23.371,22.981-46.022,36.025-68.215c9.97-16.96,20.492-33.569,31.548-49.84
		c11.932-17.558,24.427-34.702,37.848-51.155c5.77-7.074,11.705-14.009,17.979-20.65c4.895-5.182,9.902-10.235,15.448-14.731
		c3.355-2.72,6.903-5.062,11.2-6.023c1.744,0,3.487,0,5.23,0c4.203,0.912,7.895,2.866,11.15,5.626
		c7.308,6.193,12.231,13.858,14.335,23.28c1.338,5.987,1.978,12.046,1.757,18.158c-0.449,12.443-2.951,24.491-7.421,36.12
		c-6.933,18.036-15.889,35.041-26.237,51.332c-2.744,4.319-5.58,8.571-8.94,12.456c-4.449,5.144-9.813,9.105-15.754,12.335
		c-1.962,1.066-3.954,2.074-5.912,3.249c1.769-0.378,3.551-0.702,5.304-1.142c5.857-1.467,11.606-3.241,16.905-6.226
		c0.429-0.241,0.82-0.551,1.255-0.778c0.345-0.181,0.664-0.748,1.046-0.44c0.308,0.247,0.042,0.787-0.042,1.187
		c-1.332,6.373-3.579,12.45-6.147,18.404c-2.535,5.877-5.087,11.755-8.568,17.167c-6.281,9.764-14.942,16.701-25.419,21.502
		c-0.432,0.198-0.928,0.297-1.436,0.89c8.658-1.396,16.238-4.838,23.453-9.367c-3.559,7.488-8.002,14.351-13.685,20.382
		c-5.73,6.081-12.433,10.803-20.063,14.254c1.376,0.03,2.686-0.267,3.99-0.55c4.383-0.954,8.638-2.293,12.67-4.295
		c0.344-0.171,0.752-0.627,1.109-0.275c0.319,0.313-0.018,0.79-0.144,1.172c-3.865,11.657-8.106,23.174-13.089,34.406
		c-5.113,11.523-10.957,22.646-18.113,33.048c-4.996,7.265-10.514,14.108-16.985,20.111c-12.516,11.61-26.681,20.552-42.907,26.07
		c-3.518,1.196-7.124,2.073-10.779,2.719c22.239,3.97,41.156-2.417,57.026-18.513c-0.172,3.353-11.305,19.635-17.132,25.235
		c-7.455,7.164-16.37,12.039-25.648,16.396c4.626,0.3,9.191,0.137,13.645-1.28c4.545-1.448,8.131-4.26,11.253-8.136
		c0.015,0.772-0.266,1.139-0.453,1.524c-6.136,12.662-16.104,21.026-29.145,25.911c-7.217,2.703-14.708,4.117-22.377,4.744
		c-4.614,0.379-9.228,0.447-13.85,0.379c-0.334-0.007-0.682-0.077-1.192,0.227c5.613,5.756,8.879,12.565,9.419,20.882
		c-0.697-0.511-0.895-1.046-1.167-1.513c-2.567-4.393-5.227-8.714-8.956-12.256c-1.103-1.048-2.272-2.037-3.648-2.687
		c-0.954-0.45-1.007-0.97-0.69-1.876c3.259-9.296,6.431-18.623,9.724-27.906c6.485-18.283,13.216-36.476,20.145-54.596
		c8.595-22.474,17.539-44.81,26.895-66.979c6.895-16.337,14.034-32.567,21.42-48.689c8.493-18.537,17.366-36.888,26.675-55.027
		c8.686-16.927,17.787-33.626,27.432-50.029c7.569-12.876,15.494-25.526,23.916-37.863c4.359-6.385,8.861-12.669,13.615-18.769
		c0.231-0.297,0.449-0.605,0.726-0.979c-0.579,0.083-0.71,0.546-0.965,0.848c-14.899,17.648-27.874,36.669-40.023,56.273
		c-10.543,17.016-20.321,34.465-29.622,52.186c-9.898,18.86-19.251,37.987-28.205,57.312c-11.79,25.445-22.872,51.196-33.478,77.156
		c-11.436,27.992-22.276,56.214-32.658,84.613c-7.104,19.429-13.986,38.937-20.663,58.517
		c-9.233,27.075-18.086,54.271-26.428,81.635c-0.641,2.1-1.099,4.268-2.026,6.267c-1.524,3.286-3.885,5.649-7.531,6.502
		C155.04,544.849,155.04,544.545,155.04,544.241z"/>
</g>
</svg>
