<?xml version="1.0" encoding="utf-8"?>
<!-- Generator: Adobe Illustrator 16.0.0, SVG Export Plug-In . SVG Version: 6.00 Build 0)  -->
<!DOCTYPE svg PUBLIC "-//W3C//DTD SVG 1.1//EN" "http://www.w3.org/Graphics/SVG/1.1/DTD/svg11.dtd">
<svg version="1.1" id="Layer_1" xmlns="http://www.w3.org/2000/svg" xmlns:xlink="http://www.w3.org/1999/xlink" x="0px" y="0px"
	 width="300px" height="300px" viewBox="0 0 300 300" enable-background="new 0 0 300 300" xml:space="preserve">
<g>
	<path d="M169.557,160.834c-1.182-0.682-2.403-1.266-3.688-1.723c-3.237-1.153-6.597-1.596-10.014-1.601
		c-10.877-0.018-21.751-0.006-32.626-0.006c-0.174,0-0.348,0.017-0.551,0.026c0,12.563,0,25.093,0,37.693c0.264,0,0.509,0,0.754,0
		c10.374,0,20.747,0,31.122,0.002c2.509,0.002,5.005-0.164,7.478-0.595c2.428-0.42,4.768-1.097,6.964-2.237
		c3.488-1.812,5.924-4.554,7.268-8.248c0.573-1.571,0.854-3.213,0.957-4.879c0.203-3.303,0.026-6.576-0.92-9.774
		C175.186,165.725,172.985,162.805,169.557,160.834z"/>
	<path d="M152.78,136.914c1.47,0,2.934-0.045,4.391-0.241c2.557-0.344,4.989-1.061,7.277-2.271c3.337-1.766,5.586-4.416,6.557-8.083
		c0.885-3.337,0.989-6.718,0.272-10.094c-0.842-3.986-3.14-6.909-6.729-8.818c-1.7-0.907-3.513-1.501-5.401-1.865
		c-2.694-0.52-5.416-0.753-8.16-0.753c-5.921,0.001-11.84,0-17.759,0c-3.309,0-6.618,0-9.927,0.001
		c-0.206,0-0.412,0.014-0.626,0.022c-0.001,10.72-0.001,21.374-0.001,32.101c0.294,0,0.524,0,0.755,0
		C133.213,136.913,142.995,136.913,152.78,136.914z"/>
	<path d="M245,15H55c-22.091,0-40,17.909-40,40v190c0,22.092,17.909,40,40,40h190c22.092,0,40-17.908,40-40V55
		C285,32.909,267.092,15,245,15z M207.309,183.373c-0.78,8.814-4.277,16.354-10.635,22.529c-3.097,3.012-6.696,5.295-10.569,7.164
		c-3.945,1.91-8.104,3.201-12.387,4.104c-4.972,1.048-9.993,1.525-15.074,1.522c-21.805-0.017-43.609-0.006-65.416-0.006
		c-0.229,0-0.459,0-0.739,0c0-45.822,0-91.571,0-137.356c0.202-0.009,0.378-0.024,0.552-0.024
		c21.537-0.001,43.075-0.005,64.611,0.005c3.866,0.001,7.725,0.232,11.558,0.743c3.978,0.528,7.9,1.29,11.688,2.661
		c3.436,1.245,6.664,2.879,9.523,5.175c4.614,3.708,7.595,8.492,9.173,14.169c0.777,2.804,1.153,5.669,1.301,8.571
		c0.093,1.825,0.104,3.647-0.015,5.47c-0.284,4.366-1.235,8.557-3.327,12.437c-1.899,3.52-4.535,6.408-7.666,8.865
		c-2.12,1.662-4.406,3.053-6.812,4.258c-0.207,0.102-0.41,0.21-0.724,0.375c0.322,0.104,0.546,0.18,0.771,0.248
		c3.296,1.013,6.438,2.367,9.369,4.198c5.84,3.65,9.849,8.792,12.35,15.159c1.263,3.215,2.018,6.553,2.386,9.981
		C207.58,176.872,207.597,180.121,207.309,183.373z"/>
</g>
</svg>
