<?xml version="1.0" standalone="no"?><!DOCTYPE svg PUBLIC "-//W3C//DTD SVG 1.1//EN" "http://www.w3.org/Graphics/SVG/1.1/DTD/svg11.dtd"><svg width="100%" height="100%" viewBox="0 0 1250 1250" version="1.1" xmlns="http://www.w3.org/2000/svg" xmlns:xlink="http://www.w3.org/1999/xlink" xml:space="preserve" style="fill-rule:evenodd;clip-rule:evenodd;stroke-linejoin:round;stroke-miterlimit:1.41421;"><path d="M458.42,1185.91c-67.277,-29.074 -130.233,-102.984 -130.38,-178.606c-0.182,-82.449 52.07,-152.447 117.056,-198.45c-7.813,29.516 -12.076,56.515 7.28,82.913c17.995,24.55 49.508,36.479 79.262,30.004c69.533,-15.217 72.719,-91.656 31.501,-136.186c-40.754,-44.099 -80.181,-93.912 -64.669,-157.867c7.768,-32.056 27.453,-62.083 52.388,-83.548c-19.163,50.369 35.3,100.047 71.189,124.79c62.253,42.931 130.55,75.373 187.791,125.697c60.212,52.887 104.674,124.404 95.693,207.34c-9.729,89.899 -81.167,152.424 -161.291,183.993c169.319,-37.375 344.275,-168.787 347.858,-356.578c2.971,-154.488 -103.007,-273.381 -234.294,-341.451l-6.861,-3.742c3.606,8.742 4.786,16.181 4.65,22.837c-0.174,8.508 -7.791,21.091 -7.791,21.091c-26.194,43.442 -97.099,52.876 -132.126,7.893c-56.311,-72.357 1.179,-150.372 9.219,-226.992c10.069,-96.033 -50.154,-189.254 -124.824,-245.044c41.128,66.528 -13.051,154.545 -56.402,203.746c-42.035,47.705 -93.153,87.529 -139.554,130.868c-49.847,46.548 -97.768,95.579 -138.737,150.212c-81.938,109.346 -132.103,246.87 -95.239,383.294c36.842,136.322 154.93,223.102 288.281,253.786Z" style="fill:#000;"/></svg>