<?xml version="1.0" standalone="no"?><!DOCTYPE svg PUBLIC "-//W3C//DTD SVG 1.1//EN" "http://www.w3.org/Graphics/SVG/1.1/DTD/svg11.dtd"><svg width="100%" height="100%" viewBox="0 0 1250 1250" version="1.1" xmlns="http://www.w3.org/2000/svg" xmlns:xlink="http://www.w3.org/1999/xlink" xml:space="preserve" style="fill-rule:evenodd;clip-rule:evenodd;stroke-linejoin:round;stroke-miterlimit:1.41421;"><path d="M708.733,1156.05c-165.508,0 -291.597,-46.029 -378.269,-138.087c-86.671,-92.058 -130.007,-222.799 -130.007,-392.224c0,-84.224 13.221,-159.388 39.663,-225.493c26.443,-66.105 62.678,-121.927 108.707,-167.467c46.029,-45.539 100.872,-80.06 164.529,-103.565c63.656,-23.504 132.7,-35.256 207.129,-35.256c43.091,0 82.265,3.183 117.521,9.549c35.256,6.366 66.105,13.711 92.547,22.035c26.442,8.324 48.477,16.894 66.106,25.708c17.628,8.814 30.359,15.669 38.194,20.566l-66.106,185.094c-31.338,-16.648 -67.819,-30.849 -109.441,-42.601c-41.621,-11.752 -88.874,-17.628 -141.759,-17.628c-35.256,0 -69.777,5.876 -103.565,17.628c-33.787,11.752 -63.656,30.605 -89.609,56.557c-25.952,25.952 -46.763,59.495 -62.433,100.627c-15.669,41.132 -23.504,91.078 -23.504,149.838c0,47.009 5.142,90.834 15.425,131.477c10.283,40.642 26.932,75.653 49.946,105.033c23.014,29.381 53.129,52.64 90.344,69.778c37.215,17.139 82.264,25.708 135.148,25.708c33.298,0 63.168,-1.959 89.61,-5.876c26.442,-3.918 49.946,-8.569 70.512,-13.956c20.566,-5.386 38.684,-11.507 54.353,-18.362c15.67,-6.856 29.87,-13.221 42.601,-19.097l63.168,183.625c-32.318,19.587 -77.858,37.215 -136.618,52.885c-58.76,15.669 -126.824,23.504 -204.192,23.504Z" style="fill:#000;fill-rule:nonzero;"/><path d="M974.186,535.316l58.943,0l16.768,-86.381l66.056,0l-16.768,86.381l37.093,0l0,58.434l-48.272,0l-12.195,62.5l60.467,0l0,58.434l-71.646,0l-16.26,86.381l-66.056,0l16.26,-86.381l-58.942,0l-16.26,86.381l-66.056,0l16.26,-86.381l-36.585,0l0,-58.434l47.764,0l12.195,-62.5l-59.959,0l0,-58.434l71.137,0l16.769,-86.381l66.056,0l-16.769,86.381ZM950.813,656.25l58.942,0l12.195,-62.5l-58.942,0l-12.195,62.5Z" style="fill:#000;fill-rule:nonzero;"/></svg>