<?xml version="1.0" standalone="no"?><!DOCTYPE svg PUBLIC "-//W3C//DTD SVG 1.1//EN" "http://www.w3.org/Graphics/SVG/1.1/DTD/svg11.dtd"><svg width="100%" height="100%" viewBox="0 0 1250 1250" version="1.1" xmlns="http://www.w3.org/2000/svg" xmlns:xlink="http://www.w3.org/1999/xlink" xml:space="preserve" style="fill-rule:evenodd;clip-rule:evenodd;stroke-linejoin:round;stroke-miterlimit:1.41421;"><g id="g8"><path id="path10" d="M712.743,658.155c-18.187,0.253 3.441,9.365 27.185,13.016c6.568,-5.128 12.509,-10.285 17.813,-15.322c-14.787,3.611 -29.837,3.691 -44.998,2.306" style="fill:#000;fill-rule:nonzero;"/><path id="path12" d="M810.359,633.842c10.84,-14.938 18.724,-31.291 21.497,-48.201c-2.429,12.055 -8.957,22.462 -15.141,33.445c-33.986,21.39 -3.198,-12.702 -0.02,-25.658c-36.537,45.986 -5.02,27.57 -6.336,40.414" style="fill:#000;fill-rule:nonzero;"/><path id="path14" d="M846.39,540.15c2.206,-32.728 -6.447,-22.382 -9.352,-9.891c3.39,1.759 6.072,23.069 9.352,9.891" style="fill:#000;fill-rule:nonzero;"/><path id="path20" d="M965.826,552.559c1.083,29.39 -8.592,43.65 -17.337,68.894l-15.717,7.848c-12.854,24.96 1.255,15.858 -7.966,35.711c-20.079,17.84 -60.927,55.817 -73.994,59.296c-9.564,-0.213 6.458,-11.257 8.553,-15.585c-26.882,18.447 -21.578,27.691 -62.689,38.897l-1.195,-2.67c-101.401,47.665 -242.244,-46.796 -240.391,-175.683c-1.083,8.182 -3.077,6.139 -5.324,9.446c-5.233,-66.315 30.646,-132.923 91.159,-160.118c59.197,-29.279 128.576,-17.264 170.983,22.219c-23.289,-30.482 -69.642,-62.795 -124.579,-59.771c-53.813,0.85 -104.154,35.023 -120.955,72.12c-27.569,17.345 -30.767,66.861 -42.781,75.923c-16.173,118.703 30.393,169.978 109.175,230.306c12.388,8.354 3.481,9.618 5.161,15.979c-26.172,-12.247 -50.139,-30.735 -69.844,-53.369c10.455,15.281 21.739,30.159 36.324,41.83c-24.675,-8.354 -57.639,-59.751 -67.264,-61.845c42.538,76.115 172.572,133.469 240.686,105.009c-31.517,1.163 -71.545,0.648 -106.948,-12.429c-14.878,-7.636 -35.099,-23.484 -31.476,-26.447c92.92,34.689 188.927,26.275 269.327,-38.139c20.465,-15.918 42.812,-43.002 49.269,-43.377c-9.726,14.614 1.66,7.029 -5.809,19.924c20.373,-32.849 -8.856,-13.37 21.061,-56.727l11.052,15.211c-4.109,-27.276 33.895,-60.388 30.029,-103.512c8.724,-13.189 9.726,14.189 0.476,44.53c12.833,-33.658 3.39,-39.069 6.679,-66.841c3.563,9.335 8.249,19.256 10.648,29.107c-8.37,-32.525 8.562,-54.775 12.762,-73.677c-4.139,-1.831 -12.904,14.381 -14.898,-24.04c0.284,-16.688 4.646,-8.749 6.316,-12.855c-3.28,-1.881 -11.882,-14.675 -17.115,-39.21c3.785,-5.765 10.141,14.948 15.293,15.797c-3.31,-19.509 -9.028,-34.386 -9.271,-49.354c-15.08,-31.494 -5.334,4.197 -17.57,-13.522c-16.041,-50.032 13.319,-11.61 15.303,-34.345c24.341,35.225 38.206,89.818 44.583,112.432c-4.869,-27.569 -12.712,-54.279 -22.317,-80.12c7.409,3.105 -11.892,-56.727 9.625,-17.102c-22.985,-84.468 -98.325,-163.394 -167.653,-200.43c8.471,7.757 19.189,17.496 15.343,19.023c-34.471,-20.51 -28.419,-22.108 -33.358,-30.775c-28.076,-11.419 -29.918,0.92 -48.52,0.02c-52.932,-28.055 -63.134,-25.072 -111.846,-42.649l2.217,10.346c-35.069,-11.671 -40.869,4.43 -78.761,0.041c-2.308,-1.801 12.135,-6.514 24.037,-8.243c-33.905,4.47 -32.316,-6.675 -65.493,1.234c8.178,-5.734 16.821,-9.527 25.546,-14.402c-27.651,1.679 -66.009,16.081 -54.168,2.984c-45.098,20.105 -125.195,48.332 -170.142,90.445l-1.417,-9.436c-20.596,24.708 -89.813,73.789 -95.329,105.788l-5.506,1.285c-10.718,18.133 -17.651,38.684 -26.152,57.344c-14.018,23.868 -20.546,9.183 -18.552,12.925c-27.569,55.857 -41.263,102.794 -53.094,141.286c8.431,12.592 0.202,75.802 3.39,126.39c-13.845,249.855 175.477,492.439 382.419,548.438c30.332,10.842 75.431,10.427 113.799,11.54c-45.27,-12.946 -51.12,-6.857 -95.207,-22.23c-31.81,-14.968 -38.783,-32.06 -61.312,-51.589l8.916,15.737c-44.188,-15.616 -25.697,-19.338 -61.646,-30.715l9.523,-12.42c-14.321,-1.092 -37.933,-24.121 -44.39,-36.884l-15.667,0.617c-18.825,-23.211 -28.855,-39.938 -28.126,-52.904l-5.061,9.011c-5.738,-9.84 -69.257,-87.047 -36.303,-69.076c-6.123,-5.592 -14.261,-9.102 -23.086,-25.132l6.71,-7.656c-15.859,-20.389 -29.189,-46.522 -28.176,-55.23c8.461,11.418 14.331,13.552 20.14,15.504c-40.048,-99.295 -42.295,-5.471 -72.628,-101.075l6.417,-0.516c-4.919,-7.403 -7.904,-15.443 -11.862,-23.332l2.794,-27.812c-28.814,-33.264 -8.046,-141.6 -3.887,-201.017c2.885,-24.162 24.068,-49.88 40.18,-90.213l-9.817,-1.689c18.764,-32.708 107.14,-131.355 148.069,-126.278c19.827,-24.89 -3.937,-0.091 -7.813,-6.362c43.55,-45.035 57.244,-31.817 86.635,-39.918c31.698,-18.801 -27.205,7.332 -12.176,-7.171c54.795,-13.987 38.834,-31.797 110.318,-38.896c7.54,4.288 -17.499,6.624 -23.784,12.187c45.655,-22.321 144.476,-17.244 208.653,12.389c74.49,34.78 158.159,137.595 161.459,234.331l3.765,1.011c-1.893,38.452 5.89,82.922 -7.611,123.77l9.189,-19.337" style="fill:#000;fill-rule:nonzero;"/><path id="path22" d="M514.231,683.105l-2.55,12.743c11.953,16.212 21.436,33.79 36.698,46.472c-10.981,-21.41 -19.138,-30.26 -34.148,-59.215" style="fill:#000;fill-rule:nonzero;"/><path id="path24" d="M542.489,682.003c-6.326,-6.999 -10.07,-15.413 -14.26,-23.787c4.008,14.735 12.216,27.397 19.857,40.272l-5.597,-16.485" style="fill:#000;fill-rule:nonzero;"/></g></svg>