<?xml version="1.0" standalone="no"?><!DOCTYPE svg PUBLIC "-//W3C//DTD SVG 1.1//EN" "http://www.w3.org/Graphics/SVG/1.1/DTD/svg11.dtd"><svg width="100%" height="100%" viewBox="0 0 1250 1250" version="1.1" xmlns="http://www.w3.org/2000/svg" xmlns:xlink="http://www.w3.org/1999/xlink" xml:space="preserve" style="fill-rule:evenodd;clip-rule:evenodd;stroke-linejoin:round;stroke-miterlimit:1.41421;"><path d="M161.065,813.871l-10.39,0c53.913,-208.733 173.6,-369.914 260.467,-369.914c1.106,0.005 2.211,0.031 3.316,0.079l157.699,0c0.311,-0.003 0.62,-0.004 0.93,-0.004c0.358,-0.001 0.715,0 1.072,0.004l38.516,0.138c-4.462,0 -8.949,0.258 -13.441,0.777l0.049,0.005c4.474,-0.511 8.943,-0.767 13.388,-0.767c100.642,0 113.102,189.044 147.812,293.131l0.051,0.099l0.008,-0.007l0,0.021l0.011,0.023l0.059,-0.107c0,-0.004 0,-0.008 0,-0.012l0.015,-0.013l0.006,-0.012c17.892,-40.521 36.476,-104.105 67.15,-202.183c17.535,-56.159 52.369,-94.091 126.877,-98.592l0.047,-0.1c2.455,-0.157 4.943,-0.243 7.502,-0.366l47.384,0l-0.037,0.015l29.82,-0.015l-0.001,0.002c0.007,0 0.015,0 0.023,0l0.001,-0.002l0.103,0c0.001,0 0.001,0 0.002,0c0.002,0 0.004,0 0.006,0l9.305,0l-0.019,-0.041l50.529,0c-125.755,224.64 -202.889,361.765 -278.322,367.901c-1.698,0.286 -4.562,0.342 -6.559,0.341c0.165,0.006 0.331,0.01 0.497,0.013l0.739,0.007l-29.238,0.119l-0.022,-0.146l-2.328,0c-0.017,-0.003 -0.035,-0.006 -0.052,-0.009l0,0c0.015,0.005 0.032,0.009 0.052,0.013l-68.962,0c-2.364,0.187 -7.603,0.087 -10.929,-0.004l-76.929,0c-99.976,0 -112.928,-186.507 -147.114,-291.056l-0.001,0l0.001,0.004c-23.193,23.006 -46.511,51.224 -69.904,83.869c-0.996,1.886 -2.353,4.515 -3.807,7.503c-9.643,30.361 -20.61,66.247 -33.844,108.508c-17.779,56.902 -53.188,96.534 -129.637,100.389c-0.126,0.014 -0.249,0.023 -0.377,0.023l-0.094,0l-0.566,0.027c-0.278,0.035 -0.56,0.092 -0.85,0.093l-0.187,0c-0.991,0.078 -1.962,0.078 -2.91,0.197l-13.321,0c-13.744,0 -17.118,0.124 -29.06,0.124l-3.611,0c-0.321,0.036 -0.737,0.04 -1.232,-0.053l-29.701,0l0.014,-0.025l-0.005,0l-0.001,0.003ZM630.554,804.219c-1.096,0.031 -2.19,0.046 -3.282,0.046c1.092,0 2.186,-0.015 3.282,-0.046ZM630.592,804.218l-0.015,0l0.001,0l0.014,0ZM481.407,511.979c-0.418,0.408 -0.835,0.816 -1.251,1.225l0.001,0.003c0.415,-0.41 0.832,-0.819 1.25,-1.228ZM574.147,444.036c0.03,0.001 0.268,0.003 0.012,0l-0.012,0l0,0Z" style="fill:#000;"/></svg>