<?xml version="1.0" standalone="no"?><!DOCTYPE svg PUBLIC "-//W3C//DTD SVG 1.1//EN" "http://www.w3.org/Graphics/SVG/1.1/DTD/svg11.dtd"><svg width="100%" height="100%" viewBox="0 0 1250 1250" version="1.1" xmlns="http://www.w3.org/2000/svg" xmlns:xlink="http://www.w3.org/1999/xlink" xml:space="preserve" style="fill-rule:evenodd;clip-rule:evenodd;stroke-linejoin:round;stroke-miterlimit:1.41421;"><g><path d="M67.746,716.498l0,-125.672l156.905,0l0,-7.349l-156.905,0l0,-114.648l166.827,0l0,-7.349l-174.177,0l0,262.367l175.647,0l0,-7.349l-168.297,0Z" style="fill:#000;fill-rule:nonzero;"/><path d="M377.515,534.972l-65.04,85.618l-63.571,-85.618l-9.554,0l68.715,91.13l-75.329,97.745l8.819,0l70.92,-92.233l71.287,92.233l9.186,0l-75.696,-97.745l69.082,-91.13l-8.819,0Z" style="fill:#000;fill-rule:nonzero;"/><path d="M414.996,788.52l0,-117.587l0.735,0c4.41,17.148 13.106,30.928 26.09,41.339c12.983,10.411 29.519,15.617 49.607,15.617c12.984,0 24.497,-2.633 34.541,-7.9c10.044,-5.267 18.435,-12.433 25.171,-21.497c6.737,-9.064 11.882,-19.598 15.434,-31.601c3.552,-12.004 5.328,-24.62 5.328,-37.849c0,-14.208 -1.837,-27.315 -5.512,-39.318c-3.675,-12.004 -9.003,-22.415 -15.985,-31.234c-6.981,-8.819 -15.433,-15.679 -25.354,-20.578c-9.922,-4.9 -21.129,-7.349 -33.623,-7.349c-9.554,0 -18.434,1.408 -26.641,4.225c-8.207,2.818 -15.495,6.798 -21.864,11.943c-6.369,5.144 -11.881,11.207 -16.536,18.189c-4.654,6.982 -8.206,14.637 -10.656,22.966l-0.735,0l0,-52.914l-7.349,0l0,253.548l7.349,0ZM491.428,720.907c-23.028,0 -41.523,-7.9 -55.487,-23.701c-13.963,-15.801 -20.945,-38.522 -20.945,-68.164c0,-12.249 1.715,-23.885 5.145,-34.909c3.429,-11.024 8.39,-20.7 14.882,-29.029c6.492,-8.329 14.514,-14.944 24.068,-19.843c9.554,-4.899 20.333,-7.349 32.337,-7.349c12.249,0 22.966,2.45 32.153,7.349c9.186,4.899 16.781,11.575 22.782,20.027c6.002,8.451 10.534,18.128 13.596,29.029c3.063,10.901 4.594,22.476 4.594,34.725c0,11.024 -1.409,21.986 -4.226,32.888c-2.817,10.901 -7.166,20.7 -13.045,29.397c-5.879,8.696 -13.412,15.8 -22.599,21.312c-9.186,5.512 -20.271,8.268 -33.255,8.268Z" style="fill:#000;fill-rule:nonzero;"/><path d="M612.323,723.847l0,-106.931c0,-10.289 1.469,-20.333 4.409,-30.132c2.94,-9.799 7.472,-18.434 13.596,-25.906c6.125,-7.472 13.902,-13.351 23.334,-17.638c9.431,-4.287 20.639,-6.063 33.623,-5.328l0,-7.349c-11.269,-0.245 -21.129,0.979 -29.581,3.674c-8.452,2.695 -15.74,6.369 -21.864,11.024c-6.124,4.655 -11.024,10.105 -14.698,16.352c-3.675,6.247 -6.37,12.922 -8.084,20.027l-0.735,0l0,-46.668l-7.35,0l0,188.875l7.35,0Z" style="fill:#000;fill-rule:nonzero;"/><path d="M696.471,630.879l158.008,0c0.49,-12.983 -0.796,-25.477 -3.858,-37.481c-3.062,-12.003 -7.962,-22.66 -14.698,-31.969c-6.737,-9.309 -15.434,-16.78 -26.09,-22.415c-10.657,-5.634 -23.334,-8.451 -38.032,-8.451c-10.534,0 -20.823,2.204 -30.867,6.614c-10.044,4.409 -18.863,10.84 -26.457,19.292c-7.594,8.451 -13.719,18.801 -18.373,31.05c-4.655,12.249 -6.982,26.212 -6.982,41.891c0,13.963 1.592,27.008 4.777,39.134c3.185,12.126 8.084,22.66 14.698,31.602c6.615,8.941 15.127,15.862 25.539,20.761c10.411,4.9 22.966,7.227 37.665,6.982c21.557,0 39.685,-6.063 54.384,-18.189c14.698,-12.126 23.395,-29.213 26.09,-51.261l-7.35,0c-3.184,20.823 -11.33,36.44 -24.436,46.851c-13.106,10.412 -29.58,15.617 -49.423,15.617c-13.474,0 -24.865,-2.327 -34.174,-6.981c-9.309,-4.655 -16.903,-11.024 -22.783,-19.108c-5.879,-8.085 -10.227,-17.577 -13.045,-28.479c-2.817,-10.901 -4.348,-22.721 -4.593,-35.46ZM847.13,623.53l-150.659,0c0.735,-13.228 3.185,-25.11 7.349,-35.644c4.165,-10.533 9.616,-19.536 16.352,-27.008c6.737,-7.472 14.576,-13.167 23.518,-17.087c8.941,-3.919 18.557,-5.879 28.846,-5.879c12.248,0 23.027,2.266 32.336,6.798c9.309,4.532 17.087,10.717 23.334,18.557c6.247,7.839 10.962,16.964 14.147,27.375c3.185,10.412 4.777,21.374 4.777,32.888Z" style="fill:#000;fill-rule:nonzero;"/><path d="M1006.98,590.826l7.349,0c0,-21.068 -6.125,-36.378 -18.373,-45.932c-12.249,-9.554 -28.907,-14.331 -49.975,-14.331c-11.759,0 -21.68,1.469 -29.764,4.409c-8.084,2.94 -14.699,6.737 -19.843,11.391c-5.145,4.655 -8.819,9.799 -11.024,15.434c-2.205,5.634 -3.307,11.024 -3.307,16.168c0,10.289 1.837,18.496 5.512,24.62c3.674,6.124 9.431,10.901 17.27,14.331c5.39,2.45 11.514,4.654 18.373,6.614c6.86,1.96 14.821,4.042 23.885,6.247c8.085,1.96 16.046,3.92 23.885,5.879c7.84,1.96 14.76,4.594 20.762,7.901c6.002,3.307 10.901,7.533 14.698,12.677c3.797,5.145 5.696,11.881 5.696,20.211c0,8.084 -1.899,14.943 -5.696,20.577c-3.797,5.635 -8.635,10.228 -14.514,13.78c-5.88,3.552 -12.433,6.124 -19.66,7.717c-7.226,1.592 -14.269,2.388 -21.129,2.388c-22.292,0 -39.379,-4.96 -51.26,-14.882c-11.882,-9.921 -17.822,-25.538 -17.822,-46.851l-7.349,0c0,23.762 6.43,41.155 19.291,52.179c12.861,11.024 31.908,16.536 57.14,16.536c8.085,0 16.23,-0.919 24.437,-2.756c8.206,-1.837 15.555,-4.838 22.047,-9.003c6.492,-4.164 11.759,-9.554 15.801,-16.168c4.042,-6.614 6.063,-14.698 6.063,-24.252c0,-9.064 -1.776,-16.414 -5.328,-22.048c-3.552,-5.634 -8.207,-10.289 -13.963,-13.964c-5.757,-3.674 -12.249,-6.553 -19.476,-8.635c-7.227,-2.082 -14.515,-4.103 -21.864,-6.063c-10.289,-2.695 -19.292,-5.022 -27.008,-6.982c-7.717,-1.96 -14.882,-4.287 -21.497,-6.982c-6.369,-2.694 -11.452,-6.553 -15.249,-11.575c-3.797,-5.021 -5.696,-12.187 -5.696,-21.496c0,-1.715 0.49,-4.777 1.47,-9.187c0.98,-4.409 3.307,-8.88 6.982,-13.412c3.674,-4.532 9.309,-8.574 16.903,-12.126c7.594,-3.552 18.005,-5.328 31.234,-5.328c9.064,0 17.332,0.98 24.804,2.939c7.471,1.96 13.902,5.084 19.291,9.371c5.39,4.287 9.554,9.737 12.494,16.352c2.94,6.614 4.41,14.698 4.41,24.252Z" style="fill:#000;fill-rule:nonzero;"/><path d="M1177.11,590.826l7.349,0c0,-21.068 -6.124,-36.378 -18.373,-45.932c-12.249,-9.554 -28.907,-14.331 -49.975,-14.331c-11.758,0 -21.68,1.469 -29.764,4.409c-8.084,2.94 -14.698,6.737 -19.843,11.391c-5.144,4.655 -8.819,9.799 -11.024,15.434c-2.204,5.634 -3.307,11.024 -3.307,16.168c0,10.289 1.838,18.496 5.512,24.62c3.675,6.124 9.432,10.901 17.271,14.331c5.389,2.45 11.514,4.654 18.373,6.614c6.859,1.96 14.821,4.042 23.885,6.247c8.084,1.96 16.046,3.92 23.885,5.879c7.839,1.96 14.759,4.594 20.761,7.901c6.002,3.307 10.902,7.533 14.699,12.677c3.797,5.145 5.695,11.881 5.695,20.211c0,8.084 -1.898,14.943 -5.695,20.577c-3.797,5.635 -8.636,10.228 -14.515,13.78c-5.879,3.552 -12.432,6.124 -19.659,7.717c-7.227,1.592 -14.27,2.388 -21.129,2.388c-22.293,0 -39.38,-4.96 -51.261,-14.882c-11.881,-9.921 -17.822,-25.538 -17.822,-46.851l-7.349,0c0,23.762 6.431,41.155 19.292,52.179c12.861,11.024 31.908,16.536 57.14,16.536c8.084,0 16.229,-0.919 24.436,-2.756c8.207,-1.837 15.556,-4.838 22.048,-9.003c6.491,-4.164 11.758,-9.554 15.8,-16.168c4.043,-6.614 6.064,-14.698 6.064,-24.252c0,-9.064 -1.776,-16.414 -5.329,-22.048c-3.552,-5.634 -8.206,-10.289 -13.963,-13.964c-5.757,-3.674 -12.249,-6.553 -19.476,-8.635c-7.226,-2.082 -14.514,-4.103 -21.863,-6.063c-10.289,-2.695 -19.292,-5.022 -27.009,-6.982c-7.717,-1.96 -14.882,-4.287 -21.496,-6.982c-6.37,-2.694 -11.453,-6.553 -15.25,-11.575c-3.797,-5.021 -5.696,-12.187 -5.696,-21.496c0,-1.715 0.49,-4.777 1.47,-9.187c0.98,-4.409 3.307,-8.88 6.982,-13.412c3.675,-4.532 9.309,-8.574 16.903,-12.126c7.594,-3.552 18.006,-5.328 31.234,-5.328c9.064,0 17.332,0.98 24.804,2.939c7.472,1.96 13.902,5.084 19.292,9.371c5.389,4.287 9.554,9.737 12.493,16.352c2.94,6.614 4.41,14.698 4.41,24.252Z" style="fill:#000;fill-rule:nonzero;"/></g></svg>