<?xml version="1.0" encoding="utf-8"?>
<!-- Generator: Adobe Illustrator 16.0.0, SVG Export Plug-In . SVG Version: 6.00 Build 0)  -->
<!DOCTYPE svg PUBLIC "-//W3C//DTD SVG 1.1//EN" "http://www.w3.org/Graphics/SVG/1.1/DTD/svg11.dtd">
<svg version="1.1" id="Layer_1" xmlns="http://www.w3.org/2000/svg" xmlns:xlink="http://www.w3.org/1999/xlink" x="0px" y="0px"
	 width="530px" height="530px" viewBox="0 0 530 530" enable-background="new 0 0 530 530" xml:space="preserve">
<g>
	<path fill="none" d="M29.256,264.999c0-91.164,0.006-182.329-0.047-273.494c-0.001-1.874,0.422-2.297,2.296-2.296
		c155.664,0.051,311.326,0.051,466.989,0c1.876-0.001,2.298,0.422,2.297,2.296c-0.05,182.33-0.05,364.658,0,546.988
		c0.001,1.875-0.421,2.298-2.297,2.298c-155.663-0.051-311.325-0.051-466.989-0.001c-1.874,0.001-2.297-0.422-2.296-2.297
		C29.262,447.329,29.256,356.163,29.256,264.999z M368.773,270.592c-0.18-0.139-0.36-0.277-0.541-0.416
		c0.204-0.794,0.391-1.595,0.615-2.383c0.374-1.312,0.1-2.046-1.414-1.494c-5.646,2.057-11.025,0.436-16.374-1.214
		c-2.905-0.896-5.737-2.029-8.636-3.067c-0.253,1.016,0.345,1.468,0.688,1.993c9.775,14.995,15.022,31.487,16.074,49.302
		c0.928,15.718-1.76,30.815-7.854,45.384c-2.524,6.033-6.106,10.977-11.263,14.937c-10.382,7.967-22,11.521-35.057,10.157
		c-2.142-0.224-4.269-0.57-6.403-0.859c0.757,0.887,1.633,1.33,2.504,1.78c11.259,5.808,22.273,12.037,32.84,19.036
		c3.026,2.005,3.037,2.051,5.18-0.847c10.764-14.554,17.345-30.851,20.118-48.699c0.304-1.955,1.051-3.116,3.008-3.762
		c7.823-2.576,15.644-4.795,23.919-2.067c1.085,0.357,1.48-0.15,1.004-1.139c-0.563-1.171-1.264-2.273-2.163-3.862
		c3.487,1.744,6.462,3.353,9.534,4.746c8.416,3.819,17.188,6.323,26.485,6.577c1.695,0.046,4.335,0.816,4.891-0.512
		c0.663-1.587-1.902-2.47-3.088-3.649c-0.43-0.429-1.637-0.904-0.643-1.707c1.256-1.014,0.152-1.315-0.342-1.862
		c-1.397-1.538-2.88-3.021-3.701-4.98c-0.642-1.533-0.418-2.573,1.541-2.74c3.396-0.291,6.81-0.514,10.173-1.045
		c7.452-1.178,15.065-1.482,22.294-3.939c2.806-0.954,5.576-1.976,7.845-4.003c-5.881,1.345-11.881,1.222-17.93,2.137
		c1.038,0.879,2.465,0.734,3.171,2.456c-8.438,0.526-16.604,1.333-24.495-1.986c-0.676-0.285-1.294-0.771-1.847-1.268
		c-2-1.79-1.909-2.933,0.291-4.488c2.168-1.534,4.334-3.07,6.094-5.37c-2.131-0.098-2.051-0.94-0.743-1.938
		c2.118-1.612,4.259-3.209,6.484-4.669c8.495-5.566,17.993-9.005,27.348-12.742c1.105-0.442,2.391-1.727,3.088,0.574
		c0.187,0.616,0.865,0.369,1.236-0.003c1.345-1.353,2.971-2.471,4.153-4.669c-6.188,2.344-12.201,3.232-18.165,4.345
		c-0.732,0.138-1.61,0.179-1.969,0.92c-2.13,4.421-6.158,1.96-9.337,3.116c0.081-1.503,1.9-1.881,1.191-2.961
		c-0.578-0.88-1.887-0.521-2.823-0.37c-3.583,0.581-7.131-0.252-10.702-0.177c-1.47,0.032-2.976-0.364-4.422-0.733
		c-2.858-0.732-3.149-1.522-1.676-4.002c0.992-1.668,2.284-3.073,3.771-4.301c4.183-3.456,8.7-6.435,13.294-9.304
		c1.745-1.091,3.438-2.261,5.076-3.345c-0.284-1.06-1.395-0.398-1.647-1.372c1.069-0.524,2.177-1.041,3.259-1.606
		c2.368-1.235,4.696-2.553,6.533-4.539c2.207-2.387,1.852-4.77-0.907-6.397c-2.04-1.206-4.169-2.048-6.623-1.838
		c-1.86,0.158-3.733,0.183-5.601,0.267c4.907-2.882,9.965-5.303,15.605-6.232c1.052-0.172,2.162-0.305,1.822-1.729
		c-0.368-1.535-1.556-0.926-2.437-0.612c-2.354,0.836-4.69,1.723-7,2.675c-4.311,1.775-8.523,3.818-13.11,4.827
		c-2.309,0.508-3.002-0.181-2.406-2.479c0.856-3.304,1.93-6.551,2.782-9.855c0.844-3.272,0.771-3.287,3.4-1.079
		c0.425,0.355,0.788,0.986,1.471,0.655c0.528-0.256,0.446-0.851,0.459-1.335c0.235-9.004-1.407-17.561-6.015-25.423
		c-0.397-0.68-1.383-1.339-0.847-2.162c0.45-0.692,1.398-0.081,2.118-0.045c2.558,0.129,2.831-0.274,1.698-2.617
		c-1.706-3.528-4.263-6.385-7.338-8.715c-8.045-6.096-17.485-6.271-26.973-6.076c-1.41,0.029-0.844,0.828-0.4,1.488
		c5.199,7.713,5.79,16.301,4.666,25.171c-0.143,1.123,0.266,2.962-1.125,3.234c-1.237,0.243-1.357-1.648-2.116-2.477
		c-0.097-0.107-0.279-0.134-0.501-0.232C392.562,248.072,384.252,262.349,368.773,270.592z M213.193,476.559
		c4.549-0.484,8.962-1.258,13.215-2.801c0.679-0.246,1.665-0.326,1.772-1.173c0.119-0.922-0.909-1.054-1.521-1.405
		c-7.879-4.522-15.639-9.223-22.801-14.852c-0.748-0.589-1.329-1.503-2.744-1.68c0.302,2.86,0.592,5.61,0.91,8.611
		c-0.605-0.249-1-0.351-1.33-0.558c-6.156-3.83-12.131-7.928-18.081-12.069c-1.216-0.847-1.106-1.912-0.888-3.095
		c0.996-5.417,1.508-10.945,1.385-16.384c-0.239-10.557-3.645-20.027-11.353-27.718c-4.771-4.763-10.688-7.93-15.881-12.089
		c-2.776-2.223-5.059-4.812-6.578-8.042c-0.21-0.448-0.507-0.959-0.172-1.41c0.375-0.506,0.92-0.213,1.369-0.034
		c2.715,1.089,5.561,0.92,8.39,0.877c0.634-0.011,1.465,0.213,1.789-0.535c0.326-0.753-0.472-1.151-0.84-1.667
		c-6.756-9.483-11.562-19.825-13.83-31.291c-0.239-1.207-0.4-2.413-0.005-3.904c1.266,1.416,2.321,2.66,3.45,3.834
		c0.616,0.64,1.247,1.72,2.192,1.399c1.076-0.363,0.568-1.601,0.583-2.452c0.064-3.663-0.209-7.354,0.117-10.991
		c1.335-14.889,4.417-29.461,8.318-43.87c0.187-0.69,0.69-1.354,0.192-2.455c-1.117,2.046-2.156,3.89-3.14,5.763
		c-5.581,10.629-11.252,21.229-12.962,33.356c-0.313,2.223-1.339,2.071-2.572,0.862c-1.391-1.363-2.61-2.902-3.998-4.471
		c-0.191,0.417-0.361,0.625-0.376,0.843c-0.682,9.974-0.927,19.952,0.018,29.922c1.716,18.13,7.991,34.218,20.884,47.503
		c3.569,3.678,6.611,7.89,8.701,12.72c2.953,6.817,3.197,14.101,3.756,21.283c0.586,7.541,0.69,15.119,1.573,22.646
		c0.67,5.711,0.618,5.752-5.203,4.872c-4.124-0.622-8.223-1.406-12.003-3.275c-0.602-0.298-2.331-0.779-0.483-1.675
		c2.209-1.072,0.949-1.524-0.189-2.106c-2.327-1.192-4.341-2.691-5.864-4.903c-2.515-3.654-3.049-7.863-3.733-12.053
		c-0.161-0.985-0.242-2.165-1.368-2.467c-1.209-0.326-1.985,0.645-2.687,1.474c-0.73,0.86-0.963,1.907-1.003,3.022
		c-0.091,2.474,0.604,4.775,1.491,7.037c3.133,7.993,7.443,15.458,10.512,23.483c2.241,5.862,4.014,11.812,4.39,18.129
		c0.211,3.554-0.93,4.56-4.194,3.394c-0.626-0.225-1.234-0.504-1.835-0.791c-3.835-1.836-7.596-3.804-11.132-6.184
		c-0.925-0.622-2.01-1.42-1.94,0.803c0.044,1.404-0.941,0.918-1.511,0.475c-4.156-3.223-8.239-6.496-10.313-11.609
		c-0.938-2.312-1.434-4.846-2.932-6.972c-0.719,0.559-0.319,1.641-1.161,1.732c-0.859,0.094-0.951-0.782-1.219-1.353
		c-2.052-4.398-3.642-8.947-4.396-13.759c-0.181-1.151-0.299-2.312-0.445-3.468c-1.793,5.033-0.595,9.906,0.223,14.782
		c0.337,2.01,0.419,1.997,2.188,0.545c1.713,5.622,4.609,10.613,8.288,15.009c4.687,5.602,6.321,12.368,8.304,19.054
		c0.563,1.902-0.059,2.725-2.119,2.102c-2.709-0.821-5.432-1.6-8.155-2.372c-0.526-0.149-1.169-0.539-1.572,0.129
		c-0.291,0.484,0.077,0.982,0.368,1.371c1.193,1.6,2.458,3.147,3.626,4.765c1.412,1.952,2.807,2.229,4.591,0.377
		c1.477-1.533,2.712-1.519,4.136,0.513c3.788,5.403,9.027,8.184,15.779,7.953c5.656-0.192,11.32-0.268,16.975-0.372
		c14.234-0.265,28.463-0.597,42.694-1.028c9.986-0.301,19.95-1.024,29.94-1.186c3.571-0.06,7.147-0.369,10.7-0.75
		c3.539-0.38,3.6-0.638,2.139-3.957c-4.061-9.223-10.431-16.586-18.328-22.7C228.536,484.04,221.083,480.004,213.193,476.559z
		 M313.03,503.853c-0.1,0.21-0.199,0.418-0.299,0.627c1.739,1.385,3.471,2.774,5.216,4.15c6.417,5.061,13.522,7.84,21.887,7.7
		c13.907-0.233,27.821-0.081,41.733,0.009c2.087,0.013,3.365-0.716,4.481-2.438c5.354-8.268,9.801-17.032,14.239-25.798
		c5.041-9.956,10.044-19.933,15.41-29.721c0.646-1.178,2.362-2.61,1.389-3.623c-0.917-0.954-2.525,0.605-3.725,1.221
		c-4.335,2.224-8.607,4.567-13.149,6.996c0.119-0.597,0.131-0.921,0.247-1.204c0.444-1.077,0.875-2.165,1.395-3.206
		c6.237-12.489,13.958-24.081,22.223-35.26c9.291-12.567,16.15-26.187,20.105-41.284c0.204-0.776,0.687-1.598,0.163-2.836
		c-6.773,13.982-17.062,24.489-28.991,34.414c0.297-3.486,0.536-6.288,0.774-9.091c0.049-0.575,0.247-1.288-0.283-1.637
		c-0.751-0.497-1.185,0.297-1.657,0.702c-9.429,8.097-18.076,16.967-26.149,26.408c-0.408,0.477-0.738,1.346-1.514,1.009
		c-0.641-0.278-0.63-1.132-0.678-1.788c-0.206-2.819-0.369-5.643-0.574-8.464c-0.051-0.71,0.255-1.663-0.625-1.982
		c-0.709-0.258-1.149,0.516-1.632,0.946c-2.486,2.213-5.04,4.357-7.427,6.673c-6.623,6.425-13.973,12.287-18.512,20.495
		c-4.27,7.717-7.957,15.757-11.863,23.673c-1.693,3.432-3.291,6.908-4.933,10.363c-0.407-6.324-0.599-12.475-1.335-18.613
		c-0.344,0.699-0.571,1.4-0.707,2.12c-1.497,7.945-3.381,15.802-5.494,23.599c-1.196,4.416-2.507,8.812-4.605,12.923
		c-0.757,1.482-1.882,2.397-3.393,3.125C320.812,505.953,316.949,506.277,313.03,503.853z M299.7,216.518c-0.015,0-0.031,0-0.046,0
		c0,0.667-0.003,1.333,0,1.999c0.022,10.929,2.85,14.613,13.593,16.979c8.733,1.923,17.627,2.516,26.561,2.29
		c6.807-0.173,12.069-2.817,14.776-9.482c0.75-1.846,1.867-3.542,2.648-5.378c0.826-1.945,2.009-3.388,4.063-4.109
		c1.587-0.559,2.571-1.759,3.086-3.377c0.504-1.587,1.153-3.129,1.626-4.724c0.868-2.933,0.203-4.104-2.753-5.016
		c-5.342-1.645-10.797-2.813-16.286-3.823c-11.665-2.143-23.381-3.415-35.271-2.321c-6.88,0.634-13.756,1.095-20.533-1.133
		c-3.869-1.271-7.879-2.121-11.842-3.093c-22.523-5.522-45.16-10.26-68.544-9.634c-1.623,0.044-2.615-0.797-3.618-1.851
		c-6.892-7.238-13.798-14.464-20.708-21.685c-0.69-0.721-1.429-1.398-2.174-2.064c-1.247-1.117-2.047-1.287-2.298,0.821
		c-0.532,4.469-1.281,8.908-2.963,13.12c-0.496,1.242-0.009,2.031,0.89,2.815c3.327,2.901,6.55,5.925,9.947,8.741
		c6.337,5.255,12.017,11.306,19.042,15.733c2.025,1.276,2.652,3.31,2.748,5.587c0.126,2.994,0.372,5.984,0.424,8.979
		c0.072,4.205,2.062,6.896,6.041,8.176c16.146,5.191,32.562,8.206,49.639,6.757c6.915-0.588,12.222-3.404,15.883-9.323
		c2.146-3.472,4.348-6.909,6.58-10.326c1.626-2.489,3.851-2.927,7.781-1.778c2.523,0.737,1.507,2.786,1.692,4.373
		C299.787,214.675,299.7,215.602,299.7,216.518z M295.082,277.771c5.291,0.096,9.445-0.164,13.605-0.341
		c6.508-0.276,6.529-0.199,3.45-6.069c-1.507-2.872-3.381-5.551-4.432-8.662c-0.812-2.4-0.49-4.219,1.818-5.794
		c3.574-2.438,6.933-5.192,10.363-7.837c1.988-1.532,1.953-2.003-0.261-3.284c-1.815-1.049-3.782-1.729-5.821-2.207
		c-8.078-1.897-16.313-2.258-24.558-2.384c-9.245-0.142-18.484,0.176-27.729,0.354c-11.069,0.213-22.156,0.543-33.221-0.315
		c-1.871-0.145-2.53,0.46-2.249,2.425c0.633,4.41,2.346,8.308,5.073,11.79c5.083,6.49,11.907,10.579,19.295,13.835
		C265.005,275.707,280.328,278.275,295.082,277.771z M216.54,103.706c3.362,0.624,6.595,0.012,9.78-0.792
		c14.409-3.632,24.513-12.235,29.891-26.176c1.374-3.562,1.132-4.18-1.895-6.188c-5.572-3.697-10.769-7.815-15.119-12.946
		c-8.908-10.508-14.017-22.712-16.302-36.196c-0.09-0.532,0.18-1.309-0.548-1.507c-0.679-0.185-0.988,0.505-1.317,0.952
		c-9.024,12.26-13.228,25.913-10.97,41.082c1.922,12.905,8.74,23.396,17.636,32.648c2.205,2.294,2.238,2.443-0.673,3.943
		C223.559,100.313,220.037,101.985,216.54,103.706z M460.812,85.302c-0.595,0.042-0.783,0.003-0.914,0.073
		c-0.44,0.234-0.871,0.489-1.283,0.769c-11.014,7.438-22.839,11.934-36.421,10.026c-1.91-0.269-3.071,0.557-4.069,2.152
		c-5.435,8.685-10.804,17.409-15.861,26.319c-2.672,4.707-2.63,4.73,2.566,5.421c0.164,0.022,0.329,0.066,0.493,0.078
		c11.763,0.793,22.745-1.329,32.225-8.812c6.165-4.866,10.815-11.05,14.862-17.703C455.874,97.932,458.78,91.973,460.812,85.302z
		 M104.868,492.681c-1.948-4.192-3.793-7.639-4.723-11.443c-0.097-0.395-0.384-1.007-0.76-0.834
		c-2.005,0.921-1.747-0.81-2.002-1.722c-0.694-2.48-1.32-4.983-1.869-7.501c-0.44-2.015-0.728-4.063-1.208-6.81
		C92.535,474.066,96.024,487.567,104.868,492.681z"/>
	<path fill-rule="evenodd" clip-rule="evenodd" d="M368.773,270.592c15.479-8.243,23.788-22.52,31.093-37.619
		c0.222,0.099,0.404,0.125,0.501,0.232c0.759,0.828,0.879,2.72,2.116,2.477c1.391-0.272,0.982-2.111,1.125-3.234
		c1.124-8.87,0.533-17.458-4.666-25.171c-0.443-0.66-1.01-1.459,0.4-1.488c9.487-0.194,18.928-0.02,26.973,6.076
		c3.075,2.33,5.632,5.187,7.338,8.715c1.133,2.343,0.859,2.746-1.698,2.617c-0.72-0.036-1.668-0.647-2.118,0.045
		c-0.536,0.823,0.449,1.482,0.847,2.162c4.607,7.862,6.25,16.419,6.015,25.423c-0.013,0.484,0.069,1.079-0.459,1.335
		c-0.683,0.331-1.046-0.3-1.471-0.655c-2.629-2.208-2.557-2.193-3.4,1.079c-0.853,3.305-1.926,6.552-2.782,9.855
		c-0.596,2.299,0.098,2.987,2.406,2.479c4.587-1.009,8.8-3.052,13.11-4.827c2.31-0.952,4.646-1.839,7-2.675
		c0.881-0.313,2.068-0.923,2.437,0.612c0.34,1.425-0.771,1.558-1.822,1.729c-5.641,0.93-10.698,3.351-15.605,6.232
		c1.867-0.084,3.74-0.108,5.601-0.267c2.454-0.21,4.583,0.632,6.623,1.838c2.759,1.628,3.114,4.011,0.907,6.397
		c-1.837,1.986-4.165,3.304-6.533,4.539c-1.082,0.565-2.189,1.082-3.259,1.606c0.253,0.974,1.363,0.312,1.647,1.372
		c-1.638,1.084-3.331,2.254-5.076,3.345c-4.594,2.869-9.111,5.848-13.294,9.304c-1.487,1.228-2.779,2.633-3.771,4.301
		c-1.474,2.479-1.183,3.27,1.676,4.002c1.446,0.369,2.952,0.766,4.422,0.733c3.571-0.075,7.119,0.758,10.702,0.177
		c0.937-0.15,2.245-0.51,2.823,0.37c0.709,1.08-1.11,1.458-1.191,2.961c3.179-1.156,7.207,1.305,9.337-3.116
		c0.358-0.741,1.236-0.782,1.969-0.92c5.964-1.112,11.978-2.001,18.165-4.345c-1.183,2.198-2.809,3.316-4.153,4.669
		c-0.371,0.372-1.05,0.619-1.236,0.003c-0.697-2.301-1.982-1.017-3.088-0.574c-9.354,3.737-18.853,7.176-27.348,12.742
		c-2.226,1.46-4.366,3.057-6.484,4.669c-1.308,0.997-1.388,1.84,0.743,1.938c-1.76,2.3-3.926,3.836-6.094,5.37
		c-2.2,1.556-2.291,2.698-0.291,4.488c0.553,0.496,1.171,0.982,1.847,1.268c7.892,3.319,16.058,2.513,24.495,1.986
		c-0.706-1.722-2.133-1.577-3.171-2.456c6.049-0.915,12.049-0.792,17.93-2.137c-2.269,2.027-5.039,3.049-7.845,4.003
		c-7.229,2.457-14.842,2.762-22.294,3.939c-3.363,0.531-6.776,0.754-10.173,1.045c-1.959,0.167-2.183,1.207-1.541,2.74
		c0.821,1.959,2.304,3.442,3.701,4.98c0.494,0.547,1.598,0.849,0.342,1.862c-0.994,0.803,0.213,1.278,0.643,1.707
		c1.186,1.18,3.751,2.062,3.088,3.649c-0.556,1.328-3.195,0.558-4.891,0.512c-9.298-0.254-18.069-2.758-26.485-6.577
		c-3.072-1.394-6.047-3.002-9.534-4.746c0.899,1.589,1.6,2.691,2.163,3.862c0.477,0.988,0.081,1.496-1.004,1.139
		c-8.275-2.728-16.096-0.509-23.919,2.067c-1.957,0.646-2.704,1.807-3.008,3.762c-2.773,17.849-9.354,34.146-20.118,48.699
		c-2.143,2.897-2.153,2.852-5.18,0.847c-10.566-6.999-21.581-13.229-32.84-19.036c-0.871-0.45-1.747-0.894-2.504-1.78
		c2.135,0.289,4.262,0.636,6.403,0.859c13.057,1.363,24.675-2.19,35.057-10.157c5.156-3.96,8.738-8.903,11.263-14.937
		c6.094-14.568,8.781-29.666,7.854-45.384c-1.052-17.814-6.299-34.307-16.074-49.302c-0.343-0.525-0.94-0.978-0.688-1.993
		c2.898,1.038,5.73,2.172,8.636,3.067c5.349,1.649,10.729,3.271,16.374,1.214c1.514-0.552,1.788,0.182,1.414,1.494
		c-0.225,0.788-0.411,1.589-0.615,2.383C368.413,270.314,368.594,270.453,368.773,270.592z"/>
	<path fill-rule="evenodd" clip-rule="evenodd" d="M213.193,476.559c7.89,3.445,15.342,7.481,22.1,12.715
		c7.896,6.114,14.267,13.478,18.328,22.7c1.461,3.319,1.399,3.577-2.139,3.957c-3.553,0.381-7.129,0.69-10.7,0.75
		c-9.99,0.161-19.954,0.885-29.94,1.186c-14.23,0.432-28.459,0.764-42.694,1.028c-5.655,0.104-11.319,0.18-16.975,0.372
		c-6.752,0.23-11.992-2.55-15.779-7.953c-1.424-2.031-2.66-2.046-4.136-0.513c-1.784,1.853-3.179,1.575-4.591-0.377
		c-1.168-1.617-2.433-3.165-3.626-4.765c-0.291-0.389-0.659-0.887-0.368-1.371c0.403-0.668,1.046-0.278,1.572-0.129
		c2.723,0.772,5.446,1.551,8.155,2.372c2.06,0.623,2.682-0.199,2.119-2.102c-1.982-6.686-3.617-13.452-8.304-19.054
		c-3.678-4.396-6.574-9.387-8.288-15.009c-1.769,1.452-1.851,1.465-2.188-0.545c-0.818-4.876-2.016-9.749-0.223-14.782
		c0.146,1.156,0.265,2.316,0.445,3.468c0.754,4.812,2.344,9.36,4.396,13.759c0.268,0.57,0.36,1.446,1.219,1.353
		c0.841-0.092,0.442-1.174,1.161-1.732c1.499,2.126,1.994,4.66,2.932,6.972c2.074,5.113,6.157,8.387,10.313,11.609
		c0.57,0.443,1.555,0.93,1.511-0.475c-0.07-2.223,1.015-1.425,1.94-0.803c3.537,2.38,7.297,4.348,11.132,6.184
		c0.601,0.287,1.208,0.566,1.835,0.791c3.264,1.166,4.406,0.16,4.194-3.394c-0.376-6.317-2.148-12.267-4.39-18.129
		c-3.069-8.025-7.379-15.49-10.512-23.483c-0.887-2.262-1.582-4.563-1.491-7.037c0.041-1.115,0.273-2.162,1.003-3.022
		c0.702-0.829,1.477-1.8,2.687-1.474c1.126,0.302,1.207,1.481,1.368,2.467c0.684,4.189,1.218,8.398,3.733,12.053
		c1.523,2.212,3.538,3.711,5.864,4.903c1.138,0.582,2.398,1.034,0.189,2.106c-1.848,0.896-0.119,1.377,0.483,1.675
		c3.781,1.869,7.879,2.653,12.003,3.275c5.821,0.88,5.873,0.839,5.203-4.872c-0.883-7.527-0.987-15.105-1.573-22.646
		c-0.559-7.183-0.804-14.466-3.756-21.283c-2.09-4.83-5.132-9.042-8.701-12.72c-12.893-13.285-19.167-29.373-20.884-47.503
		c-0.944-9.97-0.7-19.948-0.018-29.922c0.015-0.218,0.185-0.426,0.376-0.843c1.387,1.568,2.606,3.107,3.998,4.471
		c1.232,1.209,2.258,1.36,2.572-0.862c1.71-12.128,7.381-22.728,12.962-33.356c0.983-1.873,2.022-3.717,3.14-5.763
		c0.498,1.101-0.006,1.765-0.192,2.455c-3.901,14.409-6.983,28.981-8.318,43.87c-0.326,3.638-0.053,7.328-0.117,10.991
		c-0.015,0.852,0.493,2.089-0.583,2.452c-0.945,0.32-1.576-0.76-2.192-1.399c-1.129-1.174-2.184-2.418-3.45-3.834
		c-0.395,1.491-0.234,2.697,0.005,3.904c2.268,11.466,7.074,21.808,13.83,31.291c0.368,0.516,1.166,0.914,0.84,1.667
		c-0.324,0.748-1.155,0.524-1.789,0.535c-2.83,0.043-5.675,0.212-8.39-0.877c-0.449-0.179-0.994-0.472-1.369,0.034
		c-0.334,0.451-0.038,0.962,0.172,1.41c1.519,3.23,3.801,5.819,6.578,8.042c5.193,4.159,11.11,7.326,15.881,12.089
		c7.708,7.69,11.113,17.161,11.353,27.718c0.123,5.438-0.389,10.967-1.385,16.384c-0.218,1.183-0.328,2.248,0.888,3.095
		c5.949,4.142,11.925,8.239,18.081,12.069c0.33,0.207,0.725,0.309,1.33,0.558c-0.317-3.001-0.607-5.751-0.91-8.611
		c1.415,0.177,1.996,1.091,2.744,1.68c7.162,5.629,14.922,10.329,22.801,14.852c0.612,0.352,1.641,0.483,1.521,1.405
		c-0.107,0.847-1.094,0.927-1.772,1.173C222.156,475.301,217.743,476.074,213.193,476.559z"/>
	<path fill-rule="evenodd" clip-rule="evenodd" d="M313.03,503.853c3.919,2.425,7.781,2.101,11.718,0.209
		c1.511-0.728,2.636-1.643,3.393-3.125c2.099-4.11,3.409-8.507,4.605-12.923c2.113-7.797,3.997-15.653,5.494-23.599
		c0.136-0.72,0.363-1.421,0.707-2.12c0.736,6.139,0.928,12.289,1.335,18.613c1.642-3.455,3.239-6.932,4.933-10.363
		c3.906-7.916,7.594-15.956,11.863-23.673c4.539-8.208,11.889-14.07,18.512-20.495c2.387-2.315,4.94-4.46,7.427-6.673
		c0.482-0.431,0.923-1.204,1.632-0.946c0.88,0.319,0.574,1.272,0.625,1.982c0.205,2.821,0.368,5.645,0.574,8.464
		c0.048,0.656,0.037,1.51,0.678,1.788c0.775,0.337,1.105-0.532,1.514-1.009c8.073-9.441,16.721-18.312,26.149-26.408
		c0.473-0.405,0.906-1.199,1.657-0.702c0.53,0.349,0.332,1.062,0.283,1.637c-0.238,2.803-0.478,5.604-0.774,9.091
		c11.929-9.925,22.218-20.432,28.991-34.414c0.523,1.238,0.041,2.06-0.163,2.836c-3.955,15.098-10.814,28.717-20.105,41.284
		c-8.265,11.179-15.985,22.771-22.223,35.26c-0.52,1.041-0.95,2.129-1.395,3.206c-0.116,0.283-0.128,0.607-0.247,1.204
		c4.542-2.429,8.814-4.772,13.149-6.996c1.199-0.615,2.808-2.175,3.725-1.221c0.974,1.013-0.743,2.445-1.389,3.623
		c-5.366,9.788-10.369,19.765-15.41,29.721c-4.438,8.766-8.885,17.53-14.239,25.798c-1.116,1.722-2.395,2.45-4.481,2.438
		c-13.912-0.09-27.826-0.242-41.733-0.009c-8.364,0.14-15.47-2.64-21.887-7.7c-1.745-1.376-3.477-2.766-5.216-4.15
		C312.831,504.271,312.931,504.062,313.03,503.853z"/>
	<path fill-rule="evenodd" clip-rule="evenodd" d="M299.7,216.518c0-0.916,0.087-1.843-0.018-2.747
		c-0.186-1.587,0.831-3.636-1.692-4.373c-3.931-1.148-6.155-0.711-7.781,1.778c-2.232,3.417-4.434,6.854-6.58,10.326
		c-3.661,5.919-8.968,8.735-15.883,9.323c-17.077,1.449-33.493-1.565-49.639-6.757c-3.979-1.279-5.968-3.971-6.041-8.176
		c-0.052-2.994-0.297-5.984-0.424-8.979c-0.095-2.277-0.723-4.311-2.748-5.587c-7.025-4.428-12.704-10.479-19.042-15.733
		c-3.396-2.816-6.62-5.84-9.947-8.741c-0.899-0.784-1.386-1.573-0.89-2.815c1.682-4.212,2.431-8.651,2.963-13.12
		c0.251-2.108,1.052-1.938,2.298-0.821c0.745,0.666,1.483,1.344,2.174,2.064c6.91,7.221,13.817,14.446,20.708,21.685
		c1.003,1.054,1.996,1.895,3.618,1.851c23.384-0.626,46.021,4.111,68.544,9.634c3.963,0.972,7.973,1.822,11.842,3.093
		c6.777,2.228,13.653,1.767,20.533,1.133c11.891-1.094,23.606,0.179,35.271,2.321c5.489,1.01,10.944,2.179,16.286,3.823
		c2.956,0.912,3.621,2.083,2.753,5.016c-0.473,1.595-1.122,3.137-1.626,4.724c-0.515,1.618-1.499,2.818-3.086,3.377
		c-2.055,0.722-3.237,2.164-4.063,4.109c-0.781,1.836-1.898,3.532-2.648,5.378c-2.707,6.665-7.97,9.31-14.776,9.482
		c-8.934,0.226-17.827-0.367-26.561-2.29c-10.743-2.365-13.57-6.05-13.593-16.979c-0.003-0.666,0-1.332,0-1.999
		C299.669,216.518,299.686,216.518,299.7,216.518z M230.113,192.8c-2.247,0-4.499-0.102-6.738,0.027
		c-2.637,0.151-4.086,1.546-4.502,4.152c-0.829,5.178-1.285,10.399-1.476,15.632c-0.189,5.183,0.339,5.812,5.334,7.497
		c14.453,4.878,29.372,6.348,44.525,5.983c4.604-0.111,8.011-2.493,10.612-6.134c2.726-3.813,4.715-8.033,6.566-12.312
		c1.203-2.782,0.693-4.116-2.032-5.413c-1.121-0.534-2.319-0.921-3.509-1.295C263.012,195.953,246.832,192.762,230.113,192.8z
		 M333.376,233.137c3.9-0.02,7.198-0.421,10.46-1.107c2.672-0.561,4.611-1.929,5.83-4.544c1.9-4.072,3.844-8.12,5.477-12.311
		c2.367-6.072,2.14-6.454-4.327-7.796c-11.646-2.416-23.438-2.229-35.229-1.96c-1.63,0.038-3.268,0.572-4.865,1.015
		c-2.101,0.582-3.369,2.002-3.848,4.163c-0.91,4.092-1.302,8.227-0.84,12.391c0.59,5.296,1.436,6.239,6.645,7.547
		C319.651,232.284,326.791,232.746,333.376,233.137z"/>
	<path fill-rule="evenodd" clip-rule="evenodd" d="M295.082,277.771c-14.754,0.505-30.077-2.063-44.665-8.49
		c-7.388-3.256-14.212-7.345-19.295-13.835c-2.727-3.482-4.439-7.38-5.073-11.79c-0.281-1.965,0.377-2.569,2.249-2.425
		c11.065,0.858,22.152,0.528,33.221,0.315c9.244-0.178,18.483-0.495,27.729-0.354c8.244,0.126,16.479,0.486,24.558,2.384
		c2.039,0.479,4.006,1.158,5.821,2.207c2.214,1.281,2.249,1.752,0.261,3.284c-3.431,2.645-6.789,5.398-10.363,7.837
		c-2.309,1.575-2.63,3.394-1.818,5.794c1.051,3.111,2.925,5.79,4.432,8.662c3.079,5.87,3.058,5.793-3.45,6.069
		C304.527,277.606,300.373,277.866,295.082,277.771z"/>
	<path fill-rule="evenodd" clip-rule="evenodd" d="M216.54,103.706c3.497-1.721,7.019-3.393,10.483-5.179
		c2.911-1.5,2.878-1.649,0.673-3.943c-8.896-9.253-15.713-19.743-17.636-32.648c-2.258-15.169,1.946-28.822,10.97-41.082
		c0.329-0.447,0.638-1.137,1.317-0.952c0.728,0.198,0.458,0.975,0.548,1.507c2.285,13.484,7.394,25.688,16.302,36.196
		c4.35,5.131,9.547,9.249,15.119,12.946c3.026,2.008,3.269,2.626,1.895,6.188c-5.378,13.94-15.481,22.544-29.891,26.176
		C223.135,103.718,219.901,104.33,216.54,103.706z"/>
	<path fill-rule="evenodd" clip-rule="evenodd" d="M460.812,85.302c-2.032,6.671-4.938,12.63-8.402,18.323
		c-4.047,6.653-8.697,12.837-14.862,17.703c-9.479,7.483-20.462,9.605-32.225,8.812c-0.164-0.012-0.329-0.056-0.493-0.078
		c-5.196-0.69-5.238-0.714-2.566-5.421c5.058-8.91,10.427-17.635,15.861-26.319c0.998-1.596,2.159-2.421,4.069-2.152
		c13.582,1.907,25.407-2.588,36.421-10.026c0.412-0.279,0.843-0.534,1.283-0.769C460.029,85.305,460.218,85.344,460.812,85.302z"/>
	<path fill-rule="evenodd" clip-rule="evenodd" d="M104.868,492.681c-8.843-5.113-12.333-18.614-10.561-28.31
		c0.479,2.746,0.768,4.795,1.208,6.81c0.549,2.518,1.175,5.021,1.869,7.501c0.255,0.912-0.003,2.643,2.002,1.722
		c0.376-0.173,0.663,0.439,0.76,0.834C101.074,485.042,102.919,488.488,104.868,492.681z"/>
	<path fill-rule="evenodd" clip-rule="evenodd" fill="none" d="M230.113,192.8c16.719-0.038,32.899,3.153,48.78,8.138
		c1.189,0.374,2.388,0.761,3.509,1.295c2.726,1.297,3.235,2.631,2.032,5.413c-1.852,4.279-3.841,8.499-6.566,12.312
		c-2.602,3.641-6.009,6.022-10.612,6.134c-15.153,0.364-30.072-1.105-44.525-5.983c-4.995-1.686-5.523-2.314-5.334-7.497
		c0.191-5.232,0.647-10.454,1.476-15.632c0.417-2.606,1.865-4.001,4.502-4.152C225.614,192.698,227.866,192.8,230.113,192.8z
		 M263.8,206.931c-0.704,1.19-1.368,2.406-2.122,3.564c-1.692,2.602-3.975,4.451-7.026,5.232c-4.492,1.151-8.281-1.24-9.786-6.192
		c-1.032-3.395-1.404-6.859-0.808-10.423c-2.147,5.5-3.141,11.078-0.944,16.695c2.17,5.552,8.217,7.376,13.216,4.069
		C260.906,216.85,262.678,212.066,263.8,206.931z M254.701,203.181c-0.033-2.372-1.667-4.46-3.489-4.454
		c-2.293,0.007-4.542,2.882-4.469,5.713c0.066,2.586,1.479,4.413,3.42,4.422C252.419,208.871,254.739,205.967,254.701,203.181z"/>
	<path fill-rule="evenodd" clip-rule="evenodd" fill="none" d="M333.376,233.137c-6.585-0.391-13.725-0.853-20.697-2.603
		c-5.209-1.308-6.055-2.251-6.645-7.547c-0.462-4.164-0.07-8.299,0.84-12.391c0.479-2.161,1.747-3.581,3.848-4.163
		c1.598-0.442,3.235-0.977,4.865-1.015c11.79-0.27,23.582-0.456,35.229,1.96c6.467,1.342,6.694,1.724,4.327,7.796
		c-1.633,4.19-3.576,8.238-5.477,12.311c-1.219,2.615-3.158,3.983-5.83,4.544C340.574,232.716,337.276,233.117,333.376,233.137z
		 M320.01,210.753c-1.582,4.994-1.687,9.983,0.118,14.888c2.134,5.799,7.798,7.526,12.68,3.714
		c5.521-4.311,6.63-10.538,6.794-17.066c-0.925,3.398-2.389,6.533-4.647,9.227c-2.194,2.613-4.916,4.385-8.502,3.554
		c-3.312-0.769-4.67-3.432-5.601-6.429C320.047,216.05,320.414,213.377,320.01,210.753z M322.592,213.654
		c0.013,3.101,1.816,4.989,4.027,4.215c2.308-0.809,3.956-4.325,3.271-7.12c-0.442-1.805-1.237-3.355-3.496-3.079
		C324.2,207.938,322.581,210.552,322.592,213.654z"/>
	<path fill-rule="evenodd" clip-rule="evenodd" d="M263.8,206.931c-1.122,5.136-2.894,9.919-7.47,12.946
		c-4.999,3.307-11.046,1.482-13.216-4.069c-2.196-5.617-1.203-11.195,0.944-16.695c-0.596,3.563-0.224,7.028,0.808,10.423
		c1.505,4.952,5.294,7.344,9.786,6.192c3.051-0.781,5.333-2.631,7.026-5.232C262.432,209.337,263.096,208.121,263.8,206.931z"/>
	<path fill-rule="evenodd" clip-rule="evenodd" d="M254.701,203.181c0.038,2.786-2.282,5.69-4.538,5.681
		c-1.94-0.009-3.354-1.836-3.42-4.422c-0.073-2.831,2.176-5.706,4.469-5.713C253.033,198.721,254.667,200.809,254.701,203.181z"/>
	<path fill-rule="evenodd" clip-rule="evenodd" d="M320.01,210.753c0.404,2.624,0.037,5.297,0.842,7.887
		c0.931,2.997,2.289,5.66,5.601,6.429c3.586,0.831,6.308-0.94,8.502-3.554c2.259-2.693,3.723-5.828,4.647-9.227
		c-0.164,6.528-1.272,12.756-6.794,17.066c-4.882,3.812-10.546,2.085-12.68-3.714C318.323,220.736,318.428,215.747,320.01,210.753z"
		/>
	<path fill-rule="evenodd" clip-rule="evenodd" d="M322.592,213.654c-0.011-3.103,1.608-5.717,3.803-5.984
		c2.259-0.276,3.054,1.274,3.496,3.079c0.685,2.795-0.964,6.312-3.271,7.12C324.408,218.644,322.604,216.755,322.592,213.654z"/>
</g>
<path d="M96.12,501.205c-0.325,0-0.652-0.104-0.927-0.321c-0.884-0.696-21.706-17.368-25.215-45.092l-0.011-0.149
	c-0.161-6.124,0.323-10.05,0.75-13.515c0.799-6.487,1.388-11.265-3.06-26.614c-3.26,3.312-5.251,3.96-5.5,4.031l-1.921,0.549
	l0.009-1.998c0.041-9.108-0.248-31.375-1.811-41.817c-2.566,6.052-5.177,10.279-5.312,10.496l-2.021,3.25l-0.726-3.758
	c-0.07-0.361-6.937-36.566-1.744-67.895c4.898-29.551,14.042-43.312,21.391-52.952c-4.552,0.687-8.77,3.052-9.573,3.774
	l-0.502,1.199l-2.762-1.104l0.56-1.403c0.005-0.014,0.012-0.028,0.018-0.042c1.035-2.465,9.781-22.466,26.538-36.146
	c-3.385-2.65-9.903-3.996-10.924-3.959l-1.453,0.243l-0.237-1.472c-0.145-0.783-0.232-1.256,3.825-4.189
	c1.881-1.36,5.052-3.495,9.477-5.938c7.191-3.971,18.726-9.297,33.203-12.385c0.116-1.043,0.237-2.151,0.363-3.307
	c0.803-7.376,1.803-16.556,3.182-23.35l2.903-0.145c1.729,5.587,5.662,13.645,8.116,17.662c0.015-1.534,0.001-3.475-0.013-5.472
	c-0.12-17.043-0.371-52.507,9.865-85.86l2.928,0.576c-1.899,20.808,5.946,29.958,9.513,32.541
	c1.306-12.561,8.603-46.427,12.239-51.701l1.425-2.066l1.145,2.233c1.3,2.536,3.964,5.495,5.999,7.365
	c1.147-8.484,4.935-29.95,8.506-33.146l1.658-1.484l0.753,2.094c1.256,3.49,7.175,10.692,10.123,13.283
	c2.615-8.606,6.737-31.881,6.782-32.135c0.145-0.816,0.925-1.361,1.738-1.216c0.816,0.144,1.36,0.922,1.216,1.738
	c-0.199,1.13-4.915,27.75-7.545,34.489l-0.53,1.358l-1.373-0.491c-2.556-0.915-8.978-8.333-11.954-13.412
	c-2.65,6.48-6.196,25.614-6.707,31.914l-0.201,2.48l-2.099-1.336c-1.817-1.156-5.228-4.445-7.545-7.714
	c-3.693,9.489-10.357,40.836-10.813,50.102l-0.07,1.426h-1.428c-1.376,0-3.726-1.561-5.847-3.885
	c-2.863-3.136-7.066-9.583-8.063-21.026c-7.03,29.448-6.822,58.851-6.716,73.854c0.063,8.943,0.038,9.79-1.049,10.467
	c-0.475,0.296-1.061,0.322-1.567,0.07c-2.208-1.104-6.623-9.813-9.402-16.557c-0.885,5.708-1.591,12.191-2.188,17.67
	c-0.171,1.567-0.332,3.047-0.485,4.398l-0.123,1.083l-1.068,0.217c-21.819,4.442-37.611,14.335-43.255,18.524
	c3.553,0.802,8.647,2.616,11.124,5.615l0.985,1.192l-1.222,0.948c-12.82,9.944-21.179,24.292-24.846,31.526
	c3.024-1.348,6.998-2.455,10.637-2.264l2.863,0.152l-1.757,2.265c-7.414,9.557-17.568,22.645-22.796,54.191
	c-4.079,24.606-0.577,52.346,1.028,62.674c1.379-2.631,3.221-6.47,4.759-10.812l1.313-3.707l1.489,3.64
	c2.752,6.727,3.042,35.752,3.064,44.801c0.983-0.763,2.322-1.979,3.958-3.888l1.782-2.079l0.793,2.62
	c5.444,17.987,4.803,23.188,3.917,30.384c-0.412,3.346-0.879,7.137-0.73,12.994c3.385,26.473,23.878,42.874,24.085,43.037
	c0.651,0.513,0.763,1.455,0.251,2.106C97.004,501.009,96.564,501.205,96.12,501.205z"/>
<path d="M418.101,102.742c-0.271,0-0.546-0.073-0.793-0.228c-0.703-0.438-0.917-1.364-0.479-2.066
	c2.218-3.555,17.526-25.798,22.171-32.54c-8.371-1.661-17.437-4.223-17.953-7.586c-0.58-3.772,4.29-14.1,7.3-19.343
	c-9.422-1.881-31.977,0.526-32.221,0.553l-1.008,0.109l-0.477-0.895c-0.08-0.149-1.65-3.131-1.809-6.203
	c-5.453,0.429-17.402,3.738-24.381,6.865l-1.715,0.769l-0.369-1.843c-0.707-3.531,5.514-13.282,8.703-17.984
	c-31.237,1.04-45.471,7.062-51.237,10.632l-2.938,1.819l0.678-3.388c0.278-1.394,0.22-4.115,0.113-6.152l-20.712,8.176l4.389-15.363
	c-20.748,2.494-38.028,10.923-47.459,15.523c-6.25,3.049-7.941,3.816-9.291,3.066c-3.208-1.782-3.403-9.103-2.701-14.616
	c-3.925,1.645-10.544,5.602-13.222,7.283c-0.703,0.442-1.627,0.229-2.068-0.472c-0.441-0.702-0.229-1.627,0.472-2.068
	c1.252-0.787,12.35-7.704,16.432-8.399l2.143-0.365l-0.419,2.132c-1.372,6.985-0.4,12.62,0.638,13.734
	c1.02-0.221,3.904-1.628,6.7-2.992c9.933-4.845,28.42-13.864,50.683-16.053l2.194-0.216l-3.937,13.782l18.835-7.436l0.174,2.004
	c0.016,0.18,0.279,3.26,0.229,6.024c8.374-4.361,24.097-9.086,53.194-9.738l2.996-0.067l-1.742,2.439
	c-4.717,6.602-8.153,12.7-9.404,15.948c7.89-3.11,19.893-6.329,24.67-6.078l1.677,0.088l-0.276,1.657
	c-0.28,1.678,0.421,3.852,0.985,5.183c5.116-0.511,26.66-2.458,34.288,0.184l1.804,0.625l-1.034,1.605
	c-3.504,5.439-8.228,16.258-7.922,18.947c0.871,1.425,8.976,3.972,17.809,5.59l2.281,0.418l-1.317,1.909
	c-0.208,0.302-20.873,30.268-23.401,34.319C419.09,102.492,418.601,102.742,418.101,102.742z"/>
<path d="M368.77,192.909c-0.212,0-0.428-0.045-0.632-0.141c-0.751-0.35-1.077-1.242-0.727-1.993
	c2.402-5.161,39.186-73.092,40.75-75.981c0.394-0.729,1.306-1,2.033-0.604c0.729,0.395,1,1.305,0.605,2.033
	c-0.383,0.707-38.305,70.74-40.67,75.819C369.876,192.587,369.335,192.909,368.77,192.909z"/>
</svg>
