<?xml version="1.0" standalone="no"?><!DOCTYPE svg PUBLIC "-//W3C//DTD SVG 1.1//EN" "http://www.w3.org/Graphics/SVG/1.1/DTD/svg11.dtd"><svg width="100%" height="100%" viewBox="0 0 1667 1667" version="1.1" xmlns="http://www.w3.org/2000/svg" xmlns:xlink="http://www.w3.org/1999/xlink" xml:space="preserve" style="fill-rule:evenodd;clip-rule:evenodd;stroke-linejoin:round;stroke-miterlimit:1.41421;"><path d="M442.105,1143.11c9.034,-67.004 10.923,-163.719 10.923,-184.034c-0.018,-43.331 -27.996,-72.308 -35.928,-76.891c-7.518,-4.331 -15.833,-8.768 -24.549,-13.456c-53.112,-28.427 -119.201,-63.782 -119.201,-128.991c0,-47.658 27.415,-68.333 45.546,-82.019c2.275,-1.725 4.423,-3.341 6.347,-4.894c6.132,-4.952 10.983,-8.866 12.743,-12.854c12.854,-28.867 10.494,-100.999 4.93,-110.93c-1.624,-1.915 -49.335,-61.74 -34.686,-115.473c5.978,-21.921 20.363,-39.259 41.61,-50.127c16.64,-8.52 37.466,-13.038 61.896,-13.429c0.656,-13.023 6.681,-26.425 5.43,-41.352c-1.219,-14.249 -2.346,-27.692 -7.043,-35.109c-26.147,-41.28 -87.82,-53.808 -88.437,-53.94l-28.946,-5.669l19.161,-22.414c2.483,-2.905 81.17,-77.987 202.946,-38.67c68.507,22.093 122.705,86.673 142.52,113.07c7.123,-2.287 14.339,-4.424 21.645,-6.411c-2.856,-77.967 60.96,-139.844 83.168,-142.499c1.233,13.333 -1.25,65.341 21.094,81.333c6.506,-42.478 28.501,-89.313 115.362,-119.994c-18.602,49.34 -2.487,90.669 5.195,109.825c59.31,-53.834 99.274,-44.942 99.274,-44.942c0,0 -38.737,66.84 -26.409,113.439c9.573,2.377 18.997,5.008 28.267,7.89c19.166,-25.904 74.132,-92.766 145.554,-115.796c23.774,-7.681 47.672,-11.559 71.019,-11.559c85.567,0 136.095,51.012 136.527,51.527l23.967,28.018l-36.161,7.087c-0.598,0.123 -60.758,12.708 -85.668,52.025c-4.129,6.532 -5.211,19.456 -6.382,33.176c-0.683,8.161 1.03,16.111 2.698,23.797c1.236,5.698 2.486,11.464 2.753,17.283c22.567,0.828 41.897,5.302 57.565,13.314c21.252,10.868 35.628,28.206 41.615,50.127c14.649,53.733 -33.067,113.558 -34.695,115.473c-5.56,9.931 -7.915,82.063 4.917,110.93c1.769,3.988 6.616,7.902 12.765,12.854c1.919,1.553 4.05,3.169 6.343,4.894c18.135,13.686 45.537,34.361 45.537,82.019c0,65.209 -66.089,100.564 -119.184,128.991c-8.72,4.688 -17.048,9.125 -24.544,13.456l0.004,0c-7.941,4.583 -35.932,33.56 -35.932,76.891c-0.016,20.314 1.875,117.02 10.919,184.024c34.063,-29.207 65.449,-76.307 72.5,-129.032c0,0 86.205,66.52 60.877,208.906c-15.491,87.036 -68.308,135.884 -138.489,161.412c-25.947,56.283 -86.651,134.944 -198.508,146.42c-42.592,34.85 -101.545,57.417 -187.409,57.492l0,0.018c-0.079,0 -0.145,-0.018 -0.211,-0.018c-0.079,0 -0.141,0.018 -0.211,0.018l0,-0.018c-85.877,-0.071 -144.836,-22.64 -187.429,-57.494c-111.866,-11.484 -172.561,-90.143 -198.507,-146.421c-70.18,-25.528 -122.995,-74.376 -138.474,-161.409c-25.328,-142.386 60.877,-208.906 60.877,-208.906c7.048,52.731 38.439,99.836 72.509,129.042ZM1083.67,1356.58c10.771,-30.928 9.944,-53.799 -2.509,-68.026c-8.522,-9.723 -28.079,-21.318 -72.674,-21.318l-46.558,-0.017c-34.352,-0.031 -77.516,-0.066 -128.59,-0.088c-51.092,0.022 -94.234,0.057 -128.595,0.088l-46.575,0.017c-44.582,0 -64.143,11.599 -72.661,21.318c-12.466,14.214 -13.285,37.099 -2.518,68.026c19.461,55.745 71.737,190.656 250.345,190.889c178.584,-0.233 230.883,-135.147 250.339,-190.889l-0.004,0ZM504.619,1399.74c19.134,28.152 48.466,58.13 91.115,75.353c-14.374,-21.386 -26.056,-44.544 -36.248,-68.306c-18.766,-1.454 -37.134,-3.744 -54.867,-7.047ZM1162.02,1399.74c-17.723,3.3 -36.08,5.589 -54.835,7.042c-10.193,23.757 -21.874,46.911 -36.247,68.294c42.627,-17.221 71.951,-47.19 91.082,-75.336ZM696.452,1410.23c-12.712,0 -25.684,-4.613 -34.673,-12.395c-6.884,-5.934 -30.161,-27.313 -40.426,-53.504c-3.83,-9.794 -2.971,-17.629 2.588,-23.268c3.83,-3.865 11.784,-8.482 27.925,-8.482l11.485,-0.018c13.685,-0.018 36.724,-0.018 56.418,-0.018l18.884,0c12.281,0 21.084,2.659 26.142,7.836c6.501,6.677 4.419,15.173 2.597,19.645c-3.161,7.835 -16.256,33.326 -38.423,57.025c-7.937,8.496 -19.487,13.179 -32.517,13.179l0,0ZM937.725,1397.05c-22.164,-23.695 -35.277,-49.194 -38.446,-57.025c-1.813,-4.464 -3.873,-12.968 2.624,-19.65c5.066,-5.172 13.848,-7.831 26.124,-7.831l18.897,0c19.694,0 42.72,0 56.414,0.018l11.489,0.018c16.128,0 24.078,4.613 27.903,8.482c5.564,5.63 6.431,13.461 2.597,23.268c-10.256,26.195 -33.542,47.575 -40.422,53.504c-9.015,7.782 -21.956,12.395 -34.669,12.395c-13.029,0 -24.575,-4.683 -32.511,-13.179l0,0ZM577.948,1231.51c-80.174,-3.516 -187.234,-32.552 -219.401,-134.049c-14.715,14.737 -24.76,115.301 11.049,174.206c35.332,58.138 104.868,86.598 171.393,87.672c-13.284,-39.364 -9.211,-71.01 12.105,-94.024c1.326,-1.433 2.749,-2.889 4.284,-4.354c5.398,-7.096 12.684,-17.166 20.57,-29.451ZM1125.69,1359.34c66.507,-1.075 136.046,-29.536 171.397,-87.672c35.787,-58.905 25.751,-159.469 11.031,-174.206c-32.154,101.495 -139.219,130.532 -219.396,134.049c7.864,12.252 15.132,22.301 20.527,29.394c1.557,1.485 2.998,2.96 4.34,4.411c21.303,23.014 25.384,54.66 12.101,94.024ZM1181.95,1169.5c-7.496,-76.55 -12.671,-180.596 -10.077,-223.757c3.077,-51.515 30.65,-86.087 56.225,-100.828c8.011,-4.609 16.383,-9.138 24.83,-13.694c43.811,-23.673 89.119,-48.165 89.119,-89.978c0,-32.714 -12.73,-42.944 -26.19,-53.79l-1.435,-1.175c-2.11,-1.705 -4.286,-3.463 -6.458,-5.333c2.742,21.303 5.619,39.38 7.928,44.003c0,0 -35.774,-44.388 -46.378,-130.752c-4.164,-34.021 3.222,-101.118 15.054,-126.93c-0.487,14.368 -0.036,28.737 0.955,42.37c1.165,-2.452 2.446,-4.577 3.843,-6.324c9.482,-11.841 34.898,-51.66 27.595,-78.418c-2.799,-10.213 -9.235,-17.784 -19.702,-23.145c-11.084,-5.678 -26.028,-8.553 -44.476,-8.553c-36.17,0 -76.336,11.018 -97.029,17.577c-74.008,23.457 -163.308,91.086 -188.926,111.255c-0.731,0.564 -1.153,0.894 -1.233,0.947l-16.392,11.392l10.243,-17.141c0.604,-0.991 56.305,-92.602 156.716,-137.185c-5.941,-8.527 -21.744,-23.985 -63.648,-44.416c-63.232,-30.844 -136.963,-46.483 -219.189,-46.51c-82.208,0.027 -155.969,15.666 -219.21,46.51c-41.882,20.423 -57.676,35.877 -63.617,44.406c100.43,44.579 156.15,136.204 156.737,137.195l10.243,17.141l-16.379,-11.392c-0.079,-0.053 -0.51,-0.383 -1.245,-0.947c-25.597,-20.169 -114.901,-87.798 -188.909,-111.255c-20.71,-6.559 -60.855,-17.577 -97.046,-17.577c-18.426,0 -33.397,2.875 -44.476,8.553c-10.472,5.361 -16.903,12.932 -19.685,23.145c-7.303,26.758 18.096,66.577 27.577,78.418c1.393,1.74 2.669,3.855 3.83,6.294c0.988,-13.623 1.437,-27.982 0.95,-42.34c11.837,25.812 19.236,92.909 15.072,126.93c-10.604,86.364 -46.395,130.752 -46.395,130.752c2.315,-4.621 5.194,-22.685 7.935,-43.977c-2.161,1.86 -4.325,3.61 -6.425,5.307l-1.453,1.175c-13.46,10.846 -26.182,21.076 -26.182,53.79c0,41.813 45.308,66.305 89.119,89.978c8.43,4.556 16.798,9.085 24.809,13.694c25.579,14.741 53.165,49.313 56.246,100.828c2.573,43.161 -2.587,147.21 -10.081,223.761c36.702,14.203 78.783,18.859 117.037,19.953c5.982,-12.177 11.57,-25.214 16.19,-38.77c1.967,-5.771 57.738,-150.582 77.819,-183.574c-16.091,114.961 -51.65,217.238 -69.318,264.245c10.173,-1.386 21.616,-2.169 34.518,-2.169c0,0 122.544,-0.071 172.154,-0.106l0.423,0l172.133,0.106c12.9,0 24.341,0.782 34.513,2.167c-17.66,-47.009 -53.219,-149.284 -69.309,-264.243c20.063,32.992 75.834,177.803 77.806,183.574c4.62,13.557 10.208,26.593 16.189,38.77c38.257,-1.094 80.348,-5.749 117.055,-19.957ZM950.307,766.55c-31.851,-1.405 -63.137,-24.853 -62.253,-57.57c0,0 55.578,30.681 104.698,-25.812c28.673,-32.979 120.583,-123.916 245.189,-93.697c-12.81,2.817 -26.239,6.958 -39.934,12.142l0.353,0.152c12.083,5.317 18.849,20.305 20.513,34.906c3.394,29.563 -15.385,56.445 -15.385,56.445c-1.918,-21.998 -6.526,-37.693 -11.881,-48.861c-1.263,30.366 -9.357,69.432 -37.657,100.736c-20.307,22.481 -104.97,68.902 -161.783,18c-2.958,7.194 -6.079,15.718 -8.708,24.966c-8.583,30.254 7.849,74.47 7.849,74.47c0,0 -44.413,-50.281 -41.001,-95.877ZM468.669,601.611c-13.693,-5.183 -27.121,-9.323 -39.931,-12.14c124.616,-30.219 216.504,60.718 245.181,93.697c49.12,56.493 104.715,25.812 104.715,25.812c0.882,32.713 -30.407,56.16 -62.261,57.569c3.405,45.597 -41.005,95.878 -41.005,95.878c0,0 16.432,-44.216 7.848,-74.47c-2.631,-9.256 -5.756,-17.785 -8.719,-24.982c-56.824,50.914 -141.495,4.489 -161.803,-17.997c-28.28,-31.291 -36.373,-70.339 -37.637,-100.701c-5.286,11.032 -9.841,26.478 -11.799,48.045l-0.071,0.794c0,0 -18.778,-26.882 -15.402,-56.445c1.682,-14.601 8.452,-29.589 20.526,-34.906l0.358,-0.154ZM531.397,631.312c-8.735,26.763 -10.089,81.611 20.566,104.413c47.967,35.648 95.009,14.737 111.971,4.898l-0.051,-0.091l0.005,0l0,0l-0.005,0c-22.011,-33.505 -74.895,-76.846 -132.486,-109.22ZM1135.27,631.321c-57.586,32.374 -110.47,75.71 -132.491,109.211l-0.046,0.082c16.944,9.837 63.983,30.769 111.966,-4.889c30.669,-22.8 29.319,-77.638 20.571,-104.404ZM913.88,579.316c-29.338,17.757 -55.542,23.91 -80.536,24.456c-25.002,-0.546 -51.193,-6.699 -80.535,-24.456c0,0 42.728,52.139 80.32,52.54l0,0.031c0.066,0 0.132,-0.018 0.211,-0.018c0.066,0 0.132,0.018 0.211,0.018l0,-0.031c37.583,-0.401 80.329,-52.54 80.329,-52.54l0,0ZM1198.1,355.357c9.724,-13.102 11.232,-31.086 12.839,-50.01c1.54,-18.232 3.129,-37.099 12.897,-52.523c2.122,-3.349 4.391,-6.55 6.78,-9.608c-21.941,0.845 -41.258,7.803 -57.467,20.714c-23.632,18.795 -35.693,52.212 -39.944,66.395c14.414,12.229 24.324,23.672 30.999,32.92c10.06,-2.782 21.574,-5.583 33.896,-7.888ZM533.477,330.302c-4.259,-14.196 -16.317,-47.592 -39.935,-66.372c-17.33,-13.795 -38.225,-20.803 -62.074,-20.803c-0.339,0 -0.675,0.002 -1.01,0.005c3.117,3.764 6.043,7.758 8.726,11.995c9.213,14.565 10.771,32.899 12.272,50.656c1.508,17.888 2.939,35.013 11.162,48.51c14.565,2.475 28.18,5.724 39.842,8.949c6.678,-9.253 16.592,-20.703 31.017,-32.94ZM1092.21,301.834c7.761,-16.063 24.61,-40.407 60.918,-65.93c24.465,-17.194 53.781,-26.288 84.779,-26.288c10.721,0 20.008,1.075 27.113,2.301c9.679,-6.454 19.507,-11.629 28.583,-15.722c-14.011,-5.934 -40.343,-14.781 -72.815,-14.781c-17.933,0 -35.435,2.711 -52.087,8.086c-52.575,16.954 -93.188,68.282 -111.298,94.791c4.713,2.101 9.376,4.276 13.992,6.525c7.432,3.625 14.36,7.309 20.815,11.018ZM574.468,301.814c6.449,-3.705 13.371,-7.386 20.795,-11.006c5.928,-2.89 11.936,-5.657 18.023,-8.302c-17.783,-26.186 -59.411,-79.496 -113.995,-97.095c-59.073,-19.06 -113.523,-0.925 -136.839,10.96c10.228,4.083 21.754,9.55 33.137,16.73c7.435,-1.62 19.064,-3.489 33.176,-3.489c30.997,0 60.305,9.098 84.788,26.292c36.302,25.508 53.154,49.845 60.915,65.91Z" style="fill:#000;"/></svg>