<?xml version="1.0" standalone="no"?><!DOCTYPE svg PUBLIC "-//W3C//DTD SVG 1.1//EN" "http://www.w3.org/Graphics/SVG/1.1/DTD/svg11.dtd"><svg width="100%" height="100%" viewBox="0 0 2084 2084" version="1.1" xmlns="http://www.w3.org/2000/svg" xmlns:xlink="http://www.w3.org/1999/xlink" xml:space="preserve" style="fill-rule:evenodd;clip-rule:evenodd;stroke-linejoin:round;stroke-miterlimit:1.41421;"><path d="M1376.65,1716.95c-37.408,151.254 -174.131,263.529 -336.871,263.529c-191.511,0 -346.994,-155.483 -346.994,-346.995c0,-5.61 0.134,-11.189 0.399,-16.734c-33.304,-106.427 -118.239,-190.126 -225.414,-221.704c-6.666,0.383 -13.383,0.577 -20.143,0.577c-191.512,0 -346.995,-155.483 -346.995,-346.994c0,-191.512 155.483,-346.995 346.995,-346.995l1.544,0.005c116.345,-27.086 209.532,-114.774 244.424,-227.93c-0.537,-7.882 -0.81,-15.837 -0.81,-23.856c0,-191.511 155.483,-346.994 346.994,-346.994c165.756,0 304.522,116.474 338.848,271.975l0.859,0l0.007,2.169l0.018,1.959c4.408,21.189 6.879,43.083 7.22,65.49c26.873,127.148 125.841,227.831 252.055,257.197c25.586,0.224 50.514,3.222 74.498,8.709l1.731,0.005l0,0.395c153.344,35.911 267.68,173.644 267.68,337.871c0,191.511 -155.483,346.994 -346.994,346.994c-5.444,0 -10.858,-0.126 -16.24,-0.376c-117.362,34.854 -207.932,132.24 -233.017,253.464c-0.803,18.556 -3.066,36.735 -6.677,54.428c-0.187,4.577 -0.281,9.179 -0.281,13.811l-2.836,0ZM1045.95,797.14c131.826,0 238.853,107.027 238.853,238.854c0,131.826 -107.027,238.853 -238.853,238.853c-131.827,0 -238.854,-107.027 -238.854,-238.853c0,-131.827 107.027,-238.854 238.854,-238.854Z" style="fill:#000;"/></svg>