<?xml version="1.0" encoding="utf-8"?>
<!-- Generator: Adobe Illustrator 16.0.0, SVG Export Plug-In . SVG Version: 6.00 Build 0)  -->
<!DOCTYPE svg PUBLIC "-//W3C//DTD SVG 1.1//EN" "http://www.w3.org/Graphics/SVG/1.1/DTD/svg11.dtd">
<svg version="1.1" id="Layer_1" xmlns="http://www.w3.org/2000/svg" xmlns:xlink="http://www.w3.org/1999/xlink" x="0px" y="0px"
	 width="300px" height="300px" viewBox="0 0 300 300" enable-background="new 0 0 300 300" xml:space="preserve">
<g>
	<path fill-rule="evenodd" clip-rule="evenodd" d="M62.754,69.837c-0.187,0.438-0.362,0.88-0.563,1.312
		c-4.059,8.684-6.64,17.785-7.838,27.298c-0.793,6.298-0.947,12.614-0.525,18.928c0.808,12.096,3.642,23.735,8.207,34.962
		c5.968,14.68,14.614,27.616,25.434,39.135c8.668,9.225,18.448,17.085,29.285,23.624c10.83,6.535,22.357,11.463,34.552,14.804
		c3.847,1.054,7.775,1.776,11.726,2.31c4.073,0.548,8.157,1.049,12.253,1.351c3.483,0.256,6.991,0.279,10.487,0.268
		c10.301-0.039,20.432-1.393,30.352-4.191c12.249-3.458,23.454-8.975,33.325-17.085c3.995-3.281,7.643-6.914,10.95-10.889
		c0.381-0.456,0.777-0.898,1.377-1.23c-0.106,0.328-0.179,0.674-0.328,0.982c-0.83,1.711-1.616,3.445-2.531,5.11
		c-11.194,20.358-27.086,35.783-48.166,45.718c-8.593,4.05-17.613,6.737-26.958,8.416c-10.024,1.802-20.125,2.171-30.265,1.688
		c-7.114-0.339-14.183-1.207-21.177-2.559c-2.336-0.452-4.616-1.237-6.891-1.964c-22.497-7.192-41.878-19.384-58.148-36.479
		c-13.623-14.313-23.591-30.837-29.599-49.7c-2.315-7.269-3.893-14.692-4.711-22.284c-0.705-6.553-0.834-13.107-0.225-19.667
		c1.322-14.245,5.674-27.456,13.611-39.421c0.508-0.767,1.043-1.518,1.612-2.241c4.554-5.788,9.119-11.567,13.683-17.347
		c0.263-0.333,0.546-0.649,0.82-0.973C62.587,69.753,62.671,69.796,62.754,69.837z"/>
	<path fill-rule="evenodd" clip-rule="evenodd" d="M122.708,49.301c-2.687,5.344-4.65,10.938-5.824,16.809
		c-1.346,6.725-1.685,13.505-1.075,20.33c1.426,15.962,7.353,30.198,16.915,42.916c14.03,18.661,32.43,30.939,55.027,36.841
		c8.422,2.199,17.018,3.104,25.716,2.66c14.481-0.739,27.828-4.913,39.681-13.442c5.014-3.608,9.401-7.871,13.171-12.767
		c0.3-0.388,0.604-0.774,0.917-1.151c0.07-0.084,0.192-0.127,0.296-0.194c0.238,0.468-0.11,0.835-0.254,1.204
		c-1.39,3.549-3.093,6.947-5.088,10.194c-10.55,17.167-25.573,28.349-45.048,33.484c-9.932,2.618-20.054,3.361-30.295,2.737
		c-4.78-0.291-9.535-0.786-14.257-1.583c-0.725-0.123-1.453-0.254-2.154-0.464c-8.967-2.695-17.521-6.324-25.467-11.321
		c-7.205-4.53-13.754-9.861-19.614-16.036c-0.971-1.023-1.998-1.994-2.962-3.024c-0.67-0.714-1.319-1.458-1.91-2.239
		c-5.685-7.514-10.689-15.425-14.129-24.248c-2.802-7.188-4.579-14.612-5.242-22.307c-0.859-9.976,0.168-19.721,3.446-29.201
		c1.834-5.306,4.337-10.281,7.56-14.882c3.097-4.422,6.233-8.817,9.354-13.223c0.248-0.351,0.498-0.704,0.791-1.013
		c0.087-0.091,0.328-0.034,0.498-0.045L122.708,49.301z"/>
	<path fill-rule="evenodd" clip-rule="evenodd" d="M172.135,37.926c-1.562,2.954-2.501,6.123-3.13,9.381
		c-1.725,8.94-0.607,17.627,2.814,25.973c7.047,17.189,19.424,28.894,36.885,35.216c4.168,1.51,8.493,2.371,12.874,2.981
		c3.408,0.475,6.828,0.769,10.271,0.636c4.183-0.162,8.295-0.749,12.293-2.062c5.722-1.878,10.609-5.026,14.668-9.47
		c0.401-0.44,0.812-0.872,1.267-1.361c0.031,0.221,0.095,0.352,0.055,0.425c-3.092,5.645-6.894,10.723-11.853,14.883
		c-5.967,5.008-12.839,8.057-20.479,9.413c-5.352,0.95-10.736,1.058-16.133,0.471c-2.193-0.238-4.387-0.511-6.561-0.877
		c-2.793-0.471-5.449-1.44-8.063-2.496c-13.11-5.296-23.448-13.886-30.727-26.053c-3.469-5.798-5.818-12.038-6.759-18.74
		c-1.661-11.809,0.782-22.678,7.718-32.457c1.312-1.851,2.66-3.679,4.001-5.509c0.215-0.294,0.46-0.612,0.902-0.337L172.135,37.926z
		"/>
	<path fill-rule="evenodd" clip-rule="evenodd" d="M172.18,37.944c-0.076-0.082-0.16-0.158-0.221-0.249
		c-0.023-0.033-0.006-0.114,0.021-0.154c0.024-0.04,0.086-0.055,0.131-0.08c0.011,0.093,0.027,0.188,0.03,0.281
		c0.002,0.057-0.018,0.114-0.017,0.178C172.135,37.926,172.18,37.944,172.18,37.944z"/>
	<path fill-rule="evenodd" clip-rule="evenodd" d="M122.759,49.335c-0.053-0.088-0.115-0.173-0.153-0.268
		c-0.015-0.038,0.014-0.108,0.045-0.143c0.028-0.03,0.088-0.029,0.133-0.041c0,0.09,0.011,0.183-0.003,0.271
		c-0.008,0.048-0.056,0.091-0.079,0.141C122.708,49.301,122.759,49.335,122.759,49.335z"/>
</g>
<g>
</g>
<g>
</g>
<g>
</g>
<g>
</g>
<g>
</g>
<g>
</g>
</svg>
