<?xml version="1.0" standalone="no"?><!DOCTYPE svg PUBLIC "-//W3C//DTD SVG 1.1//EN" "http://www.w3.org/Graphics/SVG/1.1/DTD/svg11.dtd"><svg width="100%" height="100%" viewBox="0 0 1667 1667" version="1.1" xmlns="http://www.w3.org/2000/svg" xmlns:xlink="http://www.w3.org/1999/xlink" xml:space="preserve" style="fill-rule:evenodd;clip-rule:evenodd;stroke-linejoin:round;stroke-miterlimit:1.41421;"><path d="M1550.36,1214.49c-2.975,-20.25 -11.251,-39.369 -22.095,-54.879c-10.874,-15.569 -23.867,-28.185 -37.465,-38.461c-27.343,-20.5 -56.997,-33.109 -87.057,-40.956c-2.445,-0.642 -4.899,-1.252 -7.36,-1.831c7.458,-9.721 14.383,-19.839 20.744,-30.311c12.808,-21.268 23.549,-44.005 30.783,-68.381c7.087,-24.324 10.402,-50.545 7.235,-76.39c-3.042,-25.808 -12.853,-50.568 -27.536,-70.426c-7.125,-9.822 -15.23,-18.895 -24.191,-27.077l-6.695,-5.862c-2.289,-1.875 -4.585,-3.705 -6.925,-5.522l-7.183,-5.278l-6.991,-4.71c-1.361,-0.911 -2.962,-1.398 -4.6,-1.398c-4.536,0 -8.268,3.732 -8.268,8.268c0,2.105 0.803,4.132 2.245,5.665l5.795,6.128l5.22,5.979l5.034,6.223l4.769,6.334c6.049,8.37 11.231,17.334 15.466,26.753c8.253,18.463 11.7,37.811 10.29,56.65c-1.365,18.884 -7.367,37.273 -16.226,54.599c-8.777,17.333 -20.374,33.714 -33.566,48.722c-6.534,7.476 -13.458,14.603 -20.744,21.349c-1.786,1.653 -3.588,3.248 -5.359,4.739c-0.871,0.738 -1.735,1.484 -2.503,2.067l-0.288,0.214l-0.088,0.045c-0.133,0.103 1.107,-1.063 0.479,-0.495l0.015,-0.044c0.074,-0.089 -0.074,0.029 -0.118,0.044l-1.092,0.716c-3.359,2.193 -7.397,4.68 -11.435,6.917c-16.315,9.058 -34.047,16.256 -51.727,20.641c-17.21,4.339 -34.963,6.137 -52.694,5.337c-17.2,-0.783 -33.817,-4.437 -49.777,-10.232c-0.716,-0.251 -1.44,-0.539 -2.156,-0.819c3.322,-0.48 6.644,-1.019 10.018,-1.698c10.923,-2.164 21.608,-5.398 31.898,-9.656c10.965,-4.543 21.311,-10.456 30.791,-17.599c9.568,-7.225 18.146,-15.676 25.512,-25.136c6.955,-8.922 12.816,-18.645 17.459,-28.96c4.255,-9.434 7.665,-19.226 10.187,-29.263c2.326,-9.567 3.883,-18.957 4.799,-28.074c1.831,-18.286 1.454,-35.538 0.118,-52.185l-0.539,-6.252l-0.716,-6.452c-0.258,-2.097 -0.465,-4.393 -0.753,-6.297l-0.842,-5.448l-0.42,-2.732l-0.207,-1.343l-0.103,-0.679l-0.045,-0.34l-0.029,-0.17l-0.067,-0.76l-0.849,-5.219l-1.668,-10.446c-2.202,-13.886 -4.073,-27.822 -5.61,-41.798c-0.901,-6.99 -1.307,-13.922 -1.979,-20.906c-0.59,-6.976 -0.9,-13.908 -1.395,-20.891c-0.554,-13.864 -1.004,-27.809 -0.509,-41.584c0.073,-6.924 0.671,-13.731 0.989,-20.618c0.627,-6.784 1.092,-13.679 2.089,-20.397c1.75,-13.502 4.282,-26.849 8.002,-39.686c3.706,-12.845 8.659,-25.159 15.06,-36.468c6.304,-11.383 14.314,-21.63 24.169,-29.573c7.339,-6.028 15.878,-10.424 25.047,-12.896c1.529,-0.443 2.835,-0.635 4.304,-0.997c1.602,-0.266 3.595,-0.369 5.382,-0.583l0.243,-0.015c4.137,-0.482 7.292,-4.026 7.292,-8.19c0,-4.19 -3.193,-7.747 -7.358,-8.198c-1.875,-0.2 -3.543,-0.488 -5.588,-0.62c-2.193,-0.045 -4.533,-0.163 -6.629,-0.059c-4.208,0.147 -8.416,0.627 -12.557,1.424c-8.27,1.656 -16.263,4.474 -23.741,8.372c-14.986,7.648 -27.883,18.684 -38.609,31.108c-10.741,12.461 -19.437,26.302 -26.723,40.616c-7.264,14.322 -13.096,29.138 -18.005,44.153c-2.584,7.5 -4.577,15.06 -6.733,22.648c-1.86,7.574 -3.78,15.222 -5.263,22.855c-3.256,15.304 -5.478,30.636 -7.545,46.006c-1.831,15.34 -3.174,30.732 -4.053,46.072c-0.886,15.347 -1.38,30.673 -1.498,45.976l-0.015,11.472l0,5.743c0.044,0.598 -0.059,-0.598 -0.044,-0.421l0,0.524l-0.015,0.694l0,1.381l-0.015,2.753l-0.044,5.507c-0.015,1.757 -0.148,3.101 -0.214,4.681l-0.251,4.532l-0.362,4.725c-0.974,12.623 -2.805,24.745 -5.773,35.397c-1.484,5.308 -3.226,10.224 -5.086,14.691c-1.736,3.991 -3.845,7.809 -6.297,11.405c-4.533,6.445 -9.102,9.656 -13.908,11.73c-4.769,2.038 -10.704,3.396 -18.773,3.654c-7.98,0.288 -17.673,-0.671 -27.978,-2.894c-1.469,-0.295 -2.938,-0.612 -4.429,-0.959c0,0 -37.605,-13.259 -25.247,-56.289c8.379,-15.576 23.726,-31.632 52.029,-35.818c0,0 60.371,-467.474 -317.912,-767.971c-0.243,-0.185 -0.494,0 -0.494,0c-378.239,300.453 -317.867,767.927 -317.867,767.927c30.178,4.458 45.658,22.427 53.609,38.903c9.057,37.819 -21.364,51.343 -25.565,53.004c-1.749,0.428 -3.492,0.827 -5.204,1.159c-10.313,2.215 -20.006,3.175 -27.978,2.894c-8.062,-0.266 -13.997,-1.624 -18.788,-3.654c-4.784,-2.089 -9.375,-5.301 -13.886,-11.738c-2.214,-3.174 -4.355,-7.042 -6.297,-11.39c-1.992,-4.795 -3.693,-9.706 -5.093,-14.706c-2.953,-10.645 -4.762,-22.781 -5.758,-35.39l-0.355,-4.724l-0.243,-4.533c-0.074,-1.557 -0.192,-2.908 -0.222,-4.68l-0.029,-5.507l-0.015,-2.754l-0.015,-1.38l0,-1.218c0.015,-0.177 -0.089,1.019 -0.044,0.421l0,-5.744l-0.015,-11.479c-0.111,-15.333 -0.61,-30.661 -1.499,-45.968c-0.871,-15.341 -2.222,-30.732 -4.052,-46.072c-2.067,-15.377 -4.289,-30.71 -7.545,-46.006c-1.454,-7.633 -3.396,-15.281 -5.263,-22.855c-2.141,-7.589 -4.157,-15.148 -6.718,-22.648c-4.924,-15.001 -10.741,-29.832 -18.013,-44.153c-7.278,-14.299 -15.989,-28.141 -26.73,-40.616c-10.704,-12.424 -23.623,-23.461 -38.624,-31.109c-7.48,-3.893 -15.473,-6.711 -23.741,-8.371c-4.134,-0.783 -8.341,-1.277 -12.549,-1.425c-2.104,-0.103 -4.459,0.015 -6.637,0.059c-2.052,0.133 -3.72,0.406 -5.588,0.613c-4.155,0.466 -7.333,4.02 -7.333,8.202c0,4.156 3.14,7.697 7.267,8.194l0.243,0.014c1.787,0.215 3.78,0.318 5.389,0.591c1.462,0.354 2.783,0.554 4.297,0.982c3.063,0.812 6.031,1.845 8.932,3.108c5.788,2.473 11.213,5.773 16.1,9.796c9.87,7.95 17.865,18.189 24.169,29.573c6.401,11.294 11.339,23.623 15.06,36.467c3.713,12.838 6.253,26.185 8.002,39.687c0.989,6.718 1.477,13.612 2.089,20.397c0.31,6.895 0.931,13.693 0.975,20.618c0.509,13.753 0.059,27.72 -0.48,41.576c-0.517,6.991 -0.827,13.923 -1.41,20.892c-0.679,6.99 -1.078,13.922 -1.978,20.913c-1.521,13.952 -3.396,27.868 -5.611,41.798l-1.683,10.438l-0.827,5.219c0.037,-0.48 -0.074,0.842 -0.074,0.768l-0.014,0.162l-0.045,0.347l-0.103,0.68l-0.221,1.343l-0.421,2.732l-0.827,5.448c-0.273,1.904 -0.517,4.207 -0.753,6.296l-0.701,6.452l-0.539,6.253c-1.336,16.632 -1.742,33.899 0.103,52.177c0.93,9.124 2.473,18.514 4.813,28.082c2.459,9.611 5.685,19.422 10.158,29.262c4.66,10.313 10.531,20.035 17.488,28.961c7.366,9.456 15.938,17.906 25.498,25.136c9.485,7.142 19.836,13.056 30.806,17.599c10.287,4.26 20.969,7.494 31.891,9.656c3.366,0.671 6.718,1.218 10.01,1.698c-0.714,0.286 -1.432,0.559 -2.156,0.819c-15.96,5.795 -32.577,9.449 -49.763,10.232c-17.725,0.794 -35.472,-1.004 -52.678,-5.338c-17.718,-4.385 -35.413,-11.582 -51.764,-20.64c-3.885,-2.17 -7.692,-4.477 -11.413,-6.917l-1.092,-0.716c-0.045,-0.015 -0.192,-0.133 -0.133,-0.045c0,0.015 0.029,0.03 0.029,0.045c-0.635,-0.569 0.613,0.598 0.48,0.494l-0.074,-0.029l-0.273,-0.214c-0.753,-0.583 -1.631,-1.329 -2.51,-2.067c-1.814,-1.545 -3.599,-3.125 -5.352,-4.74c-7.289,-6.74 -14.213,-13.864 -20.744,-21.341c-13.191,-15.016 -24.789,-31.397 -33.566,-48.73c-8.859,-17.311 -14.875,-35.715 -16.241,-54.598c-1.402,-18.839 2.038,-38.188 10.291,-56.651c4.245,-9.416 9.432,-18.379 15.48,-26.752l4.769,-6.334l5.035,-6.223l5.219,-5.98l5.795,-6.127c1.45,-1.535 2.259,-3.568 2.259,-5.679c0,-4.536 -3.733,-8.268 -8.268,-8.268c-1.647,0 -3.256,0.492 -4.621,1.412l-6.999,4.71l-7.183,5.278c-2.34,1.816 -4.621,3.662 -6.909,5.522l-6.696,5.861c-8.961,8.184 -17.071,17.254 -24.206,27.071c-14.683,19.872 -24.479,44.639 -27.535,70.432c-3.167,25.845 0.147,52.067 7.242,76.391c7.234,24.376 17.968,47.113 30.783,68.381c6.367,10.478 13.294,20.607 20.751,30.34c-2.473,0.569 -4.931,1.137 -7.389,1.787c-30.045,7.839 -59.7,20.455 -87.036,40.963c-13.59,10.283 -26.597,22.885 -37.471,38.454c-10.83,15.502 -19.105,34.644 -22.073,54.878c-3.152,20.264 -0.347,40.691 5.515,58.09c3.026,8.667 6.732,16.736 10.873,24.214c4.245,7.33 8.748,14.351 13.68,20.544c4.842,6.371 10.017,12.107 15.251,17.644l4.282,4.252l2.141,2.133c0.716,0.716 1.454,1.44 1.993,1.905l7.744,6.895c10.519,9.026 21.475,17.53 32.828,25.483c22.634,15.702 46.404,28.901 70.403,40.107c21.977,10.32 44.153,18.898 66.011,27.07l0.355,0.93l1.742,4.097c0.635,1.329 1.366,2.614 2.067,3.928c1.417,2.598 2.872,5.167 4.37,7.714l1.122,1.89l1.255,1.772l2.569,3.536c1.742,2.31 3.47,4.68 5.278,6.902c15.03,17.496 34.032,29.543 53.381,36.652c19.429,7.161 39.361,9.479 58.274,8.578c2.355,-0.118 4.74,-0.177 7.087,-0.369l6.939,-0.9l6.895,-0.96c2.281,-0.347 4.503,-0.93 6.733,-1.425l6.673,-1.535c1.13,-0.296 2.193,-0.48 3.366,-0.842l3.536,-1.078l7.006,-2.237l3.477,-1.151c1.159,-0.391 2.399,-0.812 3.101,-1.152l9.98,-4.311l1.248,-0.539c0.701,-0.28 -1.159,0.406 1.661,-0.664l0.273,-0.111l0.554,-0.258l2.185,-1.019l4.385,-2.052c2.908,-1.455 5.891,-2.687 8.858,-3.935c2.99,-1.24 5.958,-2.584 9.021,-3.625c12.097,-4.685 24.542,-8.417 37.221,-11.161c25.291,-5.478 51.616,-7.56 76.885,-3.81c12.601,1.875 24.9,5.19 36.239,10.203c11.324,5.034 21.762,11.722 30.052,20.441c1.027,1.107 2.119,2.17 3.123,3.314l2.776,3.551l1.402,1.787l1.218,1.904l2.451,3.839c2.82,5.359 5.485,10.962 6.969,17.067c0.376,1.536 0.901,3.027 1.181,4.592l0.79,4.725l0.399,2.369c0.096,0.798 0.11,1.624 0.184,2.414l0.362,4.872c0.192,3.256 -0.037,6.334 0.015,9.575c-0.303,3.492 -0.798,7.183 -1.174,10.771l0,0.088c-0.032,0.297 -0.049,0.595 -0.049,0.893c0,4.191 3.204,7.746 7.372,8.18c3.938,0.411 7.644,-2.066 8.77,-5.862c1.033,-3.499 2.141,-6.858 3.137,-10.482c0.776,-3.935 1.787,-8.002 2.281,-11.974l0.657,-5.957c0.104,-0.99 0.222,-1.994 0.288,-2.998l0.045,-3.026l0.029,-6.091c-0.015,-2.059 -0.317,-4.082 -0.465,-6.127c-0.59,-8.231 -2.687,-16.373 -5.322,-24.361l-2.407,-5.854l-1.24,-2.938l-1.477,-2.805l-3.011,-5.625c-1.078,-1.816 -2.282,-3.529 -3.448,-5.315c-2.237,-3.64 -4.998,-6.807 -7.633,-10.136c-1.292,-1.727 -2.82,-3.115 -4.26,-4.68c-1.476,-1.514 -2.879,-3.101 -4.414,-4.54c-6.194,-5.64 -12.727,-10.97 -19.718,-15.377c-13.908,-9.058 -29.012,-15.805 -44.485,-20.715c-31.034,-9.7 -63.523,-12.549 -95.436,-10.379c-15.975,1.071 -31.891,3.329 -47.519,6.843c-3.942,0.761 -7.795,1.816 -11.685,2.806c-3.898,0.959 -7.796,1.963 -11.605,3.174l-5.758,1.757l-2.879,0.886l-0.724,0.243l-0.361,0.104c2.598,-0.975 0.538,-0.222 1.033,-0.406l-1.299,0.347l-10.483,2.893c-0.982,0.31 -1.506,0.31 -2.089,0.369l-1.772,0.229l-3.477,0.495l-1.727,0.273c-0.583,0.089 -1.322,0.103 -1.979,0.162l-4.001,0.288c-1.328,0.074 -2.657,0.281 -3.979,0.266l-3.897,-0.088l-3.869,-0.03c-1.262,-0.103 -2.51,-0.317 -3.75,-0.436c-9.943,-1.018 -19.001,-3.912 -26.221,-7.994c-7.227,-4.061 -12.446,-9.376 -15.399,-14.565c-2.791,-5.352 -3.44,-10.335 -2.931,-15.732c0.605,-5.389 2.584,-11.663 6.681,-18.662c4.09,-6.954 10.003,-14.336 17.333,-21.504c15.163,-14.203 35.065,-27.447 57.145,-38.476l4.06,-2.126l4.312,-1.963l8.592,-3.898c5.581,-2.746 11.76,-4.872 17.622,-7.338l20.234,-8.312l10.054,-4.119l1.241,-0.495l1.424,-0.679l2.894,-1.322l0.015,-0.014l5.758,-2.68c7.035,-3.285 14.166,-6.57 20.781,-10.084c44.632,-20.242 138.075,-57.47 221.796,-57.47c83.721,0 177.164,37.228 221.811,57.47c6.585,3.514 13.731,6.792 20.759,10.084l5.795,2.694l2.879,1.329l1.439,0.657l1.24,0.51l10.055,4.119l20.227,8.312c5.883,2.458 12.062,4.621 17.643,7.338l8.578,3.898l4.289,1.963l4.06,2.126c22.08,11.029 41.99,24.273 57.168,38.476c7.33,7.168 13.243,14.543 17.333,21.504c4.097,6.991 6.061,13.281 6.659,18.662c0.531,5.389 -0.133,10.365 -2.909,15.732c-2.953,5.189 -8.172,10.482 -15.399,14.565c-7.205,4.082 -16.278,6.976 -26.222,7.994c-1.24,0.133 -2.487,0.333 -3.75,0.436l-3.868,0.03l-3.912,0.088c-1.292,0.015 -2.643,-0.192 -3.965,-0.266l-4.015,-0.288c-0.665,-0.059 -1.396,-0.073 -1.964,-0.162l-1.728,-0.273l-3.469,-0.495l-1.764,-0.221c-0.591,-0.067 -1.093,-0.074 -2.082,-0.377l-10.483,-2.893l-1.307,-0.347c0.495,0.192 -1.579,-0.569 1.019,0.406l-0.362,-0.104l-0.716,-0.243l-2.879,-0.886l-5.758,-1.757c-3.832,-1.177 -7.699,-2.236 -11.597,-3.174c-3.905,-0.975 -7.751,-2.045 -11.701,-2.806c-15.64,-3.499 -31.526,-5.787 -47.518,-6.843c-31.928,-2.17 -64.417,0.694 -95.437,10.379c-15.473,4.91 -30.577,11.642 -44.484,20.715c-7.006,4.407 -13.539,9.737 -19.726,15.377c-1.528,1.439 -2.938,3.026 -4.407,4.54c-1.424,1.565 -2.953,2.953 -4.244,4.68c-2.636,3.329 -5.397,6.496 -7.648,10.143c-1.174,1.779 -2.355,3.492 -3.433,5.308l-3.019,5.625l-1.469,2.805l-1.226,2.938l-2.421,5.847c-2.636,7.995 -4.725,16.137 -5.308,24.376c-0.162,2.037 -0.443,4.06 -0.443,6.119l0.022,6.091l0.045,3.026c0.051,1.004 0.184,2.008 0.295,2.998l0.65,5.957c0.502,3.972 1.535,8.046 2.288,11.966c0.982,3.632 2.111,6.991 3.13,10.483c1.002,3.534 4.253,5.991 7.926,5.991c4.519,0 8.238,-3.719 8.238,-8.239c0,-0.322 -0.018,-0.643 -0.056,-0.963l-0.015,-0.081c-0.369,-3.573 -0.886,-7.264 -1.152,-10.778c0.03,-3.234 -0.199,-6.312 0.015,-9.56l0.34,-4.872c0.074,-0.798 0.088,-1.624 0.184,-2.422l0.406,-2.362l0.761,-4.725c0.317,-1.565 0.827,-3.063 1.181,-4.599c1.491,-6.083 4.156,-11.708 6.991,-17.067l2.465,-3.839l1.182,-1.904l1.424,-1.787l2.791,-3.551c0.989,-1.129 2.089,-2.192 3.1,-3.322c8.313,-8.711 18.751,-15.399 30.06,-20.433c11.354,-5.02 23.638,-8.328 36.254,-10.203c25.276,-3.764 51.601,-1.668 76.885,3.81c12.669,2.747 25.103,6.479 37.191,11.161c3.064,1.049 6.031,2.385 9.036,3.625c2.997,1.248 5.95,2.48 8.858,3.935l4.4,2.052l2.185,1.019l0.539,0.258l0.288,0.118c2.82,1.063 0.96,0.369 1.668,0.642l1.241,0.554l9.973,4.311c0.694,0.34 1.934,0.761 3.1,1.152l3.47,1.137l7.006,2.251l3.521,1.078c1.174,0.347 2.237,0.546 3.366,0.842l6.688,1.535c2.215,0.48 4.437,1.048 6.718,1.425l6.902,0.96l6.94,0.893c2.34,0.214 4.724,0.273 7.109,0.376c18.898,0.901 38.83,-1.439 58.259,-8.578c19.364,-7.124 38.365,-19.149 53.395,-36.652c1.809,-2.222 3.544,-4.592 5.293,-6.902l2.562,-3.544l1.277,-1.772l1.107,-1.882c1.484,-2.554 2.946,-5.116 4.356,-7.714c0.701,-1.314 1.454,-2.591 2.067,-3.928l1.727,-4.097c0.133,-0.31 0.237,-0.612 0.355,-0.93c21.873,-8.172 44.056,-16.757 66.025,-27.07c23.985,-11.221 47.763,-24.405 70.389,-40.107c11.348,-7.956 22.301,-16.461 32.821,-25.483l7.737,-6.895c0.538,-0.465 1.291,-1.181 2.008,-1.905l2.14,-2.133l4.282,-4.26c5.4,-5.6 10.491,-11.49 15.251,-17.643c4.932,-6.186 9.45,-13.214 13.68,-20.545c4.303,-7.748 7.945,-15.845 10.888,-24.206c5.817,-17.348 8.623,-37.781 5.493,-58.045l0,0ZM445.471,1231.24c-1.727,1.181 -3.447,2.259 -5.16,3.522l-5.093,3.838l-10.143,7.693c-1.698,1.254 -3.359,2.628 -5.013,4.067l-4.961,4.23c-3.285,2.85 -6.585,5.596 -9.825,8.578l-9.523,9.375c-1.573,1.588 -3.152,3.123 -4.695,4.74l-4.562,5.189c-2.998,3.477 -6.032,6.844 -8.933,10.483c-11.538,14.698 -22.08,31.44 -29.75,50.892c-3.839,9.708 -6.791,20.227 -8.563,31.256l-1.063,8.401c-0.03,0.369 -0.074,0.783 -0.118,1.137c-9.741,-5.999 -19.329,-12.244 -28.754,-18.728c-19.931,-13.561 -38.35,-28.303 -54.997,-44.264c-8.237,-7.926 -16.081,-16.25 -23.504,-24.944l-5.463,-6.629c-0.591,-0.664 -0.886,-1.122 -1.211,-1.572l-0.989,-1.425l-2.015,-2.805c-2.82,-4.171 -5.515,-8.313 -7.663,-12.447c-2.325,-4.097 -3.957,-8.15 -5.492,-12.033c-1.26,-3.565 -2.209,-7.233 -2.835,-10.962c-0.834,-6.843 -0.251,-12.225 1.654,-16.772c1.875,-4.526 4.739,-8.755 9.249,-13.229c4.504,-4.437 10.505,-8.903 17.762,-12.771c14.469,-7.825 33.013,-13.177 52.228,-15.65c19.283,-2.532 39.443,-2.038 58.939,0.9c19.548,2.879 38.491,8.49 55.861,16.426c4.355,1.948 8.593,4.097 12.734,6.37l6.12,3.514l5.241,2.717l3.758,1.794l3.624,1.653c4.924,2.171 10.055,4.171 15.348,5.98l-2.193,1.476ZM719.26,906.201c-16.711,0 -30.462,-13.751 -30.462,-30.462c0,-16.712 13.751,-30.463 30.462,-30.463c16.532,0.258 29.992,13.928 29.992,30.463c0,16.534 -13.46,30.205 -29.992,30.462l0,0ZM947.383,906.201c-16.711,0 -30.463,-13.751 -30.463,-30.462c0,-16.712 13.752,-30.463 30.463,-30.463c16.532,0.258 29.992,13.928 29.992,30.463c0,16.534 -13.46,30.205 -29.992,30.462l0,0ZM1461.47,1248.81c-0.624,3.73 -1.567,7.401 -2.82,10.97c-1.535,3.883 -3.181,7.921 -5.492,12.033c-2.163,4.134 -4.857,8.275 -7.663,12.446l-2.015,2.805l-0.989,1.425c-0.31,0.443 -0.628,0.93 -1.196,1.572l-5.463,6.629c-7.424,8.69 -15.266,17.015 -23.497,24.945c-16.64,15.96 -35.065,30.702 -54.99,44.263c-9.425,6.483 -19.007,12.735 -28.738,18.75l-0.133,-1.159l-1.063,-8.4c-1.708,-10.7 -4.58,-21.181 -8.564,-31.256c-7.67,-19.452 -18.197,-36.173 -29.727,-50.893c-2.894,-3.639 -5.943,-7.005 -8.94,-10.482l-4.548,-5.19c-1.557,-1.624 -3.13,-3.152 -4.695,-4.739l-9.552,-9.376c-3.226,-2.982 -6.541,-5.728 -9.811,-8.578l-4.961,-4.23c-1.61,-1.426 -3.283,-2.781 -5.012,-4.06l-10.136,-7.699l-5.101,-3.839c-1.698,-1.255 -3.433,-2.34 -5.16,-3.521l-2.207,-1.492c5.315,-1.808 10.423,-3.824 15.347,-5.979l3.625,-1.654l3.75,-1.801l5.256,-2.709l6.112,-3.514c4.142,-2.259 8.386,-4.429 12.735,-6.371c17.762,-8.054 36.565,-13.582 55.86,-16.425c19.511,-2.923 39.672,-3.433 58.939,-0.901c19.216,2.473 37.767,7.818 52.229,15.65c7.242,3.861 13.273,8.335 17.746,12.771c4.526,4.474 7.39,8.704 9.25,13.229c1.875,4.548 2.473,9.944 1.624,16.787l0,-0.007Z" style="fill:#000;fill-rule:nonzero;"/></svg>