<?xml version="1.0" standalone="no"?><!DOCTYPE svg PUBLIC "-//W3C//DTD SVG 1.1//EN" "http://www.w3.org/Graphics/SVG/1.1/DTD/svg11.dtd"><svg width="100%" height="100%" viewBox="0 0 2084 2084" version="1.1" xmlns="http://www.w3.org/2000/svg" xmlns:xlink="http://www.w3.org/1999/xlink" xml:space="preserve" style="fill-rule:evenodd;clip-rule:evenodd;stroke-linejoin:round;stroke-miterlimit:1.41421;"><g><path d="M95.59,114.031l1620.43,1716.43c0,0 55.22,38.938 97.42,-6.494c42.231,-45.418 9.757,-90.835 9.757,-90.835l-1727.61,-1619.1ZM608.667,276.262l1234.02,1330.32c0,0 55.205,38.938 97.42,-6.495c42.215,-45.417 9.742,-90.834 9.742,-90.834l-1341.18,-1232.99l0,0ZM248.214,623.439l1234,1330.33c0,0 55.204,38.938 97.42,-6.494c42.215,-45.433 9.742,-90.85 9.742,-90.85l-1341.16,-1232.99l0,0ZM1042.42,415.791l862.128,929.416c0,0 38.56,27.187 68.058,-4.531c29.498,-31.749 6.796,-63.482 6.796,-63.482l-936.982,-861.403l0,0ZM366.96,1025.78l862.128,929.431c0,0 38.576,27.187 68.058,-4.531c29.498,-31.748 6.812,-63.482 6.812,-63.482l-936.998,-861.402l0,-0.016ZM1485.48,616.959l390.737,422.516c0,0 19.076,12.747 33.666,-2.115c14.591,-14.877 3.369,-29.754 3.369,-29.754l-427.787,-390.647l0.015,0ZM582.689,1454.09l390.736,422.516c0,0 19.092,12.747 33.682,-2.115c14.59,-14.877 3.368,-29.754 3.368,-29.754l-427.786,-390.647l0,0Z" style="fill:#000;"/></g></svg>