<?xml version="1.0" encoding="utf-8"?>
<!-- Generator: Adobe Illustrator 16.0.0, SVG Export Plug-In . SVG Version: 6.00 Build 0)  -->
<!DOCTYPE svg PUBLIC "-//W3C//DTD SVG 1.1//EN" "http://www.w3.org/Graphics/SVG/1.1/DTD/svg11.dtd">
<svg version="1.1" id="Layer_1" xmlns="http://www.w3.org/2000/svg" xmlns:xlink="http://www.w3.org/1999/xlink" x="0px" y="0px"
	 width="300px" height="300px" viewBox="0 0 300 300" enable-background="new 0 0 300 300" xml:space="preserve">
<g transform="translate(241.59, -4.64258)">
	<path d="M10.732,219.975c-13.26-0.359-23.39,0.875-32.05,4.526c-2.461,1.037-6.386,1.065-6.787,4.149
		c1.354,1.417,1.563,3.535,2.638,5.277c2.066,3.346,5.559,7.83,8.675,10.183c3.401,2.567,6.91,5.317,10.559,7.541
		c6.488,3.958,13.734,6.218,19.983,10.182c3.683,2.336,7.341,5.279,10.933,7.916c1.777,1.303,2.973,3.331,5.28,4.147
		c0-0.124,0-0.249,0-0.376c-1.214-1.544-1.526-3.666-2.641-5.281c-1.632-1.632-3.268-3.266-4.9-4.901
		c-4.793-6.361-10.878-11.948-17.346-16.589c-5.156-3.704-16.701-8.703-18.854-14.705c-0.125-0.128-0.251-0.252-0.377-0.379
		c3.656-0.411,7.938-1.736,11.313-2.64c5.669-1.519,10.737-1.127,16.591-2.638c2.64-0.754,5.278-1.511,7.919-2.264
		c0-0.504,0-1.004,0-1.509c-2.959-3.036-5.069-7.056-8.297-9.805c-8.443-7.188-17.659-14.373-27.149-20.361
		c-5.262-3.322-11.767-5.481-17.345-8.296c-1.876-0.947-5.172-1.439-6.41-3.018c-2.93-3.734-4.526-8.47-6.785-12.82
		c-4.735-9.115-9.382-19.069-13.575-28.658c-2.861-6.539-4.729-12.988-8.296-18.854c-17.121-28.15-35.552-45.141-64.101-61.842
		c-6.076-3.551-13.389-4.954-21.119-6.786c-4.145-0.251-8.295-0.504-12.442-0.755c-2.533-1.058-5.166-4.155-7.542-5.656
		c-9.458-5.975-33.717-18.971-40.723-1.885c-4.422,10.785,6.611,21.309,10.557,26.772c2.771,3.834,6.318,8.133,8.296,12.443
		c1.303,2.833,1.526,5.674,2.641,8.673c2.74,7.387,5.125,15.421,8.671,22.248c1.792,3.453,3.767,7.092,6.034,10.181
		c1.388,1.895,3.77,2.729,4.144,5.656c-2.326,3.259-2.46,8.315-3.768,12.443c-5.895,18.582-3.67,41.679,4.902,55.431
		c2.63,4.223,8.826,13.276,17.345,9.804c7.451-3.035,5.788-12.44,7.918-20.739c0.481-1.882,0.186-3.265,1.13-4.524
		c0,0.124,0,0.252,0,0.378c2.264,4.524,4.525,9.05,6.789,13.573c5.022,8.09,13.938,16.544,21.491,22.248
		c3.919,2.961,7.002,8.075,12.066,9.804c0-0.124,0-0.25,0-0.377c-0.126,0-0.25,0-0.377,0c-0.981-1.53-2.515-2.164-3.769-3.393
		c-2.951-2.894-6.233-6.489-8.674-9.803c-6.87-9.331-12.94-19.539-18.473-30.168c-2.645-5.074-4.94-10.673-7.167-15.837
		c-0.858-1.992-0.848-5.003-2.639-6.033c-2.438,3.784-6.032,6.843-7.918,11.312c-3.017,7.144-3.405,15.854-4.524,24.887
		c-0.661,0.238-0.367,0.073-0.754,0.376c-5.253-1.268-7.097-6.672-9.049-11.31c-4.937-11.73-5.854-30.617-1.51-44.118
		c1.124-3.493,6.205-14.496,4.147-17.723c-0.981-3.221-4.219-5.083-6.032-7.543c-2.243-3.042-4.482-7.047-6.036-10.559
		c-4.039-9.146-5.925-19.412-10.178-28.656c-2.034-4.42-5.473-8.892-8.296-12.821c-3.127-4.353-6.628-7.558-9.05-12.822
		c-0.861-1.869-2.031-4.863-0.755-6.786c0.407-1.298,0.981-1.839,2.264-2.262c2.188-1.688,8.278,0.561,10.557,1.507
		c6.047,2.512,11.095,4.903,16.216,8.296c2.458,1.631,4.945,4.784,7.917,5.657c1.131,0,2.262,0,3.393,0
		c5.309,1.22,11.255,0.379,16.215,1.885c8.764,2.664,16.619,6.808,23.754,11.312c21.736,13.724,39.504,33.258,51.66,56.562
		c1.956,3.752,2.801,7.334,4.524,11.312c3.474,8.025,7.853,16.284,11.31,24.132c3.451,7.831,6.815,15.733,11.69,22.25
		c2.566,3.424,12.47,5.263,16.97,7.163c3.154,1.334,8.323,2.724,11.312,4.523c5.709,3.445,11.238,7.542,16.594,11.314
		C2.098,212.434,10.322,216.567,10.732,219.975z"/>
</g>
<g transform="translate(272.504, 24.8027)">
	<path d="M-188.731,46.863c-2.766-0.05-4.722,0.302-6.789,0.754c0,0.126,0,0.252,0,0.377c0.126,0,0.252,0,0.377,0
		c1.32,2.71,3.648,4.453,5.279,6.788c1.257,2.64,2.513,5.279,3.772,7.917c0.123-0.124,0.25-0.251,0.375-0.376
		c2.336-1.645,3.406-4.278,3.393-8.295c-0.936-0.984-1.074-2.22-1.884-3.395C-185.286,49.068-187.372,48.18-188.731,46.863z"/>
</g>
<g>
</g>
<g>
</g>
<g>
</g>
<g>
</g>
<g>
</g>
<g>
</g>
</svg>
