<?xml version="1.0" standalone="no"?><!DOCTYPE svg PUBLIC "-//W3C//DTD SVG 1.1//EN" "http://www.w3.org/Graphics/SVG/1.1/DTD/svg11.dtd"><svg width="100%" height="100%" viewBox="0 0 4342 4342" version="1.1" xmlns="http://www.w3.org/2000/svg" xmlns:xlink="http://www.w3.org/1999/xlink" xml:space="preserve" style="fill-rule:evenodd;clip-rule:evenodd;stroke-linejoin:round;stroke-miterlimit:1.41421;"><g><path d="M2002.93,171.77c101.262,-57.965 233.155,-58.225 334.327,0c508.997,287.609 1018.15,574.77 1527.07,862.553c95.719,53.919 159.743,160.444 158.77,270.74l0,1730.37c0.713,114.862 -69.642,223.932 -170.624,276.63c-507.327,286.026 -1014.39,572.398 -1521.63,858.424c-103.354,59.096 -237.895,54.541 -338.022,-9.396c-152.096,-88.17 -304.456,-175.908 -456.564,-263.991c-31.084,-18.529 -66.124,-33.279 -88.072,-63.414c19.403,-26.151 54.096,-29.409 82.281,-40.827c63.488,-20.191 121.799,-52.595 180.127,-84.041c14.746,-10.094 32.754,-6.225 46.89,2.809c130.061,74.57 258.972,151.308 389.47,225.165c27.838,16.074 56.027,-5.263 79.823,-18.528c497.839,-281.369 996.294,-561.679 1494.05,-843.139c18.446,-8.872 28.642,-28.448 27.144,-48.651c0.347,-570.815 0.087,-1141.73 0.174,-1712.54c2.108,-22.925 -11.157,-43.999 -31.884,-53.379c-505.566,-284.718 -1010.87,-569.869 -1516.35,-854.658c-17.886,-12.3 -41.623,-12.331 -59.549,-0.087c-505.479,284.876 -1010.69,570.287 -1516.17,854.989c-20.652,9.397 -34.516,30.123 -32.058,53.135c0.087,570.811 0,1141.73 0,1712.63c-1.788,20.143 9.219,39.381 27.491,48.04c134.888,76.493 269.952,152.447 404.93,228.676c76.041,40.93 169.403,65.249 253.181,33.889c73.932,-26.514 125.755,-101.959 124.345,-180.457c0.697,-567.482 -0.347,-1135.06 0.524,-1702.45c-1.848,-25.19 22.05,-46.004 46.543,-43.636c64.812,-0.433 129.711,-0.871 194.523,0.177c27.054,-0.61 45.673,26.514 42.328,51.894c-0.264,571.075 0.697,1142.16 -0.437,1713.24c0.173,152.195 -62.354,317.804 -203.135,392.276c-173.433,89.841 -387.796,70.788 -559.134,-15.361c-148.329,-74.035 -289.879,-161.405 -435.576,-240.719c-101.247,-52.402 -171.251,-161.914 -170.538,-276.685l0,-1730.39c-1.064,-112.577 65.509,-221.041 164.21,-274.172c507.24,-286.258 1014.39,-572.733 1521.54,-859.121l0,0Z" style="fill:#000;fill-rule:nonzero;"/><path d="M2445.44,1370.41c221.229,-14.238 458.064,-8.435 657.137,100.549c154.133,83.517 239.585,258.798 242.303,430.033c-4.302,23.099 -28.448,35.84 -50.499,34.256c-64.185,-0.087 -128.387,0.871 -192.572,-0.437c-27.227,1.048 -43.053,-24.056 -46.473,-48.128c-18.442,-81.934 -63.126,-163.08 -140.241,-202.599c-118.38,-59.268 -255.639,-56.286 -384.727,-55.049c-94.234,5.003 -195.571,13.162 -275.405,68.578c-61.294,41.978 -79.913,126.713 -58.036,194.96c20.625,49.002 77.191,64.812 123.471,79.385c266.607,69.729 549.13,62.791 810.643,154.554c108.275,37.408 214.19,110.135 251.251,223.495c48.478,151.939 27.227,333.543 -80.87,455.52c-87.663,100.372 -215.336,155.003 -342.679,184.673c-169.403,37.774 -345.208,38.735 -517.243,21.964c-161.768,-18.442 -330.111,-60.943 -454.992,-171.164c-106.789,-92.725 -158.947,-237.197 -153.77,-376.639c1.237,-23.548 24.682,-39.968 47.241,-38.034c64.638,-0.524 129.277,-0.701 193.912,0.087c25.817,-1.848 44.96,20.463 46.283,44.798c11.926,78.061 41.265,159.991 109.335,206.275c131.369,84.754 296.206,78.947 446.627,81.319c124.621,-5.527 264.516,-7.198 366.211,-89.565c53.659,-46.981 69.555,-125.582 55.053,-193.203c-15.707,-57.086 -75.429,-83.691 -126.712,-101.084c-263.192,-83.254 -548.867,-53.045 -809.513,-147.195c-105.813,-37.396 -208.134,-108.098 -248.788,-216.806c-56.728,-153.857 -30.734,-344.16 88.694,-462.02c116.446,-117.23 284.541,-162.379 444.359,-178.535l0,0.012Z" style="fill:#000;fill-rule:nonzero;"/></g></svg>