<?xml version="1.0" standalone="no"?><!DOCTYPE svg PUBLIC "-//W3C//DTD SVG 1.1//EN" "http://www.w3.org/Graphics/SVG/1.1/DTD/svg11.dtd"><svg width="100%" height="100%" viewBox="0 0 1042 1042" version="1.1" xmlns="http://www.w3.org/2000/svg" xmlns:xlink="http://www.w3.org/1999/xlink" xml:space="preserve" style="fill-rule:evenodd;clip-rule:evenodd;stroke-linejoin:round;stroke-miterlimit:1.41421;"><g id="Layer1"><path d="M520.833,254.878c280.347,0 507.953,118.48 507.953,264.414c0,145.933 -227.606,264.413 -507.953,264.413c-280.347,0 -507.953,-118.48 -507.953,-264.413c0,-145.934 227.606,-264.414 507.953,-264.414ZM298.163,602.79c59.152,3.479 125.251,-45.229 125.251,-128.726c0,-48.712 -27.835,-76.542 -83.499,-80.022l-128.723,0l-55.668,281.81l66.105,0l13.917,-73.062l62.617,0ZM764.373,602.79c59.147,3.479 125.25,-45.229 125.25,-128.726c0,-48.712 -27.834,-76.542 -83.503,-80.022l-128.726,0l-55.665,281.81l66.102,0l13.917,-73.062l62.625,0ZM410.481,602.79l66.105,0l31.31,-156.56l52.189,0c24.35,0.001 24.349,10.437 20.873,27.834l-24.354,128.726l69.582,0l24.354,-142.643c6.956,-34.794 -13.916,-62.624 -69.586,-66.105l-62.621,0l13.917,-73.058l-66.105,0l-55.664,281.806ZM291.211,550.606l-41.748,0l-0.004,0l17.398,-104.376l45.227,0c24.354,0 41.748,10.437 41.748,31.31c-3.476,59.147 -31.309,69.585 -62.621,73.066ZM757.416,550.606l-41.755,0l17.397,-104.376l45.232,0c24.354,0 41.747,10.437 41.747,31.31c-3.476,59.147 -31.308,69.585 -62.621,73.066Z" style="fill:#000;"/></g></svg>