<?xml version="1.0" standalone="no"?><!DOCTYPE svg PUBLIC "-//W3C//DTD SVG 1.1//EN" "http://www.w3.org/Graphics/SVG/1.1/DTD/svg11.dtd"><svg width="100%" height="100%" viewBox="0 0 834 834" version="1.1" xmlns="http://www.w3.org/2000/svg" xmlns:xlink="http://www.w3.org/1999/xlink" xml:space="preserve" style="fill-rule:evenodd;clip-rule:evenodd;stroke-linejoin:round;stroke-miterlimit:1.41421;"><g><path d="M494.349,43.116c20.913,0 27.346,20.531 27.815,35.386c0.252,11.555 -7.205,34.083 -26.044,34.083c-18.709,0 -27.807,-22.19 -27.807,-34.969c0.009,-12.198 6.945,-34.5 26.036,-34.5l0,0Z" style="fill:#000;"/><path d="M592.484,51.789c16.712,0 20.35,21.582 20.35,29.925c0,10.799 -5.878,32.382 -22.477,32.599c-16.798,0.121 -21.373,-23.762 -21.373,-30.394c0,-10.158 5.929,-32.13 23.5,-32.13l0,0Z" style="fill:#000;"/><path d="M382.375,80.88c22.91,0 33.823,21.253 33.823,37.747c0,16.009 -10.67,36.497 -31.497,36.497c-22.389,0 -33.996,-23.144 -33.996,-39.066c0.008,-16.521 10.886,-35.178 31.67,-35.178l0,0Z" style="fill:#000;"/><path d="M665.635,93.876c12.275,0 15.783,17.771 15.783,24.04c0,7.613 -4.775,31.114 -20.098,31.114c-13.213,0 -15.878,-16.599 -15.878,-24.082c0,-7.579 5.122,-31.072 20.193,-31.072l0,0Z" style="fill:#000;"/><path d="M714.407,155.975c10.314,0 12.649,15.575 12.649,20.202c0,6.928 -4.905,28.823 -18.457,28.823c-10.695,0 -12.831,-13.5 -12.831,-19.256c0,-6.997 4.74,-29.769 18.639,-29.769l0,0Z" style="fill:#000;"/><path d="M272.953,171.124c22.859,0 38.216,16.547 38.216,38.225c0,22.607 -18.578,38.702 -39.023,38.702c-21.808,0 -38.225,-18.422 -38.225,-38.702c0,-21.678 17.693,-38.225 39.032,-38.225Z" style="fill:#000;"/><path d="M193.118,305.271c19.464,0 37.278,13.126 37.278,34.596c0,28.319 -28.136,42.244 -48.165,42.244c-20.531,0 -37.295,-13.969 -37.295,-35.134c0,-27.468 27.095,-41.706 48.182,-41.706Z" style="fill:#000;"/><path d="M160.172,455.973c17.059,0 32.937,9.237 32.937,28.84c0,29.126 -32.39,44.953 -52.922,44.953c-15.878,0 -33.91,-8.465 -33.91,-28.658c0,-21.634 22.858,-42.661 47.549,-44.692c4.271,-0.356 5.209,-0.443 6.346,-0.443Z" style="fill:#000;"/><path d="M180.539,589.677c13.63,0 26.027,6.763 26.027,23.249c0,28.961 -36.358,46.22 -55.067,46.22c-14.733,0 -25.237,-7.041 -25.237,-22.606c0,-27.434 34.379,-46.863 54.277,-46.863l0,0Z" style="fill:#000;"/><path d="M568.819,668.67c6.719,0 8.421,5.209 8.421,9.784c0,9.853 -11.651,33.641 -27.347,33.641c-7.206,0 -8.256,-5.036 -8.256,-9.949c0,-9.515 11.312,-33.476 27.182,-33.476l0,0Z" style="fill:#000;"/><path d="M240.814,683.437c11.304,0 20.028,5.035 20.028,17.788c0,25.906 -31.583,46.898 -51.95,46.898c-10.956,0 -18.821,-5.886 -18.821,-17.988c0,-24.604 29.656,-46.698 50.743,-46.698l0,0Z" style="fill:#000;"/><path d="M494.349,713.796c8.421,0 9.949,5.834 9.949,11.347c0,12.493 -16.295,36.714 -32,36.714c-6.65,0 -9.611,-4.037 -9.611,-10.496c-0.008,-12.727 14.351,-37.565 31.662,-37.565Z" style="fill:#000;"/><path d="M323.115,730.343c5.547,0 12.024,1.728 14.949,9.697l0,9.984c0,1.103 -2.127,6.312 -3.854,9.663c-8.421,17.128 -27.434,28.822 -40.977,28.822c-10.496,0 -14.993,-4.801 -14.993,-14.307c0,-18.882 25.741,-43.859 44.875,-43.859l0,0Z" style="fill:#000;"/><path d="M411.631,737.714c7.536,0 11.139,5.799 11.139,11.477c0,10.444 -8.812,26.435 -22.268,35.472c-10.036,6.728 -18.37,6.598 -23.032,3.542c-4.402,-2.917 -4.654,-7.7 -4.654,-10.122c0,-16.495 21.001,-40.369 38.815,-40.369l0,0Z" style="fill:#000;"/></g></svg>