<?xml version="1.0" standalone="no"?><!DOCTYPE svg PUBLIC "-//W3C//DTD SVG 1.1//EN" "http://www.w3.org/Graphics/SVG/1.1/DTD/svg11.dtd"><svg width="100%" height="100%" viewBox="0 0 417 417" version="1.1" xmlns="http://www.w3.org/2000/svg" xmlns:xlink="http://www.w3.org/1999/xlink" xml:space="preserve" style="fill-rule:evenodd;clip-rule:evenodd;stroke-linejoin:round;stroke-miterlimit:1.41421;"><path d="M260.497,125.842c-17.671,-49.815 33.995,-103.276 76.573,-104.847c25.468,12.959 47.346,47.066 46.28,93.291c-3.309,56.995 -44.878,106.08 -89.756,151.463c-2.524,-55.144 -14.529,-90.317 -33.266,-139.739l0.169,-0.168ZM160.25,395.671c-7.124,-55.648 16.044,-103.051 38.988,-131.997c9.591,-11.735 18.185,-24.251 25.693,-37.417c12.061,5.104 44.485,21.709 62.38,48.636c-2.58,39.269 -32.2,110.288 -127.061,120.722l0,0.056Z" style="fill:#000;"/><path d="M124.404,184.408c-75.452,-20.588 -94.076,-85.325 -90.71,-129.025c73.263,-29.002 152.137,0.729 197.688,62.605c31.406,43.354 50.765,94.269 56.098,147.537c-21.935,-28.049 -49.591,-44.542 -84.82,-57.388c-24.122,-8.751 -46.393,-14.529 -78.144,-23.954l-0.112,0.225Z" style="fill:#000;"/></svg>