<?xml version="1.0" standalone="no"?><!DOCTYPE svg PUBLIC "-//W3C//DTD SVG 1.1//EN" "http://www.w3.org/Graphics/SVG/1.1/DTD/svg11.dtd"><svg width="100%" height="100%" viewBox="0 0 542 542" version="1.1" xmlns="http://www.w3.org/2000/svg" xmlns:xlink="http://www.w3.org/1999/xlink" xml:space="preserve" style="fill-rule:evenodd;clip-rule:evenodd;stroke-linejoin:round;stroke-miterlimit:1.41421;"><circle cx="276.085" cy="270.306" r="29.738" style="fill:#000;"/><path d="M123.642,171.669c-1.223,-5.447 -2.349,-10.916 -3.365,-16.407c-1.444,-7.806 -2.665,-15.655 -3.589,-23.54c-0.688,-5.874 -1.211,-11.768 -1.519,-17.675c-0.235,-4.503 -0.345,-9.014 -0.298,-13.523c0.038,-3.609 0.176,-7.217 0.439,-10.816c0.204,-2.808 0.485,-5.61 0.855,-8.401c0.316,-2.382 0.697,-4.756 1.155,-7.116c0.332,-1.713 0.705,-3.418 1.123,-5.113c2.493,-10.111 6.643,-20.034 13.481,-28c1.165,-1.357 2.403,-2.651 3.711,-3.869c2.162,-2.014 4.518,-3.798 7.01,-5.382c3.502,-2.225 7.259,-4.044 11.183,-5.393c3.54,-1.217 7.208,-2.051 10.922,-2.511c2.01,-0.25 4.03,-0.381 6.055,-0.431c0.602,-0.009 1.203,-0.012 1.805,-0.009c2.187,0.03 4.37,0.154 6.545,0.391c5.615,0.611 11.163,1.887 16.524,3.654c6.717,2.213 13.187,5.105 19.404,8.468c6.8,3.679 13.305,7.898 19.521,12.492c4.74,3.504 9.343,7.216 13.671,11.22l0.194,0.183c0.29,0.313 0.602,0.607 0.87,0.939c1.073,1.332 1.769,2.953 1.995,4.649c0.112,0.847 0.109,1.706 -0.012,2.553c-0.362,2.553 -1.796,4.887 -3.909,6.365c-0.7,0.49 -1.465,0.882 -2.272,1.165c-0.807,0.283 -1.648,0.454 -2.502,0.508c-2.138,0.137 -4.293,-0.477 -6.038,-1.72c-0.573,-0.408 -1.037,-0.861 -1.544,-1.328c-0.384,-0.352 -0.772,-0.698 -1.161,-1.044c-0.594,-0.523 -1.192,-1.041 -1.792,-1.556c-4.208,-3.564 -8.582,-6.927 -13.126,-10.052c-3.625,-2.493 -7.354,-4.838 -11.193,-6.988c-2.447,-1.371 -4.939,-2.662 -7.479,-3.854c-1.99,-0.934 -4.009,-1.806 -6.058,-2.604c-1.456,-0.567 -2.927,-1.09 -4.411,-1.58c-1.452,-0.478 -2.922,-0.905 -4.402,-1.287c-6.885,-1.774 -14.176,-2.499 -21.193,-1.067c-1.062,0.217 -2.115,0.483 -3.152,0.798c-1.714,0.521 -3.386,1.178 -4.996,1.964c-2.101,1.026 -4.123,2.259 -5.961,3.705c-2.357,1.855 -4.381,4.104 -6.086,6.567c-2.738,3.956 -4.678,8.425 -6.126,12.998c-1.132,3.576 -1.966,7.244 -2.594,10.94c-0.768,4.519 -1.229,9.089 -1.48,13.665c-0.579,10.557 -0.072,21.163 0.999,31.673c1.355,13.291 3.644,26.481 6.486,39.53c0.22,1.007 0.442,2.014 0.669,3.019c8.286,-1.556 16.613,-2.897 24.967,-4.035c15.847,-2.159 31.793,-3.589 47.77,-4.293c1.287,-0.056 2.574,-0.108 3.861,-0.153c13.248,-16.346 27.161,-32.152 41.83,-47.238c5.291,-5.441 10.699,-10.77 16.217,-15.98c7.323,-6.915 14.853,-13.616 22.635,-20.013c6.282,-5.163 12.729,-10.13 19.378,-14.811c5.814,-4.094 11.784,-7.972 17.943,-11.527c7.968,-4.599 16.272,-8.688 24.955,-11.758c6.36,-2.249 12.946,-3.951 19.66,-4.698c2.11,-0.235 4.226,-0.36 6.349,-0.402c0.785,-0.005 0.784,-0.005 1.57,0c1.815,0.036 3.625,0.131 5.43,0.331c3.813,0.424 7.581,1.268 11.191,2.573c3.925,1.42 7.671,3.382 11.131,5.713c2.66,1.793 5.153,3.829 7.442,6.076c1.627,1.596 3.149,3.297 4.562,5.085c1.009,1.276 1.963,2.597 2.86,3.955c6.163,9.331 9.566,20.232 11.253,31.216c0.285,1.857 0.522,3.721 0.715,5.589c0.264,2.556 0.446,5.119 0.557,7.686c0.151,3.494 0.168,6.993 0.073,10.489c-0.127,4.671 -0.457,9.336 -0.962,13.98c-0.668,6.138 -1.609,12.261 -2.974,18.283l-0.061,0.26c-0.126,0.408 -0.225,0.825 -0.379,1.222c-0.616,1.596 -1.672,3.009 -3.028,4.053c-2.044,1.572 -4.701,2.239 -7.245,1.819c-0.844,-0.14 -1.664,-0.394 -2.439,-0.756c-0.775,-0.361 -1.496,-0.827 -2.145,-1.385c-0.648,-0.557 -1.217,-1.201 -1.691,-1.912c-1.188,-1.784 -1.733,-3.957 -1.529,-6.09c0.067,-0.7 0.227,-1.328 0.377,-2.001c0.114,-0.508 0.219,-1.018 0.324,-1.527c0.156,-0.776 0.306,-1.553 0.452,-2.331c1.131,-6.249 1.922,-12.557 2.32,-18.896c0.301,-4.793 0.381,-9.602 0.174,-14.4c-0.321,-7.438 -1.308,-14.912 -3.506,-22.043c-1.44,-4.67 -3.42,-9.206 -6.161,-13.265c-1.829,-2.707 -3.997,-5.185 -6.488,-7.3c-2.167,-1.84 -4.566,-3.395 -7.117,-4.647c-1.352,-0.664 -2.746,-1.23 -4.186,-1.672c-3.32,-1.017 -6.808,-1.402 -10.272,-1.356c-4.696,0.062 -9.362,0.889 -13.886,2.112c-1.591,0.431 -3.168,0.913 -4.731,1.437c-2.155,0.724 -4.283,1.529 -6.385,2.397c-2.522,1.042 -5.005,2.175 -7.454,3.378c-2.909,1.43 -5.769,2.96 -8.584,4.566c-3.6,2.053 -7.128,4.231 -10.594,6.503c-4.634,3.037 -9.158,6.241 -13.59,9.567c-5.416,4.066 -10.695,8.313 -15.859,12.694c-14.192,12.039 -27.542,25.061 -40.284,38.617c-7.98,8.489 -15.723,17.2 -23.249,26.094c8.121,0.098 16.239,0.374 24.347,0.866c6.763,0.411 13.515,0.985 20.26,1.625c7.159,0.681 14.309,1.451 21.448,2.313c25.398,3.067 50.676,7.273 75.633,12.91c11.969,2.703 23.865,5.74 35.639,9.194c10.504,3.081 20.915,6.493 31.164,10.341c8.648,3.248 17.185,6.806 25.521,10.79c7.526,3.598 14.898,7.542 21.962,11.983c5.31,3.338 10.451,6.959 15.281,10.962c3.979,3.297 7.752,6.857 11.164,10.742c4.544,5.174 8.464,10.955 11.141,17.319c1.975,4.695 3.229,9.667 3.634,14.746c0.317,3.962 0.202,7.958 -0.367,11.893c-0.393,2.715 -1,5.398 -1.809,8.019c-0.606,1.965 -1.326,3.895 -2.147,5.781c-4.881,11.201 -13.244,20.529 -22.696,28.11c-1.466,1.176 -2.962,2.313 -4.483,3.414c-2.081,1.507 -4.21,2.946 -6.377,4.325c-2.951,1.878 -5.973,3.643 -9.048,5.308c-3.859,2.09 -7.803,4.022 -11.81,5.811c-3.212,1.435 -6.465,2.777 -9.755,4.023c-2.753,1.043 -5.532,2.018 -8.344,2.889l-0.256,0.077c-0.435,0.098 -0.864,0.226 -1.305,0.292c-1.77,0.265 -3.602,0.013 -5.233,-0.721c-0.816,-0.366 -1.574,-0.848 -2.254,-1.429c-1.702,-1.458 -2.842,-3.516 -3.174,-5.732c-0.132,-0.885 -0.137,-1.783 -0.015,-2.669c0.122,-0.885 0.37,-1.749 0.736,-2.564c0.919,-2.045 2.573,-3.718 4.606,-4.661c0.661,-0.306 1.296,-0.485 1.974,-0.697c0.497,-0.156 0.991,-0.32 1.485,-0.483c0.749,-0.253 1.497,-0.512 2.244,-0.774c5.977,-2.145 11.836,-4.615 17.525,-7.44c4.3,-2.135 8.505,-4.47 12.557,-7.049c6.282,-3.997 12.26,-8.589 17.337,-14.058c3.325,-3.582 6.263,-7.565 8.407,-11.968c1.43,-2.937 2.492,-6.053 3.078,-9.269c0.51,-2.796 0.657,-5.652 0.466,-8.487c-0.101,-1.502 -0.307,-2.993 -0.645,-4.46c-0.779,-3.384 -2.19,-6.597 -3.962,-9.575c-2.401,-4.035 -5.45,-7.663 -8.772,-10.969c-1.168,-1.163 -2.374,-2.288 -3.61,-3.378c-1.704,-1.505 -3.465,-2.946 -5.268,-4.332c-2.163,-1.663 -4.386,-3.247 -6.653,-4.766c-2.693,-1.804 -5.447,-3.516 -8.246,-5.152c-3.578,-2.09 -7.228,-4.056 -10.928,-5.922c-4.947,-2.495 -9.985,-4.811 -15.081,-6.986c-6.229,-2.658 -12.547,-5.106 -18.923,-7.388c-17.522,-6.27 -35.474,-11.321 -53.585,-15.579c-20.268,-4.764 -40.772,-8.519 -61.381,-11.473c-11.843,-1.698 -23.726,-3.128 -35.632,-4.303c-6.034,-0.595 -12.073,-1.143 -18.121,-1.57c-7.015,-0.496 -14.041,-0.829 -21.071,-1.008c-7.347,-0.188 -14.699,-0.208 -22.048,-0.064c-0.664,0.837 -1.327,1.678 -1.989,2.519c-7.392,9.408 -14.571,18.984 -21.542,28.708c-3.532,4.927 -7.027,9.883 -10.42,14.907c-3.937,5.828 -7.739,11.746 -11.409,17.745c-3.836,6.269 -7.53,12.626 -11.08,19.063c1.484,3.747 2.998,7.483 4.539,11.206c3.443,8.32 7.025,16.582 10.74,24.785c2.5,5.52 5.04,11.024 7.7,16.469c3.091,6.329 6.341,12.581 9.736,18.752c7.941,14.433 16.672,28.431 26.072,41.957c9.35,13.452 19.364,26.445 30.003,38.903c8.777,10.278 17.981,20.196 27.637,29.653c8.447,8.273 17.241,16.201 26.449,23.62c4.834,3.895 9.784,7.649 14.871,11.21c4.819,3.374 9.762,6.578 14.856,9.522c3.718,2.148 7.519,4.159 11.418,5.958c3.343,1.542 6.762,2.931 10.267,4.063c2.527,0.817 5.102,1.5 7.719,1.96c2.101,0.369 4.235,0.596 6.37,0.57c1.834,-0.022 3.686,-0.23 5.442,-0.78c1.029,-0.323 1.998,-0.79 2.946,-1.302c1.006,-0.544 1.98,-1.149 2.915,-1.809c5.152,-3.635 8.981,-8.841 11.817,-14.414c0.802,-1.577 1.53,-3.191 2.193,-4.83c0.9,-2.223 1.684,-4.492 2.372,-6.789c0.826,-2.76 1.515,-5.56 2.095,-8.381c0.691,-3.36 1.226,-6.751 1.639,-10.155c0.527,-4.335 0.855,-8.694 1.029,-13.057c0.218,-5.441 0.197,-10.891 -0.009,-16.332c-0.251,-6.653 -0.779,-13.295 -1.524,-19.911c-1.125,-10.006 -2.746,-19.954 -4.745,-29.821c-2.336,-11.526 -5.192,-22.946 -8.477,-34.239c-3.877,-13.325 -8.353,-26.476 -13.36,-39.419c-5.208,-13.462 -10.993,-26.701 -17.332,-39.668c-2.362,-4.832 -4.808,-9.621 -7.318,-14.377l-0.519,-1.17c-0.118,-0.409 -0.265,-0.812 -0.355,-1.229c-0.36,-1.672 -0.253,-3.433 0.308,-5.049c0.28,-0.808 0.67,-1.574 1.157,-2.276c0.488,-0.702 1.07,-1.334 1.729,-1.879c1.988,-1.642 4.62,-2.401 7.178,-2.069c1.271,0.165 2.504,0.592 3.604,1.25c1.1,0.658 2.06,1.541 2.807,2.583c0.249,0.347 0.449,0.725 0.673,1.088c0.946,1.792 1.884,3.589 2.813,5.389c2.998,5.846 5.9,11.74 8.683,17.691c7.535,16.116 14.259,32.615 20.11,49.416c5.538,15.903 10.3,32.084 14.117,48.486c2.469,10.612 4.543,21.319 6.121,32.1c1.235,8.439 2.168,16.925 2.712,25.438c0.434,6.793 0.622,13.604 0.49,20.41c-0.108,5.639 -0.436,11.276 -1.046,16.884c-0.465,4.274 -1.094,8.531 -1.928,12.748c-0.67,3.382 -1.471,6.739 -2.432,10.05c-3.162,10.902 -8.116,21.543 -15.903,29.928c-1.103,1.187 -2.259,2.325 -3.467,3.405c-1.405,1.255 -2.881,2.433 -4.421,3.519c-1.543,1.09 -3.151,2.088 -4.813,2.986c-1.358,0.733 -2.748,1.411 -4.187,1.972c-1.357,0.531 -2.751,0.965 -4.167,1.309c-3.335,0.811 -6.78,1.117 -10.208,1.047c-6.327,-0.127 -12.587,-1.491 -18.59,-3.43c-4.811,-1.553 -9.491,-3.496 -14.051,-5.675c-5.069,-2.422 -9.994,-5.141 -14.797,-8.054c-6.934,-4.204 -13.619,-8.812 -20.102,-13.679c-7.528,-5.65 -14.787,-11.655 -21.818,-17.91c-9.035,-8.037 -17.698,-16.492 -26.023,-25.261c-8.94,-9.416 -17.493,-19.198 -25.665,-29.288c-9.217,-11.38 -17.95,-23.155 -26.162,-35.281c-8.159,-12.046 -15.804,-24.443 -22.861,-37.167c-3.563,-6.424 -6.975,-12.933 -10.222,-19.523c-2.992,-6.07 -5.835,-12.213 -8.626,-18.377c-3.286,-7.255 -6.471,-14.556 -9.548,-21.901c-2.888,5.898 -5.659,11.852 -8.315,17.857c-8.12,18.357 -15.178,37.2 -20.919,56.436c-2.261,7.577 -4.314,15.216 -6.12,22.914c-1.416,6.035 -2.68,12.106 -3.758,18.211c-1.785,10.114 -3.086,20.336 -3.554,30.6c-0.35,7.7 -0.255,15.462 0.766,23.111c0.652,4.883 1.673,9.778 3.503,14.365c1.138,2.851 2.612,5.654 4.712,7.92c0.5,0.54 1.036,1.046 1.612,1.505c0.659,0.525 1.371,0.983 2.078,1.439c0.899,0.58 1.817,1.133 2.75,1.655c5.113,2.862 10.719,4.775 16.521,5.597c5.372,0.762 10.843,0.606 16.196,-0.23c7.987,-1.247 15.703,-3.956 22.979,-7.433c6.184,-2.954 12.091,-6.486 17.7,-10.42c2.164,-1.518 4.283,-3.098 6.351,-4.742c1.597,-1.27 3.164,-2.578 4.676,-3.947l0.12,-0.111c0.883,-0.712 1.077,-0.943 2.093,-1.463c1.907,-0.977 4.128,-1.273 6.224,-0.827c1.254,0.266 2.448,0.791 3.492,1.535c0.696,0.496 1.322,1.086 1.858,1.751c1.896,2.351 2.545,5.55 1.717,8.454c-0.234,0.822 -0.58,1.608 -1.027,2.337c-0.224,0.363 -0.472,0.712 -0.743,1.042c-0.592,0.721 -1.31,1.336 -2.006,1.951c-1.259,1.111 -2.546,2.19 -3.852,3.246c-5.369,4.34 -11.046,8.31 -16.96,11.871c-2.553,1.538 -5.153,2.998 -7.799,4.369c-1.878,0.973 -3.78,1.902 -5.704,2.781c-12.228,5.586 -25.555,9.244 -39.076,9.076c-2.11,-0.027 -4.22,-0.146 -6.319,-0.363c-3.021,-0.312 -6.021,-0.826 -8.971,-1.547c-4.194,-1.024 -8.282,-2.466 -12.194,-4.292c-2.605,-1.217 -5.132,-2.602 -7.565,-4.135c-1.243,-0.784 -2.478,-1.592 -3.649,-2.482c-0.957,-0.727 -1.872,-1.508 -2.742,-2.336c-4.811,-4.579 -8.147,-10.489 -10.434,-16.676c-1.675,-4.533 -2.819,-9.252 -3.617,-14.014c-0.94,-5.615 -1.402,-11.304 -1.558,-16.992c-0.193,-7.077 0.09,-14.163 0.686,-21.215c0.698,-8.259 1.831,-16.479 3.272,-24.64c1.733,-9.818 3.916,-19.555 6.443,-29.199c2.737,-10.448 5.879,-20.789 9.362,-31.012c5.936,-17.427 12.857,-34.519 20.637,-51.203c3.752,-8.047 7.707,-16.001 11.862,-23.848c-3.844,-10.026 -7.48,-20.131 -10.884,-30.315c-4.338,-12.979 -8.301,-26.087 -11.778,-39.323c-1.272,0.29 -2.542,0.586 -3.811,0.888c-7.692,1.83 -15.335,3.872 -22.904,6.157c-5.935,1.791 -11.824,3.732 -17.65,5.851c-9.652,3.511 -19.154,7.495 -28.278,12.223c-6.843,3.545 -13.518,7.509 -19.631,12.218c-3.903,3.005 -7.631,6.337 -10.689,10.216c-1.9,2.411 -3.59,5.089 -4.503,8.041c-0.218,0.703 -0.388,1.421 -0.497,2.148c-0.125,0.833 -0.166,1.679 -0.208,2.519c-0.052,1.069 -0.072,2.14 -0.058,3.21c0.078,5.858 1.225,11.67 3.414,17.106c2.026,5.033 4.897,9.693 8.297,13.911c5.073,6.293 11.277,11.621 17.926,16.184c5.651,3.878 11.663,7.228 17.875,10.118c2.395,1.115 4.824,2.16 7.282,3.129c1.898,0.748 3.814,1.452 5.757,2.077l0.156,0.048c1.104,0.431 1.416,0.484 2.411,1.145c1.49,0.99 2.68,2.405 3.399,4.043c0.538,1.228 0.809,2.567 0.789,3.907c-0.014,0.894 -0.155,1.782 -0.419,2.636c-0.664,2.14 -2.102,4.002 -4.005,5.186c-0.759,0.472 -1.582,0.833 -2.444,1.072c-0.861,0.239 -1.752,0.353 -2.646,0.34c-0.446,-0.007 -0.893,-0.045 -1.333,-0.115c-0.94,-0.15 -1.849,-0.47 -2.749,-0.772c-1.591,-0.534 -3.17,-1.109 -4.737,-1.712c-6.443,-2.48 -12.72,-5.412 -18.761,-8.753c-2.608,-1.442 -5.173,-2.964 -7.683,-4.57c-1.782,-1.139 -3.537,-2.321 -5.26,-3.548c-10.952,-7.797 -20.783,-17.51 -27.398,-29.304c-1.032,-1.84 -1.984,-3.727 -2.846,-5.653c-1.24,-2.772 -2.294,-5.627 -3.145,-8.543c-1.144,-3.919 -1.918,-7.944 -2.315,-12.007c-0.303,-3.095 -0.387,-6.211 -0.267,-9.318c0.085,-2.192 0.247,-4.381 0.67,-6.537c0.508,-2.595 1.334,-5.123 2.404,-7.54c1.597,-3.607 3.729,-6.96 6.167,-10.054c3.133,-3.974 6.768,-7.536 10.64,-10.786c5.311,-4.458 11.085,-8.351 17.054,-11.871c7.143,-4.213 14.593,-7.898 22.188,-11.221c10.064,-4.405 20.401,-8.176 30.873,-11.49c10.7,-3.387 21.551,-6.293 32.492,-8.797ZM203.231,178.945c-6.552,0.449 -13.094,1.026 -19.623,1.728c-12.439,1.338 -24.835,3.128 -37.139,5.412c2.6,9.826 5.483,19.578 8.583,29.254c2.44,7.62 5.019,15.195 7.724,22.725c1.212,-2.046 2.438,-4.082 3.678,-6.109c3.817,-6.239 7.771,-12.394 11.866,-18.455c3.491,-5.168 7.085,-10.266 10.718,-15.335c4.64,-6.473 9.37,-12.881 14.193,-19.22Z" style="fill:#000;"/></svg>