<?xml version="1.0" encoding="utf-8"?>
<!-- Generator: Adobe Illustrator 16.0.0, SVG Export Plug-In . SVG Version: 6.00 Build 0)  -->
<!DOCTYPE svg PUBLIC "-//W3C//DTD SVG 1.1//EN" "http://www.w3.org/Graphics/SVG/1.1/DTD/svg11.dtd">
<svg version="1.1" id="Capa_1" xmlns="http://www.w3.org/2000/svg" xmlns:xlink="http://www.w3.org/1999/xlink" x="0px" y="0px"
	 width="200px" height="200px" viewBox="0 0 200 200" enable-background="new 0 0 200 200" xml:space="preserve">
<g>
	<path d="M180.57,179.338l-7.502-89.615c-0.049,0.01-0.094,0.031-0.146,0.041c-0.479,1.164-0.985,3.451-1.345,5.059
		c-1.372,6.155-3.667,16.463-13.446,16.463c-10.341-0.019-12.259-5.923-13.659-10.234c-0.508-1.561-1.027-3.165-1.947-4.811
		c-0.367,0.028-0.779,0.067-1.203,0.106c-1.268,0.117-2.7,0.252-4.266,0.252c-4.676,0-8.289-1.28-11.052-3.913
		c-4.258-4.05-7.495-12.906-10.985-23.206c-0.315-0.928-0.645-1.9-0.959-2.805c-4.439-0.042-9.847-2.701-15.564-5.517
		c-3.353-1.649-8.418-4.142-10.155-4.142c-1.217,0-2.735,0.176-4.342,0.362c-1.933,0.226-3.934,0.458-5.94,0.458
		c-1.382,0-2.643-0.119-3.795-0.358c-4.345,4.008-11.016,4.008-14.953,4.008c-0.507,0-1.011-0.002-1.515-0.005
		c-0.479-0.003-0.956-0.005-1.429-0.005c-1.075,0-2.459-0.093-3.968-0.422l-0.22,2.627c-11.367-0.403-25.018,0.208-30.048,4.874
		c-8.615,8.001-8.856,42.27,2.351,61.292c4.722,8.017,11.134,12.033,19.155,12.033c0.655,0,1.324-0.033,2-0.088l-3.144,37.544
		c0,0-27.315,14.793,69.039,14.793C207.886,194.131,180.57,179.338,180.57,179.338z M35.247,123.506
		C26.231,108.2,27.764,82.484,30.66,77.75c2.463-1.222,10.93-1.811,20.471-1.562l-4.434,52.966
		C41.451,130.268,38.173,128.471,35.247,123.506z"/>
</g>
<path d="M172.741,41.879c-3.406-10.152-7.769-14.679-14.144-14.679c-3.086,0-6.049,1.037-8.568,2.997l-2.492,1.939l-0.688-3.082
	c-2.177-9.743-10.675-16.547-20.665-16.547c-6.018,0-11.781,2.596-15.814,7.123l-1.92,2.155l-1.344-2.554
	C103.42,12.223,96.23,7.87,88.341,7.87c-10.578,0-19.602,7.908-20.991,18.394l-0.312,2.354l-2.267-0.708
	c-1.554-0.485-2.881-0.711-4.175-0.711c-3.751,0-7.278,1.46-9.93,4.112c-2.652,2.652-4.112,6.178-4.111,9.929
	c0,12.082,5.602,13.479,9.815,13.479c0.485,0,0.976,0.003,1.469,0.005c0.491,0.003,0.984,0.006,1.479,0.006
	c6.155,0,10.014-0.625,11.521-3.818l1.013-2.145l1.943,1.36c0.916,0.641,2.311,0.953,4.266,0.953c1.615,0,3.417-0.209,5.16-0.412
	c1.728-0.201,3.514-0.409,5.122-0.409c3.31,0,8.084,2.35,13.138,4.837c4.593,2.26,9.798,4.823,12.686,4.823
	c0.62,0,1.041-0.12,1.251-0.356l1.921-2.159l1.344,2.559c0.694,1.321,1.596,3.98,2.736,7.347c2.329,6.869,5.849,17.25,9.245,20.481
	c1.469,1.399,3.501,2.051,6.396,2.051c1.248,0,2.517-0.119,3.636-0.223c0.989-0.092,1.924-0.18,2.747-0.18
	c0.729,0,2.666,0,3.711,1.49c2.1,2.969,3.013,5.777,3.746,8.034c1.314,4.043,1.807,5.557,7.246,5.565
	c4.04,0,5.383-4.632,6.84-11.175c1.121-5.035,2.281-10.242,6.645-10.242c0.209,0,0.763,0,1.462-0.972
	C177.564,75.917,175.675,50.607,172.741,41.879z"/>
</svg>
