<?xml version="1.0" standalone="no"?><!DOCTYPE svg PUBLIC "-//W3C//DTD SVG 1.1//EN" "http://www.w3.org/Graphics/SVG/1.1/DTD/svg11.dtd"><svg width="100%" height="100%" viewBox="0 0 1250 1250" version="1.1" xmlns="http://www.w3.org/2000/svg" xmlns:xlink="http://www.w3.org/1999/xlink" xml:space="preserve" style="fill-rule:evenodd;clip-rule:evenodd;stroke-linejoin:round;stroke-miterlimit:1.41421;"><path d="M871.529,269.203c-57.949,-35.85 -112.46,-50.092 -166.972,-86.433c-33.885,-23.081 -80.539,-77.592 -119.827,-124.246c-7.857,75.137 -30.447,106.076 -56.967,127.684c-55.493,43.707 -90.852,56.967 -138.488,82.995c-40.27,20.626 -259.788,151.748 -259.788,433.144c0,281.397 236.707,489.129 499.933,489.129c263.226,0 491.093,-191.035 491.093,-480.289c0,-289.254 -214.116,-420.376 -248.984,-441.984ZM783.132,946.421c17.679,0 35.85,0.982 49.109,9.822c13.26,8.839 20.626,28.483 25.046,39.287c4.42,10.804 0,17.679 -8.839,22.099c-7.858,4.42 -8.84,1.965 -16.207,-11.786c-7.857,-14.242 -14.241,-28.483 -52.547,-28.483c-38.305,0 -50.091,13.259 -68.753,28.483c-18.661,15.224 -25.045,20.626 -31.43,11.786c-6.384,-8.839 -4.419,-17.679 7.858,-28.483c11.786,-10.804 31.43,-28.484 50.091,-35.85c18.171,-7.857 27.993,-6.875 45.672,-6.875ZM601.919,1071.16c21.608,17.68 54.511,31.43 124.246,31.43c69.736,0 118.845,-19.643 140.944,-35.849c9.822,-7.858 14.242,-0.983 15.224,3.437c0.982,4.42 3.438,10.804 -4.42,18.662c-5.402,5.402 -55.493,40.269 -114.425,45.672c-58.931,5.402 -138.488,8.839 -186.615,-34.868c-7.858,-7.858 -5.402,-18.662 0,-23.082c5.402,-4.419 9.822,-7.857 16.206,-7.857c6.384,0 5.402,0 8.84,2.455ZM344.095,872.266c0.982,-84.96 80.539,-165.008 181.213,-165.99c127.684,-0.982 216.081,126.702 280.414,125.72c54.512,-0.982 159.115,-108.041 210.68,-108.041c54.511,0 69.735,56.967 69.735,90.362c0,33.885 -10.804,94.781 -37.323,133.086c-26.028,38.305 -42.725,52.547 -73.173,50.091c-39.288,-3.437 -117.863,-125.72 -167.954,-127.684c-63.351,-1.964 -200.857,132.104 -308.898,132.104c-65.315,0 -84.959,-9.822 -107.058,-24.063c-32.413,-22.591 -48.619,-57.458 -47.636,-105.585Z" style="fill:#000;fill-rule:nonzero;"/></svg>