<?xml version="1.0" standalone="no"?><!DOCTYPE svg PUBLIC "-//W3C//DTD SVG 1.1//EN" "http://www.w3.org/Graphics/SVG/1.1/DTD/svg11.dtd"><svg width="100%" height="100%" viewBox="0 0 4267 4267" version="1.1" xmlns="http://www.w3.org/2000/svg" xmlns:xlink="http://www.w3.org/1999/xlink" xml:space="preserve" style="fill-rule:evenodd;clip-rule:evenodd;stroke-linejoin:round;stroke-miterlimit:1.41421;"><path d="M3357.72,284.265c5.831,-38.328 38.963,-67.736 78.909,-67.736c38.693,0 70.992,27.59 78.281,64.153c53.901,166.59 604.566,1868.52 685.682,2119.93c8.038,17.155 12.53,36.296 12.53,56.479c0,53.285 -31.311,99.315 -76.523,120.677c-252.833,187.727 -1999.44,1472.25 -1999.44,1472.25c0,0 -1631.38,-1143.37 -2023.07,-1481.19c-36.448,-23.82 -60.553,-64.987 -60.553,-111.739c0,-16.331 2.941,-31.98 8.323,-46.447c39.955,-181.488 634.786,-1960.24 690.898,-2127.9c6.507,-37.532 39.265,-66.113 78.646,-66.113c39.173,0 71.793,28.28 78.54,65.521l456.83,1405.7l1536.71,1.133l454.235,-1404.72Z" style="fill:#0c0c0c;"/></svg>