<?xml version="1.0" encoding="utf-8"?>
<!-- Generator: Adobe Illustrator 16.0.0, SVG Export Plug-In . SVG Version: 6.00 Build 0)  -->
<!DOCTYPE svg PUBLIC "-//W3C//DTD SVG 1.1//EN" "http://www.w3.org/Graphics/SVG/1.1/DTD/svg11.dtd">
<svg version="1.1" id="Layer_1" xmlns="http://www.w3.org/2000/svg" xmlns:xlink="http://www.w3.org/1999/xlink" x="0px" y="0px"
	 width="600px" height="600px" viewBox="0 0 600 600" enable-background="new 0 0 600 600" xml:space="preserve">
<g>
	<path d="M51.421,170.009c0-13.026,2.442-25.417,7.328-37.179c4.884-11.755,11.668-22.066,20.353-30.937
		c8.684-8.863,18.811-16.012,30.395-21.439c11.576-5.427,23.882-8.141,36.907-8.141c5.784,0,10.396,1.628,13.84,4.885
		c3.436,3.256,5.157,7.242,5.157,11.94c0,4.707-1.629,8.685-4.885,11.941c-3.257,3.256-7.243,4.885-11.941,4.885
		c-8.684,0-16.919,1.722-24.695,5.156c-7.785,3.443-14.569,8.056-20.353,13.84c-5.793,5.792-10.313,12.577-13.57,20.354
		c-3.256,7.785-4.884,16.012-4.884,24.695V429.99c0,8.686,1.628,16.92,4.884,24.697c3.258,7.783,7.777,14.568,13.57,20.352
		c5.783,5.785,12.567,10.398,20.353,13.842c7.776,3.436,16.012,5.156,24.695,5.156c4.698,0,8.685,1.627,11.941,4.885
		c3.256,3.256,4.885,7.234,4.885,11.938c0,4.699-1.629,8.688-4.885,11.943c-3.257,3.256-7.243,4.885-11.941,4.885
		c-13.39,0-25.967-2.537-37.722-7.6c-11.762-5.07-22.074-12.033-30.938-20.896c-8.87-8.871-15.833-19.268-20.896-31.207
		c-5.07-11.941-7.598-24.604-7.598-37.994V317.098H21.026c-4.707,0-8.684-1.631-11.94-4.885c-3.257-3.258-4.885-7.235-4.885-11.941
		c0-4.699,1.628-8.685,4.885-11.941c3.257-3.257,7.233-4.885,11.94-4.885h30.395V170.009z"/>
	<path d="M202.306,143.414c0-4.697,1.628-8.684,4.884-11.94c3.258-3.257,7.234-4.885,11.941-4.885c4.698,0,8.684,1.628,11.941,4.885
		c3.256,3.256,4.884,7.243,4.884,11.94v91.184c8.32-7.233,17.911-13.026,28.767-17.368c10.854-4.342,22.431-6.513,34.736-6.513
		c13.383,0,26.052,2.536,37.993,7.598c11.94,5.072,22.338,12.034,31.208,20.897c8.862,8.871,15.825,19.267,20.896,31.208
		c5.064,11.94,7.598,24.611,7.598,37.992v148.174c0,4.707-1.628,8.684-4.884,11.941c-3.257,3.256-7.242,4.885-11.941,4.885
		c-4.705,0-8.684-1.629-11.94-4.885c-3.256-3.258-4.885-7.234-4.885-11.941V308.412c0-8.684-1.721-16.91-5.155-24.695
		c-3.443-7.777-8.058-14.562-13.841-20.354c-5.792-5.783-12.577-10.313-20.354-13.569c-7.785-3.256-16.012-4.885-24.695-4.885
		s-16.825,1.628-24.425,4.885c-7.599,3.256-14.297,7.599-20.082,13.026c-5.792,5.427-10.312,11.856-13.568,19.268
		c-3.257,7.421-5.071,15.291-5.428,23.61v150.887c0,5.07-1.544,9.141-4.614,12.211c-3.077,3.078-7.148,4.615-12.211,4.615
		c-4.707,0-8.6-1.629-11.67-4.885c-3.078-3.258-4.8-7.234-5.155-11.941V143.414z"/>
	<path d="M514.927,170.009c0-8.684-1.628-16.91-4.885-24.695c-3.258-7.776-7.784-14.561-13.569-20.354
		c-5.791-5.784-12.575-10.397-20.353-13.84c-7.785-3.434-16.011-5.156-24.696-5.156c-4.706,0-8.685-1.629-11.939-4.885
		c-3.258-3.256-4.885-7.234-4.885-11.941c0-4.699,1.713-8.684,5.155-11.94c3.435-3.256,8.048-4.885,13.84-4.885
		c13.027,0,25.323,2.714,36.907,8.141c11.578,5.428,21.711,12.577,30.396,21.439c8.685,8.871,15.469,19.182,20.354,30.937
		c4.885,11.762,7.327,24.153,7.327,37.179v113.437h30.395c4.697,0,8.684,1.628,11.94,4.885c3.257,3.256,4.886,7.243,4.886,11.941
		c0,4.706-1.629,8.683-4.886,11.941c-3.257,3.254-7.243,4.885-11.94,4.885h-30.395V429.99c0,13.391-2.535,26.053-7.6,37.994
		c-5.07,11.939-12.032,22.336-20.895,31.207c-8.871,8.863-19.185,15.826-30.938,20.896c-11.762,5.063-24.339,7.6-37.722,7.6
		c-4.706,0-8.685-1.629-11.939-4.885c-3.258-3.256-4.885-7.244-4.885-11.943c0-4.703,1.627-8.682,4.885-11.938
		c3.255-3.258,7.233-4.885,11.939-4.885c8.686,0,16.911-1.721,24.696-5.156c7.777-3.443,14.562-8.057,20.353-13.842
		c5.785-5.783,10.312-12.568,13.569-20.352c3.257-7.777,4.885-16.012,4.885-24.697V170.009z"/>
</g>
<g>
</g>
<g>
</g>
<g>
</g>
<g>
</g>
<g>
</g>
<g>
</g>
</svg>
