<?xml version="1.0" standalone="no"?><!DOCTYPE svg PUBLIC "-//W3C//DTD SVG 1.1//EN" "http://www.w3.org/Graphics/SVG/1.1/DTD/svg11.dtd"><svg width="100%" height="100%" viewBox="0 0 500 500" version="1.1" xmlns="http://www.w3.org/2000/svg" xmlns:xlink="http://www.w3.org/1999/xlink" xml:space="preserve" style="fill-rule:evenodd;clip-rule:evenodd;stroke-linejoin:round;stroke-miterlimit:1.41421;"><path d="M194.05,92.683c7.24,-35.579 40.438,-70.469 52.275,-79.73c-18.788,33.244 -14.251,68.792 -7.013,92.982c2.899,-0.19 5.823,-0.286 8.77,-0.286c73.104,0 132.456,59.351 132.456,132.456c0,72.014 -57.595,130.682 -129.194,132.416c-10.112,64.563 -65.022,114.355 -131.882,116.526l0,-280.69c4.932,-20.015 14.418,-38.246 27.296,-53.527c-12.665,-27.055 -10.2,-64.979 -7.66,-76.944c4.275,23.059 17.126,40.261 30.695,52.494c-10.277,-34.298 1.009,-79.592 6.614,-93.239c0.064,22.65 7.661,41.948 17.643,57.542Z" style="fill:#458d4e;"/><circle cx="256.647" cy="241.303" r="76.792" style="fill:#e3e3e3;"/><path d="M380.538,238.05l0,0.055c0,71.485 -56.752,129.819 -127.619,132.368l0,-132.423l127.619,0Z" style="fill:#ef8c51;"/><circle cx="263.011" cy="198.905" r="10.114" style="fill:#000;"/></svg>