<?xml version="1.0" standalone="no"?><!DOCTYPE svg PUBLIC "-//W3C//DTD SVG 1.1//EN" "http://www.w3.org/Graphics/SVG/1.1/DTD/svg11.dtd"><svg width="100%" height="100%" viewBox="0 0 2022 2022" version="1.1" xmlns="http://www.w3.org/2000/svg" xmlns:xlink="http://www.w3.org/1999/xlink" xml:space="preserve" style="fill-rule:evenodd;clip-rule:evenodd;stroke-linejoin:round;stroke-miterlimit:1.41421;"><g><path d="M1516.29,758.146c0,-418.675 -339.455,-758.146 -758.138,-758.146c-418.675,0 -758.146,339.471 -758.146,758.146c0,418.675 339.471,758.129 758.146,758.129c418.683,0 758.138,-339.454 758.138,-758.129ZM758.15,1326.73c-313.55,0 -568.604,-255.033 -568.604,-568.583c0,-313.55 255.054,-568.604 568.604,-568.604c313.542,0 568.617,255.054 568.617,568.604c0,313.55 -255.075,568.583 -568.617,568.583Z" style="fill:#666;fill-rule:nonzero;"/><path d="M1966.17,1698.2l-463.812,-463.85c-69.109,107.479 -160.567,198.891 -268.046,268.004l463.85,463.85c74.05,74.033 194.112,74.033 268.004,0c74.054,-73.912 74.054,-193.975 0.004,-268.004Z" style="fill:#666;fill-rule:nonzero;"/></g></svg>